<svg id="logo" xmlns="http://www.w3.org/2000/svg" width="408.681" height="220.317" viewBox="0 0 408.681 220.317">
  <g id="グループ_8" data-name="グループ 8" transform="translate(0 0)">
    <path id="パス_3" data-name="パス 3" d="M1118.5,847.055l1.233-3.183a38,38,0,0,0,17.4-10.728,85.343,85.343,0,0,0,16.03-23.972h1.644q-.408,6.054-.722,13.808t-.408,17.3h32.663v1.439l-2.154,5.338h-30.816l-1.2,48.6c.14,19.166.814,28.383,2.568,34.079,1.833,5.962,7.415,11.426,16.237,11.426a26.178,26.178,0,0,0,17.307-7.148l2.336,2.825c-3.259,4.073-11.243,10.588-21.016,11.341-10.9.838-22.1-3.1-28.7-12.832-3.809-5.612-5.16-14.338-5.16-23.854l1.027-64.441Z" transform="translate(-781.943 -766.666)" fill="#32667a"/>
    <path id="パス_4" data-name="パス 4" d="M877.787,840.3c-.82,29.021-1.032,54.705-17.679,74.958-13.644,16.6-31.413,24.931-53.754,25.5a91.8,91.8,0,0,1-36.967-6.632,64.538,64.538,0,0,1-25.04-18.5A72.169,72.169,0,0,1,730.5,886.692c-2.553-11.274-3.655-27.386-3.655-51.463.139-8.181.206-29.448.206-34.786V776.706q0-7.189-2.823-11.148c-1.882-2.628-4.944-4.537-9.189-5.7v-1.643h1.233q13.55.816,19.814.821c3.491,0,15.508-.2,23.516-.615,1.642-.133,2.837-.206,3.593-.206v1.643q-6.369,1.341-9.188,5.287c-1.885,2.639-2.709,6.142-2.825,11.559-.691,32.336-.691,48.017.07,83.335.261,12.11,1.872,23.323,3.514,29.758q5.062,20.7,19.283,32.036c9.48,7.542,21.2,11.419,35.223,11.3,21.212-.183,37.252-8.956,47.85-23.306,13.583-18.39,13.393-41.7,13.9-64.7.269-12.128.062-25.26.062-25.26q0-35.447-3.8-45.469a25.281,25.281,0,0,0-13.86-14.537v-1.642q5.752.413,10.626.615t8.778.206c4.106,0,9.367-.072,12.994-.206s7.121-.339,10.472-.615v1.642q-10.571,4.421-14.578,16.026t-4,43.979l.07,20.432" transform="translate(-715.04 -758.217)" fill="#32667a"/>
    <path id="パス_5" data-name="パス 5" d="M1055.023,849.739c-11.753-9.809-31-13.622-47.168-13.758a179.607,179.607,0,0,0-24.831,1.573,327.808,327.808,0,0,0-36.267,7.21c-1.108.274-3.159.865-4.02,1.088a87.091,87.091,0,0,1-9.36,2.054l.029,1.644c4.251.41,7.7,1.539,9.31,3.389s2.46,5.779,2.563,11.8l.871,81.514q.466,27.209-2.182,34.494a13.954,13.954,0,0,1-10.107,9.239l.024,1.438q7.594-.307,12.826-.461t8.415-.154q5.545,0,11.347.154t11.762.461l-.025-1.438q-9.178-2.264-12.476-9.188a21.827,21.827,0,0,1-1.505-6.662,23.669,23.669,0,0,1,8.626-20.8c8.412-6.826,19.293-9.57,32.171-10.743,18.124-1.655,35.671-6.227,48-15.219A49.471,49.471,0,0,0,1073.746,888C1074,871.406,1066.771,859.543,1055.023,849.739Zm-21.886,78.941c-6.409,3.623-15.419,5.955-27.7,7.356-22.645,2.584-37,7.771-42.9,20.366,0-.077-1.974-107.941-1.974-107.941,10.676-3.819,28.951-7.3,43.847-6.867,15.15.439,27.323,5.27,35.6,12.341a44.335,44.335,0,0,1,15.446,34.56C1055.031,904.372,1048.974,919.727,1033.137,928.68Z" transform="translate(-751.246 -771.111)" fill="#32667a"/>
  </g>
</svg>
