<?xml version="1.0" encoding="utf-8"?>
<!-- Generator: Adobe Illustrator 25.4.1, SVG Export Plug-In . SVG Version: 6.00 Build 0)  -->
<svg version="1.1" id="レイヤー_1" xmlns="http://www.w3.org/2000/svg" xmlns:xlink="http://www.w3.org/1999/xlink" x="0px"
	 y="0px" viewBox="0 0 375 103.7" style="enable-background:new 0 0 375 103.7;" xml:space="preserve">
<style type="text/css">
	.st0{fill:#F7F8F8;}
	.st1{fill:none;stroke:#32667A;stroke-miterlimit:10;}
</style>
<path id="パス_422" class="st0" d="M-80.5,95.2c44.6,0,44.6,7.1,89.3,7.1s44.6-7.1,89.3-7.1s44.6,7.1,89.3,7.1s44.6-7.1,89.3-7.1
	s44.6,7.1,89.3,7.1s44.6-7.1,89.3-7.1c0.6,0.1,0-109.6,0-109.6H-80.5L-80.5,95.2z"/>
<path id="パス_15" class="st1" d="M-80.3,95.2c44.6,0,44.6,7.1,89.3,7.1s44.6-7.1,89.3-7.1s44.6,7.1,89.3,7.1s44.6-7.1,89.3-7.1
	s44.6,7.1,89.3,7.1s44.6-7.1,89.3-7.1"/>
</svg>
