<?xml version="1.0" encoding="utf-8"?>
<!-- Generator: Adobe Illustrator 25.4.1, SVG Export Plug-In . SVG Version: 6.00 Build 0)  -->
<svg version="1.1" id="レイヤー_2_00000053517534487128073240000018225563325327564716_"
	 xmlns="http://www.w3.org/2000/svg" xmlns:xlink="http://www.w3.org/1999/xlink" x="0px" y="0px" viewBox="0 0 51 42"
	 style="enable-background:new 0 0 51 42;" xml:space="preserve">
<style type="text/css">
	.st0{fill:#32667A;}
</style>
<g id="XMLID_00000092448231652790968950000007225342799020174226_">
	<g>
		<g id="XMLID_00000170237902620953552200000006445678613557665211_">
			<path id="XMLID_00000116920978488806305710000000385558965145797517_" class="st0" d="M14.5,39.6c17.4,0,26.9-14.4,26.9-26.9
				c0-0.4,0-0.8,0-1.2c1.8-1.3,3.4-3,4.7-4.9c-1.7,0.8-3.5,1.3-5.4,1.5c2-1.2,3.4-3,4.2-5.2c-1.8,1.1-3.8,1.9-6,2.3
				c-1.7-1.8-4.2-3-6.9-3c-5.2,0-9.5,4.2-9.5,9.4c0,0.7,0.1,1.5,0.2,2.2C14.8,13.4,7.9,9.6,3.2,3.9c-0.8,1.4-1.3,3-1.3,4.8
				c0,3.3,1.7,6.2,4.2,7.9c-1.5,0-3-0.5-4.3-1.2v0.1c0,4.6,3.3,8.4,7.6,9.3C8.6,24.9,7.8,25,6.9,25c-0.6,0-1.2-0.1-1.8-0.2
				c1.2,3.8,4.7,6.5,8.8,6.6c-3.2,2.5-7.3,4-11.7,4c-0.8,0-1.5,0-2.3-0.1C4.2,38,9.1,39.6,14.5,39.6"/>
		</g>
	</g>
</g>
</svg>
