<svg xmlns="http://www.w3.org/2000/svg" width="21.663" height="20" viewBox="0 0 21.663 20">
  <path id="パス_12" data-name="パス 12" d="M-438.528,2830.921a2.1,2.1,0,0,0-1.631-.771H-454.5l-.331-1.948h-4.885v1.455h3.656l1.809,10.652a2.142,2.142,0,0,0-1.111,1.871,2.15,2.15,0,0,0,2.149,2.147h.451a2.406,2.406,0,0,0-.492,1.449,2.428,2.428,0,0,0,2.424,2.426,2.429,2.429,0,0,0,2.426-2.426,2.4,2.4,0,0,0-.493-1.449h2.843a2.406,2.406,0,0,0-.492,1.449,2.428,2.428,0,0,0,2.425,2.426,2.428,2.428,0,0,0,2.425-2.426,2.4,2.4,0,0,0-.493-1.449h1.458v-1.455h-12.483a.694.694,0,0,1-.693-.693.694.694,0,0,1,.693-.694h11.415a2.374,2.374,0,0,0,2.32-1.9l1.383-6.91A2.107,2.107,0,0,0-438.528,2830.921Zm-5.588,13.884a.973.973,0,0,1,.971.971.973.973,0,0,1-.971.971.972.972,0,0,1-.971-.971A.972.972,0,0,1-444.116,2844.8Zm-6.709,0a.972.972,0,0,1,.971.971.972.972,0,0,1-.971.971.972.972,0,0,1-.97-.971A.972.972,0,0,1-450.825,2844.8Zm11.172-12.961a.647.647,0,0,1,.136.543l-.279,1.394h-3.834V2831.6h3.471A.645.645,0,0,1-439.654,2831.844Zm-9.008,4.847v-1.455h3.575v1.455Zm3.575,1.455v1.885h-3.575v-1.885Zm-5.029-1.455h-3.269l-.247-1.455h3.516Zm1.455-2.91V2831.6h3.575v2.177Zm5.03,1.455h3.543l-.291,1.455h-3.252Zm-6.485-3.631v2.177h-3.763l-.37-2.177Zm-3.022,6.541h3.022v1.885h-2.7Zm11.344,1.885h-1.838v-1.885h2.961l-.231,1.153A.913.913,0,0,1-441.793,2840.03Z" transform="translate(459.712 -2828.202)" fill="#32667a"/>
</svg>
