<svg xmlns="http://www.w3.org/2000/svg" width="80.301" height="43.29" viewBox="0 0 80.301 43.29">
  <g id="logo" transform="translate(0)">
    <g id="グループ_8" data-name="グループ 8" transform="translate(0 0)">
      <path id="パス_3" data-name="パス 3" d="M1118.5,816.615l.242-.625a7.467,7.467,0,0,0,3.419-2.108,16.773,16.773,0,0,0,3.15-4.71h.323q-.08,1.189-.142,2.713t-.08,3.4h6.418v.283l-.423,1.049h-6.055l-.235,9.55c.027,3.766.16,5.577.5,6.7a3.212,3.212,0,0,0,3.19,2.245,5.144,5.144,0,0,0,3.4-1.4l.459.555a6.333,6.333,0,0,1-4.129,2.229,6.1,6.1,0,0,1-5.639-2.521,8.674,8.674,0,0,1-1.014-4.687l.2-12.662Z" transform="translate(-1052.373 -800.82)" fill="#f7f8f8"/>
      <path id="パス_4" data-name="パス 4" d="M747.018,774.346c-.161,5.7-.2,10.749-3.474,14.728a13.4,13.4,0,0,1-10.562,5.011,18.036,18.036,0,0,1-7.264-1.3,12.682,12.682,0,0,1-4.92-3.636,14.181,14.181,0,0,1-2.721-5.686,48.928,48.928,0,0,1-.718-10.112c.027-1.607.041-5.786.041-6.835V761.85a3.725,3.725,0,0,0-.555-2.19,3.143,3.143,0,0,0-1.805-1.12v-.323h.242q2.662.16,3.893.161c.686,0,3.047-.04,4.621-.121.323-.026.557-.04.706-.04v.323a2.825,2.825,0,0,0-1.805,1.039,3.911,3.911,0,0,0-.555,2.271c-.136,6.354-.136,9.435.014,16.374a28.4,28.4,0,0,0,.69,5.847,11.129,11.129,0,0,0,3.789,6.295,10.624,10.624,0,0,0,6.921,2.22,11.292,11.292,0,0,0,9.4-4.579c2.669-3.613,2.632-8.193,2.732-12.712.053-2.383.012-4.963.012-4.963q0-6.965-.746-8.934a4.967,4.967,0,0,0-2.723-2.856v-.323q1.13.081,2.088.121t1.725.041c.807,0,1.841-.014,2.553-.041s1.4-.067,2.058-.121v.323a4.992,4.992,0,0,0-2.865,3.149q-.787,2.281-.787,8.641l.014,4.015" transform="translate(-715.04 -758.217)" fill="#f7f8f8"/>
      <path id="パス_5" data-name="パス 5" d="M957.279,838.68c-2.309-1.927-6.092-2.677-9.268-2.7a35.258,35.258,0,0,0-4.879.309,64.358,64.358,0,0,0-7.126,1.417c-.218.054-.621.17-.79.214a17.109,17.109,0,0,1-1.839.4l.006.323a2.871,2.871,0,0,1,1.829.666,3.929,3.929,0,0,1,.5,2.319l.171,16.016q.092,5.346-.429,6.778a2.742,2.742,0,0,1-1.986,1.815l0,.283q1.492-.06,2.52-.091t1.653-.03q1.089,0,2.229.03t2.311.091l0-.283a3.423,3.423,0,0,1-2.451-1.805,4.29,4.29,0,0,1-.3-1.309,4.651,4.651,0,0,1,1.695-4.086,11.337,11.337,0,0,1,6.321-2.111c3.561-.325,7.009-1.224,9.43-2.99a9.72,9.72,0,0,0,4.072-7.739A9.138,9.138,0,0,0,957.279,838.68Zm-4.3,15.511a14.6,14.6,0,0,1-5.442,1.445c-4.449.508-7.271,1.527-8.43,4,0-.015-.388-21.209-.388-21.209a26.67,26.67,0,0,1,8.615-1.349,11.149,11.149,0,0,1,6.994,2.425,8.712,8.712,0,0,1,3.035,6.791A8.837,8.837,0,0,1,952.979,854.191Z" transform="translate(-897.591 -823.23)" fill="#f7f8f8"/>
    </g>
  </g>
</svg>
