<svg id="グループ_76" data-name="グループ 76" xmlns="http://www.w3.org/2000/svg" width="49.789" height="26.841" viewBox="0 0 49.789 26.841">
  <g id="グループ_8" data-name="グループ 8" transform="translate(0 0)">
    <path id="パス_3" data-name="パス 3" d="M1118.5,813.787l.15-.388a4.63,4.63,0,0,0,2.12-1.307,10.4,10.4,0,0,0,1.953-2.92h.2q-.05.738-.088,1.682t-.05,2.107h3.979v.175l-.262.65h-3.754l-.146,5.921a16.618,16.618,0,0,0,.313,4.152,1.992,1.992,0,0,0,1.978,1.392,3.189,3.189,0,0,0,2.108-.871l.285.344a3.927,3.927,0,0,1-2.56,1.382,3.781,3.781,0,0,1-3.5-1.563,5.379,5.379,0,0,1-.629-2.906l.125-7.851Z" transform="translate(-1077.5 -803.993)" fill="#32667a"/>
    <path id="パス_4" data-name="パス 4" d="M734.867,768.217c-.1,3.536-.126,6.665-2.154,9.132a8.311,8.311,0,0,1-6.549,3.107,11.182,11.182,0,0,1-4.5-.808,7.863,7.863,0,0,1-3.051-2.254,8.794,8.794,0,0,1-1.687-3.526,30.339,30.339,0,0,1-.445-6.27c.017-1,.025-3.588.025-4.238v-2.892a2.311,2.311,0,0,0-.344-1.358,1.949,1.949,0,0,0-1.119-.694v-.2h.15q1.651.1,2.414.1c.425,0,1.889-.025,2.865-.075.2-.016.346-.025.438-.025v.2a1.752,1.752,0,0,0-1.119.644,2.425,2.425,0,0,0-.344,1.408c-.084,3.939-.084,5.85.009,10.153a17.607,17.607,0,0,0,.428,3.625,6.9,6.9,0,0,0,2.349,3.9,6.587,6.587,0,0,0,4.291,1.376,7,7,0,0,0,5.829-2.839c1.655-2.24,1.632-5.08,1.694-7.882.033-1.477.008-3.077.008-3.077a19.979,19.979,0,0,0-.463-5.539,3.08,3.08,0,0,0-1.689-1.771v-.2q.7.05,1.294.075t1.069.025c.5,0,1.141-.009,1.583-.025s.868-.041,1.276-.075v.2a3.1,3.1,0,0,0-1.776,1.953,19.273,19.273,0,0,0-.488,5.358l.008,2.489" transform="translate(-715.04 -758.217)" fill="#32667a"/>
    <path id="パス_5" data-name="パス 5" d="M948.2,837.652a9.553,9.553,0,0,0-5.746-1.676,21.869,21.869,0,0,0-3.025.192,39.94,39.94,0,0,0-4.418.878c-.135.033-.385.105-.49.133a10.6,10.6,0,0,1-1.14.25l0,.2a1.78,1.78,0,0,1,1.134.413,2.437,2.437,0,0,1,.312,1.438l.106,9.931a15.393,15.393,0,0,1-.266,4.2,1.7,1.7,0,0,1-1.231,1.126l0,.175q.925-.037,1.563-.056t1.025-.019q.675,0,1.382.019t1.433.056l0-.175a2.122,2.122,0,0,1-1.52-1.119,2.66,2.66,0,0,1-.183-.812,2.884,2.884,0,0,1,1.051-2.534,7.029,7.029,0,0,1,3.919-1.309,11.941,11.941,0,0,0,5.847-1.854,6.027,6.027,0,0,0,2.525-4.8A5.666,5.666,0,0,0,948.2,837.652Zm-2.666,9.617a9.053,9.053,0,0,1-3.374.9c-2.759.315-4.508.947-5.227,2.481,0-.009-.24-13.15-.24-13.15a16.535,16.535,0,0,1,5.342-.837,6.913,6.913,0,0,1,4.336,1.5,5.4,5.4,0,0,1,1.882,4.21A5.479,5.479,0,0,1,945.531,847.269Z" transform="translate(-911.188 -828.073)" fill="#32667a"/>
  </g>
</svg>
