<?xml version="1.0" encoding="utf-8"?>
<!-- Generator: Adobe Illustrator 25.4.1, SVG Export Plug-In . SVG Version: 6.00 Build 0)  -->
<svg version="1.1" id="レイヤー_1" xmlns="http://www.w3.org/2000/svg" xmlns:xlink="http://www.w3.org/1999/xlink" x="0px"
	 y="0px" viewBox="0 0 109 66" style="enable-background:new 0 0 109 66;" xml:space="preserve">
<style type="text/css">
	.st0{fill:#32667A;}
</style>
<g>
	<path class="st0" d="M85.3,65.6c-7.2,0-13.1-5.9-13.1-13.1c0-0.6,0.1-1.3,0.2-2H31.9c0.1,0.7,0.2,1.3,0.2,2
		c0,7.2-5.9,13.1-13.1,13.1S5.9,59.7,5.9,52.5c0-0.6,0.1-1.3,0.2-2h-5c-0.6,0-1-0.4-1-1V38.2c0-0.6,0.4-1,1-1h0.3v-9.8
		c0-0.1,0-0.2,0-0.3L7.8,7.5c0.6-1.7,2.2-2.9,4-2.9h26.7c2.3,0,4.2,1.9,4.2,4.2v28.3h65.3c0.6,0,1,0.4,1,1v11.3c0,0.6-0.4,1-1,1
		h-9.7c0.1,0.7,0.2,1.3,0.2,2C98.4,59.7,92.5,65.6,85.3,65.6z M30.7,48.5h42.9c0.3,0,0.6,0.1,0.8,0.4c0.2,0.2,0.3,0.6,0.2,0.9
		c-0.2,0.9-0.4,1.8-0.4,2.7c0,6.1,5,11.1,11.1,11.1s11.1-5,11.1-11.1c0-0.9-0.1-1.8-0.4-2.7c-0.1-0.3,0-0.6,0.2-0.9
		c0.2-0.2,0.5-0.4,0.8-0.4h9.9v-9.3H41.7c-0.6,0-1-0.4-1-1V8.8c0-1.2-1-2.2-2.2-2.2H11.8c-1,0-1.8,0.6-2.1,1.5L3.4,27.5v10.7
		c0,0.6-0.4,1-1,1H2.1v9.3h5.2c0.3,0,0.6,0.1,0.8,0.4s0.3,0.6,0.2,0.9c-0.2,0.9-0.4,1.8-0.4,2.7c0,6.1,5,11.1,11.1,11.1
		s11.1-5,11.1-11.1c0-0.9-0.1-1.8-0.4-2.7c-0.1-0.3,0-0.6,0.2-0.9S30.4,48.5,30.7,48.5z M85.3,59.8c-4,0-7.3-3.3-7.3-7.3
		c0-4,3.3-7.3,7.3-7.3c4,0,7.3,3.3,7.3,7.3C92.6,56.5,89.3,59.8,85.3,59.8z M85.3,47.2c-2.9,0-5.3,2.4-5.3,5.3s2.4,5.3,5.3,5.3
		s5.3-2.4,5.3-5.3S88.2,47.2,85.3,47.2z M19,59.8c-4,0-7.3-3.3-7.3-7.3c0-4,3.3-7.3,7.3-7.3c4,0,7.3,3.3,7.3,7.3
		C26.3,56.5,23,59.8,19,59.8z M19,47.2c-2.9,0-5.3,2.4-5.3,5.3s2.4,5.3,5.3,5.3s5.3-2.4,5.3-5.3S21.9,47.2,19,47.2z M26.9,27.4H7.5
		c-0.3,0-0.6-0.2-0.8-0.4c-0.2-0.3-0.2-0.6-0.1-0.9l5.1-15.2c0.1-0.4,0.5-0.7,0.9-0.7h23.5c0.6,0,1,0.4,1,1v6.2
		c0,0.3-0.1,0.5-0.3,0.7l-9.1,9C27.5,27.3,27.2,27.4,26.9,27.4z M8.9,25.4h17.7l8.5-8.4v-4.7H13.2L8.9,25.4z M36.1,17.4L36.1,17.4
		L36.1,17.4z"/>
	<path class="st0" d="M104.5,39.1c-0.6,0-1-0.4-1-1v-34c0-0.9-0.7-1.6-1.6-1.6H50.2c-0.9,0-1.6,0.7-1.6,1.6v34c0,0.6-0.4,1-1,1
		s-1-0.4-1-1v-34c0-2,1.6-3.6,3.6-3.6h51.7c2,0,3.6,1.6,3.6,3.6v34C105.5,38.6,105.1,39.1,104.5,39.1z"/>
</g>
</svg>
