<?xml version="1.0" encoding="utf-8"?>
<!-- Generator: Adobe Illustrator 25.4.1, SVG Export Plug-In . SVG Version: 6.00 Build 0)  -->
<svg version="1.1" id="レイヤー_1" xmlns="http://www.w3.org/2000/svg" xmlns:xlink="http://www.w3.org/1999/xlink" x="0px"
	 y="0px" viewBox="0 0 109 89" style="enable-background:new 0 0 109 89;" xml:space="preserve">
<style type="text/css">
	.st0{fill:#32667A;}
</style>
<g>
	<g>
		<g>
			<path class="st0" d="M28.8,39.7v-1.8l7.7-7.4c0.7-0.6,1.2-1.2,1.5-1.7c0.3-0.5,0.6-0.9,0.7-1.4c0.1-0.4,0.2-0.8,0.2-1.2
				c0-1-0.3-1.7-1-2.3c-0.7-0.6-1.7-0.8-3-0.8c-1,0-1.9,0.2-2.7,0.5c-0.8,0.3-1.5,0.8-2.1,1.5l-1.8-1.6c0.7-0.9,1.7-1.6,2.9-2.1
				c1.2-0.5,2.5-0.7,4-0.7c1.3,0,2.4,0.2,3.4,0.6c1,0.4,1.7,1,2.2,1.8c0.5,0.8,0.8,1.7,0.8,2.8c0,0.6-0.1,1.2-0.2,1.8
				c-0.2,0.6-0.5,1.2-0.9,1.9c-0.4,0.7-1.1,1.4-1.9,2.2l-6.8,6.6l-0.6-1h11.4v2.3H28.8z"/>
			<path class="st0" d="M53,39.9c-1.7,0-3.1-0.4-4.3-1.1c-1.2-0.7-2.1-1.8-2.7-3.2c-0.6-1.4-0.9-3.1-0.9-5.1c0-2.1,0.4-3.9,1.1-5.4
				s1.8-2.6,3.1-3.3c1.3-0.8,2.9-1.1,4.6-1.1c0.9,0,1.8,0.1,2.6,0.3s1.5,0.5,2.1,0.8l-1,2.1c-0.5-0.3-1-0.6-1.7-0.7
				C55.4,23,54.8,23,54.1,23c-1.9,0-3.4,0.6-4.6,1.8c-1.1,1.2-1.7,3-1.7,5.3c0,0.4,0,0.8,0.1,1.3c0,0.5,0.1,1,0.3,1.5L47.2,32
				c0.3-0.8,0.7-1.5,1.3-2.1c0.6-0.6,1.3-1,2.1-1.3s1.7-0.4,2.6-0.4c1.3,0,2.4,0.2,3.3,0.7s1.7,1.1,2.3,2c0.6,0.9,0.8,1.9,0.8,3
				c0,1.2-0.3,2.2-0.9,3.1c-0.6,0.9-1.4,1.6-2.4,2.1C55.4,39.6,54.3,39.9,53,39.9z M52.9,37.7c0.8,0,1.5-0.2,2.2-0.5
				s1.1-0.7,1.5-1.3c0.4-0.5,0.5-1.2,0.5-1.9c0-1.1-0.4-2-1.2-2.6c-0.8-0.7-1.8-1-3.1-1c-0.9,0-1.6,0.2-2.3,0.5
				c-0.6,0.3-1.2,0.8-1.5,1.3c-0.4,0.5-0.6,1.2-0.6,1.9c0,0.6,0.2,1.2,0.5,1.8c0.3,0.5,0.8,1,1.5,1.3C51.1,37.5,52,37.7,52.9,37.7z"
				/>
			<path class="st0" d="M65.9,31c-0.9,0-1.6-0.2-2.3-0.6c-0.7-0.4-1.2-1-1.5-1.8c-0.4-0.8-0.6-1.7-0.6-2.7c0-1,0.2-1.9,0.6-2.7
				c0.4-0.8,0.9-1.4,1.5-1.8c0.7-0.4,1.4-0.6,2.3-0.6c0.9,0,1.6,0.2,2.3,0.6c0.7,0.4,1.2,1,1.5,1.8c0.4,0.8,0.5,1.7,0.5,2.7
				c0,1-0.2,1.9-0.5,2.7c-0.4,0.8-0.9,1.4-1.5,1.8C67.6,30.7,66.8,31,65.9,31z M65.9,29.4c0.8,0,1.4-0.3,1.9-1
				c0.5-0.6,0.7-1.5,0.7-2.6c0-1.1-0.2-2-0.7-2.6c-0.5-0.6-1.1-1-1.9-1c-0.8,0-1.5,0.3-1.9,1c-0.5,0.6-0.7,1.5-0.7,2.6
				c0,1.1,0.2,2,0.7,2.6C64.5,29.1,65.1,29.4,65.9,29.4z M64.4,39.7l12.8-18.8h2.1L66.5,39.7H64.4z M77.8,39.8
				c-0.9,0-1.6-0.2-2.3-0.6c-0.7-0.4-1.2-1-1.5-1.8c-0.4-0.8-0.5-1.7-0.5-2.7s0.2-1.9,0.5-2.7c0.4-0.8,0.9-1.4,1.5-1.8
				c0.7-0.4,1.4-0.6,2.3-0.6c0.9,0,1.6,0.2,2.3,0.6c0.7,0.4,1.2,1,1.5,1.8c0.4,0.8,0.6,1.7,0.6,2.7s-0.2,1.9-0.6,2.7
				c-0.4,0.8-0.9,1.4-1.5,1.8C79.5,39.6,78.7,39.8,77.8,39.8z M77.8,38.3c0.8,0,1.4-0.3,1.9-1c0.5-0.6,0.7-1.5,0.7-2.6
				c0-1.1-0.2-2-0.7-2.6c-0.5-0.6-1.1-1-1.9-1s-1.4,0.3-1.9,1s-0.7,1.5-0.7,2.6s0.2,2,0.7,2.6C76.4,38,77,38.3,77.8,38.3z"/>
		</g>
	</g>
	<g>
		<g>
			<path class="st0" d="M39.9,60.6c-1.2,0-2.2-0.2-3.2-0.6c-1-0.4-1.8-0.9-2.6-1.6c-0.7-0.7-1.3-1.5-1.7-2.5c-0.4-0.9-0.6-2-0.6-3.1
				s0.2-2.1,0.6-3.1c0.4-0.9,1-1.8,1.7-2.5c0.7-0.7,1.6-1.2,2.6-1.6c1-0.4,2.1-0.6,3.2-0.6c1.2,0,2.2,0.2,3.2,0.6
				c1,0.4,1.8,0.9,2.6,1.6c0.7,0.7,1.3,1.5,1.7,2.5c0.4,0.9,0.6,2,0.6,3.1c0,1.1-0.2,2.2-0.6,3.1c-0.4,0.9-1,1.8-1.7,2.5
				s-1.6,1.2-2.6,1.6C42.2,60.4,41.1,60.6,39.9,60.6z M39.9,58.7c0.9,0,1.6-0.1,2.4-0.4c0.7-0.3,1.3-0.7,1.9-1.2
				c0.5-0.5,0.9-1.1,1.2-1.9c0.3-0.7,0.4-1.5,0.4-2.3s-0.1-1.6-0.4-2.3c-0.3-0.7-0.7-1.3-1.2-1.9c-0.5-0.5-1.1-0.9-1.9-1.2
				c-0.7-0.3-1.5-0.4-2.4-0.4c-0.8,0-1.6,0.1-2.3,0.4c-0.7,0.3-1.3,0.7-1.9,1.2c-0.5,0.5-1,1.2-1.2,1.9C34.2,51.2,34,52,34,52.9
				s0.1,1.6,0.4,2.3c0.3,0.7,0.7,1.3,1.2,1.9c0.5,0.5,1.2,0.9,1.9,1.2C38.3,58.5,39.1,58.7,39.9,58.7z"/>
			<path class="st0" d="M54,60.4h-2.2V45.3h10.7v1.9H54V60.4z M53.8,52.4h7.8v1.9h-7.8V52.4z"/>
			<path class="st0" d="M68.3,60.4h-2.2V45.3h10.7v1.9h-8.5V60.4z M68.1,52.4h7.8v1.9h-7.8V52.4z"/>
		</g>
	</g>
	<path class="st0" d="M54.5,88.6c-0.2,0-0.4-0.1-0.5-0.2l-51-33c-0.4-0.2-0.5-0.7-0.4-1.1c0.1-0.4,0.5-0.7,1-0.7H15c0.6,0,1,0.4,1,1
		s-0.4,1-1,1H6.9l47.6,30.8l47.6-30.8H94c-0.6,0-1-0.4-1-1V33.3c0-0.6,0.4-1,1-1s1,0.4,1,1v20.3h10.5c0.4,0,0.8,0.3,1,0.7
		c0.1,0.4,0,0.9-0.4,1.1l-51,33C54.9,88.6,54.7,88.6,54.5,88.6z"/>
	<path class="st0" d="M15,31.7c-0.6,0-1-0.4-1-1V1.4c0-0.6,0.4-1,1-1H94c0.6,0,1,0.4,1,1v12.9c0,0.6-0.4,1-1,1s-1-0.4-1-1V2.4H16
		v28.4C16,31.3,15.6,31.7,15,31.7z"/>
</g>
</svg>
