<?xml version="1.0" encoding="utf-8"?>
<!-- Generator: Adobe Illustrator 25.4.1, SVG Export Plug-In . SVG Version: 6.00 Build 0)  -->
<svg version="1.1" id="レイヤー_1" xmlns="http://www.w3.org/2000/svg" xmlns:xlink="http://www.w3.org/1999/xlink" x="0px"
	 y="0px" viewBox="0 0 182 150" style="enable-background:new 0 0 182 150;" xml:space="preserve">
<style type="text/css">
	.st0{fill:#FF583B;}
</style>
<path class="st0" d="M169.7,63.9C169.7,28.7,134.4,0,91,0C47.6,0,12.3,28.7,12.3,63.9c0,31.6,28,58,65.8,63c2.6,0.6,6.1,1.7,6.9,3.9
	c0.8,2,0.5,5.1,0.3,7.1c0,0-0.9,5.6-1.1,6.7c-0.3,2-1.6,7.8,6.8,4.2c8.4-3.5,45.3-26.7,61.8-45.7h0C164.2,90.7,169.7,78,169.7,63.9z
	 M63.2,82.7c0,0.8-0.7,1.5-1.5,1.5H39.6h0c-0.8,0-1.5-0.7-1.5-1.5v0v0V48.4c0-0.8,0.7-1.5,1.5-1.5h5.6c0.8,0,1.5,0.7,1.5,1.5v27.3
	h15c0.8,0,1.5,0.7,1.5,1.5V82.7z M76.5,82.7c0,0.8-0.7,1.5-1.5,1.5h-5.6c-0.8,0-1.5-0.7-1.5-1.5V48.4c0-0.8,0.7-1.5,1.5-1.5H75
	c0.8,0,1.5,0.7,1.5,1.5V82.7z M114.5,82.7c0,0.8-0.7,1.5-1.5,1.5h-5.6c-0.1,0-0.3,0-0.4-0.1c0,0,0,0,0,0c0,0-0.1,0-0.1,0
	c0,0,0,0,0,0c0,0,0,0-0.1,0c0,0,0,0-0.1,0c0,0,0,0,0,0c0,0-0.1,0-0.1-0.1c0,0,0,0,0,0c-0.1-0.1-0.3-0.2-0.4-0.4L90.5,62.3v20.4
	c0,0.8-0.7,1.5-1.5,1.5h-5.6c-0.8,0-1.5-0.7-1.5-1.5V48.4c0-0.8,0.7-1.5,1.5-1.5H89c0,0,0,0,0.1,0c0,0,0.1,0,0.1,0c0,0,0.1,0,0.1,0
	c0,0,0,0,0.1,0c0,0,0.1,0,0.1,0c0,0,0,0,0.1,0c0,0,0.1,0,0.1,0c0,0,0,0,0,0c0,0,0.1,0,0.1,0c0,0,0,0,0,0c0,0,0.1,0,0.1,0
	c0,0,0,0,0,0c0,0,0.1,0,0.1,0.1c0,0,0,0,0,0c0,0,0.1,0,0.1,0.1c0,0,0,0,0,0c0,0,0.1,0.1,0.1,0.1c0,0,0,0,0,0c0,0,0.1,0.1,0.1,0.2
	L106,68.8V48.4c0-0.8,0.7-1.5,1.5-1.5h5.6c0.8,0,1.5,0.7,1.5,1.5V82.7z M145,53.9c0,0.8-0.7,1.5-1.5,1.5h-15v5.8h15
	c0.8,0,1.5,0.7,1.5,1.5v5.6c0,0.8-0.7,1.5-1.5,1.5h-15v5.8h15c0.8,0,1.5,0.7,1.5,1.5v5.6c0,0.8-0.7,1.5-1.5,1.5h-22.1h0
	c-0.8,0-1.5-0.7-1.5-1.5v0v0V48.4v0v0c0-0.8,0.7-1.5,1.5-1.5h0h22.1c0.8,0,1.5,0.7,1.5,1.5V53.9z"/>
</svg>
