<?xml version="1.0" encoding="utf-8"?>
<!-- Generator: Adobe Illustrator 28.0.0, SVG Export Plug-In . SVG Version: 6.00 Build 0)  -->
<svg version="1.1" id="レイヤー_3" xmlns="http://www.w3.org/2000/svg" xmlns:xlink="http://www.w3.org/1999/xlink" x="0px"
	 y="0px" viewBox="0 0 51 42" style="enable-background:new 0 0 51 42;" xml:space="preserve">
<style type="text/css">
	.st0{fill:#898989;}
</style>
<path class="st0" d="M49.5,8.9c-0.6-2.2-2.3-3.9-4.4-4.4c-3.9-1-19.6-1-19.6-1s-15.7,0-19.6,1C3.7,5.1,2,6.8,1.5,8.9
	c-1,3.9-1,12.1-1,12.1s0,8.2,1,12.1c0.6,2.2,2.3,3.9,4.4,4.4c3.9,1,19.6,1,19.6,1s15.7,0,19.6-1c2.2-0.6,3.9-2.3,4.4-4.4
	c1-3.9,1-12.1,1-12.1S50.6,12.8,49.5,8.9z M20.5,28.5v-15l13,7.5L20.5,28.5z"/>
</svg>
