<?xml version="1.0" encoding="utf-8"?>
<!-- Generator: Adobe Illustrator 28.0.0, SVG Export Plug-In . SVG Version: 6.00 Build 0)  -->
<svg version="1.1" id="レイヤー_1" xmlns="http://www.w3.org/2000/svg" xmlns:xlink="http://www.w3.org/1999/xlink" x="0px"
	 y="0px" viewBox="0 0 21.7 20" style="enable-background:new 0 0 21.7 20;" xml:space="preserve">
<style type="text/css">
	.st0{fill:#898989;}
</style>
<path id="パス_12" class="st0" d="M21.2,2.7c-0.4-0.5-1-0.8-1.6-0.8H5.2L4.9,0H0v1.5h3.7l1.8,10.7c-0.7,0.4-1.1,1.1-1.1,1.9
	c0,1.2,1,2.1,2.1,2.1h0.5c-0.3,0.4-0.5,0.9-0.5,1.4c0,1.3,1.1,2.4,2.4,2.4c1.3,0,2.4-1.1,2.4-2.4c0-0.5-0.2-1-0.5-1.4h2.8
	c-0.3,0.4-0.5,0.9-0.5,1.4c0,1.3,1.1,2.4,2.4,2.4c1.3,0,2.4-1.1,2.4-2.4c0-0.5-0.2-1-0.5-1.4H19v-1.5H6.5c-0.4,0-0.7-0.3-0.7-0.7
	c0-0.4,0.3-0.7,0.7-0.7h11.4c1.1,0,2.1-0.8,2.3-1.9l1.4-6.9C21.7,3.9,21.6,3.2,21.2,2.7z M15.6,16.6c0.5,0,1,0.4,1,1
	c0,0.5-0.4,1-1,1c-0.5,0-1-0.4-1-1C14.6,17,15.1,16.6,15.6,16.6C15.6,16.6,15.6,16.6,15.6,16.6L15.6,16.6z M8.9,16.6
	c0.5,0,1,0.4,1,1c0,0.5-0.4,1-1,1c-0.5,0-1-0.4-1-1C7.9,17,8.3,16.6,8.9,16.6C8.9,16.6,8.9,16.6,8.9,16.6L8.9,16.6z M20.1,3.6
	c0.1,0.2,0.2,0.4,0.1,0.5l-0.3,1.4h-3.8V3.4h3.5C19.7,3.4,19.9,3.5,20.1,3.6L20.1,3.6z M11.1,8.5V7h3.6v1.5H11.1z M14.6,9.9v1.9
	h-3.6V9.9H14.6z M9.6,8.5H6.3L6.1,7h3.5L9.6,8.5z M11.1,5.6V3.4h3.6v2.2L11.1,5.6z M16.1,7h3.5l-0.3,1.5h-3.3V7z M9.6,3.4v2.2H5.8
	L5.5,3.4H9.6z M6.6,9.9h3v1.9H6.9L6.6,9.9z M17.9,11.8h-1.8V9.9h3l-0.2,1.2C18.7,11.5,18.4,11.8,17.9,11.8L17.9,11.8z"/>
</svg>
