<?xml version="1.0" encoding="utf-8"?>
<!-- Generator: Adobe Illustrator 25.4.1, SVG Export Plug-In . SVG Version: 6.00 Build 0)  -->
<svg version="1.1" id="レイヤー_1" xmlns="http://www.w3.org/2000/svg" xmlns:xlink="http://www.w3.org/1999/xlink" x="0px"
	 y="0px" viewBox="0 0 182 150" style="enable-background:new 0 0 182 150;" xml:space="preserve">
<style type="text/css">
	.st0{fill:#FF583B;}
</style>
<path class="st0" d="M403.7,63.9C403.7,28.7,368.4,0,325,0c-43.4,0-78.7,28.7-78.7,63.9c0,31.6,28,58,65.8,63
	c2.6,0.6,6.1,1.7,6.9,3.9c0.8,2,0.5,5.1,0.3,7.1c0,0-0.9,5.6-1.1,6.7c-0.3,2-1.6,7.8,6.8,4.2c8.4-3.5,45.3-26.7,61.8-45.7h0
	C398.2,90.7,403.7,78,403.7,63.9z M297.2,82.7c0,0.8-0.7,1.5-1.5,1.5h-22.1h0c-0.8,0-1.5-0.7-1.5-1.5v0v0V48.4
	c0-0.8,0.7-1.5,1.5-1.5h5.6c0.8,0,1.5,0.7,1.5,1.5v27.3h15c0.8,0,1.5,0.7,1.5,1.5V82.7z M310.5,82.7c0,0.8-0.7,1.5-1.5,1.5h-5.6
	c-0.8,0-1.5-0.7-1.5-1.5V48.4c0-0.8,0.7-1.5,1.5-1.5h5.6c0.8,0,1.5,0.7,1.5,1.5V82.7z M348.5,82.7c0,0.8-0.7,1.5-1.5,1.5h-5.6
	c-0.1,0-0.3,0-0.4-0.1c0,0,0,0,0,0c0,0-0.1,0-0.1,0c0,0,0,0,0,0c0,0,0,0-0.1,0c0,0,0,0-0.1,0c0,0,0,0,0,0c0,0-0.1,0-0.1-0.1
	c0,0,0,0,0,0c-0.1-0.1-0.3-0.2-0.4-0.4l-15.7-21.3v20.4c0,0.8-0.7,1.5-1.5,1.5h-5.6c-0.8,0-1.5-0.7-1.5-1.5V48.4
	c0-0.8,0.7-1.5,1.5-1.5h5.6c0,0,0,0,0.1,0c0,0,0.1,0,0.1,0c0,0,0.1,0,0.1,0c0,0,0,0,0.1,0c0,0,0.1,0,0.1,0c0,0,0,0,0.1,0
	c0,0,0.1,0,0.1,0c0,0,0,0,0,0c0,0,0.1,0,0.1,0c0,0,0,0,0,0c0,0,0.1,0,0.1,0c0,0,0,0,0,0c0,0,0.1,0,0.1,0.1c0,0,0,0,0,0
	c0,0,0.1,0,0.1,0.1c0,0,0,0,0,0c0,0,0.1,0.1,0.1,0.1c0,0,0,0,0,0c0,0,0.1,0.1,0.1,0.2L340,68.8V48.4c0-0.8,0.7-1.5,1.5-1.5h5.6
	c0.8,0,1.5,0.7,1.5,1.5V82.7z M379,53.9c0,0.8-0.7,1.5-1.5,1.5h-15v5.8h15c0.8,0,1.5,0.7,1.5,1.5v5.6c0,0.8-0.7,1.5-1.5,1.5h-15v5.8
	h15c0.8,0,1.5,0.7,1.5,1.5v5.6c0,0.8-0.7,1.5-1.5,1.5h-22.1h0c-0.8,0-1.5-0.7-1.5-1.5v0v0V48.4v0v0c0-0.8,0.7-1.5,1.5-1.5h0h22.1
	c0.8,0,1.5,0.7,1.5,1.5V53.9z"/>
<g>
	<path id="XMLID_00000031172358721008514000000003641995369311188876_" class="st0" d="M122.7,0H59.3C35.2,0,16,19.2,16,43.3v63.5
		c0,24,19.2,43.3,43.3,43.3h63.5c24,0,43.3-19.2,43.3-43.3V43.3C166,19.2,146.8,0,122.7,0z M152.1,107.7c0,15.9-13,28.8-28.8,28.8
		H58.8c-15.9,0-28.8-13-28.8-28.8V42.8c0-15.9,13-28.8,28.8-28.8h64.9c15.9,0,28.8,13,28.8,28.8v64.9H152.1z"/>
	<path id="XMLID_00000072971715160996200170000009563500960159414946_" class="st0" d="M91,36.5c-21.6,0-38.9,17.3-38.9,38.9
		s17.3,38.9,38.9,38.9s38.9-17.3,38.9-38.9S112.6,36.5,91,36.5z M91,100.5c-13.9,0-25-11.1-25-25s11.1-25,25-25s25,11.1,25,25
		S104.9,100.5,91,100.5z"/>
	<circle id="XMLID_00000010996313075805420200000000706147725456507277_" class="st0" cx="131.4" cy="35.1" r="9.1"/>
</g>
</svg>
