<?xml version="1.0" encoding="utf-8"?>
<!-- Generator: Adobe Illustrator 25.4.1, SVG Export Plug-In . SVG Version: 6.00 Build 0)  -->
<svg version="1.1" id="レイヤー_1" xmlns="http://www.w3.org/2000/svg" xmlns:xlink="http://www.w3.org/1999/xlink" x="0px"
	 y="0px" viewBox="0 0 182 150" style="enable-background:new 0 0 182 150;" xml:space="preserve">
<style type="text/css">
	.st0{fill:#FF583B;}
</style>
<g id="XMLID_00000183240658220925223520000010814964582831953804_">
	<g id="XMLID_00000023263455601399048600000006011103092528314263_">
		<path id="XMLID_00000031916566770091757250000016203979741653864373_" class="st0" d="M60,142.5c62.5,0,96.6-51.6,96.6-96.6
			c0-1.4,0-2.8,0-4.3c6.6-4.7,12.3-10.9,17.1-17.5c-6.2,2.8-12.8,4.7-19.4,5.2c7.1-4.3,12.3-10.9,15.2-18.9
			c-6.6,3.8-13.7,6.6-21.8,8.1c-6.2-6.6-15.2-10.9-24.6-10.9c-18.9,0-34.1,15.2-34.1,34.1c0,2.8,0.5,5.2,0.9,7.6
			C61.4,47.8,36.3,34,19.7,13.7C16.9,18.9,15,24.6,15,30.7c0,11.8,6.2,22.3,15.2,28.4c-5.7,0-10.9-1.9-15.6-4.3v0.5
			c0,16.6,11.8,30.3,27.5,33.2c-2.8,0.9-5.7,1.4-9,1.4c-2.4,0-4.3,0-6.2-0.5c4.3,13.7,17.1,23.2,31.7,23.7
			c-11.8,9-26.5,14.7-42.2,14.7c-2.8,0-5.7,0-8.1-0.5C23,136.8,41,142.5,60,142.5"/>
	</g>
</g>
</svg>
