<?xml version="1.0" encoding="utf-8"?>
<!-- Generator: Adobe Illustrator 28.0.0, SVG Export Plug-In . SVG Version: 6.00 Build 0)  -->
<svg version="1.1" id="レイヤー_1" xmlns="http://www.w3.org/2000/svg" xmlns:xlink="http://www.w3.org/1999/xlink" x="0px"
	 y="0px" viewBox="0 0 51 42" style="enable-background:new 0 0 51 42;" xml:space="preserve">
<style type="text/css">
	.st0{fill:#898989;}
</style>
<g>
	<g>
		<path id="XMLID_00000002364753491372357430000003441752640537050521_" class="st0" d="M29.7,0.3H12.3C5.8,0.3,0.5,5.6,0.5,12.2
			v17.4c0,6.5,5.3,11.9,11.9,11.9h17.4c6.5,0,11.9-5.3,11.9-11.9V12.2C41.5,5.6,36.2,0.3,29.7,0.3z M37.8,29.9
			c0,4.3-3.5,7.9-7.9,7.9H12.1c-4.3,0-7.9-3.5-7.9-7.9V12.1c0-4.3,3.5-7.9,7.9-7.9h17.8c4.3,0,7.9,3.5,7.9,7.9V29.9z"/>
		<path id="XMLID_00000165193892285800648440000007779153937788780735_" class="st0" d="M21,10.3c-5.9,0-10.7,4.8-10.7,10.7
			S15.1,31.6,21,31.6s10.7-4.8,10.7-10.7S26.9,10.3,21,10.3z M21,27.9c-3.8,0-6.9-3.1-6.9-6.9s3.1-6.9,6.9-6.9s6.9,3.1,6.9,6.9
			S24.8,27.9,21,27.9z"/>
		<circle id="XMLID_00000064325199550714866750000013034961966662100634_" class="st0" cx="32" cy="9.9" r="2.5"/>
	</g>
</g>
</svg>
