<?xml version="1.0" encoding="utf-8"?>
<!-- Generator: Adobe Illustrator 25.4.1, SVG Export Plug-In . SVG Version: 6.00 Build 0)  -->
<svg version="1.1" id="レイヤー_1" xmlns="http://www.w3.org/2000/svg" xmlns:xlink="http://www.w3.org/1999/xlink" x="0px"
	 y="0px" viewBox="0 0 170 173" style="enable-background:new 0 0 170 173;" xml:space="preserve">
<style type="text/css">
	.st0{fill:#FF583B;}
	.st1{fill:#F7F8F8;}
	.st2{fill:#32667A;}
</style>
<g>
	<circle class="st0" cx="84.8" cy="20.6" r="20.2"/>
	<g>
		<path class="st0" d="M8.8,66.5H0.1v-1.7c0.5-1.3,1-2.2,1.8-3.3c0.6-0.8,0.7-0.9,2.6-3c1.4-1.6,1.8-2.4,1.8-3.8
			c0-0.7-0.2-1.3-0.5-1.7c-0.3-0.3-0.7-0.5-1.3-0.5c-0.7,0-1.4,0.5-1.7,1.3c-0.2,0.5-0.3,1-0.3,2.1l-2.4-0.5
			c0.2-1.7,0.4-2.5,1.1-3.4c0.8-1.1,2-1.6,3.5-1.6c2.6,0,4.2,1.7,4.2,4.5c0,1.3-0.3,2.2-1,3.2c-0.5,0.7-0.9,1.1-2.1,2.3
			c-1.7,1.6-2.3,2.5-3,3.9h6.1V66.5z"/>
		<path class="st0" d="M26.4,67.8v-1.1H14.2v1.1h-2.3c0.1-0.6,0.1-1.5,0.1-2.5V52.7c0-1,0-1.6-0.1-2.4c0.7,0.1,1.4,0.1,2.3,0.1h12.2
			c1,0,1.6,0,2.3-0.1c-0.1,0.7-0.1,1.4-0.1,2.4v12.5c0,1.1,0,2,0.1,2.5H26.4z M14.2,64.7h12.3V52.4H14.2V64.7z M22.4,54.7
			c0.9,0,1.4,0,1.9-0.1c0,0.5-0.1,0.9-0.1,1.6v4.7c0,0.7,0,1.1,0.1,1.6c-0.6,0-1.1-0.1-1.9-0.1h-4.2c-1,0-1.3,0-1.9,0.1
			c0.1-0.5,0.1-1,0.1-1.6v-4.7c0-0.6,0-1-0.1-1.6c0.5,0,1,0.1,1.9,0.1H22.4z M18.4,60.5h3.7v-4h-3.7V60.5z"/>
		<path class="st0" d="M45.1,50.4c0.9,0,1.5,0,2.1-0.1c-0.1,0.8-0.1,1.4-0.1,2v12.9c0,1,0,1.7,0.1,2.4h-2.4v-1.1h-9.2v1.1h-2.4
			c0.1-0.7,0.1-1.4,0.1-2.2v-13c0-0.7,0-1.5-0.1-2.1c0.6,0.1,1.3,0.1,2.2,0.1H45.1z M44.9,55v-2.5h-9.2V55H44.9z M35.6,59.6h9.2
			v-2.5h-9.2V59.6z M35.6,64.4h9.2v-2.8h-9.2V64.4z"/>
		<path class="st0" d="M53.3,52.4c0-1,0-1.6-0.1-2.3h2.5c-0.1,0.6-0.1,1.1-0.1,1.9v0.5l0.1,9.4c1.8-0.8,3.8-1.8,5.1-2.7l0.5,2.1
			c-2.5,1.5-4,2.3-7.7,3.9c-0.7,0.3-0.9,0.4-1.4,0.6l-0.6-2.4c0.7-0.2,1-0.2,2-0.6L53.3,52.4z M67.9,50c0,0.2,0,0.2-0.2,2.7
			c-0.1,1.8-0.5,4-1,5.5c-0.3,1-0.7,1.9-1.3,2.9c1,1.7,2.4,3.1,4.3,4.3c-0.6,0.7-1,1.3-1.4,2.3c-1.7-1.2-3.1-2.7-4.3-4.6
			c-1.5,2-3.7,3.5-6.6,4.7c-0.5-0.9-0.8-1.4-1.3-2c1.7-0.7,2.8-1.2,3.9-2c3.6-2.5,5.3-6.5,5.3-12.6c0-0.6,0-0.8-0.1-1.3L67.9,50z
			 M59.2,51.2c1.6,1.6,2.4,2.7,3.9,4.8l-2.1,1.4c-1.5-2.5-2-3.1-3.8-5L59.2,51.2z"/>
		<path class="st0" d="M89.6,51.6c-0.2,0.3-0.2,0.3-0.5,0.6c-0.7,0.9-1.6,1.9-2.7,2.9c1.3,0.6,2.5,0.9,4.5,1.2
			c-0.4,0.7-0.6,1.1-0.8,1.9c-2.3-0.5-4-1.1-5.4-1.9c-1.5,0.9-2.8,1.5-5.2,2.3c-0.2-0.8-0.5-1.3-1-1.9c1.8-0.5,3.1-0.9,4.4-1.7
			c-0.5-0.4-0.9-0.8-1.6-1.4c-0.6,0.5-1,0.8-2,1.4c-0.3-0.5-0.5-0.7-0.9-1.2c-0.5,1.1-0.6,1.3-1,2.1c1.2,1.6,1.7,2.9,1.7,4.4
			c0,1.4-0.5,2.2-1.5,2.4c-0.4,0.1-1,0.2-1.6,0.2c-0.1,0-0.2,0-0.3,0c0-1-0.1-1.5-0.4-2c0.3,0.1,0.6,0.1,1,0.1
			c0.7,0,0.8-0.2,0.8-0.9c0-1.5-0.4-2.5-1.7-4.1c0.8-1.5,1.3-2.7,1.8-4.2h-2v13.4c0,0.9,0,1.6,0.1,2.2h-2.2c0.1-0.7,0.1-1.4,0.1-2.3
			V51.9c0-0.7,0-1.2-0.1-1.8c0.3,0,0.8,0.1,1.5,0.1h2.8c0.7,0,0.9,0,1.3-0.1l1,1.3c-0.1,0.1-0.2,0.5-0.3,0.7
			c-0.1,0.4-0.2,0.5-0.5,1.2c1.3-0.8,2.2-1.6,2.9-2.6c0.3-0.5,0.5-0.7,0.8-1.3l2.2,0.3c-0.2,0.3-0.2,0.3-0.3,0.6
			c-0.1,0.2-0.1,0.3-0.3,0.5h3c0.7,0,1,0,1.4-0.1L89.6,51.6z M81,60.9c-0.6,0-0.8,0-1.2,0.1v-2c0.3,0,0.6,0.1,1.4,0.1h3.8v-0.2
			c0-0.4,0-0.7-0.1-1.3H87c0,0.5-0.1,0.9-0.1,1.3V59h1.3c1,0,1.3,0,1.8-0.1v2c-0.5-0.1-0.9-0.1-1.8-0.1H87v2h2c0.8,0,1.3,0,1.8-0.1
			v2.1c-0.6-0.1-1.2-0.1-2.1-0.1H87V66c0,0.8,0,1.2,0.1,1.7h-2.3c0.1-0.6,0.1-1,0.1-1.8v-1.2h-4.4c-0.9,0-1.6,0-2.1,0.1v-2.1
			c0.3,0.1,0.6,0.1,1.2,0.1H81V60.9z M82.8,52.5c0.7,0.8,1.1,1.1,1.9,1.7c0.9-0.7,1.2-0.9,1.9-1.8h-3.7L82.8,52.5z M84.9,62.9v-2h-2
			v2H84.9z"/>
		<path class="st0" d="M101.7,66.5H93v-1.7c0.5-1.3,1-2.2,1.8-3.3c0.6-0.8,0.7-0.9,2.6-3c1.4-1.6,1.8-2.4,1.8-3.8
			c0-0.7-0.2-1.3-0.5-1.7c-0.3-0.3-0.7-0.5-1.3-0.5c-0.7,0-1.4,0.5-1.7,1.3c-0.2,0.5-0.3,1-0.3,2.1L93,55.5c0.2-1.7,0.4-2.5,1.1-3.4
			c0.8-1.1,2-1.6,3.5-1.6c2.6,0,4.2,1.7,4.2,4.5c0,1.3-0.3,2.2-1,3.2c-0.5,0.7-0.9,1.1-2.1,2.3c-1.7,1.6-2.3,2.5-3,3.9h6.1V66.5z"/>
		<path class="st0" d="M111.2,53.3c-0.8-0.6-1.2-0.7-2.1-0.7c-1.1,0-1.9,0.7-2.4,2c-0.3,0.7-0.5,1.4-0.6,2.7c1-0.9,1.7-1.2,2.8-1.2
			c2.4,0,3.9,2,3.9,5c0,1.5-0.4,3.1-1.1,4c-0.8,1.1-1.9,1.7-3.3,1.7c-3,0-4.7-2.7-4.7-7.6c0-3,0.7-5.5,1.8-6.9
			c1-1.2,2.1-1.8,3.8-1.8c1.2,0,2.1,0.2,3,0.8L111.2,53.3z M106.1,60c0,1,0.2,2.3,0.4,3.1c0.4,1.1,1,1.7,1.9,1.7
			c1.3,0,2.1-1.3,2.1-3.6c0-2-0.8-3.1-2.1-3.1c-0.5,0-1,0.2-1.5,0.5c-0.3,0.3-0.8,0.9-0.8,1C106.1,59.8,106.1,59.9,106.1,60z"/>
		<path class="st0" d="M120.8,52.3c0.2,0.7,0.3,1.3,0.3,2.2c0,2.4-1.3,4-3.3,4c-2.1,0-3.4-1.5-3.4-4c0-1.2,0.2-2.3,0.7-2.9
			c0.6-0.8,1.5-1.3,2.6-1.3C119.2,50.2,120.4,51,120.8,52.3z M118.9,55.9c0.2-0.4,0.3-1,0.3-1.5c0-1.7-0.4-2.5-1.3-2.5
			c-0.8,0-1.3,0.8-1.3,2.3c0,1.6,0.5,2.4,1.4,2.4C118.3,56.7,118.7,56.4,118.9,55.9z M126.9,50.5l-8.1,16H117l8.1-16H126.9z
			 M129.1,60.6c0.2,0.7,0.3,1.3,0.3,2.2c0,2.4-1.3,4-3.3,4c-1.1,0-2-0.4-2.6-1.3c-0.5-0.7-0.8-1.6-0.8-2.8c0-1.3,0.2-2.2,0.7-2.9
			c0.6-0.8,1.5-1.3,2.6-1.3C127.4,58.5,128.6,59.3,129.1,60.6z M127.1,64.2c0.2-0.4,0.3-1,0.3-1.5c0-1.7-0.4-2.5-1.3-2.5
			c-0.8,0-1.3,0.8-1.3,2.3c0,1.6,0.5,2.4,1.4,2.4C126.6,65,126.9,64.8,127.1,64.2z"/>
		<path class="st0" d="M135.9,56.5c-1.6,0.2-2,0.2-3,0.2c-0.6,0-0.7-0.3-0.9-2.1c0.4,0,0.6,0,0.8,0c1,0,1.9-0.1,3-0.2V54
			c0-1.3-0.1-2.4-0.3-3.5c1.6,0.1,2.2,0.2,2.6,0.3c0.2,0.1,0.3,0.2,0.3,0.4c0,0.1,0,0.2-0.1,0.4c-0.2,0.4-0.3,1.1-0.3,2.5
			c0.7-0.1,1.8-0.4,2.6-0.6c0.1,0,0.1,0,0.1,0c0.2,0,0.3,0.1,0.3,0.2c0.1,0.4,0.2,1.2,0.2,1.5c0,0.2-0.1,0.3-0.3,0.4
			c-0.2,0.1-1.7,0.4-3.1,0.6v2.7c2-0.7,3.6-1,5-1c2.6,0,4.3,1.7,4.3,4.3c0,1.7-0.7,3-1.9,3.8c-0.6,0.4-1.5,0.6-2.5,0.6
			c-1,0-1.9-0.1-2.1-0.2c-0.2-0.1-0.2-0.2-0.3-0.7c0-0.6-0.2-1.1-0.4-1.7c0.8,0.3,1.5,0.4,2.3,0.4c1.6,0,2.5-0.8,2.5-2.3
			c0-1.4-0.9-2.3-2.2-2.3c-1.3,0-2.9,0.4-4.7,1.2c0,0.1,0,0.1,0,0.9c0,1.4,0,1.4,0,1.6c0,0.4,0,0.7,0,0.9c0,1.7-0.6,2.5-2,2.5
			c-1.3,0-2.7-0.7-3.5-1.8c-0.3-0.5-0.5-0.9-0.5-1.5c0-1.3,1.2-2.5,3.8-3.9V56.5z M135.9,62c-1.2,0.7-1.7,1.2-1.7,1.6
			c0,0.5,0.7,1,1.3,1c0.3,0,0.4-0.2,0.4-0.7V62z M147.4,57.4c-1-1.1-2.5-2-3.8-2.5c-0.2-0.1-0.2-0.1-0.2-0.2c0-0.1,0.2-0.5,0.8-1.2
			c0.2-0.3,0.2-0.3,0.5-0.3c0.2,0,1,0.3,1.5,0.5c1.3,0.6,3,1.9,3,2.3c0,0.4-1,1.7-1.3,1.7C147.6,57.5,147.5,57.5,147.4,57.4z"/>
		<path class="st0" d="M153.6,61.6c0-0.8,0-1.4,0-2.1c-0.5,0.7-0.8,0.9-1.5,1.5c-0.3-0.8-0.5-1.4-0.9-2.1c1.4-1,2.5-2,3.5-3.5
			c0.3-0.5,0.6-1,0.9-1.6l1.7,1.2c-0.2,0.2-0.2,0.3-0.4,0.6c-0.5,0.7-0.6,0.9-1.3,1.8v8.1c0,1.1,0,1.6,0.1,2.2h-2.3
			c0.1-0.6,0.1-1.1,0.1-2.1V61.6z M157.2,50.6c-1,1.4-1.2,1.5-1.7,2.1c-0.9,0.9-1.9,1.7-3,2.4c-0.3-0.8-0.6-1.2-1.2-1.8
			c2-1.1,3.4-2.4,4.1-3.9L157.2,50.6z M158.3,62.2c-0.8,0-1.3,0-1.9,0.1v-2c0.5,0.1,1,0.1,1.9,0.1h6.6v-1h-6.4c-0.8,0-1.3,0-1.8,0.1
			v-1.9c0.5,0.1,0.8,0.1,1.9,0.1h8.8c0.9,0,1.4,0,1.9-0.1v2c-0.5-0.1-1.1-0.1-1.9-0.1H167v1h0.5c0.8,0,1.4,0,1.9-0.1v2
			c-0.5-0.1-1-0.1-1.9-0.1H167v3.5c0,1.5-0.6,1.8-2.7,1.8c-0.4,0-1.2,0-2.1-0.1c-0.1-0.8-0.2-1.2-0.5-2l-1,0.9
			c-0.8-1.4-1.4-2.1-2.5-3.2l1.4-1H158.3z M159.9,56.8c-0.8,0-1.5,0-1.8,0.1c0-0.6,0.1-1.1,0.1-1.9v-3c0-0.8,0-1.3-0.1-1.8
			c0.6,0.1,1,0.1,2,0.1h6.1c1,0,1.5,0,2-0.1c-0.1,0.6-0.1,1.1-0.1,2v2.8c0,0.9,0,1.4,0.1,1.9c-0.4,0-1.1-0.1-1.8-0.1H159.9z
			 M160.1,62.2c0.8,0.8,1.3,1.3,2.4,2.7l-0.5,0.4c1,0.1,1.7,0.2,2.1,0.2c0.6,0,0.7-0.1,0.7-0.5v-2.8H160.1z M160.2,52.7h5.8v-0.9
			h-5.8V52.7z M160.2,55.2h5.8v-0.9h-5.8V55.2z"/>
	</g>
	<g>
		<path class="st1" d="M78.4,28.1c-1.1,0-2.1-0.3-3-0.9c-0.9-0.6-1.6-1.4-2.1-2.5c-0.5-1.1-0.8-2.4-0.8-4s0.3-2.9,0.8-4
			s1.2-1.9,2.1-2.5c0.9-0.6,1.9-0.9,3-0.9c1.1,0,2.1,0.3,3,0.9c0.9,0.6,1.6,1.4,2.1,2.5s0.8,2.4,0.8,4s-0.3,2.9-0.8,4
			c-0.5,1.1-1.2,1.9-2.1,2.5C80.5,27.8,79.5,28.1,78.4,28.1z M78.4,26.3c0.8,0,1.4-0.2,2-0.6c0.6-0.4,1-1,1.3-1.8
			c0.3-0.8,0.5-1.8,0.5-3.1c0-1.2-0.2-2.2-0.5-3.1c-0.3-0.8-0.8-1.4-1.3-1.8c-0.6-0.4-1.2-0.6-2-0.6c-0.8,0-1.4,0.2-2,0.6
			c-0.6,0.4-1,1-1.3,1.8c-0.3,0.8-0.5,1.8-0.5,3.1c0,1.2,0.2,2.2,0.5,3.1c0.3,0.8,0.8,1.4,1.3,1.8C76.9,26.1,77.6,26.3,78.4,26.3z"
			/>
		<path class="st1" d="M86.5,27.9v-1.4l5.9-5.7c0.5-0.5,0.9-0.9,1.2-1.3c0.3-0.4,0.4-0.7,0.5-1c0.1-0.3,0.1-0.6,0.1-0.9
			c0-0.7-0.3-1.3-0.8-1.7c-0.5-0.4-1.3-0.6-2.3-0.6c-0.8,0-1.5,0.1-2.1,0.4s-1.2,0.6-1.6,1.2L86,15.6c0.5-0.7,1.3-1.2,2.2-1.6
			s1.9-0.6,3.1-0.6c1,0,1.9,0.2,2.6,0.5c0.7,0.3,1.3,0.8,1.7,1.4c0.4,0.6,0.6,1.3,0.6,2.1c0,0.5-0.1,0.9-0.2,1.4
			c-0.1,0.5-0.4,0.9-0.7,1.4c-0.3,0.5-0.8,1.1-1.5,1.7l-5.2,5l-0.5-0.8h8.7v1.8H86.5z"/>
	</g>
	<g>
		<g>
			<path class="st2" d="M59.1,123.7v-1.8l7.7-7.4c0.7-0.6,1.2-1.2,1.5-1.7c0.3-0.5,0.6-0.9,0.7-1.4c0.1-0.4,0.2-0.8,0.2-1.2
				c0-1-0.3-1.7-1-2.3c-0.7-0.6-1.7-0.8-3-0.8c-1,0-1.9,0.2-2.7,0.5c-0.8,0.3-1.5,0.8-2.1,1.5l-1.8-1.6c0.7-0.9,1.7-1.6,2.9-2.1
				c1.2-0.5,2.5-0.7,4-0.7c1.3,0,2.4,0.2,3.4,0.6c1,0.4,1.7,1,2.2,1.8c0.5,0.8,0.8,1.7,0.8,2.8c0,0.6-0.1,1.2-0.2,1.8
				c-0.2,0.6-0.5,1.2-0.9,1.9c-0.4,0.7-1.1,1.4-1.9,2.2l-6.8,6.6l-0.6-1h11.4v2.3H59.1z"/>
			<path class="st2" d="M83.3,123.9c-1.7,0-3.1-0.4-4.3-1.1c-1.2-0.7-2.1-1.8-2.7-3.2c-0.6-1.4-0.9-3.1-0.9-5.1
				c0-2.1,0.4-3.9,1.1-5.4s1.8-2.6,3.1-3.3c1.3-0.8,2.9-1.1,4.6-1.1c0.9,0,1.8,0.1,2.6,0.3s1.5,0.5,2.1,0.8l-1,2.1
				c-0.5-0.3-1-0.6-1.7-0.7c-0.6-0.1-1.3-0.2-1.9-0.2c-1.9,0-3.4,0.6-4.6,1.8c-1.1,1.2-1.7,3-1.7,5.3c0,0.4,0,0.8,0.1,1.3
				c0,0.5,0.1,1,0.3,1.5l-0.9-0.9c0.3-0.8,0.7-1.5,1.3-2.1c0.6-0.6,1.3-1,2.1-1.3s1.7-0.4,2.6-0.4c1.3,0,2.4,0.2,3.3,0.7
				s1.7,1.1,2.3,2c0.6,0.9,0.8,1.9,0.8,3c0,1.2-0.3,2.2-0.9,3.1c-0.6,0.9-1.4,1.6-2.4,2.1C85.7,123.7,84.5,123.9,83.3,123.9z
				 M83.2,121.7c0.8,0,1.5-0.2,2.2-0.5s1.1-0.7,1.5-1.3c0.4-0.5,0.5-1.2,0.5-1.9c0-1.1-0.4-2-1.2-2.6c-0.8-0.7-1.8-1-3.1-1
				c-0.9,0-1.6,0.2-2.3,0.5c-0.6,0.3-1.2,0.8-1.5,1.3c-0.4,0.5-0.6,1.2-0.6,1.9c0,0.6,0.2,1.2,0.5,1.8c0.3,0.5,0.8,1,1.5,1.3
				C81.4,121.6,82.2,121.7,83.2,121.7z"/>
			<path class="st2" d="M96.2,115c-0.9,0-1.6-0.2-2.3-0.6c-0.7-0.4-1.2-1-1.5-1.8c-0.4-0.8-0.6-1.7-0.6-2.7c0-1,0.2-1.9,0.6-2.7
				c0.4-0.8,0.9-1.4,1.5-1.8c0.7-0.4,1.4-0.6,2.3-0.6c0.9,0,1.6,0.2,2.3,0.6c0.7,0.4,1.2,1,1.5,1.8c0.4,0.8,0.5,1.7,0.5,2.7
				c0,1-0.2,1.9-0.5,2.7c-0.4,0.8-0.9,1.4-1.5,1.8C97.8,114.8,97.1,115,96.2,115z M96.2,113.5c0.8,0,1.4-0.3,1.9-1
				c0.5-0.6,0.7-1.5,0.7-2.6c0-1.1-0.2-2-0.7-2.6c-0.5-0.6-1.1-1-1.9-1c-0.8,0-1.5,0.3-1.9,1c-0.5,0.6-0.7,1.5-0.7,2.6
				c0,1.1,0.2,2,0.7,2.6C94.7,113.1,95.4,113.5,96.2,113.5z M94.7,123.7l12.8-18.8h2.1l-12.8,18.8H94.7z M108.1,123.9
				c-0.9,0-1.6-0.2-2.3-0.6c-0.7-0.4-1.2-1-1.5-1.8c-0.4-0.8-0.5-1.7-0.5-2.7s0.2-1.9,0.5-2.7c0.4-0.8,0.9-1.4,1.5-1.8
				c0.7-0.4,1.4-0.6,2.3-0.6c0.9,0,1.6,0.2,2.3,0.6c0.7,0.4,1.2,1,1.5,1.8c0.4,0.8,0.6,1.7,0.6,2.7s-0.2,1.9-0.6,2.7
				c-0.4,0.8-0.9,1.4-1.5,1.8C109.7,123.6,108.9,123.9,108.1,123.9z M108.1,122.3c0.8,0,1.4-0.3,1.9-1c0.5-0.6,0.7-1.5,0.7-2.6
				c0-1.1-0.2-2-0.7-2.6c-0.5-0.6-1.1-1-1.9-1s-1.4,0.3-1.9,1s-0.7,1.5-0.7,2.6s0.2,2,0.7,2.6C106.6,122,107.3,122.3,108.1,122.3z"
				/>
		</g>
	</g>
	<g>
		<g>
			<path class="st2" d="M70.2,144.7c-1.2,0-2.2-0.2-3.2-0.6c-1-0.4-1.8-0.9-2.6-1.6c-0.7-0.7-1.3-1.5-1.7-2.5
				c-0.4-0.9-0.6-2-0.6-3.1s0.2-2.1,0.6-3.1c0.4-0.9,1-1.8,1.7-2.5c0.7-0.7,1.6-1.2,2.6-1.6c1-0.4,2.1-0.6,3.2-0.6
				c1.2,0,2.2,0.2,3.2,0.6c1,0.4,1.8,0.9,2.6,1.6c0.7,0.7,1.3,1.5,1.7,2.5c0.4,0.9,0.6,2,0.6,3.1c0,1.1-0.2,2.2-0.6,3.1
				c-0.4,0.9-1,1.8-1.7,2.5s-1.6,1.2-2.6,1.6C72.4,144.5,71.4,144.7,70.2,144.7z M70.2,142.7c0.9,0,1.6-0.1,2.4-0.4
				c0.7-0.3,1.3-0.7,1.9-1.2c0.5-0.5,0.9-1.1,1.2-1.9c0.3-0.7,0.4-1.5,0.4-2.3s-0.1-1.6-0.4-2.3c-0.3-0.7-0.7-1.3-1.2-1.9
				c-0.5-0.5-1.1-0.9-1.9-1.2c-0.7-0.3-1.5-0.4-2.4-0.4c-0.8,0-1.6,0.1-2.3,0.4c-0.7,0.3-1.3,0.7-1.9,1.2c-0.5,0.5-1,1.2-1.2,1.9
				c-0.3,0.7-0.4,1.5-0.4,2.3s0.1,1.6,0.4,2.3c0.3,0.7,0.7,1.3,1.2,1.9c0.5,0.5,1.2,0.9,1.9,1.2C68.6,142.6,69.3,142.7,70.2,142.7z"
				/>
			<path class="st2" d="M84.3,144.5h-2.2v-15.2h10.7v1.9h-8.5V144.5z M84.1,136.5h7.8v1.9h-7.8V136.5z"/>
			<path class="st2" d="M98.6,144.5h-2.2v-15.2h10.7v1.9h-8.5V144.5z M98.4,136.5h7.8v1.9h-7.8V136.5z"/>
		</g>
	</g>
	<path class="st2" d="M84.8,172.7c-0.2,0-0.4-0.1-0.5-0.2l-51-33c-0.4-0.2-0.5-0.7-0.4-1.1c0.1-0.4,0.5-0.7,1-0.7h11.5
		c0.6,0,1,0.4,1,1s-0.4,1-1,1h-8.1l47.6,30.8l47.6-30.8h-8.1c-0.6,0-1-0.4-1-1v-21.3c0-0.6,0.4-1,1-1s1,0.4,1,1v20.3h10.5
		c0.4,0,0.8,0.3,1,0.7c0.1,0.4,0,0.9-0.4,1.1l-51,33C85.1,172.6,84.9,172.7,84.8,172.7z"/>
	<path class="st2" d="M45.3,115.8c-0.6,0-1-0.4-1-1V85.4c0-0.6,0.4-1,1-1h78.9c0.6,0,1,0.4,1,1v12.9c0,0.6-0.4,1-1,1s-1-0.4-1-1
		V86.4H46.3v28.4C46.3,115.3,45.8,115.8,45.3,115.8z"/>
</g>
</svg>
