<?xml version="1.0" encoding="utf-8"?>
<!-- Generator: Adobe Illustrator 25.4.1, SVG Export Plug-In . SVG Version: 6.00 Build 0)  -->
<svg version="1.1" id="レイヤー_1" xmlns="http://www.w3.org/2000/svg" xmlns:xlink="http://www.w3.org/1999/xlink" x="0px"
	 y="0px" viewBox="0 0 109 151" style="enable-background:new 0 0 109 151;" xml:space="preserve">
<style type="text/css">
	.st0{fill:#FF583B;}
	.st1{fill:#F7F8F8;}
	.st2{fill:#32667A;}
</style>
<g>
	<circle class="st0" cx="54.5" cy="20.3" r="20.2"/>
	<g>
		<path class="st0" d="M14,53.4c0.5,0.1,0.8,0.1,1.6,0.1H17c0.5,0,1.1,0,1.5-0.1c-0.1,0.6-0.1,1.1-0.1,2.1v4.1
			c0.5,0.8,0.9,1.2,1.6,1.5c0.7,0.3,1.9,0.5,4.1,0.5c3.7,0,6.1-0.1,8.2-0.4c-0.4,1.1-0.4,1.3-0.6,2.3c-0.8,0-0.8,0-2.2,0.1
			c-0.6,0-3.4,0.1-4.5,0.1c-2.4,0-4.1-0.1-5-0.3c-1.2-0.3-1.8-0.8-2.8-1.9c-0.8,0.8-1.5,1.3-2.3,1.9c-0.1,0.1-0.5,0.3-0.6,0.5
			l-0.9-2.2c0.9-0.4,1.9-1,2.8-1.9v-4.3h-1.1c-0.5,0-0.8,0-1.3,0.1V53.4z M15.7,46.3c1.4,1.3,1.7,1.6,3.4,3.6l-1.6,1.6
			c-1.2-1.6-1.9-2.4-3.4-3.7L15.7,46.3z M21.7,51.1c-0.7,0-1.2,0-1.8,0.1v-2.1c0.6,0.1,1.2,0.1,1.8,0.1h0.8c-0.4-1-0.7-1.5-1.4-2.5
			l1.9-0.9c0.6,0.8,1,1.6,1.5,2.6l-1.7,0.8h3.2c0.7-1.2,1.2-2.2,1.6-3.4l2.1,0.7c-0.2,0.4-0.2,0.4-0.7,1.3c-0.2,0.5-0.5,0.9-0.8,1.4
			h1.1c0.7,0,1.2,0,1.7-0.1v2.1c-0.6-0.1-1.2-0.1-1.9-0.1h-2.8c0,1,0,1.5-0.1,2.2H30c0.7,0,1.2,0,1.8-0.1v2.1
			c-0.6-0.1-1.2-0.1-1.9-0.1h-3.2c0.4,0.8,0.9,1.4,1.7,2c1,0.8,1.8,1.2,3.6,1.7c-0.5,0.7-0.8,1.3-1,2.1c-1.9-0.7-2.7-1.1-3.7-2
			c-0.8-0.7-1.3-1.3-1.8-2.2c-0.5,1-1,1.7-1.8,2.4c-0.9,0.8-1.6,1.2-2.9,1.8c-0.3-0.8-0.8-1.4-1.4-1.9c1.4-0.5,2.2-1,2.9-1.5
			c0.7-0.6,1.2-1.4,1.6-2.3H21c-0.7,0-1.3,0-1.8,0.1v-2.1c0.6,0.1,1.2,0.1,1.8,0.1h3.1c0.1-0.7,0.1-0.9,0.1-2.2H21.7z"/>
		<path class="st0" d="M42.6,58.8c-0.1,0.3-0.1,0.3-0.2,0.7c-0.8-0.9-1.4-1.7-2-2.8c0.1,1.4,0.1,1.6,0.1,2.2v3.3
			c0,0.9,0,1.5,0.1,2.1h-2.3c0.1-0.6,0.1-1.2,0.1-2.1v-2.5c0-0.8,0-1.7,0.1-2.3c-0.9,2.1-1.5,3.3-2.6,4.4c-0.2-0.8-0.6-1.5-1-2
			c1.3-1.3,2.1-2.7,3.2-5.1h-1c-0.9,0-1.3,0-1.8,0.1v-2.1c0.5,0.1,0.8,0.1,1.8,0.1h1.3V48c0-0.9,0-1.5-0.1-1.9h2.3
			c-0.1,0.5-0.1,1-0.1,1.9v4.7h0.9c0.8,0,1.1,0,1.5-0.1v2.1c-0.5-0.1-0.9-0.1-1.6-0.1h-0.7c0.7,1.3,1.5,2.1,2.5,3
			c-0.2,0.5-0.3,0.6-0.5,1.1c0.5,0,1.2-0.1,1.8-0.3l4.6-1v-9c0-1.2,0-1.7-0.1-2.3h2.4c-0.1,0.7-0.1,1.2-0.1,2.3v8.6
			c0.9-0.2,1.2-0.3,1.7-0.5l0.4,2.3c-0.5,0.1-1,0.1-1.9,0.3l-0.2,0v2.9c0,1.1,0,1.7,0.1,2.3H49c0.1-0.7,0.1-1.1,0.1-2.3v-2.4
			l-4.2,0.9c-0.8,0.2-1.4,0.3-1.9,0.5L42.6,58.8z M36.9,47.1c0.6,1.8,0.9,2.8,1.2,4.3l-1.7,0.7c-0.3-1.8-0.7-3-1.2-4.2L36.9,47.1z
			 M43.6,47.8c-0.5,1.8-0.8,2.5-1.6,4.3l-1.5-0.7c0.7-1.3,1-2.4,1.4-4.3L43.6,47.8z M44.6,52.3c1.6,1.1,2.4,1.8,3.5,2.9l-1.4,1.6
			c-1.4-1.5-2-2.1-3.5-3L44.6,52.3z M45.2,47.3c1.7,1.2,2.3,1.7,3.4,2.9l-1.3,1.7c-1.5-1.6-1.5-1.6-3.5-3.1L45.2,47.3z"/>
		<path class="st0" d="M58.9,50.5c-0.6,0.6-0.9,0.8-1.6,1.4c-0.6-0.8-0.9-1-1.4-1.5c1.8-1.3,2.9-2.5,3.7-3.8c0.2-0.3,0.3-0.7,0.4-1
			l2.3,0.5c-0.1,0.2-0.1,0.2-0.4,0.7c-0.2,0.3-0.3,0.6-0.6,1h9.5c1.2,0,1.9,0,2.5-0.1v2.2c-0.7-0.1-0.8-0.1-2-0.1v2.6h0.8
			c0.9,0,1.4,0,1.9-0.1v2.2c-0.6-0.1-1-0.1-1.9-0.1h-0.8v2.6h0.4c1,0,1.3,0,1.9-0.1V59c-0.5-0.1-1-0.1-1.8-0.1H58.3
			c-0.8,0-1.2,0-1.7,0.1v-2.2c0.5,0.1,1,0.1,1.9,0.1h0.5v-2.6h-0.8c-0.9,0-1.3,0-1.9,0.1v-2.2c0.6,0.1,1,0.1,1.9,0.1h0.8V50.5z
			 M56.1,62.8c1.2-1.2,1.8-2.1,2.4-3.7l1.8,0.9c-0.8,1.9-1.3,2.7-2.5,4.2L56.1,62.8z M60.9,52.3h1.6v-2.6h-1.6V52.3z M60.9,56.9h1.6
			v-2.6h-1.6V56.9z M61.8,64.1c0-0.5,0-0.5,0-0.8c0-0.8-0.2-2.6-0.3-3.5l1.9-0.2c0.3,1.8,0.4,2.7,0.5,4.3L61.8,64.1z M65.9,52.3
			v-2.6h-1.6v2.6H65.9z M65.9,56.9v-2.6h-1.6v2.6H65.9z M66.4,64c-0.3-1.9-0.4-2.5-0.9-4.2l1.9-0.4c0.6,1.5,0.8,2.4,1.2,4.1L66.4,64
			z M69.3,52.3v-2.6h-1.7v2.6H69.3z M69.3,56.9v-2.6h-1.7v2.6H69.3z M72,64c-0.7-1.6-1.2-2.5-2.4-4.1l1.7-0.8
			c1.1,1.4,1.7,2.3,2.5,3.8L72,64z"/>
		<path class="st0" d="M84.7,58.8c-0.1,0.3-0.1,0.3-0.2,0.7c-0.8-0.9-1.4-1.7-2-2.8c0.1,1.4,0.1,1.6,0.1,2.2v3.3
			c0,0.9,0,1.5,0.1,2.1h-2.3c0.1-0.6,0.1-1.2,0.1-2.1v-2.5c0-0.8,0-1.7,0.1-2.3c-0.9,2.1-1.5,3.3-2.6,4.4c-0.2-0.8-0.6-1.5-1-2
			c1.3-1.3,2.1-2.7,3.2-5.1h-1c-0.9,0-1.3,0-1.8,0.1v-2.1c0.5,0.1,0.8,0.1,1.8,0.1h1.3V48c0-0.9,0-1.5-0.1-1.9h2.3
			c-0.1,0.5-0.1,1-0.1,1.9v4.7h0.9c0.8,0,1.1,0,1.5-0.1v2.1c-0.5-0.1-0.9-0.1-1.6-0.1h-0.7c0.7,1.3,1.5,2.1,2.5,3
			c-0.2,0.5-0.3,0.6-0.5,1.1c0.5,0,1.2-0.1,1.8-0.3l4.6-1v-9c0-1.2,0-1.7-0.1-2.3h2.4c-0.1,0.7-0.1,1.2-0.1,2.3v8.6
			c0.9-0.2,1.2-0.3,1.7-0.5l0.4,2.3c-0.5,0.1-1,0.1-1.9,0.3l-0.2,0v2.9c0,1.1,0,1.7,0.1,2.3h-2.4c0.1-0.7,0.1-1.1,0.1-2.3v-2.4
			L87,60.5c-0.8,0.2-1.4,0.3-1.9,0.5L84.7,58.8z M79,47.1c0.6,1.8,0.9,2.8,1.2,4.3l-1.7,0.7c-0.3-1.8-0.7-3-1.2-4.2L79,47.1z
			 M85.7,47.8c-0.5,1.8-0.8,2.5-1.6,4.3l-1.5-0.7c0.7-1.3,1-2.4,1.4-4.3L85.7,47.8z M86.7,52.3c1.6,1.1,2.4,1.8,3.5,2.9l-1.4,1.6
			c-1.4-1.5-2-2.1-3.5-3L86.7,52.3z M87.4,47.3c1.7,1.2,2.3,1.7,3.4,2.9l-1.3,1.7C88,50.3,88,50.3,86,48.9L87.4,47.3z"/>
	</g>
	<g>
		<path class="st1" d="M51,28.6c-1.1,0-2.1-0.3-3-0.9c-0.9-0.6-1.6-1.4-2.1-2.5c-0.5-1.1-0.8-2.4-0.8-4s0.3-2.9,0.8-4
			s1.2-1.9,2.1-2.5c0.9-0.6,1.9-0.9,3-0.9c1.1,0,2.1,0.3,3,0.9c0.9,0.6,1.6,1.4,2.1,2.5s0.8,2.4,0.8,4s-0.3,2.9-0.8,4
			c-0.5,1.1-1.2,1.9-2.1,2.5C53.1,28.3,52.1,28.6,51,28.6z M51,26.7c0.8,0,1.4-0.2,2-0.6c0.6-0.4,1-1,1.3-1.8
			c0.3-0.8,0.5-1.8,0.5-3.1c0-1.2-0.2-2.2-0.5-3.1c-0.3-0.8-0.8-1.4-1.3-1.8c-0.6-0.4-1.2-0.6-2-0.6c-0.8,0-1.4,0.2-2,0.6
			c-0.6,0.4-1,1-1.3,1.8c-0.3,0.8-0.5,1.8-0.5,3.1c0,1.2,0.2,2.2,0.5,3.1c0.3,0.8,0.8,1.4,1.3,1.8C49.6,26.5,50.3,26.7,51,26.7z"/>
		<path class="st1" d="M61.8,28.4V14.8l0.9,1h-4.1V14h5.3v14.4H61.8z"/>
	</g>
	<g>
		<path class="st2" d="M85.3,150.9c-7.2,0-13.1-5.9-13.1-13.1c0-0.6,0.1-1.3,0.2-2H31.9c0.1,0.7,0.2,1.3,0.2,2
			c0,7.2-5.9,13.1-13.1,13.1S5.9,145,5.9,137.8c0-0.6,0.1-1.3,0.2-2h-5c-0.6,0-1-0.4-1-1v-11.3c0-0.6,0.4-1,1-1h0.3v-9.8
			c0-0.1,0-0.2,0-0.3l6.3-19.5c0.6-1.7,2.2-2.9,4-2.9h26.7c2.3,0,4.2,1.9,4.2,4.2v28.3h65.3c0.6,0,1,0.4,1,1v11.3c0,0.6-0.4,1-1,1
			h-9.7c0.1,0.7,0.2,1.3,0.2,2C98.4,145,92.5,150.9,85.3,150.9z M30.7,133.9h42.9c0.3,0,0.6,0.1,0.8,0.4c0.2,0.2,0.3,0.6,0.2,0.9
			c-0.2,0.9-0.4,1.8-0.4,2.7c0,6.1,5,11.1,11.1,11.1s11.1-5,11.1-11.1c0-0.9-0.1-1.8-0.4-2.7c-0.1-0.3,0-0.6,0.2-0.9
			c0.2-0.2,0.5-0.4,0.8-0.4h9.9v-9.3H41.7c-0.6,0-1-0.4-1-1V94.2c0-1.2-1-2.2-2.2-2.2H11.8c-1,0-1.8,0.6-2.1,1.5l-6.3,19.3v10.7
			c0,0.6-0.4,1-1,1H2.1v9.3h5.2c0.3,0,0.6,0.1,0.8,0.4s0.3,0.6,0.2,0.9c-0.2,0.9-0.4,1.8-0.4,2.7c0,6.1,5,11.1,11.1,11.1
			s11.1-5,11.1-11.1c0-0.9-0.1-1.8-0.4-2.7c-0.1-0.3,0-0.6,0.2-0.9S30.4,133.9,30.7,133.9z M85.3,145.1c-4,0-7.3-3.3-7.3-7.3
			c0-4,3.3-7.3,7.3-7.3c4,0,7.3,3.3,7.3,7.3C92.6,141.8,89.3,145.1,85.3,145.1z M85.3,132.5c-2.9,0-5.3,2.4-5.3,5.3s2.4,5.3,5.3,5.3
			s5.3-2.4,5.3-5.3S88.2,132.5,85.3,132.5z M19,145.1c-4,0-7.3-3.3-7.3-7.3c0-4,3.3-7.3,7.3-7.3c4,0,7.3,3.3,7.3,7.3
			C26.3,141.8,23,145.1,19,145.1z M19,132.5c-2.9,0-5.3,2.4-5.3,5.3s2.4,5.3,5.3,5.3s5.3-2.4,5.3-5.3S21.9,132.5,19,132.5z
			 M26.9,112.8H7.5c-0.3,0-0.6-0.2-0.8-0.4c-0.2-0.3-0.2-0.6-0.1-0.9l5.1-15.2c0.1-0.4,0.5-0.7,0.9-0.7h23.5c0.6,0,1,0.4,1,1v6.2
			c0,0.3-0.1,0.5-0.3,0.7l-9.1,9C27.5,112.7,27.2,112.8,26.9,112.8z M8.9,110.8h17.7l8.5-8.4v-4.7H13.2L8.9,110.8z M36.1,102.8
			L36.1,102.8L36.1,102.8z"/>
		<path class="st2" d="M104.5,124.4c-0.6,0-1-0.4-1-1v-34c0-0.9-0.7-1.6-1.6-1.6H50.2c-0.9,0-1.6,0.7-1.6,1.6v34c0,0.6-0.4,1-1,1
			s-1-0.4-1-1v-34c0-2,1.6-3.6,3.6-3.6h51.7c2,0,3.6,1.6,3.6,3.6v34C105.5,124,105.1,124.4,104.5,124.4z"/>
	</g>
</g>
</svg>
