<svg xmlns="http://www.w3.org/2000/svg" width="236.379" height="236.429" viewBox="0 0 236.379 236.429">
  <g id="グループ_282" data-name="グループ 282" transform="translate(-410.217 -1177.25)">
    <g id="グループ_290" data-name="グループ 290" transform="translate(566.563 1297.398)">
      <circle id="楕円形_54" data-name="楕円形 54" cx="37.625" cy="37.625" r="37.625" transform="translate(0 0)" fill="none" stroke="#ec6448" stroke-linejoin="round" stroke-width="1.5"/>
      <path id="パス_558" data-name="パス 558" d="M389.577,30.4h23a6.078,6.078,0,0,1,6.078,6.078V58.529h-3.333l-.893-8.253c-2.908,1.887-8.8,2.806-12.155-2.927h-9.336v11.18h-3.358l-1.474-8.4-2.561-1.942a6.5,6.5,0,0,1-2.521-4.389l-.8-6.608h-7.628a2.311,2.311,0,0,1-1.331-4.2l2.288-1.612a2.315,2.315,0,0,0,.592-.608l1.957-2.936a4.739,4.739,0,0,1,3.943-2.111h2.93a2.311,2.311,0,0,1,1.86.94Z" transform="translate(-361.435 -2.233)" fill="none" stroke="#ec6448" stroke-linejoin="round" stroke-width="1.5"/>
      <path id="パス_559" data-name="パス 559" d="M385.619,27.707c1.392-1.474,3.44-3.276,6.388-3.113.492,2.785-1.965,5.242-4.587,5.406" transform="translate(-362.226 -2.165)" fill="#f7f8f8" stroke="#ec6448" stroke-width="1.5"/>
      <path id="パス_561" data-name="パス 561" d="M420.794,33.911h0a3.931,3.931,0,0,1,3.931,3.931V45.7" transform="translate(-364.314 -2.719)" fill="none" stroke="#ec6448" stroke-linejoin="round" stroke-width="1.5"/>
      <line id="線_164" data-name="線 164" x2="0.306" y2="1.556" transform="translate(49.242 49.599)" fill="none" stroke="#ec6448" stroke-linejoin="round" stroke-width="1.5"/>
      <line id="線_165" data-name="線 165" x1="0.656" y2="1.638" transform="translate(44.849 49.129)" fill="none" stroke="#ec6448" stroke-linejoin="round" stroke-width="1.5"/>
      <line id="線_166" data-name="線 166" x1="1.065" y2="1.065" transform="translate(41.247 47.327)" fill="none" stroke="#ec6448" stroke-linejoin="round" stroke-width="1.5"/>
      <path id="パス_562" data-name="パス 562" d="M414.068,30.6s.491,4.75-4.095,5.159c-.983,4.75-6.307,5.979-9.419,1.065a5.4,5.4,0,0,1-6.142-5.651" transform="translate(-362.748 -2.522)" fill="none" stroke="#ec6448" stroke-linejoin="round" stroke-width="1.5"/>
      <path id="パス_563" data-name="パス 563" d="M386.681,49.52a4.445,4.445,0,0,0-3.348-7.563" transform="translate(-362.091 -3.196)" fill="none" stroke="#ec6448" stroke-linejoin="round" stroke-width="1.5"/>
      <path id="パス_564" data-name="パス 564" d="M383.7,25.392c-.816-.255-2.45-2.093-2.553-4.492-1.582,1.582-1.174,3.828-.357,4.492" transform="translate(-361.897 -1.946)" fill="none" stroke="#ec6448" stroke-linejoin="round" stroke-width="1.5"/>
      <path id="パス_565" data-name="パス 565" d="M388.424,25.392c-.816-.255-2.45-2.093-2.553-4.492-1.582,1.582-1.174,3.828-.357,4.492" transform="translate(-362.177 -1.946)" fill="none" stroke="#ec6448" stroke-linejoin="round" stroke-width="1.5"/>
      <line id="線_167" data-name="線 167" x1="53.171" y2="53.171" transform="translate(11.04 11.04)" fill="none" stroke="#ec6448" stroke-linejoin="round" stroke-width="1.5"/>
    </g>
    <g id="グループ_291" data-name="グループ 291" transform="translate(434.187 1297.398)">
      <circle id="楕円形_44" data-name="楕円形 44" cx="37.625" cy="37.625" r="37.625" transform="translate(0 0)" fill="none" stroke="#ec6448" stroke-linejoin="round" stroke-width="1.5"/>
      <circle id="楕円形_45" data-name="楕円形 45" cx="3.707" cy="3.707" r="3.707" transform="translate(25.09 15.969)" fill="none" stroke="#ec6448" stroke-linejoin="round" stroke-width="1.5"/>
      <circle id="楕円形_46" data-name="楕円形 46" cx="3.707" cy="3.707" r="3.707" transform="translate(43.232 12.262)" fill="none" stroke="#ec6448" stroke-linejoin="round" stroke-width="1.5"/>
      <circle id="楕円形_47" data-name="楕円形 47" cx="3.707" cy="3.707" r="3.707" transform="translate(53.868 28.316)" fill="none" stroke="#ec6448" stroke-linejoin="round" stroke-width="1.5"/>
      <circle id="楕円形_48" data-name="楕円形 48" cx="3.707" cy="3.707" r="3.707" transform="translate(38.314 28.316)" fill="none" stroke="#ec6448" stroke-linejoin="round" stroke-width="1.5"/>
      <circle id="楕円形_49" data-name="楕円形 49" cx="3.707" cy="3.707" r="3.707" transform="translate(13.969 30.579)" fill="none" stroke="#ec6448" stroke-linejoin="round" stroke-width="1.5"/>
      <circle id="楕円形_50" data-name="楕円形 50" cx="3.707" cy="3.707" r="3.707" transform="translate(28.729 47.279) rotate(-88.939)" fill="none" stroke="#ec6448" stroke-linejoin="round" stroke-width="1.5"/>
      <circle id="楕円形_51" data-name="楕円形 51" cx="3.707" cy="3.707" r="3.707" transform="translate(48.119 43.641)" fill="none" stroke="#ec6448" stroke-linejoin="round" stroke-width="1.5"/>
      <circle id="楕円形_52" data-name="楕円形 52" cx="3.707" cy="3.707" r="3.707" transform="translate(34.607 55.575)" fill="none" stroke="#ec6448" stroke-linejoin="round" stroke-width="1.5"/>
      <circle id="楕円形_53" data-name="楕円形 53" cx="3.707" cy="3.707" r="3.707" transform="translate(16.271 49.407)" fill="none" stroke="#ec6448" stroke-linejoin="round" stroke-width="1.5"/>
      <line id="線_163" data-name="線 163" x1="53.171" y2="53.171" transform="translate(11.04 11.04)" fill="none" stroke="#ec6448" stroke-linejoin="round" stroke-width="1.5"/>
    </g>
    <g id="グループ_292" data-name="グループ 292" transform="translate(566.063 1178)">
      <circle id="楕円形_40" data-name="楕円形 40" cx="37.625" cy="37.625" r="37.625" transform="translate(0 0)" fill="none" stroke="#ec6448" stroke-linejoin="round" stroke-width="1.5"/>
      <path id="パス_554" data-name="パス 554" d="M160.279,24.912l13.464,26.163H146.815Z" transform="translate(-122.297 -2.184)" fill="none" stroke="#ec6448" stroke-linejoin="round" stroke-width="1.5"/>
      <path id="パス_555" data-name="パス 555" d="M168.652,24.405a8.03,8.03,0,1,1-8.029-8.029,8.03,8.03,0,0,1,8.029,8.029" transform="translate(-122.64 -1.678)" fill="#f7f8f8" stroke="#ec6448" stroke-width="1.5"/>
      <path id="パス_556" data-name="パス 556" d="M154.337,52.22a8.029,8.029,0,1,1-8.029-8.029,8.03,8.03,0,0,1,8.029,8.029" transform="translate(-121.791 -3.329)" fill="#f7f8f8" stroke="#ec6448" stroke-width="1.5"/>
      <path id="パス_557" data-name="パス 557" d="M182.966,52.22a8.029,8.029,0,1,1-8.029-8.029,8.03,8.03,0,0,1,8.029,8.029" transform="translate(-123.49 -3.329)" fill="#f7f8f8" stroke="#ec6448" stroke-width="1.5"/>
      <line id="線_162" data-name="線 162" x1="53.171" y2="53.171" transform="translate(11.04 11.04)" fill="none" stroke="#ec6448" stroke-linejoin="round" stroke-width="1.5"/>
    </g>
    <g id="グループ_196" data-name="グループ 196" transform="translate(433.687 1178)">
      <g id="グループ_186" data-name="グループ 186" transform="translate(0 0)">
        <circle id="楕円形_25" data-name="楕円形 25" cx="37.625" cy="37.625" r="37.625" fill="none" stroke="#ec6448" stroke-linejoin="round" stroke-width="1.5"/>
        <g id="グループ_185" data-name="グループ 185" transform="translate(17.579 15.727)">
          <path id="パス_501" data-name="パス 501" d="M7955.937,7939.8l-9.981-6.317-9.978,6.317v10.737l9.978,6.318,9.981-6.318Z" transform="translate(-7935.978 -7916.434)" fill="none" stroke="#ec6448" stroke-linejoin="round" stroke-width="1.5"/>
          <path id="パス_502" data-name="パス 502" d="M7958.613,7935.228l-9.977-6.318-9.982,6.318v10.733l9.982,6.317,9.977-6.317Z" transform="translate(-7928.677 -7928.91)" fill="none" stroke="#ec6448" stroke-linejoin="round" stroke-width="1.5"/>
          <path id="パス_503" data-name="パス 503" d="M7961.292,7939.8l-9.979-6.317-9.978,6.317v10.737l9.978,6.318,9.979-6.318Z" transform="translate(-7921.38 -7916.434)" fill="none" stroke="#ec6448" stroke-linejoin="round" stroke-width="1.5"/>
          <path id="パス_504" data-name="パス 504" d="M7942.786,7935.959v4.932l4.583,2.9" transform="translate(-7917.431 -7909.687)" fill="none" stroke="#ec6448" stroke-linejoin="round" stroke-width="1.5"/>
        </g>
        <line id="線_104" data-name="線 104" x1="53.046" y2="53.046" transform="translate(11.013 11.013)" fill="none" stroke="#ec6448" stroke-linejoin="round" stroke-width="1.5"/>
      </g>
      <text id="パラベン" transform="translate(37.03 95.281)" fill="#ec6448" font-size="13" font-family="HiraginoSans-W5, Hiragino Sans" letter-spacing="0.08em"><tspan x="-27.56" y="0">パラベン</tspan></text>
    </g>
    <text id="ナノ原料" transform="translate(603.072 1273.281)" fill="#ec6448" font-size="13" font-family="HiraginoSans-W5, Hiragino Sans" letter-spacing="0.08em"><tspan x="-26.78" y="0">ナノ原料</tspan></text>
    <text id="マイクロ_プラスチックビーズ" data-name="マイクロ
プラスチックビーズ" transform="translate(471.217 1392.679)" fill="#ec6448" font-size="13" font-family="HiraginoSans-W5, Hiragino Sans" letter-spacing="0.08em"><tspan x="-27.105" y="0">マイクロ</tspan><tspan y="0" font-family="NotoSans-SemiBold, Noto Sans" font-weight="600"></tspan><tspan x="-60.97" y="19">プラスチックビーズ</tspan></text>
    <text id="動物由来原料" transform="translate(604.596 1392.679)" fill="#ec6448" font-size="13" font-family="HiraginoSans-W5, Hiragino Sans" letter-spacing="0.08em"><tspan x="-41.6" y="0">動物由来原料</tspan></text>
  </g>
</svg>
