<?xml version="1.0" encoding="utf-8"?>
<!-- Generator: Adobe Illustrator 25.4.1, SVG Export Plug-In . SVG Version: 6.00 Build 0)  -->
<svg version="1.1" id="レイヤー_1" xmlns="http://www.w3.org/2000/svg" xmlns:xlink="http://www.w3.org/1999/xlink" x="0px"
	 y="0px" viewBox="0 0 238 155" style="enable-background:new 0 0 238 155;" xml:space="preserve">
<style type="text/css">
	.st0{fill:#FF583B;}
	.st1{fill:#F7F8F8;}
	.st2{fill:#32667A;}
</style>
<g>
	<circle class="st0" cx="119" cy="20.5" r="20.2"/>
	<g>
		<path class="st0" d="M0.5,52.2c0-0.6,0-0.9-0.1-1.8c0.3,0,0.7,0.1,1.4,0.1h2.9c0.8,0,1.2,0,1.4-0.1l1.1,1.4
			c-0.1,0.2-0.2,0.4-0.6,1.5c-0.4,1.1-0.9,2.1-1.5,3.4c1.3,1.7,1.7,2.9,1.7,4.6c0,1.2-0.5,1.9-1.4,2.2c-0.5,0.2-1,0.2-2.2,0.2
			c0-0.9-0.1-1.4-0.4-2.1c0.3,0.1,0.6,0.1,0.9,0.1c0.8,0,1-0.2,1-0.9c0-0.7-0.1-1.4-0.4-2c-0.3-0.7-0.6-1.1-1.4-2
			c0.9-1.7,1.1-2.2,1.8-4.4H2.6v13.4c0,0.8,0,1.6,0.1,2.3H0.4c0.1-0.6,0.1-1.4,0.1-2.3V52.2z M9.6,59.4V65c2-0.5,2.2-0.5,3.3-0.8
			l0,2c-1.5,0.5-2,0.6-3.9,1c-0.8,0.2-0.9,0.2-2,0.5c-0.5,0.1-0.5,0.1-0.6,0.2C6,67.9,5.8,68,5.6,68.1l-0.4-2.2
			c0.4,0,1.1-0.1,2.3-0.3V52.6c0-0.9,0-1.4-0.1-2.1c0.4,0.1,0.8,0.1,1.9,0.1H15c1,0,1.3,0,1.8-0.1c0,0.4-0.1,0.9-0.1,2.2v4.6
			c0,1.1,0,1.5,0.1,2.1c-0.4,0-0.4,0-0.5,0l1.6,1.4c-0.1,0-0.4,0.3-0.6,0.4c-0.6,0.5-1.8,1.5-2.7,2.1c1,1.2,2.1,2.1,3.6,2.8
			c-0.5,0.6-0.8,1.1-1.3,2c-1.9-1.2-3.1-2.3-4.1-3.8c-0.9-1.4-1.4-2.7-2-4.8H9.6z M9.6,54.1h5.2v-1.6H9.6V54.1z M9.6,57.6h5.2v-1.7
			H9.6V57.6z M12.9,59.4c0.2,1,0.4,1.5,0.8,2.2c1.2-0.8,2.2-1.7,2.6-2.2c-0.3,0-0.6,0-1,0H12.9z"/>
		<path class="st0" d="M29,57.5h-2.9c-0.9,0-1.4,0-2,0.1v-2.1c0.5,0.1,1.1,0.1,2,0.1h7.5c0.9,0,1.5,0,2-0.1v2.1
			c-0.5-0.1-1.1-0.1-2-0.1h-2.6V60h3.7c0.9,0,1.4,0,2-0.1V62c-0.6-0.1-1.1-0.1-2-0.1h-3.7v3.4c1,0.1,2,0.2,3.2,0.2
			c1.1,0,2.5-0.1,4.5-0.2c-0.3,0.8-0.5,1.3-0.6,2.2c-1.6,0-2.7,0.1-4.2,0.1c-4.6,0-7.2-1-8.8-3.4c-0.7,1.4-1.4,2.5-2.7,3.9
			c-0.5-0.7-0.8-1-1.7-1.6c1.6-1.4,2.8-3.4,3.4-5.6c0.2-0.8,0.4-1.7,0.4-2.1l2.2,0.4c-0.1,0.3-0.1,0.4-0.3,1.2
			c-0.1,0.4-0.2,0.7-0.5,1.8c0.8,1.4,1.6,2.1,3,2.7V57.5z M28.7,51.2c0-0.5,0-0.8-0.1-1.3H31c-0.1,0.4-0.1,0.7-0.1,1.2v0.7h5.3
			c0.8,0,1.5,0,2.2-0.1c-0.1,0.5-0.1,0.9-0.1,1.5v1.5c0,0.6,0,1,0.1,1.6h-2.1v-2.5H23.5v2.5h-2.2c0.1-0.5,0.1-0.9,0.1-1.6v-1.5
			c0-0.5,0-1-0.1-1.5c0.7,0.1,1.4,0.1,2.2,0.1h5.1V51.2z"/>
		<path class="st0" d="M49.1,54.8c-3.7,0-6.3,0.1-6.9,0.3c0,0,0,0-0.1,0c-0.4,0-0.5-0.7-0.6-2.8c1,0.1,2.3,0.2,5.4,0.2
			c2.8,0,6-0.1,6.5-0.1c0.4,0,0.5-0.1,0.9-0.2c0.1,0,0.1,0,0.2,0c0.3,0,0.8,0.3,1.4,1.1c0.4,0.5,0.5,0.6,0.5,0.8
			c0,0.1-0.1,0.3-0.2,0.5c-0.2,0.2-0.2,0.3-0.7,1.7c-1.2,3.6-3.4,6.9-6.5,9.2c-1.2,0.9-2.4,1.7-2.7,1.7c-0.2,0-0.3,0-0.7-0.5
			c-0.6-0.6-1-0.9-1.5-1.2c3-1.5,4.7-2.8,6.2-4.8c1.4-1.8,2.3-3.7,2.8-6C51.4,54.8,51.4,54.8,49.1,54.8z M60.2,51
			c0,1.2-1,2.2-2.2,2.2c-1.2,0-2.2-1-2.2-2.2c0-1.2,1-2.2,2.2-2.2C59.2,48.8,60.2,49.8,60.2,51z M56.9,51c0,0.6,0.5,1.1,1.1,1.1
			c0.6,0,1.1-0.5,1.1-1.1s-0.5-1.1-1.1-1.1C57.4,49.9,56.9,50.4,56.9,51z"/>
		<path class="st0" d="M63.4,55.4c0-1.4,0-2.3-0.2-3.5c1,0,1.9,0.1,2.6,0.3c0.3,0.1,0.5,0.2,0.5,0.4c0,0.1,0,0.2-0.1,0.4
			c-0.2,0.6-0.2,0.6-0.2,9.9c3.1-1,4.8-1.9,7-3.5c1.2-0.8,2-1.6,3-2.5c0,0.1,0,0.2,0,0.2c0,0.7,0.1,1.4,0.2,2.3c0,0.2,0,0.3,0,0.3
			c0,0.3-0.3,0.6-1.4,1.5c-1.2,0.9-2.9,2.1-4.2,2.7c-1.1,0.6-2.2,1-3.7,1.5c-0.5,0.2-0.8,0.3-1,0.5c-0.2,0.1-0.3,0.2-0.5,0.2
			c-0.6,0-2-1.4-2-2c0-0.1,0-0.2,0.1-0.4c0.1-0.3,0.1-0.6,0.1-1.4V55.4z"/>
		<path class="st0" d="M86.4,56c5.8-1.4,6.3-1.6,6.8-2c0.2-0.1,0.3-0.2,0.5-0.2c0.3,0,0.8,0.4,1.3,1c0.6,0.6,0.8,1.1,0.8,1.3
			c0,0.3,0,0.3-0.5,0.7C95,57.1,95,57.1,94,58.5c-0.6,0.9-2,2.3-2.8,3c-0.2,0.2-0.4,0.3-0.5,0.3c-0.1,0-0.2,0-0.3-0.2
			c-0.5-0.5-0.9-0.8-1.7-1.2c1.7-1.3,3.2-2.8,3.7-3.8l-0.8,0.2c-0.1,0-1.8,0.5-5.2,1.4V62c0,1.1,0.2,1.6,0.8,1.9
			c0.6,0.2,1.5,0.3,2.7,0.3c1,0,2.5-0.1,3.7-0.3c0.4,0,0.5-0.1,0.6-0.1c0.4,0,0.5,0.3,0.6,1.9c0,0,0,0.1,0,0.1c0,0,0,0.1,0,0.1
			c0,0.2-0.1,0.4-0.2,0.5c-0.2,0.1-1.7,0.2-3.8,0.2c-2.6,0-3.9-0.2-4.9-0.6c-1.2-0.6-1.9-1.7-1.9-3.3v-3.7c-2.4,0.7-2.7,0.8-3.4,1.2
			c-0.1,0.1-0.2,0.1-0.3,0.1c-0.4,0-0.8-0.9-1.2-2.6c1.4-0.1,2.9-0.4,4.9-0.9v-1.9c0-1.7,0-2.7-0.2-3.6c1,0,2.1,0.1,2.7,0.3
			c0.2,0,0.3,0.1,0.3,0.3c0,0.1,0,0.1-0.2,0.5c-0.1,0.3-0.2,1-0.2,2V56z M94.5,53.5c-0.5-0.9-0.8-1.3-1.5-2.1
			c-0.1-0.1-0.1-0.1-0.1-0.2c0-0.1,0.1-0.2,0.5-0.5c0.3-0.2,0.5-0.3,0.6-0.3c0.2,0,0.4,0.2,0.9,0.7c0.6,0.7,1.1,1.4,1.1,1.6
			c0,0.2-0.9,1-1.2,1C94.6,53.7,94.6,53.7,94.5,53.5z M97.4,52c-0.3,0.2-0.5,0.3-0.6,0.3c-0.1,0-0.1,0-0.2-0.2
			c-0.6-0.9-0.9-1.3-1.5-2C95,50,95,50,95,49.9c0-0.2,0.8-0.7,1-0.7c0.1,0,0.2,0.1,0.4,0.2c0.6,0.6,1.5,1.7,1.5,2
			C98,51.5,97.8,51.7,97.4,52z"/>
		<path class="st0" d="M113.7,56.1c0.1,0.2,0.1,0.3,0.1,0.5c0,0.2-0.1,0.3-0.3,0.7c-1.1,1.5-2.3,2.7-4.2,4.1
			c-2.1,1.6-3.8,2.7-6.3,3.8c-1.6,0.7-1.7,0.8-1.9,1c-0.2,0.2-0.2,0.2-0.4,0.2c-0.2,0-0.3-0.2-0.7-0.6c-0.4-0.6-0.8-1.5-1-2.2
			c2.1-0.5,4.6-1.6,7-3.1c3.2-2,5.2-4,6.7-6.7C112.9,54.6,113.1,55,113.7,56.1z M100,52.6c0.3-0.4,0.5-0.5,0.7-0.5
			c0.4,0,1.9,1,3.2,2c0.8,0.6,1,0.9,1,1.1c0,0.1-0.4,0.7-0.9,1.3c-0.5,0.5-0.7,0.7-0.8,0.7c-0.1,0-0.1,0-1-0.8
			c-0.5-0.5-1.6-1.4-2.1-1.7c-0.7-0.5-0.7-0.5-0.9-0.6c-0.1-0.1-0.1-0.1-0.1-0.2C99.1,53.8,99.5,53.2,100,52.6z"/>
		<path class="st0" d="M121.5,61c0,1.3,0.1,4.6,0.1,5.6c0,0,0,0.1,0,0.1c0,0.2,0,0.3-0.1,0.4c-0.1,0.1-1,0.2-1.7,0.2
			c-0.7,0-0.8-0.1-0.8-0.5c0,0,0,0,0-0.1c0-0.5,0.1-6.5,0.1-8.9c0-4.7,0-6.1-0.2-7.3c1.5,0.1,2.1,0.2,2.7,0.3
			c0.2,0.1,0.3,0.2,0.3,0.3c0,0.1,0,0.1-0.1,0.5c-0.1,0.2-0.1,0.5-0.1,0.9c0,0,0,1.3-0.1,3.7c1.5,0.4,1.5,0.4,2.3,0.7
			c2.1,0.7,3.2,1.3,5.1,2.2c0.2,0.1,0.2,0.2,0.2,0.3c0,0.2-0.4,1.2-0.7,1.8c-0.2,0.3-0.3,0.5-0.4,0.5c-0.1,0-0.2,0-0.3-0.1
			c-2-1.3-4.1-2.3-6.2-2.9V61z"/>
		<path class="st0" d="M134,58c-0.2,0-0.2,0.1-0.4,0.1c-0.1,0.1-0.2,0.1-0.2,0.1c-0.5,0-0.8-0.8-1-2.3c0.2,0,0.3,0,0.4,0
			c0.9,0,3.1-0.3,4.4-0.5c0.4-1.8,0.7-3.2,0.7-4.1c0-0.1,0-0.2,0-0.3c0.9,0.1,1.7,0.3,2.3,0.5c0.3,0.1,0.5,0.3,0.5,0.5
			c0,0.1,0,0.2-0.1,0.3c-0.3,0.5-0.3,0.5-0.9,2.8c0.5-0.1,1-0.1,1.4-0.1c0.8,0,1.5,0.2,2,0.5c0.8,0.6,1.2,1.8,1.2,3.7
			c0,3.1-0.6,5.7-1.5,7c-0.7,0.9-1.5,1.3-2.7,1.3c-0.7,0-1.4-0.1-1.6-0.2c-0.2-0.1-0.2-0.1-0.2-0.9c-0.1-0.6-0.2-1-0.4-1.6
			c1.1,0.4,1.3,0.4,2,0.4c1,0,1.4-0.5,1.8-2.1c0.3-1.1,0.5-2.5,0.5-4c0-1.6-0.4-2.2-1.5-2.2c-0.4,0-1,0.1-1.4,0.1
			c-0.1,0.2-0.1,0.3-0.2,0.5c-0.6,2.1-1.6,4.9-2.7,7.1c-1.1,2.2-1.4,2.7-1.6,2.7c-0.2,0-0.7-0.3-1.3-0.7c-0.5-0.3-0.6-0.4-0.6-0.6
			c0-0.1,0-0.1,0.8-1.4c1.1-1.7,2.6-5.2,3.1-7.2C135.1,57.7,134.2,57.9,134,58z M146.9,53.8c-0.3,0.2-0.6,0.3-0.7,0.3
			c-0.1,0-0.1,0-0.2-0.1c-0.4-0.7-1.2-1.5-1.7-2c0,0-0.1-0.1-0.1-0.1c0-0.1,0.1-0.2,0.5-0.5c0.3-0.2,0.5-0.3,0.6-0.3
			c0.3,0,2.1,1.8,2.1,2.2C147.5,53.3,147.4,53.5,146.9,53.8z M144.8,55.9c0-0.1,0.2-0.3,0.8-0.8c0.4-0.3,0.6-0.4,0.8-0.4
			c0.3,0,1.2,1,2.1,2.2c0.7,1,1.5,2.5,1.5,2.8c0,0.2-0.1,0.3-0.7,0.8c-0.4,0.3-0.9,0.6-1,0.6c-0.1,0-0.2-0.1-0.3-0.4
			c-0.4-1-0.7-1.7-1.3-2.5c-0.6-0.9-0.6-0.9-1.6-2C144.8,56.1,144.8,56,144.8,55.9z M147.5,49.6c0.3,0,2.1,1.7,2.1,2.1
			c0,0.1-0.1,0.2-0.5,0.5c-0.4,0.3-0.6,0.4-0.6,0.4c-0.1,0-0.1,0-0.5-0.6c-0.3-0.5-1-1.2-1.4-1.5c-0.1-0.1-0.1-0.1-0.1-0.2
			C146.4,50.3,147.2,49.6,147.5,49.6z"/>
		<path class="st0" d="M157.2,65.6c0,0.9,0,1.6,0.1,2.4H155c0.1-0.7,0.1-1.4,0.1-2.4v-5.8c0-0.9,0-1.5,0.1-2.2
			c-0.7,1.1-1,1.5-1.7,2.3c-0.3-0.9-0.6-1.5-1.1-2.3c1.5-1.5,2.7-3.3,3.7-5.5c0.5-1.1,0.7-1.8,0.8-2.5l2.3,0.6
			c-0.1,0.3-0.3,0.6-0.5,1.2c-0.2,0.7-0.8,1.9-1.3,3V65.6z M165.8,52.4c0-0.9,0-1.8-0.1-2.4h2.4c-0.1,0.7-0.1,1.4-0.1,2.4v1.7h0.6
			c0.9,0,1.4,0,1.9-0.1v2.2c-0.5,0-1.2-0.1-1.8-0.1H168v9.2c0,1-0.2,1.6-0.7,2c-0.4,0.3-1,0.4-2.4,0.4c-0.7,0-1.3,0-2.1-0.1
			c-0.1-0.9-0.2-1.4-0.6-2.2c1.1,0.2,1.7,0.2,2.4,0.2c1.1,0,1.3-0.1,1.3-0.5v-8.9h-5.4c-0.8,0-1.7,0-2.3,0.1V54
			c0.6,0.1,1.3,0.1,2.2,0.1h5.4V52.4z M160.8,57.5c1.4,1.7,2.1,2.8,3,4.6l-1.9,1.3c-0.9-2.1-1.6-3.2-2.9-4.8L160.8,57.5z"/>
		<path class="st0" d="M174.3,54.2c0-0.6,0-1.4-0.1-1.9c0.9,0.1,1.6,0.2,2.2,0.5c0.5,0.2,0.7,0.3,0.7,0.5c0,0.1,0,0.1-0.1,0.3
			c-0.3,0.7-0.3,1.5-0.3,3.4c0,2.6,0.2,4.3,0.6,5.5c0.3,1,0.8,1.5,1.3,1.5c0.8,0,1.5-1,2.3-3.3c0.4,1,0.5,1.4,1.1,2.1
			c0.1,0.1,0.2,0.3,0.2,0.4c0,0.3-0.3,1-0.7,1.6c-0.8,1.2-1.8,1.8-2.9,1.8c-1.6,0-2.8-1.3-3.5-3.8c-0.5-1.6-0.7-3.7-0.7-6.6V54.2z
			 M186.5,54.6c0.1,0,0.2,0.1,0.4,0.2c1,1,2.1,2.6,2.8,4.2c0.5,1.1,0.9,2.5,0.9,3c0,0.2-0.1,0.3-0.5,0.5c-0.5,0.2-1.4,0.6-1.7,0.6
			c-0.2,0-0.3-0.1-0.3-0.5c-0.3-1.6-0.6-2.7-1.3-4.1c-0.6-1.2-0.6-1.3-2-3C185.6,54.9,186.3,54.6,186.5,54.6z"/>
		<path class="st0" d="M194.3,55.5c-0.5,0.1-0.7,0.2-1.5,0.5c-0.3,0.1-0.4,0.1-0.5,0.1c-0.5,0-0.9-0.8-1.2-2.6
			c1.3-0.1,1.8-0.1,4.1-0.5c2.5-0.4,5.6-0.8,7.2-1c1.9-0.2,3.3-0.5,4.1-0.7c0.1,0,0.2,0,0.3,0c0.3,0,0.4,0.1,0.6,0.6
			c0.2,0.4,0.3,1,0.3,1.3c0,0.2-0.1,0.3-0.4,0.3c-0.4,0-0.8,0-1.2,0.1c-3.5,0.6-6.2,3.6-6.2,6.8c0,2.4,1.9,4,5.1,4.3
			c0.3,0,0.4,0.1,0.4,0.4c0,0.5-0.2,1.5-0.4,2c-0.1,0.2-0.3,0.3-0.5,0.3s-0.9-0.1-1.5-0.3c-3.5-1-5.3-3.2-5.3-6.4
			c0-1.7,0.6-3.3,1.6-4.6c0.6-0.7,1.1-1.2,2.2-2C198.7,54.6,195.9,55.1,194.3,55.5z"/>
		<path class="st0" d="M218.7,51.9c0,0.2-0.1,0.2-0.4,0.5c-0.1,0.1-0.3,0.2-0.5,0.5c-1.3,1.5-3.1,3.5-4.7,5.1
			c-0.3,0.3-0.5,0.6-0.5,0.9c0,0.2,0.2,0.5,0.6,0.8c1.2,1.1,3.2,3.1,4.6,4.8c1,1.2,1.3,1.5,1.3,1.7c0,0.2-0.3,0.6-1.2,1.2
			c-0.4,0.3-0.6,0.5-0.8,0.5c-0.2,0-0.3-0.1-0.5-0.4c-0.9-1.4-3-4-4.7-5.7c-0.9-0.9-1.1-1.1-1.4-1.5c-0.3-0.5-0.5-0.9-0.5-1.4
			c0-0.4,0.1-0.8,0.4-1.3c0.2-0.4,0.2-0.4,1.5-1.7c1.2-1.2,2.5-2.8,3.3-3.9c0.5-0.8,0.8-1.3,1.1-2C217.8,50.9,218.7,51.5,218.7,51.9
			z"/>
		<path class="st0" d="M232.6,57.1c2.9,0,5,2,5,4.8c0,1.9-1,3.6-2.7,4.6c-1.2,0.7-2.6,1-4.2,1c-2.6,0-4.1-1-4.1-2.8
			c0-1.6,1.4-2.8,3.3-2.8c1.7,0,3,0.9,3.8,2.7c1-0.8,1.5-1.6,1.5-2.7c0-1.8-1.3-2.9-3.2-2.9c-2,0-4.2,1-6,2.8
			c-0.3,0.3-0.6,0.7-1,1.2c-0.1,0.2-0.2,0.3-0.4,0.3c-0.4,0-1.8-1.4-1.8-1.8c0-0.2,0.1-0.3,0.5-0.6c0.5-0.4,1.2-1,2-1.8
			c2-1.9,3.5-3.5,5.6-6.1c-2.6,0.3-4.3,0.6-4.9,0.8c-0.1,0-0.2,0-0.2,0c-0.2,0-0.3-0.1-0.4-0.4c-0.2-0.6-0.4-1.3-0.4-2.2
			c0.6,0.1,0.9,0.1,1.4,0.1c1,0,2.7-0.1,4.8-0.4c0.8-0.1,1-0.1,1.6-0.4c0.2-0.1,0.3-0.1,0.4-0.1c0.3,0,0.6,0.2,1.1,1.1
			c0.4,0.5,0.5,0.8,0.5,1c0,0.3-0.1,0.3-0.5,0.6c-0.4,0.2-0.6,0.4-1.1,0.9c-1,1-1,1-2.3,2.3c-0.9,0.9-1,1-1.8,1.9
			C230.4,57.4,231.4,57.1,232.6,57.1z M230.7,64.2c-0.3-0.2-0.7-0.3-1-0.3c-0.6,0-1,0.3-1,0.8c0,0.6,0.6,1,1.6,1
			c0.5,0,0.8,0,1.4-0.2C231.3,64.8,231.1,64.5,230.7,64.2z"/>
	</g>
	<g>
		<path class="st1" d="M112.7,28c-1.1,0-2.1-0.3-3-0.9c-0.9-0.6-1.6-1.4-2.1-2.5c-0.5-1.1-0.8-2.4-0.8-4c0-1.6,0.3-2.9,0.8-4
			c0.5-1.1,1.2-1.9,2.1-2.5c0.9-0.6,1.9-0.9,3-0.9c1.1,0,2.1,0.3,3,0.9c0.9,0.6,1.6,1.4,2.1,2.5c0.5,1.1,0.8,2.4,0.8,4
			c0,1.6-0.3,2.9-0.8,4c-0.5,1.1-1.2,1.9-2.1,2.5C114.8,27.8,113.8,28,112.7,28z M112.7,26.2c0.8,0,1.4-0.2,2-0.6
			c0.6-0.4,1-1,1.3-1.8c0.3-0.8,0.5-1.8,0.5-3.1s-0.2-2.2-0.5-3.1c-0.3-0.8-0.8-1.4-1.3-1.8c-0.6-0.4-1.2-0.6-2-0.6
			c-0.8,0-1.4,0.2-2,0.6c-0.6,0.4-1,1-1.3,1.8s-0.5,1.8-0.5,3.1s0.2,2.2,0.5,3.1c0.3,0.8,0.8,1.4,1.3,1.8
			C111.3,26,112,26.2,112.7,26.2z"/>
		<path class="st1" d="M125.3,28c-1,0-2-0.2-2.9-0.5c-1-0.3-1.7-0.7-2.3-1.3l0.9-1.6c0.5,0.5,1.1,0.8,1.9,1.1
			c0.8,0.3,1.6,0.4,2.5,0.4c1.1,0,1.9-0.2,2.5-0.7c0.6-0.5,0.9-1.1,0.9-1.9c0-0.8-0.3-1.4-0.9-1.8c-0.6-0.5-1.5-0.7-2.7-0.7h-1.2
			v-1.4l4.3-5.3l0.3,0.8h-7.9v-1.8h9.5v1.4l-4.3,5.2l-1.1-0.6h0.7c1.7,0,3,0.4,3.9,1.2c0.9,0.8,1.3,1.8,1.3,3c0,0.8-0.2,1.5-0.6,2.2
			s-1,1.2-1.8,1.6C127.5,27.8,126.5,28,125.3,28z"/>
	</g>
	<g>
		<path class="st2" d="M152.1,116H85.9c-0.6,0-1-0.4-1-1V98.5c0-0.6,0.4-1,1-1h66.1c0.6,0,1,0.4,1,1V115
			C153.1,115.5,152.6,116,152.1,116z M86.9,114h64.1V99.5H86.9V114z"/>
		<path class="st2" d="M147.9,154.7H90.1c-0.6,0-1-0.4-1-1V115c0-0.6,0.4-1,1-1h57.7c0.6,0,1,0.4,1,1v38.8
			C148.9,154.3,148.4,154.7,147.9,154.7z M91.1,152.7h55.7V116H91.1V152.7z"/>
		<g>
			<path class="st2" d="M113.1,154.7c-0.6,0-1-0.4-1-1V98.5c0-0.6,0.4-1,1-1s1,0.4,1,1v55.2C114.1,154.3,113.7,154.7,113.1,154.7z"
				/>
			<path class="st2" d="M124.9,154.7c-0.6,0-1-0.4-1-1V98.5c0-0.6,0.4-1,1-1s1,0.4,1,1v55.2C125.9,154.3,125.4,154.7,124.9,154.7z"
				/>
		</g>
		<g>
			<path class="st2" d="M119,99.5c-0.1,0-0.1,0-0.2,0c-0.5-0.1-0.9-0.6-0.8-1.2c1.6-8.4,8-12,13.3-12.7c4.8-0.6,9,1.1,10.4,4.1
				c0.7,1.6,1.2,5-3.8,9.5c-0.4,0.4-1,0.3-1.4-0.1c-0.4-0.4-0.3-1,0.1-1.4c3-2.7,4.2-5.2,3.3-7.2c-1-2.2-4.5-3.4-8.3-3
				c-4.7,0.5-10.2,3.7-11.6,11.1C119.9,99.2,119.5,99.5,119,99.5z"/>
			<path class="st2" d="M119,99.5c-0.5,0-0.9-0.3-1-0.8c-1.4-7.3-6.9-10.5-11.6-11.1c-3.8-0.4-7.3,0.8-8.3,3
				c-0.9,1.9,0.3,4.5,3.3,7.2c0.4,0.4,0.4,1,0.1,1.4c-0.4,0.4-1,0.4-1.4,0.1c-5-4.5-4.5-7.9-3.8-9.5c1.3-3,5.6-4.7,10.4-4.1
				c5.4,0.6,11.7,4.3,13.3,12.7c0.1,0.5-0.2,1.1-0.8,1.2C119.1,99.5,119.1,99.5,119,99.5z"/>
		</g>
	</g>
</g>
</svg>
