<svg xmlns="http://www.w3.org/2000/svg" width="446" height="124.75" viewBox="0 0 446 124.75">
  <g id="グループ_241" data-name="グループ 241" transform="translate(-387 -1177.25)">
    <circle id="楕円形_39" data-name="楕円形 39" cx="40" cy="40" r="40" transform="translate(387.75 1178)" fill="none" stroke="#ec6448" stroke-linejoin="round" stroke-width="1.5"/>
    <path id="パス_550" data-name="パス 550" d="M40.751,42.41,30.114,35.679,19.482,42.41V53.851l10.632,6.732,10.637-6.732Z" transform="translate(387 1177.25)" fill="none" stroke="#ec6448" stroke-linejoin="round" stroke-width="1.5"/>
    <path id="パス_551" data-name="パス 551" d="M51.383,24.242,40.751,17.51,30.114,24.242V35.68l10.637,6.732L51.383,35.68Z" transform="translate(387 1177.25)" fill="none" stroke="#ec6448" stroke-linejoin="round" stroke-width="1.5"/>
    <path id="パス_552" data-name="パス 552" d="M62.012,42.41,51.378,35.679,40.746,42.41V53.851l10.632,6.732,10.634-6.732Z" transform="translate(387 1177.25)" fill="none" stroke="#ec6448" stroke-linejoin="round" stroke-width="1.5"/>
    <path id="パス_553" data-name="パス 553" d="M46.5,45.506v5.255l4.884,3.093" transform="translate(387 1177.25)" fill="none" stroke="#ec6448" stroke-linejoin="round" stroke-width="1.5"/>
    <line id="線_161" data-name="線 161" x1="56.527" y2="56.527" transform="translate(399.486 1189.736)" fill="none" stroke="#ec6448" stroke-linejoin="round" stroke-width="1.5"/>
    <circle id="楕円形_40" data-name="楕円形 40" cx="40" cy="40" r="40" transform="translate(507.75 1178)" fill="none" stroke="#ec6448" stroke-linejoin="round" stroke-width="1.5"/>
    <path id="パス_554" data-name="パス 554" d="M161.129,24.912l14.314,27.814H146.815Z" transform="translate(387 1177.25)" fill="none" stroke="#ec6448" stroke-linejoin="round" stroke-width="1.5"/>
    <path id="パス_555" data-name="パス 555" d="M169.665,24.912a8.536,8.536,0,1,1-8.536-8.536,8.537,8.537,0,0,1,8.536,8.536" transform="translate(387 1177.25)" fill="#f7f8f8" stroke="#ec6448" stroke-width="1.5"/>
    <path id="パス_556" data-name="パス 556" d="M155.35,52.727a8.536,8.536,0,1,1-8.536-8.536,8.536,8.536,0,0,1,8.536,8.536" transform="translate(387 1177.25)" fill="#f7f8f8" stroke="#ec6448" stroke-width="1.5"/>
    <path id="パス_557" data-name="パス 557" d="M183.979,52.727a8.536,8.536,0,1,1-8.536-8.536,8.536,8.536,0,0,1,8.536,8.536" transform="translate(387 1177.25)" fill="#f7f8f8" stroke="#ec6448" stroke-width="1.5"/>
    <line id="線_162" data-name="線 162" x1="56.527" y2="56.527" transform="translate(519.486 1189.736)" fill="none" stroke="#ec6448" stroke-linejoin="round" stroke-width="1.5"/>
    <circle id="楕円形_44" data-name="楕円形 44" cx="40" cy="40" r="40" transform="translate(627.75 1178)" fill="none" stroke="#ec6448" stroke-linejoin="round" stroke-width="1.5"/>
    <circle id="楕円形_45" data-name="楕円形 45" cx="3.941" cy="3.941" r="3.941" transform="translate(654.423 1194.977)" fill="none" stroke="#ec6448" stroke-linejoin="round" stroke-width="1.5"/>
    <circle id="楕円形_46" data-name="楕円形 46" cx="3.941" cy="3.941" r="3.941" transform="translate(673.71 1191.036)" fill="none" stroke="#ec6448" stroke-linejoin="round" stroke-width="1.5"/>
    <circle id="楕円形_47" data-name="楕円形 47" cx="3.941" cy="3.941" r="3.941" transform="translate(685.018 1208.103)" fill="none" stroke="#ec6448" stroke-linejoin="round" stroke-width="1.5"/>
    <circle id="楕円形_48" data-name="楕円形 48" cx="3.941" cy="3.941" r="3.941" transform="translate(668.482 1208.103)" fill="none" stroke="#ec6448" stroke-linejoin="round" stroke-width="1.5"/>
    <circle id="楕円形_49" data-name="楕円形 49" cx="3.941" cy="3.941" r="3.941" transform="translate(642.601 1210.509)" fill="none" stroke="#ec6448" stroke-linejoin="round" stroke-width="1.5"/>
    <circle id="楕円形_50" data-name="楕円形 50" cx="3.941" cy="3.941" r="3.941" transform="translate(658.292 1228.262) rotate(-88.939)" fill="none" stroke="#ec6448" stroke-linejoin="round" stroke-width="1.5"/>
    <circle id="楕円形_51" data-name="楕円形 51" cx="3.941" cy="3.941" r="3.941" transform="translate(678.905 1224.395)" fill="none" stroke="#ec6448" stroke-linejoin="round" stroke-width="1.5"/>
    <circle id="楕円形_52" data-name="楕円形 52" cx="3.941" cy="3.941" r="3.941" transform="translate(664.541 1237.082)" fill="none" stroke="#ec6448" stroke-linejoin="round" stroke-width="1.5"/>
    <circle id="楕円形_53" data-name="楕円形 53" cx="3.941" cy="3.941" r="3.941" transform="translate(645.048 1230.525)" fill="none" stroke="#ec6448" stroke-linejoin="round" stroke-width="1.5"/>
    <line id="線_163" data-name="線 163" x1="56.527" y2="56.527" transform="translate(639.486 1189.736)" fill="none" stroke="#ec6448" stroke-linejoin="round" stroke-width="1.5"/>
    <circle id="楕円形_54" data-name="楕円形 54" cx="40" cy="40" r="40" transform="translate(747.75 1178)" fill="none" stroke="#ec6448" stroke-linejoin="round" stroke-width="1.5"/>
    <path id="パス_558" data-name="パス 558" d="M390.669,30.69h24.447a6.462,6.462,0,0,1,6.462,6.462V60.6h-3.543l-.949-8.774c-3.092,2.006-9.352,2.983-12.922-3.112h-9.925V60.6h-3.57L389.1,51.673l-2.723-2.065a6.908,6.908,0,0,1-2.68-4.666l-.853-7.025h-8.109a2.457,2.457,0,0,1-1.415-4.465l2.432-1.714a2.461,2.461,0,0,0,.629-.646l2.081-3.121a5.038,5.038,0,0,1,4.192-2.244h3.115a2.457,2.457,0,0,1,1.977,1Z" transform="translate(387 1177.25)" fill="none" stroke="#ec6448" stroke-linejoin="round" stroke-width="1.5"/>
    <path id="パス_559" data-name="パス 559" d="M385.619,27.9c1.48-1.567,3.657-3.483,6.791-3.309.523,2.961-2.089,5.573-4.876,5.747" transform="translate(387 1177.25)" fill="#f7f8f8" stroke="#ec6448" stroke-width="1.5"/>
    <path id="パス_561" data-name="パス 561" d="M420.794,33.911h0a4.179,4.179,0,0,1,4.179,4.179v8.359" transform="translate(387 1177.25)" fill="none" stroke="#ec6448" stroke-linejoin="round" stroke-width="1.5"/>
    <line id="線_164" data-name="線 164" x2="0.325" y2="1.654" transform="translate(800.099 1230.729)" fill="none" stroke="#ec6448" stroke-linejoin="round" stroke-width="1.5"/>
    <line id="線_165" data-name="線 165" x1="0.697" y2="1.741" transform="translate(795.43 1230.229)" fill="none" stroke="#ec6448" stroke-linejoin="round" stroke-width="1.5"/>
    <line id="線_166" data-name="線 166" x1="1.132" y2="1.132" transform="translate(791.6 1228.314)" fill="none" stroke="#ec6448" stroke-linejoin="round" stroke-width="1.5"/>
    <path id="パス_562" data-name="パス 562" d="M415.309,30.6s.522,5.05-4.353,5.485c-1.045,5.05-6.7,6.356-10.013,1.132a5.741,5.741,0,0,1-6.53-6.008" transform="translate(387 1177.25)" fill="none" stroke="#ec6448" stroke-linejoin="round" stroke-width="1.5"/>
    <path id="パス_563" data-name="パス 563" d="M386.892,50a4.725,4.725,0,0,0-3.559-8.04" transform="translate(387 1177.25)" fill="none" stroke="#ec6448" stroke-linejoin="round" stroke-width="1.5"/>
    <path id="パス_564" data-name="パス 564" d="M383.931,25.676c-.868-.271-2.605-2.225-2.714-4.776-1.682,1.682-1.248,4.07-.38,4.776" transform="translate(387 1177.25)" fill="none" stroke="#ec6448" stroke-linejoin="round" stroke-width="1.5"/>
    <path id="パス_565" data-name="パス 565" d="M388.653,25.676c-.868-.271-2.605-2.225-2.714-4.776-1.682,1.682-1.248,4.07-.38,4.776" transform="translate(387 1177.25)" fill="none" stroke="#ec6448" stroke-linejoin="round" stroke-width="1.5"/>
    <line id="線_167" data-name="線 167" x1="56.527" y2="56.527" transform="translate(759.486 1189.736)" fill="none" stroke="#ec6448" stroke-linejoin="round" stroke-width="1.5"/>
    <text id="パラベン" transform="translate(428 1280)" fill="#ec6448" font-size="14" font-family="HiraginoSans-W5, Hiragino Sans" letter-spacing="0.08em"><tspan x="-29.68" y="0">パラベン</tspan></text>
    <text id="ナノ原料" transform="translate(548 1280)" fill="#ec6448" font-size="14" font-family="HiraginoSans-W5, Hiragino Sans" letter-spacing="0.08em"><tspan x="-28.84" y="0">ナノ原料</tspan></text>
    <text id="動物由来原料" transform="translate(788 1280)" fill="#ec6448" font-size="14" font-family="HiraginoSans-W5, Hiragino Sans" letter-spacing="0.08em"><tspan x="-44.8" y="0">動物由来原料</tspan></text>
    <text id="マイクロ_プラスチックビーズ" data-name="マイクロ
プラスチックビーズ" transform="translate(668 1280)" fill="#ec6448" font-size="14" font-family="HiraginoSans-W5, Hiragino Sans" letter-spacing="0.08em"><tspan x="-29.19" y="0">マイクロ</tspan><tspan y="0" font-family="NotoSans-SemiBold, Noto Sans" font-weight="600"></tspan><tspan x="-65.66" y="20">プラスチックビーズ</tspan></text>
  </g>
</svg>
