<?xml version="1.0" encoding="utf-8"?>
<!-- Generator: Adobe Illustrator 28.0.0, SVG Export Plug-In . SVG Version: 6.00 Build 0)  -->
<svg version="1.1" id="グループ_59" xmlns="http://www.w3.org/2000/svg" xmlns:xlink="http://www.w3.org/1999/xlink" x="0px"
	 y="0px" viewBox="0 0 40 40" style="enable-background:new 0 0 40 40;" xml:space="preserve">
<style type="text/css">
	.st0{fill:#898989;}
</style>
<g id="グループ_25">
	<path id="パス_8" class="st0" d="M27.6,2.1H12.4C6.7,2.1,2.1,6.7,2.1,12.4v15.1c0,5.7,4.6,10.3,10.3,10.3l0,0h15.1
		c5.7,0,10.3-4.6,10.3-10.3V12.4C37.9,6.7,33.3,2.1,27.6,2.1z M34.6,27.8c0,3.8-3.1,6.9-6.9,6.9H12.3c-3.8,0-6.9-3.1-6.9-6.9
		c0,0,0,0,0,0V12.3c0-3.8,3.1-6.9,6.9-6.9l0,0h15.5c3.8,0,6.9,3.1,6.9,6.9c0,0,0,0,0,0L34.6,27.8z"/>
	<path id="パス_9" class="st0" d="M20,10.8c-5.1,0-9.3,4.2-9.3,9.3s4.2,9.3,9.3,9.3s9.3-4.2,9.3-9.3S25.1,10.8,20,10.8L20,10.8z
		 M20,26.1c-3.3,0-6-2.7-6-6s2.7-6,6-6s6,2.7,6,6C26,23.4,23.3,26.1,20,26.1z"/>
	<circle id="楕円形_1" class="st0" cx="29.6" cy="10.4" r="2.2"/>
</g>
</svg>
