<?xml version="1.0" encoding="utf-8"?>
<!-- Generator: Adobe Illustrator 28.0.0, SVG Export Plug-In . SVG Version: 6.00 Build 0)  -->
<svg version="1.1" id="グループ_270" xmlns="http://www.w3.org/2000/svg" xmlns:xlink="http://www.w3.org/1999/xlink" x="0px"
	 y="0px" viewBox="0 0 40 40" style="enable-background:new 0 0 40 40;" xml:space="preserve">
<style type="text/css">
	.st0{clip-path:url(#SVGID_00000070832091380104739720000001532402989870632882_);}
	.st1{fill:#898989;}
</style>
<g>
	<defs>
		<rect id="SVGID_1_" x="0.5" y="1.4" width="39" height="37.2"/>
	</defs>
	<clipPath id="SVGID_00000157290025514510995860000002861485305582141319_">
		<use xlink:href="#SVGID_1_"  style="overflow:visible;"/>
	</clipPath>
	<g id="グループ_269" style="clip-path:url(#SVGID_00000157290025514510995860000002861485305582141319_);">
		<path id="パス_539" class="st1" d="M20,1.4C9.2,1.4,0.5,8.5,0.5,17.2c0,8.4,6.9,14.4,16.3,15.6c0.6,0.1,1.5,0.4,1.7,1
			c0.2,0.6,0.2,1.2,0.1,1.8c0,0-0.2,1.4-0.3,1.7c-0.1,0.5-0.4,1.9,1.7,1.1c5.6-2.2,10.7-5.6,14.8-10c3.3-3.6,4.7-6.9,4.7-11
			C39.5,8.5,30.8,1.4,20,1.4 M14.8,21.3c0,0.2-0.1,0.3-0.3,0.3h-4.2c-0.2,0-0.3-0.1-0.3-0.3l0,0l0,0v-6.5c0-0.2,0.1-0.3,0.3-0.3h1.1
			c0.2,0,0.3,0.1,0.3,0.3V20h2.9c0.2,0,0.3,0.1,0.3,0.3L14.8,21.3z M17.3,21.3c0,0.2-0.1,0.3-0.3,0.3h-1.1c-0.2,0-0.3-0.1-0.3-0.3
			v-6.5c0-0.2,0.1-0.3,0.3-0.3H17c0.2,0,0.3,0.1,0.3,0.3V21.3z M24.5,21.3c0,0.2-0.1,0.3-0.3,0.3h-1.1c0,0,0,0-0.1,0l0,0l0,0h0l0,0
			l0,0h0l0,0l0,0c0,0-0.1,0-0.1-0.1l-3-4v3.9c0,0.2-0.1,0.3-0.3,0.3h-1.1c-0.2,0-0.3-0.1-0.3-0.3v-6.5c0-0.2,0.1-0.3,0.3-0.3h1.1h0
			h0h0h0l0,0h0l0,0h0l0,0l0,0l0,0l0,0l0,0h0l0,0l0,0c0,0,0,0,0,0l3,4v-3.8c0-0.2,0.1-0.3,0.3-0.3h1.1c0.2,0,0.3,0.1,0.3,0.3
			c0,0,0,0,0,0L24.5,21.3z M30.3,15.9c0,0.2-0.1,0.3-0.3,0.3h-2.9v1.1H30c0.2,0,0.3,0.1,0.3,0.3v1.1c0,0.2-0.1,0.3-0.3,0.3h-2.9V20
			H30c0.2,0,0.3,0.1,0.3,0.3v1.1c0,0.2-0.1,0.3-0.3,0.3h-4.2c-0.2,0-0.3-0.1-0.3-0.3l0,0l0,0v-6.5l0,0v0c0-0.2,0.1-0.3,0.3-0.3H30
			c0.2,0,0.3,0.1,0.3,0.3L30.3,15.9z"/>
	</g>
</g>
</svg>
