<svg xmlns="http://www.w3.org/2000/svg" xmlns:xlink="http://www.w3.org/1999/xlink" width="315.833" height="212.239" viewBox="0 0 315.833 212.239">
  <defs>
    <clipPath id="clip-path">
      <rect id="長方形_119" data-name="長方形 119" width="315.833" height="212.239" fill="#32667a"/>
    </clipPath>
  </defs>
  <g id="logo" transform="translate(0 0)">
    <g id="グループ_268" data-name="グループ 268" transform="translate(0 0)" clip-path="url(#clip-path)">
      <path id="パス_518" data-name="パス 518" d="M98.213,41.68l.951-2.46a29.361,29.361,0,0,0,13.448-8.289A65.961,65.961,0,0,0,125,12.4h1.271q-.318,4.68-.556,10.673T125.4,36.444h25.244v1.11l-1.666,4.126H125.159l-.924,37.561c.109,14.812.63,21.936,1.984,26.337a12.639,12.639,0,0,0,12.55,8.832,20.237,20.237,0,0,0,13.374-5.524l1.806,2.182c-2.519,3.146-8.686,8.183-16.242,8.763-8.422.649-17.076-2.394-22.177-9.915-2.945-4.338-3.988-11.08-3.988-18.435l.794-49.8Z" transform="translate(161.884 20.445)" fill="#32667a"/>
      <path id="パス_519" data-name="パス 519" d="M125.773,63.437c-.633,22.426-.8,42.277-13.663,57.926-10.545,12.828-24.277,19.269-41.544,19.714A71,71,0,0,1,42,135.95a49.852,49.852,0,0,1-19.348-14.3,55.753,55.753,0,0,1-10.7-22.362c-1.97-8.716-2.823-21.165-2.823-39.772.109-6.321.159-22.757.159-26.883V14.288q0-5.557-2.182-8.615C5.646,3.641,3.281,2.166,0,1.269V0H.953Q11.425.632,16.266.636c2.7,0,11.984-.159,18.173-.477C35.707.056,36.631,0,37.214,0V1.269q-4.918,1.037-7.1,4.086c-1.457,2.039-2.092,4.746-2.182,8.933-.535,24.989-.535,37.108.056,64.4a111.553,111.553,0,0,0,2.714,23q3.913,16,14.9,24.759c7.325,5.826,16.382,8.824,27.222,8.731,16.393-.143,28.787-6.923,36.978-18.011,10.5-14.213,10.35-32.227,10.744-50,.207-9.372.048-19.518.048-19.518q0-27.4-2.937-35.14a19.536,19.536,0,0,0-10.71-11.234V.005q4.445.322,8.212.474t6.782.159c3.175,0,7.238-.056,10.042-.159s5.5-.26,8.093-.474V1.274A19.638,19.638,0,0,0,128.813,13.66q-3.095,8.97-3.093,33.988Z" transform="translate(0 0.001)" fill="#32667a"/>
      <path id="パス_520" data-name="パス 520" d="M147.158,29.565C138.074,21.986,123.2,19.038,110.7,18.932a138.944,138.944,0,0,0-19.19,1.218A253.389,253.389,0,0,0,63.488,25.72c-.855.212-2.442.67-3.106.842a67.539,67.539,0,0,1-7.232,1.586l.021,1.271c3.287.318,5.953,1.189,7.2,2.617s1.9,4.468,1.981,9.123l.673,62.995q.358,21.03-1.687,26.658a10.791,10.791,0,0,1-7.81,7.142l.019,1.11q5.867-.238,9.91-.357t6.5-.119q4.286,0,8.769.119t9.092.357l-.019-1.11q-7.095-1.752-9.642-7.1a16.881,16.881,0,0,1-1.165-5.148,18.294,18.294,0,0,1,6.668-16.07c6.5-5.275,14.91-7.394,24.862-8.3,14-1.279,27.566-4.812,37.089-11.761a38.23,38.23,0,0,0,16.017-30.439c.2-12.82-5.389-21.989-14.468-29.566M130.243,90.571c-4.952,2.8-11.915,4.6-21.4,5.686-17.5,2-28.6,6-33.154,15.739,0-.061-1.525-83.419-1.525-83.419a104.926,104.926,0,0,1,33.885-5.307c11.708.339,21.115,4.073,27.508,9.536a34.27,34.27,0,0,1,11.939,26.708c-.331,12.27-5.008,24.137-17.248,31.057" transform="translate(87.605 31.2)" fill="#32667a"/>
      <path id="パス_521" data-name="パス 521" d="M9.634,81.353a5.663,5.663,0,0,1-3.265.983H1.875v5.458H0V75.3H6.369a5.489,5.489,0,0,1,3.228.964,3.087,3.087,0,0,1,1.446,2.553,3.024,3.024,0,0,1-1.409,2.532M8.279,77.375a3.6,3.6,0,0,0-1.909-.5H1.875v3.89H6.369a3.449,3.449,0,0,0,1.909-.516,1.6,1.6,0,0,0,0-2.873" transform="translate(0 124.124)" fill="#32667a"/>
      <path id="パス_522" data-name="パス 522" d="M15.554,87.793l-3.408-4.37a3.266,3.266,0,0,0-2.783-1.088H7.117v5.458H5.242V75.3h6.369a5.489,5.489,0,0,1,3.228.964,3.087,3.087,0,0,1,1.446,2.553,2.869,2.869,0,0,1-.945,2.14,5.017,5.017,0,0,1-2.426,1.231q.552.036,1.465,1.231l3.406,4.37ZM13.521,77.375a3.6,3.6,0,0,0-1.909-.5H7.117v3.89h4.494a3.449,3.449,0,0,0,1.909-.516,1.6,1.6,0,0,0,0-2.873" transform="translate(8.64 124.124)" fill="#32667a"/>
      <path id="パス_523" data-name="パス 523" d="M24.01,86.376A8.365,8.365,0,0,1,18.459,88.3a8.455,8.455,0,0,1-5.583-1.925,5.852,5.852,0,0,1,0-9.28,8.462,8.462,0,0,1,5.583-1.907A8.376,8.376,0,0,1,24.01,77.1a5.8,5.8,0,0,1,0,9.28M22.688,78.2a6.462,6.462,0,0,0-4.229-1.462A6.4,6.4,0,0,0,14.214,78.2a4.444,4.444,0,0,0,0,7.066,6.4,6.4,0,0,0,4.245,1.464,6.464,6.464,0,0,0,4.229-1.464,4.416,4.416,0,0,0,0-7.066" transform="translate(17.457 123.936)" fill="#32667a"/>
      <path id="パス_524" data-name="パス 524" d="M28.572,85.974a8,8,0,0,1-5.281,1.819h-5.62V75.3h5.62a7.9,7.9,0,0,1,5.281,1.838,5.511,5.511,0,0,1,0,8.832m-1.319-7.725a5.967,5.967,0,0,0-3.962-1.374H19.547v9.367h3.745a6.054,6.054,0,0,0,3.962-1.372,4.211,4.211,0,0,0,1.66-3.321,4.153,4.153,0,0,0-1.66-3.3" transform="translate(29.129 124.124)" fill="#32667a"/>
      <path id="パス_525" data-name="パス 525" d="M51.873,85.974a8,8,0,0,1-5.281,1.819h-5.62V75.3h5.62a7.9,7.9,0,0,1,5.281,1.838,5.511,5.511,0,0,1,0,8.832m-1.319-7.725a5.967,5.967,0,0,0-3.962-1.374H42.848v9.367h3.745a6.054,6.054,0,0,0,3.962-1.372,4.211,4.211,0,0,0,1.66-3.321,4.153,4.153,0,0,0-1.66-3.3" transform="translate(67.535 124.124)" fill="#32667a"/>
      <path id="パス_526" data-name="パス 526" d="M34.018,86.634a6.778,6.778,0,0,1-8.456,0A4.418,4.418,0,0,1,23.8,83.12V75.3h1.872V83.12a3.041,3.041,0,0,0,1.213,2.426,4.292,4.292,0,0,0,2.908,1,4.342,4.342,0,0,0,2.91-1,3.074,3.074,0,0,0,1.213-2.426V75.3h1.872V83.12a4.389,4.389,0,0,1-1.766,3.514" transform="translate(39.223 124.125)" fill="#32667a"/>
      <path id="パス_527" data-name="パス 527" d="M37.269,88.3a8.534,8.534,0,0,1-5.585-1.928A5.9,5.9,0,0,1,29.4,81.739a5.82,5.82,0,0,1,2.283-4.621,8.459,8.459,0,0,1,5.585-1.928A8.383,8.383,0,0,1,42.82,77.1l-1.34,1.088a6.883,6.883,0,0,0-8.459.019,4.444,4.444,0,0,0,0,7.066,6.408,6.408,0,0,0,4.248,1.462,6.54,6.54,0,0,0,4.211-1.427l1.34,1.07A8.358,8.358,0,0,1,37.269,88.3" transform="translate(48.461 123.936)" fill="#32667a"/>
      <path id="パス_528" data-name="パス 528" d="M35.714,87.794V75.3H46.206v1.57H37.589v3.89h6.745v1.568H37.589v3.909h8.618v1.552Z" transform="translate(58.866 124.125)" fill="#32667a"/>
      <path id="パス_529" data-name="パス 529" d="M60.806,86.813a5.574,5.574,0,0,1-3.265.98H50.795V75.3h6.372a5.489,5.489,0,0,1,3.228.964,3.086,3.086,0,0,1,1.446,2.55q0,1.911-2.267,2.677,2.642.7,2.64,2.783a3.029,3.029,0,0,1-1.409,2.534m-1.729-9.439a3.6,3.6,0,0,0-1.909-.5h-4.5v3.89h4.5a3.441,3.441,0,0,0,1.909-.519,1.6,1.6,0,0,0,0-2.871m.373,5.477a3.45,3.45,0,0,0-1.909-.516H52.67v3.906h4.87a3.563,3.563,0,0,0,1.909-.516,1.6,1.6,0,0,0,0-2.873" transform="translate(83.725 124.124)" fill="#32667a"/>
      <path id="パス_530" data-name="パス 530" d="M63.39,81.819V87.8H61.518V81.819L56,75.3h2.338l4.121,4.873L66.584,75.3h2.3Z" transform="translate(92.311 124.123)" fill="#32667a"/>
      <path id="パス_531" data-name="パス 531" d="M72.661,81.819V87.8H70.789V81.819L65.275,75.3h2.338l4.121,4.873L75.855,75.3h2.3Z" transform="translate(107.592 124.123)" fill="#32667a"/>
      <path id="パス_532" data-name="パス 532" d="M81.258,86.634a6.778,6.778,0,0,1-8.456,0,4.418,4.418,0,0,1-1.766-3.514V75.3h1.872V83.12a3.041,3.041,0,0,0,1.213,2.426,4.292,4.292,0,0,0,2.908,1,4.343,4.343,0,0,0,2.91-1,3.074,3.074,0,0,0,1.213-2.426V75.3h1.872V83.12a4.389,4.389,0,0,1-1.766,3.514" transform="translate(117.088 124.125)" fill="#32667a"/>
      <path id="パス_533" data-name="パス 533" d="M89.842,87.794V77.32L85.274,87.794h-2L78.69,77.267V87.794H76.815V75.3h3l4.441,10.207L88.719,75.3h3V87.794Z" transform="translate(126.614 124.125)" fill="#32667a"/>
      <rect id="長方形_117" data-name="長方形 117" width="1.875" height="12.489" transform="translate(221.824 199.427)" fill="#32667a"/>
      <path id="パス_534" data-name="パス 534" d="M100.128,87.794l-1.231-2.8H92.456l-1.25,2.8H89.225L94.686,75.3h2l5.458,12.489ZM95.684,77.588l-2.569,5.834h5.1Z" transform="translate(147.069 124.125)" fill="#32667a"/>
      <path id="パス_535" data-name="パス 535" d="M106.144,85.974a8,8,0,0,1-5.281,1.819h-5.62V75.3h5.62a7.9,7.9,0,0,1,5.281,1.838,5.511,5.511,0,0,1,0,8.832m-1.319-7.725a5.967,5.967,0,0,0-3.962-1.374H97.119v9.367h3.745a6.054,6.054,0,0,0,3.962-1.372,4.211,4.211,0,0,0,1.66-3.321,4.153,4.153,0,0,0-1.66-3.3" transform="translate(156.99 124.124)" fill="#32667a"/>
      <path id="パス_536" data-name="パス 536" d="M111.768,87.794l-1.231-2.8H104.1l-1.25,2.8h-1.981L106.326,75.3h2l5.458,12.489Zm-4.444-10.207-2.569,5.834h5.1Z" transform="translate(166.255 124.125)" fill="#32667a"/>
      <path id="パス_537" data-name="パス 537" d="M114.259,88.3a8.529,8.529,0,0,1-5.585-1.928,5.9,5.9,0,0,1-2.283-4.637,5.812,5.812,0,0,1,2.283-4.621,9.035,9.035,0,0,1,11.133-.019l-1.34,1.088a6.883,6.883,0,0,0-8.459.019,4.448,4.448,0,0,0,0,7.066,6.415,6.415,0,0,0,4.25,1.462,6.533,6.533,0,0,0,4.208-1.427l1.34,1.07a8.351,8.351,0,0,1-5.548,1.928" transform="translate(175.364 123.936)" fill="#32667a"/>
      <path id="パス_538" data-name="パス 538" d="M122.82,87.794V82.333h-8.244v5.461H112.7V75.3h1.872v5.461h8.244V75.3h1.872V87.794Z" transform="translate(185.768 124.125)" fill="#32667a"/>
      <rect id="長方形_118" data-name="長方形 118" width="1.875" height="12.489" transform="translate(313.958 199.427)" fill="#32667a"/>
    </g>
  </g>
</svg>
