<?xml version="1.0" encoding="utf-8"?>
<!-- Generator: Adobe Illustrator 25.4.1, SVG Export Plug-In . SVG Version: 6.00 Build 0)  -->
<svg version="1.1" id="レイヤー_1" xmlns="http://www.w3.org/2000/svg" xmlns:xlink="http://www.w3.org/1999/xlink" x="0px"
	 y="0px" viewBox="0 0 41 41" style="enable-background:new 0 0 41 41;" xml:space="preserve">
<style type="text/css">
	.st0{fill:#FF583B;}
	.st1{fill:#F7F8F8;}
</style>
<circle class="st0" cx="20.5" cy="20.5" r="20.2"/>
<g>
	<path class="st1" d="M17,28.7c-1.1,0-2.1-0.3-3-0.9c-0.9-0.6-1.6-1.4-2.1-2.5c-0.5-1.1-0.8-2.4-0.8-4s0.3-2.9,0.8-4
		s1.2-1.9,2.1-2.5c0.9-0.6,1.9-0.9,3-0.9c1.1,0,2.1,0.3,3,0.9c0.9,0.6,1.6,1.4,2.1,2.5s0.8,2.4,0.8,4s-0.3,2.9-0.8,4
		c-0.5,1.1-1.2,1.9-2.1,2.5C19.1,28.5,18.1,28.7,17,28.7z M17,26.9c0.8,0,1.4-0.2,2-0.6c0.6-0.4,1-1,1.3-1.8
		c0.3-0.8,0.5-1.8,0.5-3.1c0-1.2-0.2-2.2-0.5-3.1c-0.3-0.8-0.8-1.4-1.3-1.8c-0.6-0.4-1.2-0.6-2-0.6c-0.8,0-1.4,0.2-2,0.6
		c-0.6,0.4-1,1-1.3,1.8c-0.3,0.8-0.5,1.8-0.5,3.1c0,1.2,0.2,2.2,0.5,3.1c0.3,0.8,0.8,1.4,1.3,1.8C15.6,26.7,16.3,26.9,17,26.9z"/>
	<path class="st1" d="M27.8,28.6V15l0.9,1h-4.1v-1.8h5.3v14.4H27.8z"/>
</g>
</svg>
