<?xml version="1.0" encoding="utf-8"?>
<!-- Generator: Adobe Illustrator 25.4.1, SVG Export Plug-In . SVG Version: 6.00 Build 0)  -->
<svg version="1.1" id="レイヤー_1" xmlns="http://www.w3.org/2000/svg" xmlns:xlink="http://www.w3.org/1999/xlink" x="0px"
	 y="0px" viewBox="0 0 41 41" style="enable-background:new 0 0 41 41;" xml:space="preserve">
<style type="text/css">
	.st0{fill:#FF583B;}
	.st1{fill:#F7F8F8;}
</style>
<circle class="st0" cx="20.5" cy="20.5" r="20.2"/>
<g>
	<path class="st1" d="M14.2,28.1c-1.1,0-2.1-0.3-3-0.9c-0.9-0.6-1.6-1.4-2.1-2.5c-0.5-1.1-0.8-2.4-0.8-4c0-1.6,0.3-2.9,0.8-4
		c0.5-1.1,1.2-1.9,2.1-2.5c0.9-0.6,1.9-0.9,3-0.9c1.1,0,2.1,0.3,3,0.9c0.9,0.6,1.6,1.4,2.1,2.5c0.5,1.1,0.8,2.4,0.8,4
		c0,1.6-0.3,2.9-0.8,4c-0.5,1.1-1.2,1.9-2.1,2.5C16.3,27.8,15.3,28.1,14.2,28.1z M14.2,26.2c0.8,0,1.4-0.2,2-0.6
		c0.6-0.4,1-1,1.3-1.8c0.3-0.8,0.5-1.8,0.5-3.1s-0.2-2.2-0.5-3.1c-0.3-0.8-0.8-1.4-1.3-1.8c-0.6-0.4-1.2-0.6-2-0.6
		c-0.8,0-1.4,0.2-2,0.6c-0.6,0.4-1,1-1.3,1.8s-0.5,1.8-0.5,3.1s0.2,2.2,0.5,3.1c0.3,0.8,0.8,1.4,1.3,1.8
		C12.8,26,13.5,26.2,14.2,26.2z"/>
	<path class="st1" d="M26.8,28.1c-1,0-2-0.2-2.9-0.5c-1-0.3-1.7-0.7-2.3-1.3l0.9-1.6c0.5,0.5,1.1,0.8,1.9,1.1
		c0.8,0.3,1.6,0.4,2.5,0.4c1.1,0,1.9-0.2,2.5-0.7c0.6-0.5,0.9-1.1,0.9-1.9c0-0.8-0.3-1.4-0.9-1.8c-0.6-0.5-1.5-0.7-2.7-0.7h-1.2
		v-1.4l4.3-5.3l0.3,0.8h-7.9v-1.8h9.5v1.4l-4.3,5.2l-1.1-0.6H27c1.7,0,3,0.4,3.9,1.2c0.9,0.8,1.3,1.8,1.3,3c0,0.8-0.2,1.5-0.6,2.2
		s-1,1.2-1.8,1.6C29,27.9,28,28.1,26.8,28.1z"/>
</g>
</svg>
