<svg xmlns="http://www.w3.org/2000/svg" xmlns:xlink="http://www.w3.org/1999/xlink" width="56" height="56" viewBox="0 0 56 56">
  <defs>
    <clipPath id="clip-path">
      <rect id="長方形_121" data-name="長方形 121" width="56" height="56" fill="none" stroke="#ec6448" stroke-width="1"/>
    </clipPath>
  </defs>
  <g id="グループ_271" data-name="グループ 271" clip-path="url(#clip-path)">
    <ellipse id="楕円形_36" data-name="楕円形 36" cx="27.455" cy="27.455" rx="27.455" ry="27.455" transform="translate(0.545 0.545)" fill="none" stroke="#ec6448" stroke-linejoin="round" stroke-width="1"/>
    <path id="パス_540" data-name="パス 540" d="M52.051,15.963c-2.33-1.006-3.164-3.188-6.777-3.188-4.7,0-4.7,3.687-9.388,3.687s-4.7-3.687-9.391-3.687-4.7,3.687-9.393,3.687-4.706-3.687-9.41-3.687c-3.63,0-4.458,2.194-6.81,3.2" transform="translate(1.523 22.038)" fill="none" stroke="#ec6448" stroke-linejoin="round" stroke-width="1"/>
    <path id="パス_541" data-name="パス 541" d="M46.664,16.768a6.171,6.171,0,0,0-3.485-.959c-4.7,0-4.7,3.684-9.391,3.684s-4.7-3.684-9.391-3.684-4.7,3.684-9.391,3.684S10.3,15.809,5.6,15.809a6.19,6.19,0,0,0-3.5.965" transform="translate(3.619 27.271)" fill="none" stroke="#ec6448" stroke-linejoin="round" stroke-width="1"/>
    <path id="パス_542" data-name="パス 542" d="M55,13.388c-3.908-.4-4.175-3.646-8.587-3.646-4.693,0-4.693,3.684-9.388,3.684s-4.7-3.684-9.391-3.684-4.7,3.684-9.393,3.684-4.7-3.684-9.407-3.684C4.413,9.742,4.149,13,.222,13.388" transform="translate(0.383 16.806)" fill="none" stroke="#ec6448" stroke-linejoin="round" stroke-width="1"/>
    <path id="パス_543" data-name="パス 543" d="M29.379,21.4a5.424,5.424,0,0,0,5.347-6.33,5.623,5.623,0,0,0-5.638-4.513h-.477a4.5,4.5,0,0,1-3.886-2.507,5.633,5.633,0,0,0-9.887,0,4.5,4.5,0,0,1-3.886,2.507h-.477a5.624,5.624,0,0,0-5.638,4.51A5.424,5.424,0,0,0,10.184,21.4" transform="translate(8.216 8.832)" fill="none" stroke="#ec6448" stroke-linejoin="round" stroke-width="1"/>
  </g>
</svg>
