<?xml version="1.0" encoding="utf-8"?>
<!-- Generator: Adobe Illustrator 28.0.0, SVG Export Plug-In . SVG Version: 6.00 Build 0)  -->
<svg version="1.1" id="グループ_85" xmlns="http://www.w3.org/2000/svg" xmlns:xlink="http://www.w3.org/1999/xlink" x="0px"
	 y="0px" viewBox="0 0 130.3 32.4" style="enable-background:new 0 0 130.3 32.4;" xml:space="preserve">
<style type="text/css">
	.st0{fill:#898989;}
</style>
<path id="パス_380" class="st0" d="M75.2,16.6c-0.4-0.1-0.9-0.1-1.3-0.1c-0.8,0-1.6,0-2.4,0c-0.2,0-0.2,0-0.3-0.2
	c0-0.1-0.1-0.2-0.1-0.4c0,0,0,0,0,0c-0.1-0.3-0.1-0.6-0.2-0.9c-0.1-0.2-0.1-0.4-0.1-0.6c-0.1-0.2-0.1-0.5-0.2-0.7
	c0-0.2-0.1-0.4-0.2-0.7c-0.1-0.3-0.2-0.6-0.3-0.9c0-0.2-0.1-0.3-0.1-0.5c-0.1-0.3-0.1-0.6-0.3-0.9c-0.1-0.2-0.1-0.5-0.2-0.8
	c-0.1-0.3-0.2-0.7-0.3-1.1c-0.1-0.3-0.1-0.5-0.3-0.8c-0.1-0.2-0.1-0.4-0.2-0.6c0-0.2-0.1-0.4-0.2-0.6c-0.1-0.3-0.2-0.6-0.3-0.9
	s-0.2-0.6-0.2-0.9c0-0.1,0-0.1-0.1-0.2C68,4.7,68,4.4,67.8,4c-0.1-0.2-0.1-0.4-0.2-0.5c-0.1-0.4-0.2-0.7-0.3-1c0-0.1,0-0.3-0.1-0.4
	C67.2,1.7,67,1.3,66.8,1c-0.3-0.5-0.8-0.8-1.4-0.9c-0.1,0-0.2,0-0.3,0c-0.5,0.2-1,0.5-1.4,0.9c-0.4,0.4-0.9,0.8-1.3,1.2
	c-0.1,0-0.1,0.1-0.1,0.2c-0.4,0.4-0.8,0.9-1.2,1.3c-0.3,0.4-0.6,0.8-0.9,1.3c-0.2,0.3-0.4,0.6-0.6,1c-0.4,0.7-0.7,1.4-1,2.1
	c-0.1,0.4-0.2,0.8-0.3,1.1c-0.1,0.4-0.2,0.7-0.3,1.1c-0.1,0.3-0.1,0.6-0.1,0.9c0,0,0,0,0,0.1c0,0-0.1,0.1-0.1,0.1c0,0,0,0,0,0.1
	c0,0.2,0,0.3,0,0.5c0,0.1-0.1,0.2-0.1,0.3c0,0.2,0,0.5,0,0.7c0,0.2-0.1,0.4-0.1,0.6c0,0.3,0,0.7,0,1c0,0.2,0,0.3,0,0.5
	c0,0.5,0,1,0,1.5c0,0.2,0,0.4,0,0.5c0,0,0,0.1,0,0.1s0,0.1,0,0.1c0,0,0,0.1,0,0.1c0,0.5,0,1,0.1,1.5c0,0.1,0,0.1,0,0.2
	c0,0.1,0,0.2,0,0.3c0,0,0,0.1,0,0.1c0,0.3,0,0.5,0.1,0.8c0,0,0,0.1,0,0.1c0,0.2,0,0.4,0,0.7c0,0,0,0.1,0,0.1c0,0,0.1,0.1,0.1,0.1v0
	c0,0.3,0,0.6,0.1,0.9c0.1,0.5,0.2,1.1,0.2,1.6c0,0.3,0.1,0.6,0.2,0.9s0.1,0.6,0.2,0.9c0.1,0.4,0.2,0.9,0.3,1.3
	c0,0.2,0.1,0.5,0.1,0.7c0.1,0.2,0,0.3,0.1,0.5l0,0c0,0,0,0.1,0,0.1c0.1,0.4,0.2,0.8,0.2,1.1c0.1,0.4,0.2,0.8,0.3,1.1
	c0,0,0,0.1,0,0.1c0.1,0.4,0.2,0.9,0.4,1.3c0.1,0.3,0.4,0.6,0.7,0.7c0.2,0.1,0.4,0.1,0.5-0.1c0.1-0.1,0.1-0.1,0.2-0.2
	c0.1-0.1,0.2-0.3,0-0.4c0,0-0.1-0.1-0.1-0.1c-0.1,0-0.2-0.1-0.2-0.2c-0.1-0.2-0.2-0.5-0.3-0.7c-0.1-0.3-0.1-0.7-0.3-1
	c0-0.1,0-0.1,0-0.2c0-0.3-0.1-0.5-0.2-0.8c0-0.3-0.1-0.6-0.2-0.9c-0.1-0.5-0.2-0.9-0.3-1.4c-0.1-0.3-0.1-0.6-0.2-0.9
	c0-0.3-0.1-0.6-0.1-0.9c-0.1-0.2-0.1-0.4-0.1-0.6c0-0.3-0.1-0.7-0.2-1c0-0.2-0.1-0.4-0.1-0.6c0-0.1,0-0.1,0-0.2
	c-0.1-0.2-0.1-0.4-0.1-0.6c0-0.1,0-0.2,0-0.3c0-0.1,0-0.3-0.1-0.4l0,0h0c0.1-0.2,0.1-0.4,0-0.5c-0.1-0.3-0.1-0.5-0.1-0.8
	c0-0.1,0-0.1,0-0.2c0-0.4,0-0.8-0.1-1.3c-0.1-0.6-0.1-1.3,0-1.9c0-0.7,0-1.4,0-2.1c0-0.1,0-0.2,0-0.3c0-0.1,0-0.2,0.1-0.4
	c0.1-1,0.2-2,0.4-3c0.1-0.4,0.2-0.7,0.3-1.1c0,0,0-0.1,0.1-0.1c0,0,0,0,0-0.1c0-0.1,0-0.1,0.1-0.2c0.4-1,0.9-2,1.5-3
	c0.5-0.7,0.9-1.3,1.5-1.9c0.5-0.6,1.1-1.2,1.7-1.8c0.2-0.2,0.5-0.4,0.7-0.6c0.3-0.2,0.5-0.1,0.6,0.2c0.2,0.4,0.3,0.8,0.4,1.2
	c0.2,0.6,0.3,1.3,0.5,1.9c0,0.1,0.1,0.3,0.1,0.4c0.1,0.2,0.1,0.5,0.2,0.7c0.2,0.6,0.3,1.2,0.5,1.8c0.1,0.5,0.3,1.1,0.5,1.6
	c0,0.1,0.1,0.2,0.1,0.2c0,0,0,0,0,0.1l0,0.1l0,0.1l0,0c0.1,0.2,0.1,0.3,0.2,0.5l0,0.1c0,0.2,0.1,0.3,0.1,0.5c0,0,0,0,0,0.1
	c0,0.1,0.1,0.2,0.1,0.3c0,0.1,0,0.2,0.1,0.1v0c0,0,0,0.1,0,0.1l0.1,0.3c0,0.1,0,0.1,0,0.2c0.1,0.2,0.1,0.4,0.1,0.6
	c0,0.1,0,0.1,0,0.2c0,0,0,0.1,0,0.1c0,0,0,0.1,0,0.1l0.1,0.2c0,0.1,0,0.2,0,0.3c0,0.1,0.1,0.2,0.1,0.3l0,0.1
	c0.1,0.3,0.1,0.5,0.2,0.8l0,0.1c0.1,0.1,0,0.3,0.1,0.4l0,0.1c0.1,0.4,0.2,0.7,0.3,1.1c0.1,0.3,0,0.4-0.3,0.4c-0.2,0-0.4,0-0.6,0
	c-0.1,0-0.3,0-0.4,0c-0.1,0-0.1,0-0.2,0c-0.1,0-0.2,0-0.4,0l-0.2,0c-0.3,0-0.7,0-1,0.1c-0.2,0-0.4,0-0.6,0.1c-0.4,0-0.7,0-1.1,0
	c-0.6,0.1-1.1,0.1-1.7,0.3c-0.1,0-0.3,0.1-0.4,0.1c-0.2,0-0.3,0.1-0.5,0.1c-0.1,0-0.2,0-0.3,0.1c-0.1,0-0.1,0-0.2,0c0,0,0,0-0.1,0
	c-0.2,0-0.3,0-0.5,0.1c-0.4,0.1-0.8,0.1-1.2,0.1c-0.5,0-0.8,0.4-0.8,0.8c0,0,0,0,0,0.1c0,0.3,0.2,0.4,0.5,0.5
	c0.6,0.1,1.2,0.1,1.7-0.1c0.4-0.1,0.8-0.2,1.3-0.3c0.2-0.1,0.5-0.1,0.6-0.2v0c0,0,0.1,0.1,0.2,0c0.1,0,0.2,0,0.3-0.1
	c0.1,0,0.1,0,0.2-0.1c0.2,0,0.4,0,0.5-0.1c0,0,0.1,0,0.1,0c0.2,0,0.3-0.1,0.5-0.1c0.2-0.1,0.3,0,0.5-0.1C66,18,66.2,18,66.5,18
	c0.2,0,0.5,0,0.7-0.1c0.1,0,0.1,0,0.2,0c0.5-0.1,1,0,1.5-0.1c0.4,0,0.7,0,1.1,0c0.1,0.1,0.1,0.2,0.1,0.3c0.1,0.3,0.1,0.5,0.2,0.8
	c0.1,0.2,0,0.5,0.1,0.7c0,0.4,0.1,0.8,0.1,1.2c0,0.4,0.1,0.9,0.2,1.3c0.1,0.3,0.1,0.5,0.1,0.8c0,0.2,0,0.4,0,0.6c0,0,0,0.1,0,0.1
	c0,0.1,0,0.1,0.1,0.2c0,0.3,0.1,0.6,0.1,0.9s0,0.6,0.1,0.9c0,0.2,0,0.4,0,0.6c0,0.3-0.1,0.6,0,0.9c0,0.6-0.1,1.3-0.1,1.9
	c0,0,0,0.1,0,0.1c-0.1,0.2-0.1,0.4-0.2,0.6c-0.1,0.4-0.2,0.8-0.4,1.1c-0.1,0.2-0.1,0.4,0,0.6c0,0,0,0.1,0.1,0c0,0,0,0,0,0
	c0.2-0.2,0.5-0.3,0.6-0.5c0.2-0.3,0.4-0.7,0.6-1c0.1-0.3,0.2-0.6,0.3-0.9c0-0.1,0-0.3,0.1-0.3c0,0,0,0,0-0.1c0-0.2,0-0.5,0.1-0.7
	c0.1-0.3,0-0.6,0.1-0.9c0,0,0-0.1,0-0.1c0-0.1,0-0.2,0.1-0.4c0-0.6,0-1.1,0-1.7c0,0,0-0.1,0-0.1c0-0.1,0-0.2-0.1-0.3c0,0,0,0,0-0.1
	c0-0.5,0-1-0.1-1.6c0-0.1,0-0.2-0.1-0.3c-0.1-0.1,0-0.3-0.1-0.4c-0.1-0.5-0.2-1-0.2-1.5c0-0.1,0-0.1,0-0.2c-0.1-0.4-0.2-0.9-0.2-1.4
	c0-0.3-0.1-0.7-0.1-1c0,0,0-0.1,0-0.1c0,0,0-0.1,0-0.1c0-0.3,0-0.4,0.3-0.4l0.1,0c0.4,0,0.9-0.1,1.3-0.1c0.5-0.1,1-0.2,1.5-0.3
	c0.1,0,0.1,0,0.2-0.1c0,0,0.1,0,0.1-0.1l0,0l0,0l0,0c0.1,0,0.2,0,0.2-0.1l0,0l0,0l0,0c0,0,0.1,0,0.1,0l0,0l0,0l0,0l0,0
	c0,0,0.1,0,0.1-0.1C75.4,16.7,75.3,16.7,75.2,16.6z"/>
<path id="パス_381" class="st0" d="M123,21c0-0.4-0.1-0.8,0-1.3c0-0.1,0-0.2-0.1-0.2c-0.1-0.2-0.1-0.4-0.1-0.6
	c-0.1-0.3-0.2-0.6-0.3-0.9c-0.1-0.2-0.3-0.4-0.4-0.6c-0.2-0.3-0.4-0.5-0.7-0.7c-0.4-0.2-0.8-0.4-1.2-0.6c-0.3-0.1-0.5-0.2-0.8-0.2
	c-0.2,0-0.5-0.1-0.7,0.1c-0.3,0.1-0.5,0.2-0.8,0.3c-0.5,0.4-1,0.8-1.5,1.3c0,0,0,0,0,0.1l0,0c-0.1,0.1-0.3,0.3-0.4,0.5
	c-0.2,0.3-0.4,0.5-0.6,0.8c0,0,0,0,0,0.1c0,0-0.1,0.1-0.1,0.1c-0.2,0.2-0.4,0.5-0.5,0.8c0,0.1-0.1,0.1-0.1,0.1
	c-0.1,0-0.1-0.1-0.1-0.1c0,0,0-0.1,0-0.1c0-0.5-0.1-1-0.2-1.5c0-0.2,0-0.4-0.1-0.6l0,0c0-0.2,0-0.4-0.1-0.6c0-0.2,0-0.5-0.1-0.7
	c0,0,0-0.1,0-0.1c-0.1-0.2,0-0.5-0.1-0.7v0c-0.1-0.3,0.1-0.5-0.1-0.8c0-0.1-0.1-0.2,0-0.3c0-0.2,0-0.3-0.1-0.5c0-0.1,0-0.1,0-0.2
	c0-0.4-0.1-0.7-0.1-1.1c-0.1-0.1-0.1-0.3-0.1-0.4c0-0.4-0.1-0.8-0.1-1.2c0,0,0,0,0,0c-0.1-0.4-0.2-0.8-0.2-1.2c0-0.5,0-1,0-1.5
	c0-0.1,0-0.3,0.1-0.4c0-0.1,0-0.2,0-0.2c-0.1-0.1-0.1-0.2-0.2-0.2c-0.3-0.3-0.6-0.3-0.8,0.1c-0.1,0.2-0.1,0.3-0.2,0.5
	c-0.1,0.1,0,0.1-0.1,0.2c0,0,0,0,0,0c0,0,0,0,0,0c-0.1,0.2,0,0.5,0,0.7c0,0.8,0.1,1.6,0.2,2.4c0.1,0.1,0.1,0.2,0.1,0.3
	c0,0.2,0,0.3,0,0.5c0.1,0.4,0.1,0.8,0.2,1.1c0.1,0.4,0.1,0.8,0.1,1.2c0.1,0.9,0.2,1.7,0.3,2.6c0,0,0,0,0,0.1c0.1,0.4,0,0.8,0.1,1.1
	c0,0.3,0,0.6,0.1,1c-0.1,0.9,0.2,1.7,0.1,2.6c0,0,0,0.1,0,0.1c0,1.5,0,3-0.1,4.4c-0.1,1-0.1,2,0.1,3c0,0.1,0.1,0.1,0.1,0.1
	c0.2,0.3,0.5,0.2,0.7,0.2c0.2,0,0.3-0.2,0.4-0.3c0.1-0.1,0.1-0.2,0.1-0.3c0-0.6,0-1.2,0-1.8c0-0.2,0-0.5,0-0.7
	c0-0.2,0.1-0.4,0.1-0.7c0-0.2,0-0.5,0.1-0.7c0.1-0.3,0.1-0.7,0.2-1c0.1-0.2,0.1-0.4,0.1-0.6c0-0.2,0.1-0.5,0.1-0.7
	c0.1-0.5,0.3-0.9,0.4-1.4c0.1-0.3,0.2-0.6,0.4-0.9c0.1-0.2,0.3-0.5,0.4-0.7c0.1,0,0.1-0.1,0.1-0.2c0,0,0.1-0.1,0-0.1
	c0,0,0.1-0.1,0.1-0.1c0,0,0.1-0.1,0.1-0.2c0,0,0,0,0-0.1c0.1-0.2,0.3-0.4,0.4-0.6c0,0,0,0,0-0.1c0.1-0.1,0.3-0.3,0.4-0.4
	c0,0,0,0,0-0.1c0,0,0,0,0-0.1c0,0,0.1-0.1,0.1-0.1c0.1,0,0.1-0.1,0.2-0.2c0,0,0.1,0,0.1,0c0,0,0.1,0,0.1-0.1c0,0,0.1,0,0.1,0
	l0.2-0.2c0.1,0,0.1,0,0.2-0.1c0.1,0,0.2-0.1,0.3-0.1c0.2-0.1,0.4-0.1,0.6,0c0.2,0.1,0.5,0.1,0.7,0.2l0,0l0,0l0.2,0.1
	c0,0,0.1,0.1,0.2,0.1c0,0,0,0,0.1,0c0,0,0,0,0.1,0.1l0,0l-0.1,0l0,0l0,0l0,0l0,0l0,0l0,0c0,0,0,0,0.1,0c0,0,0,0,0.1,0.1h0
	c0,0.1,0,0.2,0.1,0.2c0.2,0.2,0.3,0.4,0.4,0.6c0,0.1,0.1,0.1,0.1,0.2l0,0.1l0,0.1l0,0.1c0,0,0,0.1,0,0.1l0,0.1c0,0.1,0,0.1,0,0.2
	c0,0,0,0,0,0.1c0,0.1,0,0.1,0,0.2c0,0,0,0,0,0.1c0,0.1,0,0.2,0,0.3c0,0,0,0.1,0,0.1c0.1,0.4,0.1,0.7,0.1,1.1v1.6
	c0,0.4,0,0.9-0.1,1.3c-0.1,0.4-0.1,0.8-0.2,1.2c-0.2,0.8-0.3,1.6-0.3,2.4c0,0.3,0.1,0.6,0.2,0.9c0,0.1,0.1,0.1,0.2,0.2
	c0.1,0.1,0.3,0.1,0.5,0c0.3-0.1,0.5-0.3,0.5-0.5c0-0.4,0.1-0.7,0.2-1.1c0-0.2,0-0.4,0.1-0.6c0-0.2,0-0.3,0.1-0.5
	c0-0.1,0-0.1,0.1-0.2c0-0.3,0-0.6,0.1-0.9c0,0,0-0.1,0-0.1c0-0.2,0-0.4,0-0.6c0-0.1,0-0.2,0.1-0.3c0-0.7,0-1.4,0.1-2.1
	C123.1,21.7,123,21.3,123,21z M118.1,17.7L118.1,17.7L118.1,17.7z M115.4,19L115.4,19L115.4,19L115.4,19z M116,18.1
	C116,18.2,116,18.2,116,18.1C116,18.2,116,18.2,116,18.1z M115.1,21.2L115.1,21.2C115.1,21.2,115.1,21.2,115.1,21.2L115.1,21.2z
	 M114.4,19.5L114.4,19.5L114.4,19.5L114.4,19.5z M116.6,19.4L116.6,19.4L116.6,19.4L116.6,19.4z M118,17.8L118,17.8
	C118,17.8,118,17.8,118,17.8z M115.4,19L115.4,19L115.4,19L115.4,19z M117.6,18.2L117.6,18.2C117.6,18.1,117.6,18.1,117.6,18.2
	C117.6,18.1,117.6,18.1,117.6,18.2L117.6,18.2L117.6,18.2L117.6,18.2C117.6,18.1,117.6,18.1,117.6,18.2L117.6,18.2z M117.6,18.1
	L117.6,18.1L117.6,18.1L117.6,18.1z M118,17.8C118,17.8,118,17.8,118,17.8L118,17.8L118,17.8L118,17.8C118,17.8,118,17.8,118,17.8
	L118,17.8z M118.1,17.7C118.1,17.7,118.2,17.7,118.1,17.7L118.1,17.7C118.2,17.7,118.1,17.7,118.1,17.7L118.1,17.7z"/>
<path id="パス_382" class="st0" d="M128.4,12.5c0.1,0,0.2-0.1,0.1-0.2c0-0.2-0.1-0.4-0.3-0.6c-0.1-0.1-0.3-0.2-0.4-0.3
	c-0.2-0.3-0.5-0.5-0.8-0.6c-0.3-0.1-0.5-0.1-0.6,0.2c0,0,0,0.1-0.1,0.1c-0.1,0.2-0.1,0.5,0.1,0.6c0.2,0.2,0.4,0.5,0.7,0.6
	c0.2,0.2,0.5,0.3,0.8,0.3C128.1,12.7,128.2,12.6,128.4,12.5z"/>
<path id="パス_383" class="st0" d="M130.3,27.7c0-0.4-0.1-0.8-0.1-1.2c-0.1-0.4-0.2-0.8-0.2-1.3c0-0.1,0-0.1,0-0.2
	c-0.1-0.3-0.1-0.5-0.2-0.8c0-0.3,0-0.6-0.1-1c0-0.3,0-0.6-0.1-0.9c0,0,0-0.1,0-0.1c-0.1-0.3,0-0.6-0.1-0.8l0,0c0-0.3,0-0.7-0.1-1
	c0-0.3-0.1-0.5-0.2-0.7c-0.1-0.2-0.3-0.3-0.5-0.3c-0.2-0.1-0.4,0-0.5,0.2c0,0,0,0,0,0c-0.1,0.2-0.1,0.4-0.1,0.6
	c0.1,0.2,0,0.5,0.1,0.7c0,0.2,0.1,0.4,0,0.6c0.1,0.2,0.1,0.5,0.1,0.7c0,0.2,0,0.4,0.1,0.6c0.1,0.4,0.1,0.8,0.2,1.2
	c0.1,0.5,0.1,1,0.3,1.5c0.1,0.5,0.1,0.9,0.3,1.4c0.1,0.4,0.2,0.7,0.3,1.1c0,0.2,0.2,0.3,0.4,0.3c0,0,0.1,0,0.1,0
	c0.1-0.1,0.3-0.1,0.4-0.2C130.2,28,130.3,27.8,130.3,27.7z"/>
<path id="パス_384" class="st0" d="M110.2,26.2c-0.1,0-0.3,0-0.4,0.1c-0.3,0.2-0.7,0.4-1,0.6c-0.2,0.1-0.5,0.2-0.7,0.3
	c-0.2,0.1-0.5,0-0.7-0.1c-0.3-0.2-0.7-0.3-1.1-0.5c-0.7-0.4-1.3-0.8-1.9-1.2c-0.5-0.4-0.9-0.8-1.2-1.4c0,0,0-0.1,0-0.1
	c0,0,0-0.1-0.1-0.1l0,0c0,0,0-0.1-0.1-0.2l0,0c0,0,0-0.1,0-0.2c0-0.3,0-0.5,0-0.8c0.1-0.4,0.1-0.8,0.2-1.3c0-0.1,0.1-0.3,0.2-0.4
	c0.2-0.4,0.5-0.8,0.8-1.2c0.2-0.2,0.3-0.3,0.5-0.5c0.6-0.6,1.3-1.2,2-1.6c0.3-0.2,0.7-0.4,1.1-0.4c0.2,0,0.3,0.1,0.4,0.2
	c0.1,0.2,0.2,0.3,0.3,0.5c0.1,0.2,0.1,0.4,0.2,0.5c0.2,0.5,0.4,0.4,0.7,0.3c0,0,0.1,0,0.1-0.1c0.2-0.1,0.4-0.3,0.3-0.6
	c0-0.2-0.1-0.4-0.2-0.5c-0.1-0.2-0.2-0.4-0.2-0.6c0,0,0-0.1-0.1-0.1c0,0-0.1-0.1-0.1-0.1c0,0-0.1,0-0.1-0.1
	c-0.1-0.3-0.3-0.5-0.5-0.6c-0.3-0.2-0.7-0.3-1-0.3c-0.2,0-0.5,0.1-0.7,0.1c-0.4,0.1-0.7,0.2-1,0.5c-0.3,0.2-0.7,0.5-1,0.7
	c-0.3,0.2-0.6,0.5-0.8,0.7c-0.3,0.3-0.6,0.7-0.9,1c-0.2,0.2-0.3,0.4-0.4,0.6c-0.3,0.5-0.6,1-0.8,1.6c-0.1,0.3-0.2,0.6-0.2,1
	c0,0.4,0,0.8,0,1.1c0,0.3,0.1,0.6,0.2,0.9c0.3,0.6,0.6,1.2,1.1,1.7c0.3,0.3,0.6,0.6,0.9,0.8c0.6,0.4,1.1,0.7,1.8,1
	c0.3,0.1,0.7,0.3,1,0.5c0.2,0.1,0.5,0.2,0.7,0.2c0.3,0,0.6,0,0.9,0c0.1-0.1,0.2-0.1,0.3-0.1c0.1,0,0.2-0.1,0.3-0.1
	c0.4-0.2,0.7-0.4,1-0.6c0.2-0.1,0.3-0.3,0.4-0.5c0,0,0-0.1,0-0.1c0-0.1,0-0.2,0.1-0.3C110.4,26.5,110.4,26.3,110.2,26.2z"/>
<path id="パス_385" class="st0" d="M120.6,17.7L120.6,17.7L120.6,17.7z"/>
<path id="パス_386" class="st0" d="M19.1,7.9L19.1,7.9c0-0.1,0-0.2,0.1-0.2c0.1-0.1,0.1-0.2,0.1-0.3l0-0.1c0-0.1,0-0.1,0.1-0.2
	l0-0.1c0,0,0-0.1,0.1-0.1c0,0,0-0.1,0-0.1l0,0c0,0,0-0.1,0-0.1c0-0.1,0-0.1,0-0.2l0-0.1c0,0,0-0.1,0-0.1c0,0,0-0.1,0-0.1l0,0
	c0.1-0.1,0.1-0.2,0-0.3V5.8c0-0.1,0-0.3,0-0.4c0.1-0.4,0.1-0.9,0-1.3L19.7,4c0,0,0,0,0-0.1c-0.1-0.3-0.4-0.5-0.7-0.6
	c-0.2-0.2-0.4-0.2-0.6,0c-0.3,0.2-0.7,0.5-0.6,1.1l0,0c0.1,0.3,0.4,0.4,0.6,0.4l0,0c0.1,0,0.1,0,0.1,0.1c0,0,0,0,0,0v0.1
	c0,0.2,0,0.3,0,0.5c-0.1,0.2-0.2,0.5-0.1,0.7c0,0,0,0.1,0,0.1l0,0l0,0c0,0.1-0.1,0.2-0.1,0.3c0,0,0,0.1,0,0.1c0,0,0,0.1,0,0.1
	c0,0.1-0.1,0.1-0.1,0.2c-0.2,0.5-0.4,1-0.6,1.5l0,0c-0.3,0.6-0.7,1.3-1.2,2.1c-0.4,0.7-0.8,1.3-1.2,1.9c-0.1,0.2-0.3,0.4-0.4,0.5
	s-0.3,0.4-0.4,0.6c-0.2,0.3-0.4,0.6-0.7,0.9c-0.4,0.6-0.9,1.1-1.4,1.7c-0.4,0.4-0.7,0.8-1.2,1.1c-0.6,0.4-1.3,0.7-2,0.7
	c-0.5,0-1-0.1-1.5-0.3c-0.2-0.1-0.4-0.2-0.6-0.4c-0.1-0.1-0.2-0.2-0.3-0.2c-0.1-0.1-0.1-0.1-0.2-0.2c-0.3-0.2-0.5-0.4-0.7-0.7
	c0,0-0.1-0.1-0.1-0.1c-0.1-0.1-0.1-0.1-0.2-0.2c-0.1-0.1-0.2-0.2-0.3-0.3c-0.6-0.8-1.1-1.6-1.5-2.4c0-0.1-0.1-0.2-0.2-0.3
	c-0.2-0.3-0.3-0.6-0.4-0.9c0,0,0-0.1,0-0.1l0,0L3,11.9c0-0.1,0-0.1-0.1-0.2c-0.1-0.3-0.3-0.6-0.4-0.9C2.4,10.4,2.3,10,2.2,9.5L2,9.1
	c0,0,0-0.1,0-0.1C2,9,2,9,2,9c0-0.2,0-0.3-0.1-0.5c0-0.1-0.1-0.2-0.1-0.3c0-0.1,0-0.2-0.1-0.3c0-0.1-0.1-0.3-0.1-0.5l0-0.1
	c0,0,0-0.1,0-0.1c0,0,0-0.1,0-0.1l0-0.1c0,0,0-0.1,0-0.1c0-0.1,0-0.1,0-0.2l0-0.1l0-0.1c0,0,0,0,0-0.1c0-0.1,0-0.2-0.1-0.2l0,0
	c0,0,0-0.1,0-0.1c0-0.1,0-0.1,0-0.2c0-0.1,0-0.1,0-0.2l0-0.1c0,0,0-0.1,0-0.1c0,0,0-0.1,0-0.1c0,0,0-0.1,0-0.1c0,0,0-0.1,0-0.1v0v0
	C1.2,4.1,1.2,3,1.4,1.9l0,0v0l0,0l0,0c0,0,0-0.1,0-0.1c0,0,0,0,0-0.1l0,0c0,0,0-0.1,0-0.1c0-0.1,0.1-0.3,0-0.4c0-0.1,0-0.3,0-0.4
	l0-0.1c0.1-0.1,0-0.2,0-0.3c0,0-0.1-0.1-0.1-0.1L1.4,0C1.1,0,0.9,0.1,0.8,0.4C0.7,0.6,0.5,0.9,0.4,1.1c0,0.1-0.1,0.2-0.1,0.3
	C0.2,1.6,0.2,1.7,0.2,1.8c0,0,0,0.1,0,0.1c0,0,0,0.1-0.1,0.1c0,0.1-0.1,0.2,0,0.4c0,0.1,0,0.1,0,0.2c0,0.1-0.1,0.1,0,0.2
	C0,2.8,0,2.9,0,3v2.5c0,0.1,0,0.3,0.1,0.4l0,0c0,0.1,0,0.1,0,0.2c0,0,0,0.1,0,0.1v0.1c0,0.1,0,0.3,0.1,0.4l0,0c0,0,0,0,0,0
	c0,0.3,0,0.5,0.1,0.8c0,0.1,0.1,0.2,0.1,0.4c0,0.1,0,0.2,0,0.3c0,0.1,0,0.2,0.1,0.3c0,0.2,0,0.3,0.1,0.5c0.1,0.2,0.1,0.4,0.1,0.6
	c0,0,0,0.1,0,0.1c0,0.2,0.1,0.3,0.1,0.5c0.1,0.2,0.2,0.5,0.2,0.8l0,0.1c0,0,0,0,0,0.1c0,0.1,0,0.1,0,0.2l0.2,0.6
	c0.1,0.3,0.2,0.6,0.4,0.9c0,0.1,0.1,0.1,0.1,0.2c0,0.1,0.1,0.2,0.1,0.2c0.1,0.4,0.3,0.8,0.5,1.1l0.1,0.2c0.3,0.5,0.5,1,0.9,1.4
	c0.5,0.7,1,1.3,1.5,1.9c0.4,0.4,0.9,0.8,1.4,1.1c0.2,0.1,0.4,0.2,0.6,0.3c0.1,0.1,0.2,0.1,0.4,0.2c0,0,0.1,0.1,0.1,0.1
	c0,0,0.1,0.1,0.2,0.1l0,0c0,0,0.1,0,0.1,0l0.5,0.1l-0.1,0c0.3,0.1,0.5,0.1,0.8,0.1c0.4,0,0.8-0.1,1.2-0.2l0.5-0.2
	c0.8-0.3,1.5-0.8,2.2-1.4c0.2-0.2,0.4-0.4,0.6-0.6c0.1-0.2,0.2-0.3,0.4-0.5c0.1-0.1,0.3-0.3,0.4-0.5l0.1-0.1
	c0.1-0.1,0.1-0.2,0.2-0.2c0.1-0.1,0.2-0.3,0.3-0.4c0.1-0.2,0.3-0.3,0.4-0.5c0.1-0.2,0.3-0.4,0.4-0.5c0,0,0.1-0.1,0.1-0.2
	c0.1-0.2,0.2-0.3,0.3-0.5l0.1-0.1c0.5-0.8,1-1.6,1.5-2.4l0.2-0.4c0,0,0-0.1,0.1-0.1c0.1-0.1,0.1-0.2,0.1-0.3
	C18.3,9.8,18.8,8.9,19.1,7.9C19.1,8,19.1,7.9,19.1,7.9z"/>
<path id="パス_387" class="st0" d="M28.7,25.4c-0.1,0-0.2-0.1-0.2-0.1l-0.1,0c0,0-0.1-0.1-0.2-0.1l0,0c-0.2-0.2-0.4-0.5-0.6-0.7
	c-0.1-0.1-0.1-0.2-0.2-0.3c-0.1-0.2-0.2-0.3-0.2-0.4c0-0.1-0.1-0.2-0.1-0.3l0,0l0,0c0-0.2-0.1-0.3-0.2-0.4c0-0.1-0.1-0.1-0.1-0.2
	c-0.2-0.4-0.3-0.7-0.5-1.1c-0.1-0.2-0.2-0.4-0.2-0.6c-0.2-0.4-0.3-0.8-0.3-1.2c0-0.3-0.2-0.6-0.5-0.7c0,0-0.1,0-0.1-0.1
	c-0.2-0.2-0.5-0.2-0.7,0c0,0-0.1,0.1-0.1,0.1c-0.2,0.3-0.2,0.6-0.1,0.9c0.1,0.3,0.1,0.5,0.2,0.8c0,0.3,0,0.6-0.1,0.8
	c0,0.1,0,0.2-0.1,0.4c0,0.3-0.1,0.6-0.2,0.9c-0.1,0.1-0.1,0.3-0.1,0.4c-0.1,0.2-0.1,0.4-0.2,0.6c-0.3,0.6-0.6,1.1-0.9,1.7l-0.5,0.7
	c-0.2,0.4-0.6,0.8-1,1.1c-0.2,0.2-0.3,0.2-0.5,0c-0.2-0.2-0.4-0.5-0.5-0.9l0,0l0,0c-0.1-0.4-0.2-0.8-0.3-1.2
	c-0.1-0.3-0.1-0.6-0.1-0.8l0-0.3c0,0,0-0.1,0-0.1c0-0.1,0-0.2,0-0.2l0,0c0,0,0-0.1,0-0.1c0,0,0-0.1,0-0.1v0c0-0.1,0-0.2,0-0.2v0
	c0-0.4,0-0.9,0-1.3c0-0.1,0-0.3,0-0.4c0-0.3,0-0.6,0-0.9c0-0.1,0-0.1,0-0.2c0,0,0-0.1,0-0.1c0,0,0.1-0.1,0.1-0.1l0.2-0.5
	c0,0,0-0.1,0.1-0.1c0,0,0.1-0.1,0.1-0.1c0.2-0.2,0.1-0.6,0-0.8l0,0l-0.1,0c-0.2-0.1-0.4,0-0.6,0.1c-0.3,0.2-0.6,0.5-0.8,0.9
	c-0.2,0.5-0.4,1-0.4,1.6c0,0,0,0.1,0,0.1c-0.1,0.3-0.1,0.7-0.1,1.1c0,0.1,0,0.3,0,0.4v0l0,0c0.1,0.1,0.1,0.3,0.1,0.4
	c0,0.1,0,0.2,0,0.3c0,0.1,0,0.3,0,0.4l0,0c0,0.1,0,0.1,0,0.2c0,0.1,0,0.2,0,0.2l0,0l0.1,0.1c0,0.1,0,0.1,0.1,0.2c0,0,0,0,0,0.1
	c0,0.2,0,0.4,0.1,0.6c0,0.1,0.1,0.3,0.1,0.4c0,0.2,0.1,0.4,0.1,0.6c0.1,0.2,0.1,0.3,0.2,0.5c0.1,0.2,0.1,0.4,0.2,0.5
	c0.1,0.3,0.3,0.6,0.5,0.9c0.1,0.1,0.2,0.2,0.3,0.3c0.1,0,0.1,0.1,0.2,0.1c0.1,0.1,0.2,0.1,0.3,0.2c0.1,0.1,0.2,0.1,0.4,0.1
	c0.1,0,0.1,0,0.2,0c0.1,0,0.2-0.1,0.3-0.1c0.1,0,0.3,0,0.4-0.1c0.1,0,0.2-0.1,0.3-0.1c0.4-0.3,0.8-0.7,1.1-1.2l0.1-0.1
	c0.2-0.2,0.3-0.5,0.4-0.8c0-0.1,0-0.1,0.1-0.1l0-0.1c0.4-0.7,0.8-1.4,1.2-2.3c0-0.1,0.1-0.3,0.2-0.4c0-0.1,0.1-0.2,0.1-0.2
	c0-0.1,0-0.2,0.1-0.3c0-0.1,0.1-0.2,0.1-0.3c0.1,0.2,0.2,0.4,0.3,0.6c0.1,0.3,0.3,0.6,0.5,0.8c0.1,0.1,0.2,0.3,0.3,0.4
	c0.2,0.3,0.4,0.6,0.7,0.8c0.1,0.1,0.2,0.2,0.3,0.2c0.1,0.1,0.2,0.1,0.2,0.2l0,0c0.3,0.2,0.6,0.2,0.9,0c0,0,0.1,0,0.1,0
	c0.1,0,0.2-0.1,0.2-0.1c0.1-0.1,0.1-0.2,0.1-0.3C28.9,25.5,28.8,25.4,28.7,25.4z"/>
<path id="パス_388" class="st0" d="M46,16.4c0.1,0,0.2-0.1,0.2-0.2l0.1-0.1l0,0c0-0.1,0-0.1,0-0.1c0-0.2,0.1-0.4,0-0.7
	c-0.1-0.4-0.3-0.8-0.5-1.1c-0.1-0.2-0.4-0.3-0.6-0.3c-0.2,0-0.3,0.1-0.4,0.2l0,0c0,0,0,0.1-0.1,0.1c-0.1,0.1-0.1,0.3-0.1,0.5
	c0,0,0,0.1,0,0.1c0,0,0,0,0,0.1c0.1,0.5,0.3,0.9,0.6,1.3c0.1,0.1,0.2,0.2,0.4,0.2C45.9,16.4,45.9,16.4,46,16.4z"/>
<path id="パス_389" class="st0" d="M47.3,27.1c0-0.1,0-0.2,0-0.3l0,0v0c0-0.1,0-0.3,0-0.4c0-0.2,0-0.4-0.1-0.6l0-0.2
	c0-0.2,0-0.3,0-0.5c0-0.6,0-1.2,0-1.8c0-0.1,0-0.3-0.1-0.4c0-0.1-0.1-0.2-0.2-0.3c0,0,0,0-0.1-0.1c-0.1-0.1-0.3-0.2-0.5-0.1
	c-0.2,0-0.3,0.1-0.4,0.3c-0.1,0.2-0.2,0.4-0.2,0.6c0,0.3,0,0.6,0,0.9c0,0.6,0,1.1,0.1,1.7c0,0,0,0.1,0,0.1c0,0,0,0.1,0,0.1
	c0,0.1,0,0.1,0,0.2c0,0.1,0,0.3,0,0.4c0,0,0,0.1,0,0.1c0,0.5,0.2,1,0.3,1.4L46,28.2l0.3,0.4l0.2,0.3v-0.1l0.1,0.2v-0.1
	c0,0,0,0,0.1,0c0,0,0,0,0.1,0c0.1,0,0.2,0,0.3-0.1c0.1-0.1,0.2-0.2,0.3-0.4c0.1-0.1,0.1-0.2,0.1-0.3c0,0,0-0.1,0-0.1
	C47.4,27.8,47.4,27.4,47.3,27.1z"/>
<path id="パス_390" class="st0" d="M41.3,22.9c0-0.2,0-0.4,0-0.6V22c0-0.5,0-1.1-0.1-1.6l0-0.1c0,0,0,0,0,0
	c-0.2-0.5-0.7-0.8-1.3-0.7c-0.4,0.1-0.8,0.2-1.2,0.5c-0.5,0.3-0.8,0.8-1,1.3c0,0.1-0.1,0.2-0.2,0.3l0,0c-0.3-0.5-0.6-1-0.9-1.5l0,0
	l-0.1,0l-0.1-0.1c-0.1-0.1-0.3-0.3-0.4-0.3c0,0-0.1,0-0.1,0l0,0.1l0-0.1c-0.2-0.1-0.4-0.1-0.6,0l-0.1,0c0,0-0.1,0.1-0.1,0.1
	C35,20,34.9,20,34.8,20.1l-0.1,0.1c-0.2,0.2-0.3,0.5-0.5,0.7c-0.2,0.4-0.4,0.9-0.5,1.4c0,0.1,0,0.2-0.1,0.2
	c-0.1,0.2-0.1,0.4-0.1,0.5l0-0.1c0-0.1-0.1-0.3-0.1-0.4c-0.1-0.3-0.2-0.6-0.3-0.9c0-0.1-0.1-0.3-0.1-0.4c-0.1-0.3-0.2-0.5-0.4-0.7
	c-0.1-0.1-0.3-0.2-0.4-0.2c-0.2,0-0.3,0.1-0.4,0.3l0,0.1c-0.1,0.2-0.1,0.4-0.1,0.6c0,0.1,0,0.1,0,0.2l0,0.1c0,0.1,0,0.1,0,0.2
	c0,0.1,0,0.1,0,0.2c0.1,0.4,0.3,0.9,0.4,1.3c0,0.1,0.1,0.3,0.1,0.4c0.1,0.2,0.1,0.4,0.2,0.6c0.1,0.3,0.2,0.7,0.3,1l0.1,0.3
	c0,0.1,0,0.1,0,0.2c0,0.1,0,0.3,0.1,0.4c0,0.1,0,0.1,0,0.2c0,0.2,0,0.3,0.1,0.4v0c0,0,0,0.1,0,0.1c0,0.1,0,0.1,0,0.2
	c0,0.1,0,0.2,0,0.4c0,0.2,0,0.3,0.1,0.5l0,0.1c0,0,0,0.1,0.1,0.1c0.2,0.2,0.3,0.3,0.6,0.2c0.1,0,0.2-0.1,0.3-0.1
	c0.1,0,0.2-0.1,0.2-0.2c0-0.1,0-0.1,0.1-0.1c0.1-0.1,0.1-0.2,0.1-0.3v-0.1c0-0.3,0-0.6,0-0.9c-0.1-0.4-0.1-0.8-0.1-1.2v-0.2
	c0,0,0-0.1,0-0.1c0.1-0.2,0.1-0.5,0.1-0.7v0c0-0.1,0-0.1,0-0.1c0.1-0.1,0.1-0.3,0.1-0.4c0-0.2,0-0.3,0-0.5c0.1-0.2,0.2-0.4,0.2-0.6
	c0-0.2,0.1-0.4,0.2-0.5c0-0.1,0.1-0.2,0.1-0.2c0.1-0.3,0.2-0.5,0.4-0.7c0.1-0.1,0.1-0.1,0.1-0.1c0,0,0.1,0.1,0.1,0.1
	c0.1,0.2,0.2,0.4,0.3,0.6c0,0.2,0.1,0.3,0.2,0.5c0,0,0.1,0.1,0.1,0.1c0.2,0.5,0.3,1,0.3,1.5c0,0.7,0,1.4,0,2c0,0.3,0,0.5,0,0.8
	c0,0.1,0,0.3,0,0.4c0,0.1,0,0.2,0,0.2c0,0.3,0.2,0.4,0.4,0.5c0.2,0.1,0.4,0.1,0.5,0c0.2-0.1,0.4-0.3,0.5-0.6
	c0.1-0.1,0.1-0.2,0.1-0.3c0,0,0-0.1,0-0.1c0.1-1.1,0-2.2,0-3.3c0-0.1,0-0.3,0-0.4c0-0.2-0.1-0.4,0-0.6c0.1-0.2,0.1-0.3,0.3-0.4
	l0.1-0.1c0.2-0.2,0.3-0.4,0.4-0.5c0.1-0.2,0.2-0.3,0.4-0.5c0.2-0.2,0.4-0.3,0.7-0.3c0,0,0.1,0,0.1,0c0,0.1,0,0.1,0,0.1
	c0,0.1,0.1,0.2,0.1,0.3c0,0.1,0,0.2,0,0.4s0,0.2,0,0.4v0.3c0,0.8,0,1.7-0.1,2.5c-0.1,0.9-0.1,1.7,0.1,2.6c0,0.2,0.1,0.4,0.1,0.6
	l0,0.1c0.1,0.2,0.2,0.4,0.3,0.6c0.1,0.1,0.2,0.2,0.3,0.2c0.1,0,0.2,0,0.3-0.1c0.1-0.1,0.2-0.2,0.3-0.3l0,0c0-0.2,0.1-0.5,0-0.7
	c0-0.4,0-0.8-0.1-1.2c0-0.8,0-1.6,0-2.4C41.3,23.7,41.3,23.3,41.3,22.9z"/>
<path id="パス_391" class="st0" d="M11.5,30.8L11.5,30.8L11.5,30.8c-0.2-0.3-0.3-0.5-0.5-0.7c0,0,0-0.1-0.1-0.1
	c0-0.1-0.1-0.1-0.1-0.2c-0.1-0.1-0.1-0.2-0.2-0.3c-0.1-0.1-0.1-0.2-0.2-0.4c0-0.1-0.1-0.1-0.1-0.2c-0.1-0.2-0.1-0.3-0.2-0.5
	C10.1,28.2,10,28,10,27.8l0,0l0,0l0,0c0-0.1,0-0.1-0.1-0.2c0,0,0-0.1,0-0.1c0,0,0,0,0-0.1c0-0.1,0-0.2,0-0.2l0-0.1
	c0-0.1,0-0.1-0.1-0.2c0,0,0-0.1,0-0.1c0,0,0-0.1,0-0.1c0-0.3,0-0.6-0.1-0.9c-0.1-0.2-0.1-0.5-0.1-0.7l0,0l0-0.1l0-0.1
	c0-0.2-0.1-0.3-0.1-0.5v0l0-0.1c0,0,0,0,0-0.1c0,0,0-0.1,0-0.1c0-0.3,0-0.6-0.1-0.9c0-0.1,0-0.2,0-0.4c0-0.4,0-0.8,0-1.1
	c0-0.1,0-0.2,0-0.2c0-0.1,0-0.2,0.1-0.2l0,0c0,0,0-0.1,0-0.1c0,0,0-0.1,0-0.1c0-0.1,0-0.1,0-0.2l0-0.1l0,0c0-0.1,0.1-0.2,0.1-0.2v0
	c0.1-0.1,0.1-0.3,0-0.4l-0.1-0.1L9.2,20c-0.2-0.2-0.4-0.2-0.6-0.1c-0.1,0.1-0.3,0.2-0.3,0.3l-0.1,0.2c-0.2,0.3-0.2,0.6-0.3,0.9
	c0,0.1,0,0.1,0,0.1l0,0v0.1c0,0.2,0,0.3-0.1,0.5c0,0.2-0.1,0.4-0.1,0.6c0,0.2,0,0.5,0,0.7v0.2c0,0,0,0.1,0,0.1c0,0.1,0,0.3,0,0.4
	c0.1,0.2,0.1,0.4,0.1,0.6l0,0.2c0,0.2,0,0.3,0,0.4v0c0,0.2,0,0.3,0,0.5C8,26,8,26.1,8,26.3v0v0c0,0,0,0.1,0,0.1c0,0,0,0.1,0,0.1
	l0,0.1c0,0.3,0.1,0.5,0.2,0.8l0,0c0,0.1,0.1,0.1,0.1,0.2c0.1,0.3,0.2,0.6,0.3,0.8c0.1,0.2,0.1,0.3,0.2,0.5c0.1,0.2,0.2,0.5,0.3,0.7
	l0.1,0.3c0.1,0.2,0.2,0.5,0.4,0.7l0.1,0.1c0.2,0.3,0.5,0.6,0.7,0.9c0.2,0.2,0.4,0.3,0.6,0.4c0.1,0,0.2,0.1,0.3,0.1
	c0.1,0,0.2-0.1,0.3-0.3C11.8,31.4,11.8,31.1,11.5,30.8C11.5,30.8,11.5,30.8,11.5,30.8z"/>
<path id="パス_392" class="st0" d="M88.7,27.6c-0.1-0.1-0.2-0.2-0.3-0.2c-0.4-0.3-0.8-0.7-1.1-1.1c-0.3-0.4-0.5-0.8-0.6-1.2
	c0,0,0-0.1,0-0.1l0,0c0-0.1,0-0.2-0.1-0.3c-0.1-0.3-0.1-0.5-0.2-0.8c-0.1-0.3-0.1-0.6-0.1-0.8c0-0.1,0-0.1,0-0.2c0-0.4,0-0.8,0-1.2
	c0-0.3,0-0.6-0.1-0.9c0-0.5,0-0.9,0.1-1.4l0,0l0,0c0,0,0,0,0-0.1c0-0.2,0-0.4,0.1-0.6c0-0.1,0-0.2,0-0.3c0,0,0,0,0-0.1
	c0,0,0.1-0.1,0.1-0.2c0.1-0.2,0.1-0.4,0.1-0.6c0,0,0-0.1,0-0.1c0.1-0.3,0.2-0.7,0.3-1.1c0.1-0.4,0.2-0.8,0.2-1.2c0-0.1,0-0.1,0-0.2
	c0.1-0.2,0.1-0.4,0.1-0.6c0-0.2,0-0.3,0-0.5c0.1-0.1,0.1-0.1,0.1-0.2c0-0.2,0-0.5,0.1-0.7c0.1-0.4,0.1-0.8,0.1-1.2
	c0.1-0.7,0.2-1.3,0.2-2c0-0.4,0.1-0.7,0.2-1c0-0.3,0.1-0.6,0.2-0.9C88,7.7,88,7.4,88,7.2c0-0.3,0.1-0.5,0.2-0.8c0,0,0.1-0.1,0.1-0.2
	c0-0.3,0-0.6,0-1C88.1,5.1,88,5,87.9,4.9c-0.1-0.2-0.4-0.3-0.6-0.2c0,0-0.1,0.1-0.1,0.1C87.1,4.9,87.1,5,87,5.1
	c-0.3,0.6-0.6,1.2-0.8,1.8C86.1,7.1,86,7.4,86,7.6c-0.1,0.3-0.1,0.6-0.2,0.9c-0.1,0.3-0.1,0.6-0.1,0.8c0,0.1,0,0.1-0.1,0.2
	c-0.1,0.2,0,0.5-0.2,0.7c0,0,0,0.1,0,0.1c0,0.2,0,0.3-0.1,0.5c0,0.1,0,0.1,0,0.2c0,0.9-0.2,1.7-0.2,2.6c0,0.4,0,0.9-0.1,1.3
	c-0.1,0.5-0.1,1-0.1,1.5c0,0.3-0.1,0.6-0.1,0.9c0,0.2,0,0.3,0,0.5c0,0.2,0,0.3,0,0.5c0,0.6-0.1,1.1-0.3,1.7
	c-0.2,0.4-0.4,0.9-0.5,1.3c0,0.1,0,0.2,0,0.3l0,0c-0.1,0.3-0.3,0.7-0.5,1c0,0.1-0.1,0.1-0.1,0.2c0,0,0,0,0,0.1c0,0,0,0.1,0,0.1
	c0,0,0,0.1,0,0.1l0,0l0,0.1l0,0.1l0,0c0,0,0,0,0,0.1c0,0,0,0.1,0,0.1s0,0,0,0.1l0,0.1c0,0.1-0.1,0.1-0.1,0.2l0,0.1c0,0,0,0,0,0.1
	l0,0c0,0,0,0,0,0.1c0,0,0,0.1-0.1,0.1c0,0,0,0,0,0.1l0,0.1c0,0,0,0,0,0.1c-0.1,0.1-0.1,0.3-0.2,0.4c0,0,0,0,0,0.1l0,0.1
	c0,0,0,0.1,0,0.1l0,0c0,0,0,0,0,0.1l0,0c0,0,0,0,0,0l0,0l0,0.1c0,0,0,0.1-0.1,0.1l0,0v0c0,0,0,0-0.1,0.1l0,0l0,0l0,0l0,0l0,0
	c0,0,0,0,0,0.1l0,0.1l0,0.1l0,0c0,0,0,0-0.1,0.1l-0.1,0.1l0,0c0,0,0,0,0,0.1c0,0,0,0,0,0.1l0,0.1c-0.1,0.2-0.3,0.3-0.4,0.5
	c0,0,0,0-0.1,0.1c0,0-0.1,0.1-0.1,0.1c-0.2,0.2-0.4,0.4-0.7,0.6c-0.2,0.1-0.4,0.2-0.6,0.3c-0.6,0.2-1.3-0.1-1.5-0.6
	c0-0.1,0-0.1-0.1-0.2c-0.1-0.1,0-0.2,0-0.3l0-0.1c0-0.2-0.1-0.4,0-0.6c0,0,0,0,0-0.1c0.1-0.2,0-0.5,0.1-0.7c0-0.1,0.1-0.3,0.1-0.4
	c0.2-0.6,0.5-1.2,0.9-1.8c0.6-1,1.3-1.9,2.1-2.8c0.1-0.2,0.4-0.2,0.6-0.2c0.2,0.1,0.2,0.3,0.2,0.5c0,0.6,0,1.1,0,1.7
	c0,0.2,0,0.4,0.1,0.6c0,0.1,0.1,0.2,0.3,0.2c0.2,0,0.4,0,0.6-0.2c0.1-0.1,0.2-0.1,0.2-0.2c0-0.1,0.1-0.1,0.1-0.2
	c0.1-0.7,0.1-1.4,0.1-2.1c0-0.3-0.1-0.5-0.2-0.7c-0.2-0.5-0.5-0.8-0.9-1.1c-0.1,0-0.1,0-0.2,0c-0.6,0-1.2,0.2-1.6,0.6
	c-0.5,0.5-0.9,1-1.3,1.5c-0.4,0.5-0.7,0.9-1,1.4c-0.4,0.6-0.8,1.3-1.1,2c-0.2,0.6-0.4,1.2-0.4,1.8c0,0.5,0.1,1,0.2,1.5
	c0.1,0.4,0.3,0.8,0.7,1.1c0.2,0.1,0.3,0.2,0.5,0.3l0.4,0.1c0.1,0.1,0.1,0.1,0.2,0.1c0.5,0,0.9,0,1.4-0.1l0.2-0.1l0,0l0,0l0,0
	c0,0,0.1,0,0.1-0.1l0,0l0,0l0,0l0,0c0.1,0,0.2-0.1,0.3-0.2l0,0l0,0l0,0l0,0c0.1-0.1,0.2-0.1,0.3-0.2l0,0l0,0l0,0
	c0.1,0,0.1,0,0.1-0.1c0.3-0.3,0.6-0.5,0.9-0.9l0,0l0,0l0,0l0,0c0,0,0,0,0.1-0.1l0,0l0,0l0,0l0,0c0,0,0,0,0-0.1l0,0l0,0l0,0l0,0
	c0,0,0,0,0-0.1l0,0l0,0l0,0l0,0c0,0,0,0,0-0.1l0,0l0,0l0,0l0,0c0,0,0.1-0.1,0.1-0.1l0,0l0,0l0,0c0,0,0,0,0-0.1l0,0l0,0l0,0l0,0
	c0.1,0,0.1-0.1,0.1-0.1c0.1-0.1,0.2-0.2,0.2-0.3l0,0c0,0,0,0,0-0.1l0,0l0,0l0,0c0,0,0,0,0-0.1l0,0l0,0l0,0c0.1-0.1,0.2-0.2,0.2-0.3
	l0,0l0,0l0,0l0,0c0,0,0,0,0-0.1l0,0l0,0l0,0l0,0c0.1-0.2,0.2-0.3,0.3-0.5l0,0l0,0l0,0c0,0,0.1-0.1,0.1-0.1l0,0l0,0l0,0
	c0,0,0.1-0.1,0.1-0.2l0,0l0,0l0,0l0,0c0.1-0.1,0.2-0.2,0.2-0.4l0,0l0,0l0,0c0.1-0.1,0.1-0.1,0.1-0.2l0,0l0,0l0,0
	c0-0.1,0.1-0.1,0.1-0.2l0,0l0,0l0,0c0,0,0.1-0.1,0.1-0.1l0,0l0,0l0,0l0,0c0,0,0.1-0.1,0.1-0.1l0.1-0.2l0,0c0.1-0.1,0.1-0.2,0.1-0.3
	l0,0l0,0l0,0l0,0c0,0,0.1-0.1,0.1-0.1c0-0.1,0.1-0.1,0.1-0.2l0,0l0,0l0,0c0,0,0.1-0.1,0-0.1c0.1-0.1,0.1-0.2,0.1-0.2
	c0,0,0-0.1,0.1-0.1c0,0,0.1,0,0.1,0.1c0,0.1,0,0.1,0.1,0.2c0,0.1,0,0.3,0.1,0.4c0,0.1,0,0.3,0.1,0.4c0,0.2,0.1,0.5,0.2,0.7l0,0
	c0.1,0.1,0,0.3,0.1,0.4l0,0c0,0.1,0.1,0.2,0.1,0.3l0,0c0.1,0.3,0.2,0.6,0.4,0.8l0,0c0,0,0,0.1,0.1,0.1c0,0.1,0.1,0.2,0.1,0.3
	c0,0,0,0.1,0.1,0.1c0,0.1,0,0.1,0.1,0.2c0,0,0,0.1,0,0.1c0.1,0.1,0.2,0.3,0.3,0.4c0,0.1,0,0.1,0.1,0.2c0,0,0,0,0,0.1c0,0,0,0,0.1,0
	c0.5,0.5,1,0.9,1.7,1.1c0.3,0.1,0.6,0,0.9-0.2c0.1,0,0.1-0.1,0-0.2C89.1,28.1,88.9,27.8,88.7,27.6z M86.7,27.5L86.7,27.5L86.7,27.5z
	 M86.2,26.9C86.1,26.9,86.1,26.9,86.2,26.9C86.1,26.9,86.1,26.9,86.2,26.9z M85.6,23.1L85.6,23.1L85.6,23.1L85.6,23.1L85.6,23.1
	L85.6,23.1L85.6,23.1L85.6,23.1z M85.8,26.3L85.8,26.3L85.8,26.3L85.8,26.3z M82.5,25.1C82.5,25.1,82.5,25.1,82.5,25.1L82.5,25.1z
	 M82.6,26.4L82.6,26.4L82.6,26.4L82.6,26.4z M86.1,26.9L86.1,26.9L86.1,26.9L86.1,26.9z M86.6,27.5L86.6,27.5
	C86.6,27.5,86.6,27.5,86.6,27.5L86.6,27.5z"/>
<path id="パス_393" class="st0" d="M99.9,26.5c-0.1-0.2-0.2-0.4-0.3-0.6c-0.4-0.7-0.8-1.4-1.1-2.1c-0.1-0.2-0.1-0.4-0.2-0.7
	l-0.1-0.4C98,22.6,98,22.4,98,22.3c-0.1-0.3-0.2-0.5-0.2-0.8c0-0.4-0.1-0.8-0.3-1.1c-0.1-0.2-0.4-0.3-0.6-0.3c0,0-0.1,0-0.1,0
	c-0.2,0.1-0.2,0.1-0.2-0.1c0-0.1,0-0.2,0-0.2c-0.1-0.1-0.1-0.2,0-0.3l0,0l0,0c0-0.2,0-0.5-0.1-0.7c-0.1-0.1-0.1-0.3-0.2-0.4
	c0,0,0-0.1,0-0.1c0-0.1,0-0.1-0.1-0.2c0,0,0-0.1,0-0.1c0,0,0,0,0-0.1c0,0,0-0.1,0-0.1l0,0c0-0.1-0.1-0.1-0.1-0.2
	c-0.1-0.2-0.3-0.4-0.6-0.5c-0.2-0.1-0.4-0.1-0.6-0.1c-0.4,0.1-0.8,0.3-1.1,0.6c-0.3,0.3-0.6,0.7-0.9,1c-0.2,0.3-0.4,0.5-0.6,0.8
	c-0.4,0.6-0.8,1.3-1.1,1.9c-0.4,0.7-0.7,1.4-0.8,2.2c-0.1,0.3-0.1,0.7,0,1c0,0.1,0,0.2,0,0.4c0,0.3,0.1,0.6,0.2,0.9
	c0.2,0.3,0.3,0.6,0.6,0.9c0.4,0.7,1.1,1.1,1.9,1.3c0.1,0,0.2,0.1,0.3,0.1c0.8,0,1.5-0.2,2.1-0.8c0.2-0.2,0.4-0.4,0.5-0.6
	c0.4-0.5,0.7-1.1,0.9-1.7c0.1-0.3,0.3-0.7,0.4-1c0-0.1,0-0.2,0.1-0.2c0.1,0,0.1,0.1,0.1,0.2c0,0.1,0.1,0.3,0.2,0.4c0,0,0,0.1,0,0.1
	c0,0.2,0.1,0.3,0.2,0.4c0,0.1,0.1,0.2,0.2,0.3c0,0,0,0.1,0,0.1c0,0.1,0.1,0.2,0.2,0.3c0,0.1,0,0.1,0.1,0.2c0,0,0,0,0,0.1
	c0.2,0.3,0.4,0.5,0.5,0.8c0.1,0.3,0.4,0.4,0.7,0.4c0.3,0,0.5-0.3,0.5-0.5C99.9,26.7,99.9,26.6,99.9,26.5z M95.9,18.1L95.9,18.1
	L95.9,18.1C96,18.2,96,18.1,95.9,18.1z M95.8,18C95.8,18,95.9,18.1,95.8,18L95.8,18C95.9,18.1,95.8,18,95.8,18L95.8,18z M96.3,22
	c0,0.3-0.1,0.6-0.2,0.8c-0.1,0.3-0.1,0.7-0.3,1c-0.1,0.3-0.2,0.6-0.3,0.8c-0.1,0.2-0.1,0.4-0.2,0.6c-0.2,0.6-0.6,1.1-1.1,1.5
	c-0.2,0.2-0.5,0.4-0.8,0.5c-0.2,0.1-0.3,0.1-0.5,0c-0.3-0.1-0.6-0.3-0.8-0.5c-0.5-0.5-0.8-1.1-1-1.7c-0.1-0.4,0-0.9,0.1-1.3
	c0.2-0.6,0.4-1.3,0.8-1.8c0.1-0.3,0.3-0.6,0.4-0.8c0.2-0.3,0.5-0.7,0.7-1c0.2-0.3,0.4-0.6,0.6-0.8c0.2-0.2,0.4-0.4,0.6-0.6
	c0.1-0.1,0.2-0.1,0.3,0c0.1,0.1,0.2,0.3,0.3,0.5c0,0.2,0,0.4,0.1,0.6c0,0.4,0,0.9,0,1.3c0,0.1,0,0.1,0,0.2c0,0.3,0.2,0.5,0.5,0.5
	c0.1,0,0.2,0,0.2,0C96.3,21.6,96.3,21.6,96.3,22L96.3,22z M97.9,25.5L97.9,25.5L97.9,25.5L97.9,25.5z M97.9,25.6L97.9,25.6
	L97.9,25.6z M98.2,26.1C98.2,26,98.2,26,98.2,26.1L98.2,26.1C98.2,26,98.2,26,98.2,26.1C98.2,26.1,98.2,26.1,98.2,26.1z"/>
</svg>
