<?xml version="1.0" encoding="utf-8"?>
<!-- Generator: Adobe Illustrator 25.4.1, SVG Export Plug-In . SVG Version: 6.00 Build 0)  -->
<svg version="1.1" id="レイヤー_1" xmlns="http://www.w3.org/2000/svg" xmlns:xlink="http://www.w3.org/1999/xlink" x="0px"
	 y="0px" viewBox="0 0 29 21" style="enable-background:new 0 0 29 21;" xml:space="preserve">
<style type="text/css">
	.st0{fill:#FFFFFF;}
</style>
<g>
	<path class="st0" d="M25.1,20.5H3.9c-2,0-3.6-1.6-3.6-3.6V4.1c0-2,1.6-3.6,3.6-3.6h21.3c2,0,3.6,1.6,3.6,3.6v12.8
		C28.7,18.9,27.1,20.5,25.1,20.5z M3.9,2.5C3,2.5,2.3,3.2,2.3,4.1v12.8c0,0.9,0.7,1.6,1.6,1.6h21.3c0.9,0,1.6-0.7,1.6-1.6V4.1
		c0-0.9-0.7-1.6-1.6-1.6H3.9z"/>
	<path class="st0" d="M14.5,13.1c-0.2,0-0.5-0.1-0.6-0.2L1.7,2.8c-0.4-0.4-0.5-1-0.1-1.4c0.4-0.4,1-0.5,1.4-0.1l11.5,9.5l11.9-9.2
		c0.4-0.3,1.1-0.3,1.4,0.2c0.3,0.4,0.3,1.1-0.2,1.4l-12.6,9.7C14.9,13,14.7,13.1,14.5,13.1z"/>
</g>
</svg>
