<?xml version="1.0" encoding="utf-8"?>
<!-- Generator: Adobe Illustrator 25.4.1, SVG Export Plug-In . SVG Version: 6.00 Build 0)  -->
<svg version="1.1" id="レイヤー_1" xmlns="http://www.w3.org/2000/svg" xmlns:xlink="http://www.w3.org/1999/xlink" x="0px"
	 y="0px" viewBox="0 0 270 102" style="enable-background:new 0 0 270 102;" xml:space="preserve">
<style type="text/css">
	.st0{enable-background:new    ;}
	.st1{fill:#33667A;}
	.st2{fill:#FF583B;}
	.st3{fill:#F7F8F8;}
</style>
<g id="グループ_317" transform="translate(-53 -1234.546)">
	<g class="st0">
		<path class="st1" d="M113.4,1243.6c0-2.9,2.2-5,5.3-5c1.6,0,3,0.6,3.9,1.6l-1.2,1.1c-0.7-0.8-1.6-1.1-2.6-1.1
			c-2,0-3.5,1.4-3.5,3.4c0,2,1.5,3.4,3.5,3.4c1,0,1.9-0.4,2.6-1.2l1.2,1.1c-0.9,1.1-2.3,1.6-3.9,1.6
			C115.6,1248.7,113.4,1246.6,113.4,1243.6z"/>
		<path class="st1" d="M125.4,1238.7h1.8v8.3h5.1v1.5h-6.9V1238.7z"/>
		<path class="st1" d="M142.2,1247v1.5h-7.4v-9.8h7.2v1.5h-5.3v2.5h4.7v1.5h-4.7v2.7H142.2z"/>
		<path class="st1" d="M151.7,1246.3h-4.9l-1,2.3H144l4.4-9.8h1.8l4.4,9.8h-1.9L151.7,1246.3z M151.1,1244.8l-1.8-4.3l-1.8,4.3
			H151.1z"/>
		<path class="st1" d="M165.7,1238.7v9.8h-1.5l-5.4-6.6v6.6H157v-9.8h1.5l5.4,6.6v-6.6H165.7z"/>
		<path class="st1" d="M168.6,1247.5l0.6-1.4c0.8,0.6,2,1.1,3.2,1.1c1.5,0,2.2-0.5,2.2-1.3c0-2.1-5.8-0.7-5.8-4.4
			c0-1.6,1.3-2.9,4-2.9c1.2,0,2.4,0.3,3.3,0.9l-0.6,1.4c-0.9-0.5-1.8-0.8-2.7-0.8c-1.5,0-2.1,0.6-2.1,1.3c0,2.1,5.8,0.7,5.8,4.3
			c0,1.6-1.3,2.9-4,2.9C170.9,1248.7,169.4,1248.2,168.6,1247.5z"/>
		<path class="st1" d="M179.4,1238.7h1.8v9.8h-1.8V1238.7z"/>
		<path class="st1" d="M193.7,1238.7v9.8h-1.5l-5.4-6.6v6.6h-1.8v-9.8h1.5l5.4,6.6v-6.6H193.7z"/>
		<path class="st1" d="M204.1,1243.5h1.7v3.9c-1,0.8-2.5,1.2-3.8,1.2c-3,0-5.3-2.1-5.3-5s2.2-5,5.3-5c1.6,0,3,0.5,3.9,1.6l-1.1,1.1
			c-0.8-0.8-1.7-1.1-2.7-1.1c-2.1,0-3.6,1.4-3.6,3.4c0,2,1.5,3.4,3.5,3.4c0.7,0,1.4-0.1,2-0.5V1243.5z"/>
		<path class="st1" d="M223,1245.9c0,1.7-1.3,2.7-3.8,2.7h-4.9v-9.8h4.6c2.4,0,3.6,1,3.6,2.5c0,1-0.5,1.8-1.3,2.2
			C222.3,1243.8,223,1244.6,223,1245.9z M216.1,1240.2v2.7h2.6c1.3,0,2-0.4,2-1.3c0-0.9-0.7-1.4-2-1.4H216.1z M221.2,1245.7
			c0-1-0.7-1.4-2.1-1.4h-2.9v2.8h2.9C220.5,1247.1,221.2,1246.7,221.2,1245.7z"/>
		<path class="st1" d="M232.4,1246.3h-4.9l-1,2.3h-1.9l4.4-9.8h1.8l4.4,9.8h-1.9L232.4,1246.3z M231.8,1244.8l-1.8-4.3l-1.8,4.3
			H231.8z"/>
		<path class="st1" d="M237.7,1238.7h1.8v8.3h5.1v1.5h-6.9V1238.7z"/>
		<path class="st1" d="M256.2,1248.5l0-6.5l-3.2,5.4h-0.8l-3.2-5.3v6.4h-1.7v-9.8h1.5l3.9,6.5l3.8-6.5h1.5l0,9.8H256.2z"/>
	</g>
	<g id="グループ_84" transform="translate(-190.36 -1462.172)">
		<g class="st0">
			<path class="st1" d="M428.5,2721.7l-1.8,9.1h-0.9l1.7-8.3h-2.1l0.2-0.8H428.5z"/>
			<path class="st1" d="M430.6,2727.6c0-3.1,1.7-6,4.5-6c1.9,0,3,1.2,3,3.3c0,3.1-1.7,6-4.5,6
				C431.7,2730.9,430.6,2729.7,430.6,2727.6z M437.2,2725c0-1.6-0.8-2.4-2.1-2.4c-2.2,0-3.5,2.8-3.5,5.1c0,1.6,0.8,2.4,2.1,2.4
				C435.9,2730,437.2,2727.3,437.2,2725z"/>
			<path class="st1" d="M440.3,2727.6c0-3.1,1.7-6,4.6-6c1.9,0,3,1.2,3,3.3c0,3.1-1.7,6-4.6,6
				C441.4,2730.9,440.3,2729.7,440.3,2727.6z M446.8,2725c0-1.6-0.8-2.4-2.1-2.4c-2.2,0-3.5,2.8-3.5,5.1c0,1.6,0.8,2.4,2.1,2.4
				C445.6,2730,446.8,2727.3,446.8,2725z"/>
			<path class="st1" d="M457.5,2724l-1.2,6c-0.5,2.4-1.8,3.4-4,3.4c-1.3,0-2.3-0.4-3-1l0.5-0.7c0.5,0.6,1.5,0.9,2.6,0.9
				c1.7,0,2.6-0.8,3-2.4l0.2-0.8c-0.7,0.7-1.6,1.2-2.7,1.2c-1.8,0-3-1.1-3-2.8c0-2.2,1.6-3.9,3.9-3.9c1.3,0,2.3,0.5,2.7,1.6l0.3-1.5
				H457.5z M455.9,2726.7c0-1.2-0.8-2-2.3-2c-1.7,0-3,1.3-3,3c0,1.2,0.8,2,2.3,2C454.6,2729.8,455.9,2728.5,455.9,2726.7z"/>
		</g>
		<g class="st0">
			<path class="st1" d="M289.3,2721c-0.1,0.2-0.1,0.2-0.3,0.5c-0.3,0.7-0.5,0.9-0.6,1.2c0.2,0,0.2,0,3.9-0.1c0.5,0,0.5,0,0.7-0.1
				l0.6,0.5c-0.1,0.2-0.1,0.2-0.3,0.6c-0.5,1.8-1.5,3.6-2.6,4.9c-1.2,1.4-2.6,2.4-4.5,3.2c-0.2-0.4-0.3-0.5-0.6-0.8
				c2-0.8,3.3-1.8,4.6-3.3c1-1.2,1.8-2.7,2.2-4.4l-4.4,0.1c-0.8,1.3-1.8,2.4-3.1,3.4c-0.2-0.3-0.4-0.4-0.7-0.7
				c1.4-0.9,2.4-2,3.3-3.6c0.5-0.9,0.8-1.4,0.8-1.9L289.3,2721z"/>
			<path class="st1" d="M299.1,2721.3c0,0.3-0.1,0.6-0.1,1.2l0,7.8c1.5-0.2,2.7-0.6,3.7-1.3c1.3-0.8,2.2-1.7,2.9-3.1
				c0.3,0.5,0.4,0.6,0.7,0.8c-1.8,2.7-3.7,3.9-7.2,4.5c-0.5,0.1-0.6,0.1-0.8,0.2l-0.5-0.6c0.1-0.2,0.1-0.4,0.1-0.8l0-7.5v-0.5
				c0-0.3,0-0.4,0-0.7H299.1z"/>
			<path class="st1" d="M308.6,2730.2c1,0,2.6-0.4,3.8-1c2.5-1.1,4.3-3,5.3-5.8c0.3,0.4,0.4,0.5,0.8,0.8c-1,2.3-2.2,3.8-4,5
				c-1.3,0.9-2.7,1.4-4.8,1.9c-0.4,0.1-0.5,0.1-0.8,0.2L308.6,2730.2z M309.5,2722.1c1.4,0.9,2.2,1.5,3.1,2.4l-0.7,0.8
				c-0.9-1-2-1.9-3.1-2.5L309.5,2722.1z"/>
			<path class="st1" d="M322.1,2724.5c1.1,0.5,2.3,1,3.3,1.7l-0.5,0.9c-0.8-0.6-2.3-1.4-3.3-1.8L322.1,2724.5z M321.7,2730.4
				C321.8,2730.4,321.8,2730.4,321.7,2730.4c0.8,0,2.3-0.3,3.5-0.8c2.5-0.9,4.5-3.1,5.5-5.8c0.3,0.3,0.5,0.5,0.8,0.7
				c-1.6,3.9-4.3,6-9,6.9c-0.3,0.1-0.3,0.1-0.5,0.1L321.7,2730.4z M323.1,2721.4c1.2,0.5,2.2,1,3.2,1.6l-0.5,0.9
				c-0.7-0.6-2.5-1.5-3.2-1.7L323.1,2721.4z M329.9,2720.8c0.6,0.7,0.9,1.2,1.3,2l-0.7,0.4c-0.3-0.7-0.9-1.7-1.3-2.1L329.9,2720.8z
				 M331.4,2720.1c0.6,0.7,0.9,1.2,1.4,2l-0.6,0.4c-0.3-0.6-0.8-1.5-1.3-2L331.4,2720.1z"/>
			<path class="st1" d="M335,2730.2c1,0,2.6-0.4,3.8-1c2.5-1.1,4.3-3,5.3-5.8c0.3,0.4,0.4,0.5,0.8,0.8c-1,2.3-2.2,3.8-4,5
				c-1.3,0.9-2.7,1.4-4.8,1.9c-0.4,0.1-0.5,0.1-0.8,0.2L335,2730.2z M335.9,2722.1c1.4,0.9,2.2,1.5,3.1,2.4l-0.7,0.8
				c-0.9-1-2-1.9-3.1-2.5L335.9,2722.1z"/>
			<path class="st1" d="M352.5,2721.1c-0.1,0.2-0.1,0.2-0.3,0.5c-0.3,0.7-0.5,1-0.6,1.1c0.1,0,0.2,0,0.5,0l3.1-0.1
				c0.5,0,0.5,0,0.7-0.1l0.8,0.8c-0.1,0.1-0.1,0.2-0.2,0.5c-1.2,3.8-3.5,6.4-7.1,8c-0.2-0.4-0.3-0.5-0.6-0.8c3.4-1.3,5.8-4,6.8-7.6
				l-4.4,0.1c-0.7,1.2-2,2.5-3.1,3.4c-0.2-0.3-0.4-0.4-0.7-0.7c1.3-0.8,2.3-1.9,3.3-3.6c0.5-0.9,0.8-1.5,0.8-1.9L352.5,2721.1z
				 M356.5,2720.7c0.6,0.8,0.9,1.2,1.3,2l-0.6,0.4c-0.3-0.7-0.9-1.6-1.3-2L356.5,2720.7z M358,2719.9c0.7,0.8,0.9,1.1,1.3,2
				l-0.7,0.4c-0.3-0.7-0.8-1.4-1.3-2L358,2719.9z"/>
			<path class="st1" d="M364.3,2722.1c-0.1,0.1-0.1,0.2-0.2,0.9c-0.5,3.7-1.6,6.2-3.4,8.1c-0.3-0.4-0.5-0.5-0.8-0.7
				c0.8-0.8,1.3-1.5,1.9-2.6c0.6-1.3,1.1-2.8,1.3-4.5c0.1-0.5,0.1-1,0.1-1.2c0,0,0-0.1,0-0.2L364.3,2722.1z M367.9,2721.9
				c0,0.6,0.3,2.1,0.6,3.1c0.6,2.3,1.7,4.2,3,5.4c-0.4,0.2-0.5,0.4-0.8,0.7c-1.7-1.8-3-4.8-3.5-8.2c-0.1-0.5-0.1-0.7-0.2-0.9
				L367.9,2721.9z M369.2,2721.2c0.6,0.7,0.9,1.3,1.3,2l-0.7,0.4c-0.3-0.7-0.9-1.7-1.3-2.1L369.2,2721.2z M370.7,2720.5
				c0.6,0.7,0.9,1.2,1.3,2.1l-0.6,0.4c-0.3-0.6-0.8-1.5-1.3-2.1L370.7,2720.5z"/>
			<path class="st1" d="M373.8,2725.8c0.4,0.1,0.7,0.1,1.6,0.1h7.6c1,0,1.2,0,1.6-0.1v1.1c-0.4,0-0.7-0.1-1.6-0.1h-7.5
				c-0.9,0-1.2,0-1.6,0.1V2725.8z"/>
			<path class="st1" d="M392.5,2721.3c-0.1,0.2-0.2,0.5-0.4,0.9c-0.9,3.1-1.8,5.6-2.7,7.6c1.7-0.1,4.8-0.5,6.3-0.8
				c-0.7-1.4-1.4-2.5-2-3.4l0.8-0.4c1,1.4,2.3,3.8,3.2,5.9l-0.9,0.5c-0.3-0.7-0.5-1.2-0.8-1.8c-2.2,0.4-4.8,0.8-8,1.1
				c-0.5,0-0.9,0.1-1.1,0.1l-0.1-1.1c0.3,0,0.3,0,0.4,0c0.1,0,0.8,0,1.1-0.1c0.8-1.8,1.3-3.2,2-5.1c0.6-2,0.9-3,1-3.7L392.5,2721.3z
				"/>
		</g>
	</g>
	<g id="グループ_131" transform="translate(16 1286.657)">
		<path id="長方形_55" class="st2" d="M62-0.1h220c13.8,0,25,11.2,25,25l0,0c0,13.8-11.2,25-25,25H62c-13.8,0-25-11.2-25-25l0,0
			C37,11.1,48.2-0.1,62-0.1z"/>
		<g id="グループ_90" transform="translate(85 15)">
			<g class="st0">
				<path class="st3" d="M15.5,4.7c0.4,0.1,0.7,0.1,1.4,0.1h3.3c0.7,0,1,0,1.4-0.1v1.5c-0.4-0.1-0.6-0.1-1.3-0.1h-3.4
					c-0.6,0-0.9,0-1.4,0.1V4.7z M15.9,17.4c0.1-0.5,0.1-1,0.1-1.6v-2.4c0-0.5,0-1-0.1-1.4c0.5,0.1,0.8,0.1,1.3,0.1h2.7
					c0.7,0,0.9,0,1.2-0.1c0,0.4-0.1,0.6-0.1,1.3v2.6c0,0.5,0,0.9,0.1,1.4h-1.4v-0.6h-2.3v0.8H15.9z M16,2.3c0.4,0.1,0.7,0.1,1.4,0.1
					h2.3c0.7,0,0.9,0,1.4-0.1v1.4c-0.4-0.1-0.8-0.1-1.4-0.1h-2.3c-0.6,0-1,0-1.4,0.1V2.3z M16.1,7.2c0.4,0,0.6,0.1,1.2,0.1H20
					c0.6,0,0.8,0,1.1-0.1v1.4c-0.4,0-0.6-0.1-1.1-0.1h-2.7c-0.6,0-0.8,0-1.2,0.1V7.2z M16.1,9.6c0.4,0,0.6,0.1,1.2,0.1H20
					c0.6,0,0.8,0,1.1-0.1v1.4c-0.4,0-0.6-0.1-1.2-0.1h-2.7c-0.5,0-0.7,0-1.2,0.1V9.6z M17.4,15.3h2.3v-2.1h-2.3V15.3z M26.6,5.1
					c0.6-1,1.1-2.1,1.5-3.3l1.5,0.6c-0.6,1.3-0.9,1.9-1.5,2.7h0.9c0.8,0,1.1,0,1.5-0.1v1.5c-0.4-0.1-0.8-0.1-1.6-0.1h-2.2v1.9h1.9
					c0.8,0,1.2,0,1.6-0.1v1.5c-0.4-0.1-0.8-0.1-1.6-0.1h-1.9V12h2.4c0.7,0,1.2,0,1.7-0.1v1.6c-0.5-0.1-1-0.1-1.6-0.1h-2.5v2
					c0,0.8,0,1.3,0.1,2h-1.7c0.1-0.6,0.1-1.2,0.1-2v-2h-1.8c-0.8,0-1.2,0-1.7,0.1v-1.6c0.5,0.1,1,0.1,1.7,0.1h1.8V9.8h-1.4
					c-0.8,0-1.1,0-1.5,0.1V8.4c0.4,0.1,0.8,0.1,1.5,0.1h1.4V6.5h-1.8c-0.7,0-1.2,0-1.6,0.1V5c0.4,0.1,0.7,0.1,1.5,0.1H26.6z M23.9,5
					c-0.4-1-0.7-1.6-1.3-2.5l1.3-0.6c0.6,0.8,0.9,1.4,1.4,2.5L23.9,5z"/>
				<path class="st3" d="M35.7,11.4c-0.2,2.5-0.3,3.5-0.7,5l-1.3-0.6c0.3-0.8,0.4-1.2,0.5-2.2c0.1-1,0.2-1.4,0.2-2.3L35.7,11.4z
					 M33.8,9c0.3,0,0.4,0.1,0.7,0.1c0.2,0,0.2,0,0.6,0c0.4-0.5,0.7-0.9,1-1.4c-0.7-0.9-1.6-1.9-2.3-2.6l0.8-1.2
					c0.3,0.4,0.4,0.5,0.7,0.7c0.8-1.3,1.2-2.2,1.3-2.9L38,2.2c-0.1,0.2-0.2,0.4-0.5,0.9c-0.5,1-1,1.8-1.4,2.5c0.4,0.5,0.5,0.6,0.8,1
					c1-1.6,1.4-2.3,1.6-2.9l1.4,0.7c-0.2,0.2-0.3,0.4-0.6,0.9C38.5,6.5,37.5,8,36.6,9c1.1-0.1,1.3-0.1,2.1-0.2
					c-0.2-0.4-0.3-0.7-0.5-1.3l1.1-0.5c0.5,1,0.8,2.1,1.2,3.3L39.4,11c-0.1-0.4-0.1-0.6-0.2-0.9c-0.5,0.1-0.7,0.1-1.3,0.2v5.4
					c0,0.8,0,1.2,0.1,1.8h-1.6c0.1-0.5,0.1-1,0.1-1.8v-5.3c-0.9,0.1-1,0.1-1.6,0.1c-0.4,0-0.7,0.1-0.9,0.1L33.8,9z M39.5,11.1
					c0.4,1.4,0.5,2.3,0.7,4.1L39,15.5c-0.1-1.6-0.3-2.7-0.6-4.1L39.5,11.1z M40.6,4.5c0-0.8,0-1.4-0.1-1.9c0.5,0.1,1,0.1,1.9,0.1
					h4.5c1.1,0,1.5,0,1.9-0.1c-0.1,0.5-0.1,1.1-0.1,2.1v10.6c0,0.9,0,1.5,0.1,2h-1.6v-1H42v1h-1.5c0.1-0.6,0.1-1.2,0.1-2V4.5z
					 M42,8.6h1.9V4.1H42V8.6z M42,14.8h1.9V10H42V14.8z M45.3,8.6h2V4.1h-2V8.6z M45.3,14.8h2V10h-2V14.8z"/>
				<path class="st3" d="M55.9,2.7c-0.7,1.5-1.3,5.5-1.3,8.4c0,0.1,0,0.3,0,0.5c0,0.5,0,0.5,0,1c0,0.4,0,0.4,0,0.7h0
					c0.3-1,0.3-1.1,0.8-2.4c0.1-0.2,0.1-0.3,0.2-0.5l1.3,0.5c-0.9,1.6-1.6,3.9-1.6,5c0,0.1,0,0.1,0,0.4l-1.8,0.1
					c0-0.1,0-0.1-0.1-0.6c-0.3-2.1-0.5-3.5-0.5-5.3c0-2.3,0.2-3.8,0.8-6.9c0.2-0.7,0.2-1,0.2-1.2L55.9,2.7z M57.2,5.8
					C58,6,58.9,6,60.7,6c0.4,0,0.7,0,1.2-0.1c0-1.5,0-1.5,0-2.7c0-0.3,0-0.6-0.1-0.8h1.8c-0.1,0.5-0.1,1.2-0.1,2.4c0,0.2,0,0.6,0,1
					c1.1-0.1,2.3-0.4,2.8-0.6l0.1,1.6c-0.1,0-0.2,0-0.5,0.1c-0.6,0.1-1.6,0.3-2.4,0.4c0,0.2,0,0.2,0,0.4c0,1,0,1.1,0.1,2.8
					c0.1,0.7,0.1,0.7,0.1,1.2c1.2,0.5,1.7,0.8,2.7,1.6c0.2,0.1,0.3,0.2,0.4,0.3l-0.7,1.7c-0.3-0.4-0.9-0.8-1.3-1.1
					c-0.6-0.4-1-0.6-1.1-0.7c0,0.1,0,0.1,0,0.3c0,0.5-0.1,0.9-0.2,1.2c-0.4,0.9-1.6,1.4-3.1,1.4c-2.1,0-3.3-1-3.3-2.6
					c0-1.5,1.4-2.6,3.4-2.6c0.7,0,1.2,0.1,1.6,0.3c-0.1-0.5-0.1-0.5-0.1-4c-0.9,0-1.2,0.1-1.7,0.1c-0.7,0-1.3,0-2-0.1
					c-0.3,0-0.5,0-0.5,0c-0.2,0-0.3,0-0.3,0c-0.1,0-0.1,0-0.2,0c0,0-0.1,0-0.1,0L57.2,5.8z M60.5,12.6c-1.1,0-1.8,0.5-1.8,1.2
					c0,0.7,0.7,1.2,1.7,1.2c0.6,0,1.2-0.2,1.5-0.5c0.2-0.2,0.3-0.5,0.3-1.1c0-0.1,0-0.4,0-0.4C61.5,12.7,61.1,12.6,60.5,12.6z"/>
				<path class="st3" d="M73.9,10.1c-1.1,0.9-1.6,1.6-1.6,2.4c0,0.7,0.4,1.2,1.3,1.5c0.6,0.2,1.7,0.3,3,0.3c2.1,0,4.2-0.3,5.2-0.7
					l0.2,2c-0.3,0-0.4,0-0.7,0.1c-1.8,0.3-3.1,0.4-4.6,0.4c-1.8,0-3.2-0.2-4.1-0.5c-1.4-0.5-2.1-1.4-2.1-2.7c0-1.2,0.6-2.3,2.1-3.5
					L73.9,10.1z M71.7,3.4c1,0.3,2.6,0.4,4.6,0.4c2.3,0,3.6-0.1,4.6-0.3L81,5.1c-1.1,0.5-2.8,1.5-4.4,2.7l-1.2-1
					c1.1-0.7,1.3-0.8,1.9-1.2c0.2-0.1,0.2-0.1,0.4-0.2c0.1-0.1,0.2-0.1,0.3-0.2c-0.9,0.1-1.6,0.2-2.5,0.2c-1.1,0-2.5-0.1-3.4-0.2
					c-0.3,0-0.4-0.1-0.6-0.1L71.7,3.4z"/>
				<path class="st3" d="M85.8,4.7c0.8,0.2,1.9,0.3,3.7,0.3C89.8,3.6,90,2.8,90,2l1.9,0.2c-0.1,0.3-0.1,0.3-0.3,1
					c-0.2,0.8-0.3,1.1-0.4,1.7c3.1-0.1,5.5-0.4,6.6-0.7l0.1,1.7c-0.4,0-0.4,0-1.9,0.2c-1.3,0.2-3.4,0.3-5.1,0.3
					c-0.4,1.4-1.2,3.3-1.5,3.9c1.1-0.8,2.8-1.3,4.7-1.3c1.3,0,2.5,0.3,3.3,1c0.7,0.5,1.1,1.4,1.1,2.4c0,2.4-2.4,4-5.9,4
					c-1.5,0-3-0.2-4.3-0.6c0-0.8,0-1-0.1-1.8c1.4,0.6,2.9,0.8,4.3,0.8c2.5,0,4.2-1,4.2-2.4c0-1.2-1.1-1.8-3-1.8
					c-1.3,0-2.7,0.3-3.8,0.9c-0.6,0.3-1,0.6-1.3,1l-1.7-0.6c0.3-0.5,0.6-1,0.9-1.6c0.6-1.3,1.1-2.9,1.4-3.8c-0.9,0-1.8-0.1-2.7-0.1
					c-0.2,0-0.4,0-0.5,0c0,0-0.1,0-0.1,0L85.8,4.7z"/>
				<path class="st3" d="M105.9,5.5c-0.2,0.9-0.5,2.3-0.8,4.4c-0.1,0.3-0.1,0.4-0.1,0.6c1.1-1.1,3.2-1.8,5.3-1.8
					c2.8,0,4.7,1.4,4.7,3.5c0,1.2-0.6,2.4-1.7,3.1c-1.1,0.8-2.5,1.1-4.4,1.1c-1.5,0-2.4-0.1-4.3-0.6c0-0.9,0-1.1-0.2-1.8
					c1.5,0.6,3,0.8,4.5,0.8c2.5,0,4.3-1.1,4.3-2.6c0-1.2-1.1-2-3-2c-2.1,0-4.3,0.8-5.2,2l-1.8-0.1c0.1-0.3,0.1-0.4,0.1-1
					c0.2-1.2,0.4-2.8,0.7-4.8c0.1-0.4,0.1-0.6,0.1-1L105.9,5.5z M106.3,2.4c1.1,0.6,4.3,1.6,6.1,1.9l-0.6,1.6
					c-3-0.7-4.4-1.2-6.3-2.1L106.3,2.4z"/>
			</g>
			<path id="パス_394" class="st3" d="M160.1,4.7h-1.5c0,1.9,0.9,3.7,2.4,4.9h-18.6v1.5h18.6c-1.5,1.2-2.4,3-2.4,4.9h1.5
				c0-2.7,2.2-4.8,4.8-4.8c0,0,0,0,0,0V9.5C162.3,9.5,160.1,7.4,160.1,4.7C160.1,4.7,160.1,4.7,160.1,4.7z"/>
		</g>
	</g>
</g>
</svg>
