<?xml version="1.0" encoding="utf-8"?>
<!-- Generator: Adobe Illustrator 25.4.1, SVG Export Plug-In . SVG Version: 6.00 Build 0)  -->
<svg version="1.1" id="レイヤー_1" xmlns="http://www.w3.org/2000/svg" xmlns:xlink="http://www.w3.org/1999/xlink" x="0px"
	 y="0px" viewBox="0 0 419 44" style="enable-background:new 0 0 419 44;" xml:space="preserve">
<style type="text/css">
	.st0{fill:#FF583B;}
	.st1{enable-background:new    ;}
	.st2{fill:#F7F8F8;}
	.st3{fill:#33667A;}
</style>
<g id="グループ_315" transform="translate(-199 -1220)">
	<g id="botan" transform="translate(437.841 1219.378)">
		<path id="長方形_53" class="st0" d="M-7.8,0.6h166c12.2,0,22,9.8,22,22l0,0c0,12.2-9.8,22-22,22h-166c-12.2,0-22-9.8-22-22l0,0
			C-29.8,10.5-20,0.6-7.8,0.6z"/>
		<g id="グループ_90" transform="translate(22.159 15.851)">
			<g class="st1">
				<path class="st2" d="M0.9,2.7C1.3,2.7,1.5,2.7,2,2.7h2.7c0.6,0,0.8,0,1.1-0.1v1.2c-0.3,0-0.5-0.1-1-0.1H2c-0.5,0-0.7,0-1.1,0.1
					V2.7z M1.3,13.2c0.1-0.4,0.1-0.8,0.1-1.4v-2c0-0.4,0-0.8-0.1-1.1c0.4,0,0.7,0.1,1.1,0.1h2.2c0.6,0,0.7,0,1,0c0,0.3,0,0.5,0,1
					v2.1c0,0.4,0,0.8,0.1,1.1H4.4v-0.5H2.6v0.7H1.3z M1.4,0.7C1.7,0.8,2,0.8,2.5,0.8h1.9c0.5,0,0.8,0,1.1-0.1v1.2
					c-0.3,0-0.6-0.1-1.1-0.1H2.5c-0.5,0-0.8,0-1.1,0.1V0.7z M1.4,4.8c0.3,0,0.5,0,1,0h2.3c0.5,0,0.6,0,0.9,0v1.1c-0.3,0-0.5,0-0.9,0
					H2.4c-0.5,0-0.6,0-1,0V4.8z M1.4,6.7c0.3,0,0.5,0,1,0h2.3c0.5,0,0.6,0,0.9,0v1.1c-0.3,0-0.5,0-1,0H2.4c-0.4,0-0.6,0-1,0V6.7z
					 M2.5,11.5h1.9V9.7H2.5V11.5z M10.1,3c0.5-0.8,0.9-1.7,1.2-2.7l1.3,0.5c-0.5,1.1-0.8,1.6-1.2,2.2h0.7C12.8,3,13,3,13.4,3v1.3
					c-0.3-0.1-0.7-0.1-1.3-0.1h-1.8v1.6h1.5c0.7,0,1,0,1.3-0.1v1.2c-0.3-0.1-0.7-0.1-1.3-0.1h-1.5v1.8h2c0.5,0,1,0,1.4-0.1v1.3
					c-0.4-0.1-0.8-0.1-1.4-0.1h-2v1.7c0,0.6,0,1.1,0.1,1.6H8.9c0.1-0.5,0.1-1,0.1-1.6V9.8H7.5c-0.6,0-1,0-1.4,0.1V8.6
					c0.4,0.1,0.8,0.1,1.4,0.1H9V6.9H7.8c-0.6,0-0.9,0-1.2,0.1V5.7c0.3,0.1,0.7,0.1,1.2,0.1H9V4.2H7.5c-0.6,0-1,0-1.3,0.1V3
					C6.5,3,6.8,3,7.4,3H10.1z M7.8,2.9C7.5,2.1,7.2,1.6,6.7,0.8l1.1-0.5C8.3,1,8.5,1.5,9,2.4L7.8,2.9z"/>
				<path class="st2" d="M17.6,8.2c-0.1,2.1-0.3,2.9-0.6,4.1L16,11.8c0.3-0.7,0.3-1,0.4-1.8c0.1-0.8,0.1-1.2,0.2-1.9L17.6,8.2z
					 M16,6.3c0.2,0,0.4,0,0.6,0c0.1,0,0.2,0,0.5,0c0.4-0.4,0.6-0.7,0.8-1.1C17.4,4.4,16.6,3.6,16,3l0.6-1c0.3,0.3,0.4,0.4,0.5,0.6
					c0.6-1.1,1-1.8,1.1-2.4l1.2,0.4c-0.1,0.2-0.2,0.3-0.4,0.7c-0.4,0.8-0.8,1.4-1.2,2.1c0.3,0.4,0.4,0.5,0.7,0.8
					c0.8-1.3,1.2-1.9,1.3-2.4L21,2.4c-0.1,0.2-0.3,0.4-0.5,0.7c-0.6,1-1.5,2.2-2.2,3.1c0.9-0.1,1.1-0.1,1.8-0.1
					c-0.1-0.3-0.2-0.5-0.4-1l0.9-0.4c0.4,0.8,0.7,1.7,1,2.7l-1,0.4c-0.1-0.4-0.1-0.5-0.2-0.7c-0.4,0.1-0.6,0.1-1.1,0.1v4.4
					c0,0.7,0,1,0.1,1.4h-1.3c0.1-0.4,0.1-0.8,0.1-1.5V7.3c-0.7,0.1-0.8,0.1-1.3,0.1c-0.4,0-0.5,0-0.7,0.1L16,6.3z M20.7,8
					c0.3,1.2,0.4,1.9,0.6,3.4l-1,0.3c-0.1-1.3-0.2-2.2-0.5-3.4L20.7,8z M21.6,2.5c0-0.7,0-1.1-0.1-1.6C22,1,22.4,1,23.1,1h3.7
					c0.9,0,1.2,0,1.6-0.1c0,0.4-0.1,0.9-0.1,1.7v8.7c0,0.8,0,1.2,0.1,1.7h-1.3v-0.8h-4.3V13h-1.3c0.1-0.5,0.1-1,0.1-1.6V2.5z
					 M22.7,5.9h1.6V2.2h-1.6V5.9z M22.7,11h1.6V7h-1.6V11z M25.5,5.9h1.7V2.2h-1.7V5.9z M25.5,11h1.7V7h-1.7V11z"/>
				<path class="st2" d="M34.2,1c-0.6,1.3-1.1,4.5-1.1,6.9c0,0.1,0,0.2,0,0.4c0,0.4,0,0.4,0,0.9c0,0.3,0,0.3,0,0.6h0
					c0.2-0.8,0.2-0.9,0.7-2c0.1-0.2,0.1-0.2,0.1-0.4L35,7.9c-0.7,1.4-1.3,3.3-1.3,4.1c0,0.1,0,0.1,0,0.3l-1.5,0.1
					c0-0.1,0-0.1-0.1-0.5c-0.3-1.7-0.4-2.9-0.4-4.4c0-1.9,0.1-3.1,0.7-5.7c0.1-0.6,0.2-0.8,0.2-1L34.2,1z M35.3,3.6
					c0.7,0.2,1.4,0.2,2.9,0.2c0.4,0,0.6,0,1,0c0-1.2,0-1.2,0-2.2c0-0.3,0-0.5,0-0.6h1.5c-0.1,0.4-0.1,1-0.1,1.9c0,0.2,0,0.5,0,0.8
					c0.9-0.1,1.9-0.3,2.3-0.5l0.1,1.3c-0.1,0-0.1,0-0.4,0.1c-0.5,0.1-1.3,0.2-2,0.3c0,0.1,0,0.1,0,0.3c0,0.8,0,0.9,0.1,2.3
					c0,0.6,0,0.6,0.1,1c1,0.4,1.4,0.7,2.3,1.3c0.2,0.1,0.2,0.2,0.4,0.2l-0.6,1.4c-0.3-0.3-0.7-0.7-1.1-0.9c-0.5-0.3-0.8-0.5-0.9-0.6
					c0,0.1,0,0.1,0,0.3c0,0.4-0.1,0.7-0.2,1c-0.4,0.7-1.3,1.2-2.6,1.2c-1.7,0-2.8-0.8-2.8-2.2C35.2,8.9,36.3,8,38,8
					c0.5,0,1,0.1,1.3,0.2c0-0.4,0-0.4-0.1-3.3c-0.7,0-1,0-1.4,0c-0.6,0-1.1,0-1.7-0.1c-0.2,0-0.4,0-0.4,0c-0.1,0-0.2,0-0.3,0
					c-0.1,0-0.1,0-0.1,0c0,0,0,0-0.1,0L35.3,3.6z M38,9.2c-0.9,0-1.5,0.4-1.5,1c0,0.6,0.6,1,1.4,1c0.5,0,1-0.2,1.2-0.4
					c0.1-0.2,0.2-0.4,0.2-0.9c0-0.1,0-0.4,0-0.4C38.8,9.3,38.5,9.2,38,9.2z"/>
				<path class="st2" d="M49.1,7.1c-0.9,0.7-1.3,1.3-1.3,2c0,0.6,0.4,1,1.1,1.2c0.5,0.1,1.4,0.2,2.5,0.2c1.7,0,3.4-0.2,4.3-0.6
					l0.1,1.6c-0.2,0-0.3,0-0.5,0.1c-1.5,0.2-2.6,0.3-3.8,0.3c-1.5,0-2.7-0.2-3.4-0.4c-1.1-0.4-1.7-1.2-1.7-2.2c0-1,0.5-1.9,1.7-2.9
					L49.1,7.1z M47.2,1.6C48,1.8,49.4,2,51,2c1.9,0,3-0.1,3.8-0.3L54.9,3c-0.9,0.4-2.3,1.2-3.7,2.2l-1-0.8c0.9-0.6,1.1-0.7,1.6-1
					C52,3.4,52,3.4,52.2,3.3c0.1-0.1,0.1-0.1,0.3-0.2c-0.7,0.1-1.3,0.1-2,0.1c-0.9,0-2-0.1-2.8-0.2c-0.3,0-0.3,0-0.5,0L47.2,1.6z"/>
				<path class="st2" d="M58.9,2.7c0.7,0.2,1.5,0.2,3,0.2c0.3-1.1,0.4-1.8,0.4-2.4l1.6,0.1c-0.1,0.2-0.1,0.2-0.2,0.8
					c-0.2,0.7-0.2,0.9-0.3,1.4c2.6-0.1,4.5-0.3,5.4-0.6l0.1,1.4c-0.3,0-0.3,0-1.6,0.2C66.1,4,64.4,4.1,63,4.1
					c-0.3,1.1-1,2.7-1.3,3.2c0.9-0.7,2.3-1.1,3.9-1.1c1.1,0,2.1,0.3,2.8,0.8C69,7.5,69.3,8.2,69.3,9c0,2-1.9,3.3-4.9,3.3
					c-1.2,0-2.5-0.2-3.5-0.5c0-0.7,0-0.8-0.1-1.5c1.2,0.5,2.4,0.7,3.6,0.7c2.1,0,3.5-0.8,3.5-2c0-1-0.9-1.5-2.5-1.5
					c-1,0-2.2,0.3-3.1,0.7c-0.5,0.3-0.8,0.5-1.1,0.8l-1.4-0.5c0.3-0.4,0.5-0.8,0.7-1.4c0.5-1.1,0.9-2.4,1.2-3.1
					c-0.7,0-1.5,0-2.2-0.1c-0.2,0-0.3,0-0.4,0c0,0-0.1,0-0.1,0L58.9,2.7z"/>
				<path class="st2" d="M75.4,3.4C75.2,4.1,75,5.3,74.7,7c0,0.3,0,0.3-0.1,0.5C75.5,6.6,77.3,6,79,6c2.3,0,3.9,1.1,3.9,2.8
					c0,1-0.5,2-1.4,2.6c-0.9,0.6-2.1,0.9-3.6,0.9c-1.2,0-1.9-0.1-3.6-0.5c0-0.7,0-0.9-0.2-1.5c1.3,0.5,2.5,0.7,3.7,0.7
					c2.1,0,3.5-0.9,3.5-2.2c0-1-0.9-1.6-2.5-1.6c-1.7,0-3.5,0.7-4.3,1.7l-1.5,0c0-0.2,0-0.3,0.1-0.8c0.1-1,0.3-2.3,0.6-4
					c0.1-0.3,0.1-0.5,0.1-0.8L75.4,3.4z M75.7,0.8c0.9,0.5,3.5,1.3,5,1.6l-0.5,1.3c-2.5-0.6-3.6-1-5.2-1.7L75.7,0.8z"/>
			</g>
			<path id="パス_394" class="st2" d="M109.1,3.2h-1c0,1.4,0.6,2.6,1.7,3.5H96.5v1h13.2c-1.1,0.8-1.7,2.1-1.7,3.5h1
				c0-1.9,1.5-3.4,3.4-3.4l0,0V6.6C110.6,6.6,109.1,5.1,109.1,3.2C109.1,3.2,109.1,3.2,109.1,3.2z"/>
		</g>
	</g>
	<g id="グループ_313">
		<g id="グループ_312">
			<g class="st1">
				<path class="st3" d="M200.4,1232.6c0-2.9,2.2-5,5.3-5c1.6,0,3,0.6,3.9,1.6l-1.2,1.1c-0.7-0.8-1.6-1.1-2.6-1.1
					c-2,0-3.5,1.4-3.5,3.4c0,2,1.5,3.4,3.5,3.4c1,0,1.9-0.4,2.6-1.2l1.2,1.1c-0.9,1.1-2.3,1.6-3.9,1.6
					C202.6,1237.7,200.4,1235.6,200.4,1232.6z"/>
				<path class="st3" d="M212.4,1227.7h1.8v8.3h5.1v1.5h-6.9V1227.7z"/>
				<path class="st3" d="M229.2,1236v1.5h-7.4v-9.8h7.2v1.5h-5.3v2.5h4.7v1.5h-4.7v2.7H229.2z"/>
				<path class="st3" d="M238.7,1235.3h-4.9l-1,2.3H231l4.4-9.8h1.8l4.4,9.8h-1.9L238.7,1235.3z M238.1,1233.9l-1.8-4.3l-1.8,4.3
					H238.1z"/>
				<path class="st3" d="M252.7,1227.7v9.8h-1.5l-5.4-6.6v6.6H244v-9.8h1.5l5.4,6.6v-6.6H252.7z"/>
				<path class="st3" d="M255.6,1236.5l0.6-1.4c0.8,0.6,2,1.1,3.2,1.1c1.5,0,2.2-0.5,2.2-1.3c0-2.1-5.8-0.7-5.8-4.4
					c0-1.6,1.3-2.9,4-2.9c1.2,0,2.4,0.3,3.3,0.9l-0.6,1.4c-0.9-0.5-1.8-0.8-2.7-0.8c-1.5,0-2.1,0.6-2.1,1.3c0,2.1,5.8,0.7,5.8,4.3
					c0,1.6-1.3,2.9-4,2.9C257.9,1237.7,256.4,1237.2,255.6,1236.5z"/>
				<path class="st3" d="M266.4,1227.7h1.8v9.8h-1.8V1227.7z"/>
				<path class="st3" d="M280.7,1227.7v9.8h-1.5l-5.4-6.6v6.6h-1.8v-9.8h1.5l5.4,6.6v-6.6H280.7z"/>
				<path class="st3" d="M291.1,1232.5h1.7v3.9c-1,0.8-2.5,1.2-3.8,1.2c-3,0-5.3-2.1-5.3-5s2.2-5,5.3-5c1.6,0,3,0.5,3.9,1.6
					l-1.1,1.1c-0.8-0.8-1.7-1.1-2.7-1.1c-2.1,0-3.6,1.4-3.6,3.4c0,2,1.5,3.4,3.5,3.4c0.7,0,1.4-0.1,2-0.5V1232.5z"/>
				<path class="st3" d="M310,1234.9c0,1.7-1.3,2.7-3.8,2.7h-4.9v-9.8h4.6c2.4,0,3.6,1,3.6,2.5c0,1-0.5,1.8-1.3,2.2
					C309.3,1232.8,310,1233.6,310,1234.9z M303.1,1229.2v2.7h2.6c1.3,0,2-0.4,2-1.3c0-0.9-0.7-1.4-2-1.4H303.1z M308.2,1234.7
					c0-1-0.7-1.4-2.1-1.4h-2.9v2.8h2.9C307.5,1236.1,308.2,1235.7,308.2,1234.7z"/>
				<path class="st3" d="M319.4,1235.3h-4.9l-1,2.3h-1.9l4.4-9.8h1.8l4.4,9.8h-1.9L319.4,1235.3z M318.8,1233.9l-1.8-4.3l-1.8,4.3
					H318.8z"/>
				<path class="st3" d="M324.7,1227.7h1.8v8.3h5.1v1.5h-6.9V1227.7z"/>
				<path class="st3" d="M343.2,1237.5l0-6.5l-3.2,5.4h-0.8l-3.2-5.3v6.4h-1.7v-9.8h1.5l3.9,6.5l3.8-6.5h1.5l0,9.8H343.2z"/>
			</g>
		</g>
		<g id="グループ_209" transform="translate(-83.36 -1474.168)">
			<g class="st1">
				<path class="st3" d="M428.5,2721.7l-1.8,9.1h-0.9l1.7-8.3h-2.1l0.2-0.8H428.5z"/>
				<path class="st3" d="M430.6,2727.6c0-3.1,1.7-6,4.6-6c1.9,0,3,1.2,3,3.3c0,3.1-1.7,6-4.6,6
					C431.7,2730.9,430.6,2729.7,430.6,2727.6z M437.2,2725c0-1.6-0.8-2.4-2.1-2.4c-2.2,0-3.5,2.8-3.5,5.1c0,1.6,0.8,2.4,2.1,2.4
					C435.9,2730,437.2,2727.3,437.2,2725z"/>
				<path class="st3" d="M440.3,2727.6c0-3.1,1.7-6,4.6-6c1.9,0,3,1.2,3,3.3c0,3.1-1.7,6-4.6,6
					C441.4,2730.9,440.3,2729.7,440.3,2727.6z M446.8,2725c0-1.6-0.8-2.4-2.1-2.4c-2.2,0-3.5,2.8-3.5,5.1c0,1.6,0.8,2.4,2.1,2.4
					C445.6,2730,446.8,2727.3,446.8,2725z"/>
				<path class="st3" d="M457.5,2724l-1.2,6c-0.5,2.4-1.8,3.4-4,3.4c-1.3,0-2.3-0.4-3-1l0.5-0.7c0.5,0.6,1.5,0.9,2.6,0.9
					c1.7,0,2.6-0.8,3-2.4l0.2-0.8c-0.7,0.7-1.6,1.2-2.7,1.2c-1.8,0-3-1.1-3-2.8c0-2.2,1.6-3.9,3.9-3.9c1.3,0,2.3,0.5,2.7,1.6
					l0.3-1.5H457.5z M455.9,2726.7c0-1.2-0.8-2-2.3-2c-1.7,0-3,1.3-3,3c0,1.2,0.8,2,2.3,2C454.6,2729.8,455.9,2728.5,455.9,2726.7z"
					/>
			</g>
			<g class="st1">
				<path class="st3" d="M289.3,2721c-0.1,0.2-0.1,0.2-0.3,0.5c-0.3,0.7-0.5,0.9-0.6,1.2c0.2,0,0.2,0,3.9-0.1c0.5,0,0.5,0,0.7-0.1
					l0.6,0.5c-0.1,0.2-0.1,0.2-0.3,0.6c-0.5,1.8-1.5,3.6-2.6,4.9c-1.2,1.4-2.6,2.4-4.5,3.2c-0.2-0.4-0.3-0.5-0.6-0.8
					c2-0.8,3.3-1.8,4.6-3.3c1-1.2,1.8-2.7,2.2-4.4l-4.4,0.1c-0.8,1.3-1.8,2.4-3.1,3.4c-0.2-0.3-0.4-0.4-0.7-0.7
					c1.4-0.9,2.4-2,3.3-3.6c0.5-0.9,0.8-1.4,0.8-1.9L289.3,2721z"/>
				<path class="st3" d="M299.1,2721.3c0,0.3-0.1,0.6-0.1,1.2l0,7.8c1.5-0.2,2.7-0.6,3.7-1.3c1.3-0.8,2.2-1.7,2.9-3.1
					c0.3,0.5,0.4,0.6,0.7,0.8c-1.8,2.7-3.7,3.9-7.2,4.5c-0.5,0.1-0.6,0.1-0.8,0.2l-0.5-0.6c0.1-0.2,0.1-0.4,0.1-0.8l0-7.5v-0.5
					c0-0.3,0-0.4,0-0.7H299.1z"/>
				<path class="st3" d="M308.6,2730.2c1,0,2.6-0.4,3.8-1c2.5-1.1,4.3-3,5.3-5.8c0.3,0.4,0.4,0.5,0.8,0.8c-1,2.3-2.2,3.8-4,5
					c-1.3,0.9-2.7,1.4-4.8,1.9c-0.4,0.1-0.5,0.1-0.8,0.2L308.6,2730.2z M309.5,2722.1c1.4,0.9,2.2,1.5,3.1,2.4l-0.7,0.8
					c-0.9-1-2-1.9-3.1-2.5L309.5,2722.1z"/>
				<path class="st3" d="M322.1,2724.5c1.1,0.5,2.3,1,3.3,1.7l-0.5,0.9c-0.8-0.6-2.3-1.4-3.3-1.8L322.1,2724.5z M321.7,2730.4
					C321.8,2730.4,321.8,2730.4,321.7,2730.4c0.8,0,2.3-0.3,3.5-0.8c2.5-0.9,4.5-3.1,5.5-5.8c0.3,0.3,0.5,0.5,0.8,0.7
					c-1.6,3.9-4.3,6-9,6.9c-0.3,0.1-0.3,0.1-0.5,0.1L321.7,2730.4z M323.1,2721.4c1.2,0.5,2.2,1,3.2,1.6l-0.5,0.9
					c-0.7-0.6-2.5-1.5-3.2-1.7L323.1,2721.4z M329.9,2720.8c0.6,0.7,0.9,1.2,1.3,2l-0.7,0.4c-0.3-0.7-0.9-1.7-1.3-2.1L329.9,2720.8z
					 M331.4,2720.1c0.6,0.7,0.9,1.2,1.4,2l-0.6,0.4c-0.3-0.6-0.8-1.5-1.3-2L331.4,2720.1z"/>
				<path class="st3" d="M335,2730.2c1,0,2.6-0.4,3.8-1c2.5-1.1,4.3-3,5.3-5.8c0.3,0.4,0.4,0.5,0.8,0.8c-1,2.3-2.2,3.8-4,5
					c-1.3,0.9-2.7,1.4-4.8,1.9c-0.4,0.1-0.5,0.1-0.8,0.2L335,2730.2z M335.9,2722.1c1.4,0.9,2.2,1.5,3.1,2.4l-0.7,0.8
					c-0.9-1-2-1.9-3.1-2.5L335.9,2722.1z"/>
				<path class="st3" d="M352.5,2721.1c-0.1,0.2-0.1,0.2-0.3,0.5c-0.3,0.7-0.5,1-0.6,1.1c0.1,0,0.2,0,0.5,0l3.1-0.1
					c0.5,0,0.5,0,0.7-0.1l0.8,0.8c-0.1,0.1-0.1,0.2-0.2,0.5c-1.2,3.8-3.5,6.4-7.1,8c-0.2-0.4-0.3-0.5-0.6-0.8c3.4-1.3,5.8-4,6.8-7.6
					l-4.4,0.1c-0.7,1.2-2,2.5-3.1,3.4c-0.2-0.3-0.4-0.4-0.7-0.7c1.3-0.8,2.3-1.9,3.3-3.6c0.5-0.9,0.8-1.5,0.8-1.9L352.5,2721.1z
					 M356.5,2720.7c0.6,0.8,0.9,1.2,1.3,2l-0.6,0.4c-0.3-0.7-0.9-1.6-1.3-2L356.5,2720.7z M358,2719.9c0.7,0.8,0.9,1.1,1.3,2
					l-0.7,0.4c-0.3-0.7-0.8-1.4-1.3-2L358,2719.9z"/>
				<path class="st3" d="M364.3,2722.1c-0.1,0.1-0.1,0.2-0.2,0.9c-0.5,3.7-1.6,6.2-3.4,8.1c-0.3-0.4-0.5-0.5-0.8-0.7
					c0.8-0.8,1.3-1.5,1.9-2.6c0.6-1.3,1.1-2.8,1.3-4.5c0.1-0.5,0.1-1,0.1-1.2c0,0,0-0.1,0-0.2L364.3,2722.1z M367.9,2721.9
					c0,0.6,0.3,2.1,0.6,3.1c0.6,2.3,1.7,4.2,3,5.4c-0.4,0.2-0.5,0.4-0.8,0.7c-1.7-1.8-3-4.8-3.5-8.2c-0.1-0.5-0.1-0.7-0.2-0.9
					L367.9,2721.9z M369.2,2721.2c0.6,0.7,0.9,1.3,1.3,2l-0.7,0.4c-0.3-0.7-0.9-1.7-1.3-2.1L369.2,2721.2z M370.7,2720.5
					c0.6,0.7,0.9,1.2,1.3,2.1l-0.6,0.4c-0.3-0.6-0.8-1.5-1.3-2.1L370.7,2720.5z"/>
				<path class="st3" d="M373.8,2725.8c0.4,0.1,0.7,0.1,1.6,0.1h7.6c1,0,1.2,0,1.6-0.1v1.1c-0.4,0-0.7-0.1-1.6-0.1h-7.5
					c-0.9,0-1.2,0-1.6,0.1V2725.8z"/>
				<path class="st3" d="M392.5,2721.3c-0.1,0.2-0.2,0.5-0.4,0.9c-0.9,3.1-1.8,5.6-2.7,7.6c1.7-0.1,4.8-0.5,6.3-0.8
					c-0.7-1.4-1.4-2.5-2-3.4l0.8-0.4c1,1.4,2.3,3.8,3.2,5.9l-0.9,0.5c-0.3-0.7-0.5-1.2-0.8-1.8c-2.2,0.4-4.8,0.8-8,1.1
					c-0.5,0-0.9,0.1-1.1,0.1l-0.1-1.1c0.3,0,0.3,0,0.4,0c0.1,0,0.8,0,1.1-0.1c0.8-1.8,1.3-3.2,2-5.1c0.6-2,0.9-3,1-3.7L392.5,2721.3
					z"/>
			</g>
		</g>
	</g>
</g>
</svg>
