<svg xmlns="http://www.w3.org/2000/svg" width="270" height="101.997" viewBox="0 0 270 101.997">
  <g id="グループ_306" data-name="グループ 306" transform="translate(-53 -1234.546)">
    <text id="CLEANSING_BALM" data-name="CLEANSING BALM" transform="translate(186 1248.546)" fill="#33667a" font-size="14" font-family="Montserrat-SemiBold, Montserrat" font-weight="600" letter-spacing="0.08em"><tspan x="-73.255" y="0">CLEANSING BALM</tspan></text>
    <g id="グループ_84" data-name="グループ 84" transform="translate(-190.36 -1462.172)">
      <text id="_100g" data-name="100g" transform="translate(424.133 2730.829)" fill="#33667a" font-size="13" font-family="Montserrat-Italic, Montserrat" font-style="italic" letter-spacing="0.08em"><tspan x="0" y="0">100g</tspan></text>
      <text id="クレンジングバーム" transform="translate(283.36 2731.329)" fill="#33667a" font-size="13" font-family="HiraginoSans-W3, Hiragino Sans" letter-spacing="0.1em"><tspan x="0" y="0">クレンジングバーム</tspan></text>
    </g>
    <g id="グループ_131" data-name="グループ 131" transform="translate(16 1286.657)">
      <rect id="長方形_55" data-name="長方形 55" width="270" height="50" rx="25" transform="translate(37 -0.114)" fill="#ec6448"/>
      <g id="グループ_90" data-name="グループ 90" transform="translate(85 15)">
        <text id="詳細はこちら" transform="translate(69 16)" fill="#f7f8f8" font-size="17" font-family="HiraginoSans-W5, Hiragino Sans" letter-spacing="0.08em"><tspan x="-54.4" y="0">詳細はこちら</tspan></text>
        <path id="パス_394" data-name="パス 394" d="M-3853.4,3995.084h-1.451a6.183,6.183,0,0,0,2.391,4.88h-18.568v1.466h18.568a6.18,6.18,0,0,0-2.391,4.88h1.451a4.8,4.8,0,0,1,4.823-4.778v-1.67A4.8,4.8,0,0,1-3853.4,3995.084Z" transform="translate(4013.51 -3990.379)" fill="#f7f8f8"/>
      </g>
    </g>
  </g>
</svg>
