<?xml version="1.0" encoding="utf-8"?>
<!-- Generator: Adobe Illustrator 25.4.1, SVG Export Plug-In . SVG Version: 6.00 Build 0)  -->
<svg version="1.1" id="レイヤー_1" xmlns="http://www.w3.org/2000/svg" xmlns:xlink="http://www.w3.org/1999/xlink" x="0px"
	 y="0px" viewBox="0 0 485 44" style="enable-background:new 0 0 485 44;" xml:space="preserve">
<style type="text/css">
	.st0{fill:#FF583B;}
	.st1{enable-background:new    ;}
	.st2{fill:#F7F8F8;}
	.st3{fill:#33667A;}
</style>
<path id="長方形_53" class="st0" d="M297,0h166c12.2,0,22,9.8,22,22l0,0c0,12.2-9.8,22-22,22H297c-12.2,0-22-9.8-22-22l0,0
	C275,9.8,284.8,0,297,0z"/>
<g id="グループ_90" transform="translate(22.159 15.851)">
	<g class="st1">
		<path class="st2" d="M305.8,2c0.3,0.1,0.6,0.1,1.1,0.1h2.7c0.6,0,0.8,0,1.1-0.1v1.2c-0.3,0-0.5-0.1-1-0.1h-2.8
			c-0.5,0-0.7,0-1.1,0.1V2z M306.1,12.6c0.1-0.4,0.1-0.8,0.1-1.4v-2c0-0.4,0-0.8-0.1-1.1c0.4,0,0.7,0.1,1.1,0.1h2.2c0.6,0,0.7,0,1,0
			c0,0.3,0,0.5,0,1v2.1c0,0.4,0,0.8,0.1,1.1h-1.2v-0.5h-1.9v0.7H306.1z M306.2,0.1c0.4,0.1,0.6,0.1,1.1,0.1h1.9c0.5,0,0.8,0,1.1-0.1
			v1.2c-0.3,0-0.6-0.1-1.1-0.1h-1.9c-0.5,0-0.8,0-1.1,0.1V0.1z M306.3,4.1c0.3,0,0.5,0,1,0h2.3c0.5,0,0.6,0,0.9,0v1.1
			c-0.3,0-0.5,0-0.9,0h-2.3c-0.5,0-0.6,0-1,0V4.1z M306.3,6.1c0.3,0,0.5,0,1,0h2.3c0.5,0,0.6,0,0.9,0v1.1c-0.3,0-0.5,0-1,0h-2.2
			c-0.4,0-0.6,0-1,0V6.1z M307.4,10.8h1.9V9.1h-1.9V10.8z M315,2.4c0.5-0.8,0.9-1.7,1.2-2.7l1.3,0.5c-0.5,1.1-0.8,1.6-1.2,2.2h0.7
			c0.6,0,0.9,0,1.2-0.1v1.3c-0.3-0.1-0.7-0.1-1.3-0.1H315v1.6h1.5c0.7,0,1,0,1.3-0.1v1.2c-0.3-0.1-0.7-0.1-1.3-0.1H315v1.8h2
			c0.5,0,1,0,1.4-0.1v1.3c-0.4-0.1-0.8-0.1-1.4-0.1h-2v1.7c0,0.6,0,1.1,0.1,1.6h-1.4c0.1-0.5,0.1-1,0.1-1.6V9.2h-1.5
			c-0.6,0-1,0-1.4,0.1V8c0.4,0.1,0.8,0.1,1.4,0.1h1.5V6.3h-1.2c-0.6,0-0.9,0-1.2,0.1V5.1c0.3,0.1,0.7,0.1,1.2,0.1h1.2V3.5h-1.5
			c-0.6,0-1,0-1.3,0.1V2.3c0.4,0.1,0.6,0.1,1.2,0.1H315z M312.7,2.3c-0.3-0.8-0.6-1.4-1.1-2.1l1.1-0.5c0.5,0.7,0.7,1.2,1.1,2.1
			L312.7,2.3z"/>
		<path class="st2" d="M322.5,7.6c-0.1,2.1-0.3,2.9-0.6,4.1l-1.1-0.5c0.3-0.7,0.3-1,0.4-1.8c0.1-0.8,0.1-1.2,0.2-1.9L322.5,7.6z
			 M320.8,5.6c0.2,0,0.4,0,0.6,0c0.1,0,0.2,0,0.5,0c0.4-0.4,0.6-0.7,0.8-1.1c-0.6-0.8-1.3-1.6-1.9-2.2l0.6-1
			c0.3,0.3,0.4,0.4,0.5,0.6c0.6-1.1,1-1.8,1.1-2.4l1.2,0.4c-0.1,0.2-0.2,0.3-0.4,0.7c-0.4,0.8-0.8,1.4-1.2,2.1
			c0.3,0.4,0.4,0.5,0.7,0.8c0.8-1.3,1.2-1.9,1.3-2.4l1.1,0.6c-0.1,0.2-0.3,0.4-0.5,0.7c-0.6,1-1.5,2.2-2.2,3.1
			c0.9-0.1,1.1-0.1,1.8-0.1c-0.1-0.3-0.2-0.5-0.4-1l0.9-0.4c0.4,0.8,0.7,1.7,1,2.7l-1,0.4c-0.1-0.4-0.1-0.5-0.2-0.7
			c-0.4,0.1-0.6,0.1-1.1,0.1V11c0,0.7,0,1,0.1,1.4H323c0.1-0.4,0.1-0.8,0.1-1.5V6.7c-0.7,0.1-0.8,0.1-1.3,0.1c-0.4,0-0.5,0-0.7,0.1
			L320.8,5.6z M325.5,7.4c0.3,1.2,0.4,1.9,0.6,3.4l-1,0.3c-0.1-1.3-0.2-2.2-0.5-3.4L325.5,7.4z M326.5,1.9c0-0.7,0-1.1-0.1-1.6
			c0.4,0,0.8,0.1,1.5,0.1h3.7c0.9,0,1.2,0,1.6-0.1c0,0.4-0.1,0.9-0.1,1.7v8.7c0,0.8,0,1.2,0.1,1.7h-1.3v-0.8h-4.3v0.9h-1.3
			c0.1-0.5,0.1-1,0.1-1.6V1.9z M327.6,5.3h1.6V1.5h-1.6V5.3z M327.6,10.4h1.6v-4h-1.6V10.4z M330.3,5.3h1.7V1.5h-1.7V5.3z
			 M330.3,10.4h1.7v-4h-1.7V10.4z"/>
		<path class="st2" d="M339,0.4c-0.6,1.3-1.1,4.5-1.1,6.9c0,0.1,0,0.2,0,0.4c0,0.4,0,0.4,0,0.9c0,0.3,0,0.3,0,0.6h0
			c0.2-0.8,0.2-0.9,0.7-2c0.1-0.2,0.1-0.2,0.1-0.4l1.1,0.4c-0.7,1.4-1.3,3.2-1.3,4.1c0,0.1,0,0.1,0,0.3l-1.5,0.1
			c0-0.1,0-0.1-0.1-0.5c-0.3-1.7-0.4-2.9-0.4-4.4c0-1.9,0.1-3.1,0.7-5.7c0.1-0.6,0.2-0.8,0.2-1L339,0.4z M340.1,2.9
			c0.7,0.2,1.4,0.2,2.9,0.2c0.4,0,0.6,0,1,0c0-1.2,0-1.2,0-2.2c0-0.3,0-0.5,0-0.6h1.5c-0.1,0.4-0.1,1-0.1,1.9c0,0.2,0,0.5,0,0.8
			c0.9-0.1,1.9-0.3,2.3-0.5l0.1,1.3c-0.1,0-0.1,0-0.4,0.1c-0.5,0.1-1.3,0.2-2,0.3c0,0.1,0,0.1,0,0.3c0,0.8,0,0.9,0.1,2.3
			c0,0.6,0,0.6,0.1,1c1,0.4,1.4,0.7,2.3,1.3c0.2,0.1,0.2,0.2,0.4,0.2l-0.6,1.4c-0.3-0.3-0.7-0.7-1.1-0.9c-0.5-0.3-0.8-0.5-0.9-0.6
			c0,0.1,0,0.1,0,0.3c0,0.4-0.1,0.7-0.2,1c-0.4,0.7-1.3,1.2-2.6,1.2c-1.7,0-2.8-0.8-2.8-2.2c0-1.3,1.2-2.2,2.8-2.2
			c0.5,0,1,0.1,1.3,0.2c0-0.4,0-0.4-0.1-3.3c-0.7,0-1,0-1.4,0c-0.6,0-1.1,0-1.7-0.1c-0.2,0-0.4,0-0.4,0c-0.1,0-0.2,0-0.3,0
			c-0.1,0-0.1,0-0.1,0c0,0,0,0-0.1,0L340.1,2.9z M342.8,8.6c-0.9,0-1.5,0.4-1.5,1c0,0.6,0.6,1,1.4,1c0.5,0,1-0.2,1.2-0.4
			c0.1-0.2,0.2-0.4,0.2-0.9c0-0.1,0-0.4,0-0.4C343.7,8.6,343.3,8.6,342.8,8.6z"/>
		<path class="st2" d="M353.9,6.5c-0.9,0.7-1.3,1.3-1.3,2c0,0.6,0.4,1,1.1,1.2c0.5,0.1,1.4,0.2,2.5,0.2c1.7,0,3.4-0.2,4.3-0.6
			l0.1,1.6c-0.2,0-0.3,0-0.5,0.1c-1.5,0.2-2.6,0.3-3.8,0.3c-1.5,0-2.7-0.2-3.4-0.4c-1.1-0.4-1.7-1.2-1.7-2.2c0-1,0.5-1.9,1.7-2.9
			L353.9,6.5z M352,1c0.8,0.2,2.2,0.3,3.8,0.3c1.9,0,3-0.1,3.8-0.3l0.1,1.3c-0.9,0.4-2.3,1.2-3.7,2.2l-1-0.8c0.9-0.6,1.1-0.7,1.6-1
			c0.2-0.1,0.2-0.1,0.4-0.2c0.1-0.1,0.1-0.1,0.3-0.2c-0.7,0.1-1.3,0.1-2,0.1c-0.9,0-2-0.1-2.8-0.2c-0.3,0-0.3,0-0.5,0L352,1z"/>
		<path class="st2" d="M363.7,2c0.7,0.2,1.5,0.2,3,0.2c0.3-1.1,0.4-1.8,0.4-2.4l1.6,0.1c-0.1,0.2-0.1,0.2-0.2,0.8
			c-0.2,0.7-0.2,0.9-0.3,1.4c2.6-0.1,4.5-0.3,5.4-0.6l0.1,1.4c-0.3,0-0.3,0-1.6,0.2c-1.1,0.1-2.8,0.2-4.2,0.3
			c-0.3,1.1-1,2.7-1.3,3.2c0.9-0.7,2.3-1.1,3.9-1.1c1.1,0,2.1,0.3,2.8,0.8c0.6,0.4,0.9,1.1,0.9,1.9c0,2-1.9,3.3-4.9,3.3
			c-1.2,0-2.5-0.2-3.5-0.5c0-0.7,0-0.8-0.1-1.5c1.2,0.5,2.4,0.7,3.6,0.7c2.1,0,3.5-0.8,3.5-2c0-1-0.9-1.5-2.5-1.5
			c-1,0-2.2,0.3-3.1,0.7c-0.5,0.3-0.8,0.5-1.1,0.8L364.6,8c0.3-0.4,0.5-0.8,0.7-1.4c0.5-1.1,0.9-2.4,1.2-3.1c-0.7,0-1.5,0-2.2-0.1
			c-0.2,0-0.3,0-0.4,0c0,0-0.1,0-0.1,0L363.7,2z"/>
		<path class="st2" d="M380.2,2.7c-0.2,0.8-0.4,1.9-0.6,3.6c0,0.3,0,0.3-0.1,0.5c0.9-0.9,2.6-1.5,4.4-1.5c2.3,0,3.9,1.1,3.9,2.8
			c0,1-0.5,2-1.4,2.6c-0.9,0.6-2.1,0.9-3.6,0.9c-1.2,0-1.9-0.1-3.6-0.5c0-0.7,0-0.9-0.2-1.5c1.3,0.5,2.5,0.7,3.7,0.7
			c2.1,0,3.5-0.9,3.5-2.2c0-1-0.9-1.6-2.5-1.6c-1.7,0-3.5,0.7-4.3,1.7l-1.5,0c0-0.2,0-0.3,0.1-0.8c0.1-1,0.3-2.3,0.6-4
			c0.1-0.3,0.1-0.5,0.1-0.8L380.2,2.7z M380.6,0.1c0.9,0.5,3.5,1.3,5,1.6L385.1,3c-2.5-0.6-3.6-1-5.2-1.7L380.6,0.1z"/>
	</g>
	<path id="パス_394" class="st2" d="M413.9,2.5h-1c0,1.4,0.6,2.6,1.7,3.5h-13.2v1h13.2c-1.1,0.8-1.7,2.1-1.7,3.5h1
		c0-1.9,1.5-3.4,3.4-3.4l0,0V5.9C415.5,6,413.9,4.4,413.9,2.5C413.9,2.5,413.9,2.5,413.9,2.5z"/>
</g>
<g id="グループ_314">
	<g class="st1">
		<path class="st3" d="M0.6,12.6c0-2.9,2.2-5,5.3-5c1.6,0,3,0.6,3.9,1.6l-1.2,1.1C7.9,9.6,7,9.2,6,9.2c-2,0-3.5,1.4-3.5,3.4
			c0,2,1.5,3.4,3.5,3.4c1,0,1.9-0.4,2.6-1.2l1.2,1.1c-0.9,1.1-2.3,1.6-3.9,1.6C2.9,17.7,0.6,15.6,0.6,12.6z"/>
		<path class="st3" d="M19,17.5l-2-2.9c-0.1,0-0.3,0-0.4,0h-2.2v2.9h-1.8V7.7h4c2.6,0,4.2,1.3,4.2,3.5c0,1.5-0.8,2.6-2.1,3.1
			l2.3,3.2H19z M16.6,9.3h-2.1v3.9h2.1c1.6,0,2.4-0.7,2.4-2S18.2,9.3,16.6,9.3z"/>
		<path class="st3" d="M31.3,16v1.5H24V7.7h7.2v1.5h-5.3v2.5h4.7v1.5h-4.7V16H31.3z"/>
		<path class="st3" d="M40.8,15.3h-4.9l-1,2.3h-1.9l4.4-9.8h1.8l4.4,9.8h-1.9L40.8,15.3z M40.2,13.9l-1.8-4.3l-1.8,4.3H40.2z"/>
		<path class="st3" d="M55.1,17.5l0-6.5l-3.2,5.4H51l-3.2-5.3v6.4h-1.7V7.7h1.5l3.9,6.5l3.8-6.5h1.5l0,9.8H55.1z"/>
		<path class="st3" d="M64.8,14.1v3.5H63v-3.4l-3.9-6.4h1.9l2.9,4.8l2.9-4.8h1.8L64.8,14.1z"/>
		<path class="st3" d="M90.3,7.7L87,17.5h-1.9l-2.4-7.3l-2.5,7.3h-1.9L75,7.7h1.9l2.4,7.5l2.5-7.5h1.7l2.5,7.5l2.5-7.5H90.3z"/>
		<path class="st3" d="M101.6,7.7v9.8h-1.8v-4.2h-5.1v4.2h-1.8V7.7h1.8v4h5.1v-4H101.6z"/>
		<path class="st3" d="M105.3,7.7h1.8v9.8h-1.8V7.7z"/>
		<path class="st3" d="M119.1,11.2c0,2.2-1.6,3.5-4.2,3.5h-2.2v2.8h-1.8V7.7h4C117.5,7.7,119.1,9.1,119.1,11.2z M117.3,11.2
			c0-1.2-0.8-1.9-2.4-1.9h-2.1v3.9h2.1C116.4,13.2,117.3,12.5,117.3,11.2z"/>
		<path class="st3" d="M141.5,7.7l-3.2,9.8h-1.9l-2.4-7.3l-2.5,7.3h-1.9l-3.2-9.8h1.9l2.4,7.5l2.5-7.5h1.7l2.5,7.5l2.5-7.5H141.5z"
			/>
		<path class="st3" d="M150.1,15.3h-4.9l-1,2.3h-1.9l4.4-9.8h1.8l4.4,9.8h-1.9L150.1,15.3z M149.5,13.9l-1.8-4.3l-1.8,4.3H149.5z"/>
		<path class="st3" d="M154.6,16.5l0.6-1.4c0.8,0.6,2,1.1,3.2,1.1c1.5,0,2.2-0.5,2.2-1.3c0-2.1-5.8-0.7-5.8-4.4c0-1.6,1.3-2.9,4-2.9
			c1.2,0,2.4,0.3,3.3,0.9l-0.6,1.4c-0.9-0.5-1.8-0.8-2.7-0.8c-1.5,0-2.1,0.6-2.1,1.3c0,2.1,5.8,0.7,5.8,4.3c0,1.6-1.3,2.9-4,2.9
			C156.9,17.7,155.4,17.2,154.6,16.5z"/>
		<path class="st3" d="M174,7.7v9.8h-1.8v-4.2h-5.1v4.2h-1.8V7.7h1.8v4h5.1v-4H174z"/>
	</g>
	<g id="グループ_209" transform="translate(504.64 -1474.168)">
		<g class="st1">
			<path class="st3" d="M-295.4,1510h4.9l-0.2,0.8h-6.4l0.1-0.7l4.6-3.7c1.3-1.1,1.7-1.7,1.7-2.5c0-0.9-0.6-1.5-2-1.5
				c-0.9,0-1.9,0.4-2.5,1l-0.6-0.6c0.7-0.8,2-1.3,3.3-1.3c1.8,0,2.8,0.9,2.8,2.2c0,1-0.5,1.9-2,3.2L-295.4,1510z"/>
			<path class="st3" d="M-287.7,1507.6c0-3.1,1.7-6,4.6-6c1.9,0,3,1.2,3,3.3c0,3.1-1.7,6-4.6,6
				C-286.6,1510.9-287.7,1509.7-287.7,1507.6z M-281.2,1505c0-1.6-0.8-2.4-2.1-2.4c-2.2,0-3.5,2.8-3.5,5.1c0,1.6,0.8,2.4,2.1,2.4
				C-282.4,1510-281.2,1507.3-281.2,1505z"/>
			<path class="st3" d="M-278.1,1507.6c0-3.1,1.7-6,4.6-6c1.9,0,3,1.2,3,3.3c0,3.1-1.7,6-4.6,6
				C-277,1510.9-278.1,1509.7-278.1,1507.6z M-271.5,1505c0-1.6-0.8-2.4-2.1-2.4c-2.2,0-3.5,2.8-3.5,5.1c0,1.6,0.8,2.4,2.1,2.4
				C-272.8,1510-271.5,1507.3-271.5,1505z"/>
			<path class="st3" d="M-256.4,1506.1c0,0.2,0,0.5-0.1,0.8l-0.8,3.9h-0.9l0.8-3.9c0.1-0.2,0.1-0.4,0.1-0.6c0-1-0.6-1.5-1.7-1.5
				c-1.4,0-2.3,0.8-2.7,2.3l-0.8,3.8h-0.9l0.8-3.9c0-0.2,0.1-0.4,0.1-0.6c0-1-0.5-1.5-1.7-1.5c-1.4,0-2.4,0.8-2.7,2.4l-0.7,3.7h-0.9
				l1.4-6.8h0.9l-0.2,1.1c0.6-0.8,1.5-1.1,2.6-1.1c1.2,0,1.9,0.5,2.2,1.4c0.7-0.9,1.7-1.4,2.9-1.4
				C-257.3,1503.9-256.4,1504.8-256.4,1506.1z"/>
			<path class="st3" d="M-251.7,1501.7h0.9l-1.7,8.3h5.1l-0.2,0.8h-6L-251.7,1501.7z"/>
		</g>
		<g class="st1">
			<path class="st3" d="M-498.7,1501c-0.1,0.2-0.1,0.2-0.3,0.5c-0.3,0.7-0.5,0.9-0.6,1.2c0.2,0,0.2,0,3.9-0.1c0.5,0,0.5,0,0.7-0.1
				l0.6,0.5c-0.1,0.2-0.1,0.2-0.3,0.6c-0.5,1.8-1.5,3.6-2.6,4.9c-1.2,1.4-2.6,2.4-4.5,3.2c-0.2-0.4-0.3-0.5-0.6-0.8
				c2-0.8,3.3-1.8,4.6-3.3c1-1.2,1.8-2.7,2.2-4.4l-4.4,0.1c-0.8,1.3-1.8,2.4-3.1,3.4c-0.2-0.3-0.4-0.4-0.7-0.7
				c1.4-0.9,2.4-2,3.3-3.6c0.5-0.9,0.8-1.4,0.8-1.9L-498.7,1501z"/>
			<path class="st3" d="M-489.1,1501.3c0,0.3-0.1,0.5-0.1,1.1v3.5c0,0.6,0,0.8,0.1,1.1h-1.1c0-0.3,0.1-0.6,0.1-1.1v-3.5
				c0-0.6,0-0.8-0.1-1.1H-489.1z M-483.3,1501.3c-0.1,0.3-0.1,0.5-0.1,1.1v1.5c0,2.1-0.1,3.2-0.3,4c-0.4,1.2-1.2,2.2-2.5,2.9
				c-0.6,0.4-1.3,0.6-2.4,0.9c-0.1-0.4-0.2-0.5-0.5-0.9c1.2-0.3,1.8-0.5,2.5-0.9c1.2-0.7,1.8-1.5,2.1-2.7c0.1-0.7,0.2-1.3,0.2-3.3
				v-1.5c0-0.7,0-0.9-0.1-1.1H-483.3z"/>
			<path class="st3" d="M-479,1505.8c0.4,0.1,0.7,0.1,1.6,0.1h7.6c1,0,1.2,0,1.6-0.1v1.1c-0.4,0-0.7-0.1-1.6-0.1h-7.5
				c-0.9,0-1.2,0-1.6,0.1V1505.8z"/>
			<path class="st3" d="M-464.5,1508.4c3.3,0.5,5.6,1.1,8.3,2.2l-0.4,0.9c-1.2-0.6-2.3-0.9-4.4-1.5c-1.6-0.4-2.6-0.6-3.9-0.8
				L-464.5,1508.4z M-463.4,1504.8c2.2,0.3,4.1,0.8,6.4,1.5l-0.3,0.9c-1.8-0.7-4.1-1.3-6.4-1.6L-463.4,1504.8z M-463.2,1501.2
				c2.2,0.3,4.1,0.7,6.6,1.4l-0.3,0.9c-1.7-0.6-4.4-1.2-6.6-1.5L-463.2,1501.2z"/>
			<path class="st3" d="M-452.5,1505.8c0.4,0.1,0.7,0.1,1.6,0.1h7.6c1,0,1.2,0,1.6-0.1v1.1c-0.4,0-0.7-0.1-1.6-0.1h-7.5
				c-0.9,0-1.2,0-1.6,0.1V1505.8z"/>
			<path class="st3" d="M-435.5,1505.4c-0.1,0.1-0.1,0.2-0.2,0.8c-0.5,1.8-1.2,3.2-2.3,4.5c-0.3-0.3-0.4-0.4-0.9-0.6
				c0.6-0.6,0.9-1,1.2-1.7c0.6-1.1,1.1-2.4,1.1-3.3L-435.5,1505.4z M-433.7,1502.3c0-0.7,0-1-0.1-1.3h1.1c-0.1,0.4-0.1,0.6-0.1,1.4
				v0.8h3.3c0.8,0,1.1,0,1.5-0.1v1c-0.4-0.1-0.8-0.1-1.5-0.1h-3.3v6.5c0,0.7,0,1,0.1,1.4h-1.1c0.1-0.3,0.1-0.7,0.1-1.4v-6.5h-3.2
				c-0.7,0-1.1,0-1.5,0.1v-1c0.5,0.1,0.8,0.1,1.5,0.1h3.2V1502.3z M-430,1505.2c0.1,0.4,0.2,0.8,0.5,1.5c0.6,1.5,1.1,2.5,2,3.5
				c-0.4,0.2-0.5,0.3-0.8,0.6c-0.6-0.8-0.9-1.4-1.4-2.2c-0.3-0.6-0.7-1.6-0.9-2.2c-0.1-0.4-0.2-0.6-0.3-0.8L-430,1505.2z"/>
			<path class="st3" d="M-415.1,1501.6c-0.2,0.2-0.2,0.2-0.6,0.5c-0.8,0.9-1.9,1.8-3,2.6v5.5c0,0.7,0,1,0.1,1.4h-1.1
				c0.1-0.3,0.1-0.6,0.1-1.4v-4.9c-1.7,1-2.6,1.5-5,2.3c-0.2-0.4-0.2-0.5-0.5-0.9c2.4-0.6,4.7-1.8,6.7-3.4c1.2-0.9,2.1-1.8,2.5-2.5
				L-415.1,1501.6z"/>
			<path class="st3" d="M-411.4,1504.2c0.5,0.9,0.8,1.5,1.3,2.9l-0.9,0.3c-0.3-1.1-0.7-2-1.2-2.9L-411.4,1504.2z M-404.1,1504.1
				c-0.1,0.2-0.1,0.2-0.3,1.1c-0.2,0.9-0.7,2.1-1.1,2.9c-0.9,1.6-2.3,2.8-4.3,3.8c-0.2-0.3-0.3-0.5-0.6-0.7c2-0.9,3.2-1.9,4.1-3.4
				c0.5-0.8,0.9-1.8,1.1-2.8c0.1-0.4,0.1-0.7,0.1-0.9v-0.1c0,0,0,0,0-0.1L-404.1,1504.1z M-408.8,1503.7c0.7,1.2,0.9,1.8,1.3,2.8
				l-0.9,0.3c-0.2-0.9-0.6-1.9-1.2-2.8L-408.8,1503.7z"/>
			<path class="st3" d="M-393.3,1502.2c0-0.1-0.1-0.3-0.1-0.4c0-0.8,0.7-1.5,1.5-1.5c0.8,0,1.5,0.7,1.5,1.5c0,0.8-0.7,1.5-1.5,1.5
				c-0.1,0-0.3,0-0.5-0.1c0,0,0,0,0,0.1c-0.6,2.3-1.5,3.9-2.7,5.2c-1.4,1.4-2.8,2.4-4.7,3.1c-0.2-0.4-0.3-0.6-0.6-0.9
				c1.7-0.5,3.6-1.6,4.8-3c1.1-1.2,1.8-2.7,2.3-4.6h-6.6c-0.8,0-1.1,0-1.5,0.1v-1c0.5,0.1,0.8,0.1,1.5,0.1h6.4H-393.3z
				 M-392.8,1501.9c0,0.5,0.4,0.9,0.9,0.9c0.5,0,0.9-0.4,0.9-0.9c0-0.5-0.4-0.9-0.9-0.9C-392.4,1500.9-392.8,1501.3-392.8,1501.9z"
				/>
			<path class="st3" d="M-380.2,1503c0.8,0,0.9,0,1.1-0.1l0.5,0.5c-0.1,0.2-0.1,0.2-0.3,1.3c-0.3,2-1.1,3.6-2.4,4.7
				c-1,0.9-2.2,1.6-3.8,2.2c-0.2-0.4-0.3-0.5-0.6-0.9c1.2-0.3,2-0.7,2.9-1.3c1.8-1.3,2.8-3,3-5.7h-7.1v2c0,0.4,0,0.7,0,1h-1.1
				c0-0.2,0.1-0.6,0.1-1v-1.8c0-0.4,0-0.7-0.1-1.1c0.4,0,0.7,0.1,1.2,0.1h2.8v-1.3c0-0.4,0-0.5-0.1-0.8h1.1c0,0.2-0.1,0.5-0.1,0.8
				v1.3H-380.2z"/>
			<path class="st3" d="M-373.6,1505.9c-0.5,0-0.9,0-1.2,0.1v-0.9c0.3,0.1,0.5,0.1,1.2,0.1h3.8l0-0.9c0-0.5,0-0.7-0.1-1h0.9
				c0,0.2-0.1,0.4-0.1,0.7v0.2l0,1h1.3c0.6,0,0.8,0,1.2-0.1v0.9c-0.3-0.1-0.6-0.1-1.2-0.1h-1.2l0.1,5.1c0,0.6,0,0.7,0.1,1h-1
				c0-0.3,0-0.5,0-1v-0.1l0-3.9c0,0,0-0.4,0.1-0.7c0,0,0,0-0.1,0.1c-0.7,1.5-2.5,3.1-4.9,4.4c-0.2-0.3-0.3-0.4-0.6-0.7
				c1-0.5,2-1.1,3-1.9c0.9-0.8,1.5-1.5,2-2.4H-373.6z"/>
			<path class="st3" d="M-361.8,1504.2c0.5,0.9,0.8,1.5,1.3,2.9l-0.9,0.3c-0.3-1.1-0.7-2-1.2-2.9L-361.8,1504.2z M-354.5,1504.1
				c-0.1,0.2-0.1,0.2-0.3,1.1c-0.2,0.9-0.7,2.1-1.1,2.9c-0.9,1.6-2.3,2.8-4.3,3.8c-0.2-0.3-0.3-0.5-0.6-0.7c2-0.9,3.2-1.9,4.1-3.4
				c0.5-0.8,0.9-1.8,1.1-2.8c0.1-0.4,0.1-0.7,0.1-0.9v-0.1c0,0,0,0,0-0.1L-354.5,1504.1z M-359.2,1503.7c0.7,1.2,0.9,1.8,1.3,2.8
				l-0.9,0.3c-0.2-0.9-0.6-1.9-1.2-2.8L-359.2,1503.7z"/>
			<path class="st3" d="M-350.4,1504.4c1.2,0.5,2.2,1,3.3,1.7l-0.5,0.9c-0.9-0.7-2.1-1.3-3.3-1.8L-350.4,1504.4z M-350.7,1510.4
				c0.8,0,2.2-0.3,3.5-0.8c1.6-0.6,2.8-1.5,3.9-2.9c0.7-0.9,1.2-1.8,1.6-2.9c0.3,0.3,0.5,0.5,0.8,0.7c-1.1,2.7-2.7,4.5-5,5.6
				c-0.9,0.5-2.2,0.9-3.3,1.1c-0.2,0-0.4,0.1-0.7,0.1c-0.3,0.1-0.3,0.1-0.5,0.1L-350.7,1510.4z M-349.3,1501.3
				c1.3,0.5,2.1,0.9,3.2,1.6l-0.5,0.9c-0.9-0.7-2.2-1.4-3.2-1.7L-349.3,1501.3z"/>
			<path class="st3" d="M-330.4,1510.6c0.6,0,0.8,0,1.2-0.1v0.9c-0.3-0.1-0.6-0.1-1.2-0.1h-6.4c-0.6,0-0.9,0-1.2,0.1v-0.9
				c0.4,0.1,0.6,0.1,1.2,0.1h4c0.3-1.4,0.6-3.3,0.7-4.5h-3.5c-0.7,0-0.8,0-1.1,0.1v-0.9c0.3,0.1,0.6,0.1,1.2,0.1h3.5
				c0.3,0,0.4,0,0.6-0.1l0.4,0.4c-0.1,0.2-0.1,0.3-0.2,0.9c-0.3,2.1-0.4,2.7-0.7,4.1H-330.4z"/>
		</g>
	</g>
</g>
</svg>
