<?xml version="1.0" encoding="utf-8"?>
<!-- Generator: Adobe Illustrator 25.4.1, SVG Export Plug-In . SVG Version: 6.00 Build 0)  -->
<svg version="1.1" id="レイヤー_1" xmlns="http://www.w3.org/2000/svg" xmlns:xlink="http://www.w3.org/1999/xlink" x="0px"
	 y="0px" viewBox="0 0 270 102" style="enable-background:new 0 0 270 102;" xml:space="preserve">
<style type="text/css">
	.st0{enable-background:new    ;}
	.st1{fill:#33667A;}
	.st2{fill:#FF583B;}
	.st3{fill:#F7F8F8;}
</style>
<g id="グループ_318" transform="translate(-53 -3771.889)">
	<g class="st0">
		<path class="st1" d="M98.9,3781c0-2.9,2.2-5,5.3-5c1.6,0,3,0.6,3.9,1.6l-1.2,1.1c-0.7-0.8-1.6-1.1-2.6-1.1c-2,0-3.5,1.4-3.5,3.4
			c0,2,1.5,3.4,3.5,3.4c1,0,1.9-0.4,2.6-1.2l1.2,1.1c-0.9,1.1-2.3,1.6-3.9,1.6C101.2,3786,98.9,3783.9,98.9,3781z"/>
		<path class="st1" d="M117.4,3785.9l-2-2.9c-0.1,0-0.3,0-0.4,0h-2.2v2.9h-1.8v-9.8h4c2.6,0,4.2,1.3,4.2,3.5c0,1.5-0.8,2.6-2.1,3.1
			l2.3,3.2H117.4z M114.9,3777.6h-2.1v3.9h2.1c1.6,0,2.4-0.7,2.4-2S116.5,3777.6,114.9,3777.6z"/>
		<path class="st1" d="M129.7,3784.4v1.5h-7.4v-9.8h7.2v1.5h-5.3v2.5h4.7v1.5h-4.7v2.7H129.7z"/>
		<path class="st1" d="M139.2,3783.6h-4.9l-1,2.3h-1.9l4.4-9.8h1.8l4.4,9.8h-1.9L139.2,3783.6z M138.6,3782.2l-1.8-4.3l-1.8,4.3
			H138.6z"/>
		<path class="st1" d="M153.4,3785.9l0-6.5l-3.2,5.4h-0.8l-3.2-5.3v6.4h-1.7v-9.8h1.5l3.9,6.5l3.8-6.5h1.5l0,9.8H153.4z"/>
		<path class="st1" d="M163.1,3782.4v3.5h-1.8v-3.4l-3.9-6.4h1.9l2.9,4.8l2.9-4.8h1.8L163.1,3782.4z"/>
		<path class="st1" d="M188.6,3776.1l-3.2,9.8h-1.9l-2.4-7.3l-2.5,7.3h-1.9l-3.2-9.8h1.9l2.4,7.5l2.5-7.5h1.7l2.5,7.5l2.5-7.5H188.6
			z"/>
		<path class="st1" d="M199.9,3776.1v9.8h-1.8v-4.2H193v4.2h-1.8v-9.8h1.8v4h5.1v-4H199.9z"/>
		<path class="st1" d="M203.6,3776.1h1.8v9.8h-1.8V3776.1z"/>
		<path class="st1" d="M217.4,3779.6c0,2.2-1.6,3.5-4.2,3.5H211v2.8h-1.8v-9.8h4C215.8,3776.1,217.4,3777.4,217.4,3779.6z
			 M215.6,3779.6c0-1.2-0.8-1.9-2.4-1.9H211v3.9h2.1C214.8,3781.5,215.6,3780.8,215.6,3779.6z"/>
		<path class="st1" d="M239.8,3776.1l-3.2,9.8h-1.9l-2.4-7.3l-2.5,7.3h-1.9l-3.2-9.8h1.9l2.4,7.5l2.5-7.5h1.7l2.5,7.5l2.5-7.5H239.8
			z"/>
		<path class="st1" d="M248.5,3783.6h-4.9l-1,2.3h-1.9l4.4-9.8h1.8l4.4,9.8h-1.9L248.5,3783.6z M247.9,3782.2l-1.8-4.3l-1.8,4.3
			H247.9z"/>
		<path class="st1" d="M252.9,3784.9l0.6-1.4c0.8,0.6,2,1.1,3.2,1.1c1.5,0,2.2-0.5,2.2-1.3c0-2.1-5.8-0.7-5.8-4.4
			c0-1.6,1.3-2.9,4-2.9c1.2,0,2.4,0.3,3.3,0.9l-0.6,1.4c-0.9-0.5-1.8-0.8-2.7-0.8c-1.5,0-2.1,0.6-2.1,1.3c0,2.1,5.8,0.7,5.8,4.3
			c0,1.6-1.3,2.9-4,2.9C255.2,3786,253.7,3785.6,252.9,3784.9z"/>
		<path class="st1" d="M272.4,3776.1v9.8h-1.8v-4.2h-5.1v4.2h-1.8v-9.8h1.8v4h5.1v-4H272.4z"/>
	</g>
	<g class="st0">
		<path class="st1" d="M270.3,3805.2h4.9l-0.2,0.8h-6.4l0.1-0.7l4.6-3.7c1.3-1.1,1.7-1.7,1.7-2.5c0-0.9-0.6-1.5-2-1.5
			c-0.9,0-1.9,0.4-2.5,1l-0.7-0.6c0.7-0.8,2-1.3,3.3-1.3c1.8,0,2.8,0.9,2.8,2.2c0,1-0.5,1.9-2,3.2L270.3,3805.2z"/>
		<path class="st1" d="M278,3802.8c0-3.1,1.7-6,4.5-6c1.9,0,3,1.2,3,3.3c0,3.1-1.7,6-4.5,6C279.1,3806.1,278,3804.9,278,3802.8z
			 M284.6,3800.1c0-1.6-0.8-2.4-2.1-2.4c-2.2,0-3.5,2.8-3.5,5.1c0,1.6,0.8,2.4,2.1,2.4C283.3,3805.2,284.6,3802.5,284.6,3800.1z"/>
		<path class="st1" d="M287.7,3802.8c0-3.1,1.7-6,4.5-6c1.9,0,3,1.2,3,3.3c0,3.1-1.7,6-4.5,6
			C288.8,3806.1,287.7,3804.9,287.7,3802.8z M294.2,3800.1c0-1.6-0.8-2.4-2.1-2.4c-2.2,0-3.5,2.8-3.5,5.1c0,1.6,0.8,2.4,2.1,2.4
			C293,3805.2,294.2,3802.5,294.2,3800.1z"/>
		<path class="st1" d="M309.3,3801.3c0,0.2,0,0.5-0.1,0.8l-0.8,3.9h-0.9l0.8-3.9c0.1-0.2,0.1-0.4,0.1-0.6c0-1-0.6-1.5-1.7-1.5
			c-1.4,0-2.3,0.8-2.7,2.3l-0.8,3.8h-0.9l0.8-3.9c0-0.2,0.1-0.4,0.1-0.6c0-1-0.5-1.5-1.7-1.5c-1.4,0-2.4,0.8-2.7,2.4l-0.7,3.7h-0.9
			l1.4-6.8h0.9l-0.2,1.1c0.6-0.8,1.5-1.1,2.6-1.1c1.2,0,1.9,0.5,2.2,1.4c0.7-0.9,1.7-1.4,2.9-1.4
			C308.4,3799.1,309.3,3799.9,309.3,3801.3z"/>
		<path class="st1" d="M314,3796.9h0.9l-1.7,8.3h5.1l-0.2,0.8h-6L314,3796.9z"/>
	</g>
	<g class="st0">
		<path class="st1" d="M67.1,3796.2c-0.1,0.2-0.1,0.2-0.3,0.5c-0.3,0.7-0.5,0.9-0.6,1.2c0.2,0,0.2,0,3.9-0.1c0.5,0,0.5,0,0.7-0.1
			l0.6,0.5c-0.1,0.2-0.1,0.2-0.3,0.6c-0.5,1.8-1.5,3.6-2.6,4.9c-1.2,1.4-2.6,2.4-4.5,3.2c-0.2-0.4-0.3-0.5-0.6-0.8
			c2-0.8,3.3-1.8,4.6-3.3c1-1.2,1.8-2.7,2.2-4.4l-4.4,0.1c-0.8,1.3-1.8,2.4-3.1,3.4c-0.2-0.3-0.4-0.4-0.7-0.7c1.4-0.9,2.4-2,3.3-3.6
			c0.5-0.9,0.8-1.4,0.8-1.9L67.1,3796.2z"/>
		<path class="st1" d="M76.7,3796.5c0,0.3-0.1,0.5-0.1,1.1v3.5c0,0.6,0,0.8,0.1,1.1h-1.1c0-0.3,0.1-0.6,0.1-1.1v-3.5
			c0-0.6,0-0.8-0.1-1.1H76.7z M82.4,3796.5c-0.1,0.3-0.1,0.5-0.1,1.1v1.5c0,2.1-0.1,3.2-0.3,4c-0.4,1.2-1.2,2.2-2.5,2.9
			c-0.6,0.4-1.3,0.6-2.4,0.9c-0.1-0.4-0.2-0.5-0.5-0.9c1.2-0.3,1.8-0.5,2.5-0.9c1.2-0.7,1.8-1.5,2.1-2.7c0.1-0.7,0.2-1.3,0.2-3.3
			v-1.5c0-0.7,0-0.9-0.1-1.1H82.4z"/>
		<path class="st1" d="M86.7,3801c0.4,0.1,0.7,0.1,1.6,0.1h7.6c1,0,1.2,0,1.6-0.1v1.1c-0.4,0-0.7-0.1-1.6-0.1h-7.5
			c-0.9,0-1.2,0-1.6,0.1V3801z"/>
		<path class="st1" d="M101.3,3803.6c3.3,0.5,5.6,1.1,8.3,2.2l-0.4,0.9c-1.2-0.6-2.3-0.9-4.4-1.5c-1.6-0.4-2.6-0.6-3.9-0.8
			L101.3,3803.6z M102.3,3799.9c2.2,0.3,4.1,0.8,6.4,1.5l-0.3,0.9c-1.8-0.7-4.1-1.3-6.4-1.6L102.3,3799.9z M102.5,3796.4
			c2.2,0.3,4.1,0.7,6.6,1.4l-0.3,0.9c-1.7-0.6-4.4-1.2-6.6-1.5L102.5,3796.4z"/>
		<path class="st1" d="M113.3,3801c0.4,0.1,0.7,0.1,1.6,0.1h7.6c1,0,1.2,0,1.6-0.1v1.1c-0.4,0-0.7-0.1-1.6-0.1h-7.5
			c-0.9,0-1.2,0-1.6,0.1V3801z"/>
		<path class="st1" d="M130.3,3800.6c-0.1,0.1-0.1,0.2-0.2,0.8c-0.5,1.8-1.2,3.2-2.3,4.5c-0.3-0.3-0.4-0.4-0.9-0.6
			c0.6-0.6,0.9-1,1.2-1.7c0.6-1.1,1.1-2.4,1.1-3.3L130.3,3800.6z M132.1,3797.4c0-0.7,0-1-0.1-1.3h1.1c-0.1,0.4-0.1,0.6-0.1,1.4v0.8
			h3.3c0.8,0,1.1,0,1.5-0.1v1c-0.4-0.1-0.8-0.1-1.5-0.1H133v6.5c0,0.7,0,1,0.1,1.4H132c0.1-0.3,0.1-0.7,0.1-1.4v-6.5h-3.2
			c-0.7,0-1.1,0-1.5,0.1v-1c0.5,0.1,0.8,0.1,1.5,0.1h3.2V3797.4z M135.7,3800.4c0.1,0.4,0.2,0.8,0.5,1.5c0.6,1.5,1.1,2.5,2,3.5
			c-0.4,0.2-0.5,0.3-0.8,0.6c-0.6-0.8-0.9-1.4-1.4-2.2c-0.3-0.6-0.7-1.6-0.9-2.2c-0.1-0.4-0.2-0.6-0.3-0.8L135.7,3800.4z"/>
		<path class="st1" d="M150.7,3796.8c-0.2,0.2-0.2,0.2-0.6,0.5c-0.8,0.9-1.9,1.8-3,2.6v5.5c0,0.7,0,1,0.1,1.4H146
			c0.1-0.3,0.1-0.6,0.1-1.4v-4.9c-1.7,1-2.6,1.5-5,2.3c-0.2-0.4-0.2-0.5-0.5-0.9c2.4-0.6,4.7-1.8,6.7-3.4c1.2-0.9,2.1-1.8,2.5-2.5
			L150.7,3796.8z"/>
		<path class="st1" d="M154.3,3799.4c0.5,0.9,0.8,1.5,1.3,2.9l-0.9,0.3c-0.3-1.1-0.7-2-1.2-2.9L154.3,3799.4z M161.6,3799.3
			c-0.1,0.2-0.1,0.2-0.3,1.1c-0.2,0.9-0.7,2.1-1.1,2.9c-0.9,1.6-2.3,2.8-4.3,3.8c-0.2-0.3-0.3-0.5-0.6-0.7c2-0.9,3.2-1.9,4.1-3.4
			c0.5-0.8,0.9-1.8,1.1-2.8c0.1-0.4,0.1-0.7,0.1-0.9v-0.1c0,0,0,0,0-0.1L161.6,3799.3z M157,3798.8c0.7,1.2,0.9,1.8,1.3,2.8
			l-0.9,0.3c-0.2-0.9-0.6-1.9-1.2-2.8L157,3798.8z"/>
		<path class="st1" d="M172.4,3797.4c0-0.1-0.1-0.3-0.1-0.4c0-0.8,0.7-1.5,1.5-1.5c0.8,0,1.5,0.7,1.5,1.5c0,0.8-0.7,1.5-1.5,1.5
			c-0.1,0-0.3,0-0.5-0.1c0,0,0,0,0,0.1c-0.6,2.3-1.5,3.9-2.7,5.2c-1.4,1.4-2.8,2.4-4.7,3.1c-0.2-0.4-0.3-0.6-0.6-0.9
			c1.7-0.5,3.6-1.6,4.8-3c1.1-1.2,1.8-2.7,2.3-4.6h-6.6c-0.8,0-1.1,0-1.5,0.1v-1c0.5,0.1,0.8,0.1,1.5,0.1h6.4H172.4z M172.9,3797
			c0,0.5,0.4,0.9,0.9,0.9c0.5,0,0.9-0.4,0.9-0.9c0-0.5-0.4-0.9-0.9-0.9C173.3,3796.1,172.9,3796.5,172.9,3797z"/>
		<path class="st1" d="M185.5,3798.2c0.8,0,0.9,0,1.1-0.1l0.5,0.5c-0.1,0.2-0.1,0.2-0.3,1.3c-0.3,2-1.1,3.6-2.4,4.7
			c-1,0.9-2.2,1.6-3.8,2.2c-0.2-0.4-0.3-0.5-0.6-0.9c1.2-0.3,2-0.7,2.9-1.3c1.8-1.3,2.8-3,3-5.7h-7.1v2c0,0.4,0,0.7,0,1h-1.1
			c0-0.2,0.1-0.6,0.1-1v-1.8c0-0.4,0-0.7-0.1-1.1c0.4,0,0.7,0.1,1.2,0.1h2.8v-1.3c0-0.4,0-0.5-0.1-0.8h1.1c0,0.2-0.1,0.5-0.1,0.8
			v1.3H185.5z"/>
		<path class="st1" d="M192.2,3801.1c-0.5,0-0.9,0-1.2,0.1v-0.9c0.3,0.1,0.5,0.1,1.2,0.1h3.8l0-0.9c0-0.5,0-0.7-0.1-1h0.9
			c0,0.2-0.1,0.4-0.1,0.7v0.2l0,1h1.3c0.6,0,0.8,0,1.2-0.1v0.9c-0.3-0.1-0.7-0.1-1.2-0.1h-1.2l0.1,5.1c0,0.6,0,0.7,0.1,1h-1
			c0-0.3,0-0.5,0-1v-0.1l0-3.9c0,0,0-0.4,0.1-0.7c0,0,0,0-0.1,0.1c-0.7,1.5-2.5,3.1-4.9,4.4c-0.2-0.3-0.3-0.4-0.6-0.7
			c1-0.5,2-1.1,3-1.9c0.9-0.8,1.5-1.5,2-2.4H192.2z"/>
		<path class="st1" d="M203.9,3799.4c0.5,0.9,0.8,1.5,1.3,2.9l-0.9,0.3c-0.3-1.1-0.7-2-1.2-2.9L203.9,3799.4z M211.3,3799.3
			c-0.1,0.2-0.1,0.2-0.3,1.1c-0.2,0.9-0.7,2.1-1.1,2.9c-0.9,1.6-2.3,2.8-4.3,3.8c-0.2-0.3-0.3-0.5-0.6-0.7c2-0.9,3.2-1.9,4.1-3.4
			c0.5-0.8,0.9-1.8,1.1-2.8c0.1-0.4,0.1-0.7,0.1-0.9v-0.1c0,0,0,0,0-0.1L211.3,3799.3z M206.6,3798.8c0.7,1.2,0.9,1.8,1.3,2.8
			l-0.9,0.3c-0.2-0.9-0.6-1.9-1.2-2.8L206.6,3798.8z"/>
		<path class="st1" d="M215.4,3799.6c1.2,0.5,2.2,1,3.3,1.7l-0.5,0.9c-0.9-0.7-2.1-1.3-3.3-1.8L215.4,3799.6z M215.1,3805.6
			c0.8,0,2.2-0.3,3.5-0.8c1.6-0.6,2.8-1.5,3.9-2.9c0.7-0.9,1.2-1.8,1.6-2.9c0.3,0.3,0.5,0.5,0.8,0.7c-1.1,2.7-2.7,4.5-5,5.6
			c-0.9,0.5-2.2,0.9-3.3,1.1c-0.2,0-0.4,0.1-0.7,0.1c-0.3,0.1-0.3,0.1-0.5,0.1L215.1,3805.6z M216.4,3796.5c1.3,0.5,2.1,0.9,3.2,1.6
			l-0.5,0.9c-0.9-0.7-2.2-1.4-3.2-1.7L216.4,3796.5z"/>
		<path class="st1" d="M235.4,3805.7c0.6,0,0.8,0,1.2-0.1v0.9c-0.3-0.1-0.6-0.1-1.2-0.1H229c-0.6,0-0.9,0-1.2,0.1v-0.9
			c0.4,0.1,0.6,0.1,1.2,0.1h4c0.3-1.4,0.6-3.3,0.7-4.5h-3.5c-0.7,0-0.8,0-1.1,0.1v-0.9c0.3,0.1,0.6,0.1,1.2,0.1h3.5
			c0.3,0,0.4,0,0.6-0.1l0.4,0.4c-0.1,0.2-0.1,0.3-0.2,0.9c-0.3,2.1-0.4,2.7-0.7,4.1H235.4z"/>
	</g>
	<path id="長方形_55" class="st2" d="M78,3823.9h220c13.8,0,25,11.2,25,25l0,0c0,13.8-11.2,25-25,25H78c-13.8,0-25-11.2-25-25
		l0,0C53,3835.1,64.2,3823.9,78,3823.9z"/>
	<g class="st0">
		<path class="st3" d="M116.5,3843.7c0.4,0.1,0.7,0.1,1.4,0.1h3.3c0.7,0,1,0,1.4-0.1v1.5c-0.4-0.1-0.6-0.1-1.3-0.1h-3.4
			c-0.6,0-0.9,0-1.4,0.1V3843.7z M116.9,3856.4c0.1-0.5,0.1-1,0.1-1.6v-2.4c0-0.5,0-1-0.1-1.4c0.5,0.1,0.8,0.1,1.3,0.1h2.7
			c0.7,0,0.9,0,1.2-0.1c0,0.4-0.1,0.6-0.1,1.3v2.6c0,0.5,0,0.9,0.1,1.4h-1.4v-0.6h-2.3v0.8H116.9z M117,3841.3
			c0.4,0.1,0.7,0.1,1.4,0.1h2.3c0.7,0,0.9,0,1.4-0.1v1.4c-0.4-0.1-0.8-0.1-1.4-0.1h-2.3c-0.6,0-1,0-1.4,0.1V3841.3z M117.1,3846.2
			c0.4,0,0.6,0.1,1.2,0.1h2.7c0.6,0,0.8,0,1.1-0.1v1.4c-0.4,0-0.6-0.1-1.1-0.1h-2.7c-0.6,0-0.8,0-1.2,0.1V3846.2z M117.1,3848.6
			c0.4,0,0.6,0.1,1.2,0.1h2.7c0.6,0,0.8,0,1.1-0.1v1.4c-0.4,0-0.6-0.1-1.2-0.1h-2.7c-0.5,0-0.7,0-1.2,0.1V3848.6z M118.4,3854.3h2.3
			v-2.1h-2.3V3854.3z M127.6,3844.1c0.6-1,1.1-2.1,1.5-3.3l1.5,0.6c-0.6,1.3-0.9,1.9-1.5,2.7h0.9c0.8,0,1.1,0,1.5-0.1v1.5
			c-0.4-0.1-0.8-0.1-1.6-0.1h-2.2v1.9h1.9c0.8,0,1.2,0,1.6-0.1v1.5c-0.4-0.1-0.8-0.1-1.6-0.1h-1.9v2.2h2.4c0.7,0,1.2,0,1.7-0.1v1.6
			c-0.5-0.1-1-0.1-1.6-0.1h-2.5v2c0,0.8,0,1.3,0.1,2h-1.7c0.1-0.6,0.1-1.2,0.1-2v-2h-1.8c-0.8,0-1.2,0-1.7,0.1v-1.6
			c0.5,0.1,1,0.1,1.7,0.1h1.8v-2.2h-1.4c-0.8,0-1.1,0-1.5,0.1v-1.5c0.4,0.1,0.8,0.1,1.5,0.1h1.4v-1.9h-1.8c-0.7,0-1.2,0-1.6,0.1
			v-1.5c0.4,0.1,0.7,0.1,1.5,0.1H127.6z M124.9,3844c-0.4-1-0.7-1.6-1.3-2.5l1.3-0.6c0.6,0.8,0.9,1.4,1.4,2.5L124.9,3844z"/>
		<path class="st3" d="M136.7,3850.4c-0.2,2.5-0.3,3.5-0.7,5l-1.3-0.6c0.3-0.8,0.4-1.2,0.5-2.2c0.1-1,0.2-1.4,0.2-2.3L136.7,3850.4z
			 M134.8,3848c0.3,0,0.4,0.1,0.7,0.1c0.2,0,0.2,0,0.6,0c0.4-0.5,0.7-0.9,1-1.4c-0.7-0.9-1.6-1.9-2.3-2.6l0.8-1.2
			c0.3,0.4,0.4,0.5,0.7,0.7c0.8-1.3,1.2-2.2,1.3-2.9l1.4,0.5c-0.1,0.2-0.2,0.4-0.5,0.9c-0.5,1-1,1.8-1.4,2.5c0.4,0.5,0.5,0.6,0.8,1
			c1-1.6,1.4-2.3,1.6-2.9l1.4,0.7c-0.2,0.2-0.3,0.4-0.6,0.9c-0.8,1.2-1.8,2.7-2.6,3.7c1.1-0.1,1.3-0.1,2.1-0.2
			c-0.2-0.4-0.3-0.7-0.5-1.3l1.1-0.5c0.5,1,0.8,2.1,1.2,3.3l-1.2,0.5c-0.1-0.4-0.1-0.6-0.2-0.9c-0.5,0.1-0.7,0.1-1.3,0.2v5.4
			c0,0.8,0,1.2,0.1,1.8h-1.6c0.1-0.5,0.1-1,0.1-1.8v-5.3c-0.9,0.1-1,0.1-1.6,0.1c-0.4,0-0.7,0.1-0.9,0.1L134.8,3848z M140.5,3850.1
			c0.4,1.4,0.5,2.3,0.7,4.1l-1.2,0.3c-0.1-1.6-0.3-2.7-0.6-4.1L140.5,3850.1z M141.6,3843.5c0-0.8,0-1.4-0.1-1.9
			c0.5,0.1,1,0.1,1.9,0.1h4.5c1.1,0,1.5,0,1.9-0.1c-0.1,0.5-0.1,1.1-0.1,2.1v10.6c0,0.9,0,1.5,0.1,2h-1.6v-1H143v1h-1.5
			c0.1-0.6,0.1-1.2,0.1-2V3843.5z M143,3847.6h1.9v-4.5H143V3847.6z M143,3853.8h1.9v-4.9H143V3853.8z M146.3,3847.6h2v-4.5h-2
			V3847.6z M146.3,3853.8h2v-4.9h-2V3853.8z"/>
		<path class="st3" d="M156.9,3841.7c-0.7,1.5-1.3,5.5-1.3,8.4c0,0.1,0,0.3,0,0.5c0,0.5,0,0.5,0,1c0,0.4,0,0.4,0,0.7h0
			c0.3-1,0.3-1.1,0.8-2.4c0.1-0.2,0.1-0.3,0.2-0.5l1.3,0.5c-0.9,1.6-1.6,3.9-1.6,5c0,0.1,0,0.1,0,0.4l-1.8,0.1c0-0.1,0-0.1-0.1-0.6
			c-0.3-2.1-0.5-3.5-0.5-5.3c0-2.3,0.2-3.8,0.8-6.9c0.2-0.7,0.2-1,0.2-1.2L156.9,3841.7z M158.2,3844.8c0.8,0.2,1.7,0.3,3.5,0.3
			c0.4,0,0.7,0,1.2-0.1c0-1.5,0-1.5,0-2.7c0-0.3,0-0.6-0.1-0.8h1.8c-0.1,0.5-0.1,1.2-0.1,2.4c0,0.2,0,0.6,0,1
			c1.1-0.1,2.3-0.4,2.8-0.6l0.1,1.6c-0.1,0-0.2,0-0.5,0.1c-0.6,0.1-1.6,0.3-2.4,0.4c0,0.2,0,0.2,0,0.4c0,1,0,1.1,0.1,2.8
			c0.1,0.7,0.1,0.7,0.1,1.2c1.2,0.5,1.7,0.8,2.7,1.6c0.2,0.1,0.3,0.2,0.4,0.3l-0.7,1.7c-0.3-0.4-0.9-0.8-1.3-1.1
			c-0.6-0.4-1-0.6-1.1-0.7c0,0.1,0,0.1,0,0.3c0,0.5-0.1,0.9-0.2,1.2c-0.4,0.9-1.6,1.4-3.1,1.4c-2.1,0-3.3-1-3.3-2.6
			c0-1.5,1.4-2.6,3.4-2.6c0.7,0,1.2,0.1,1.6,0.3c-0.1-0.5-0.1-0.5-0.1-4c-0.9,0-1.2,0.1-1.7,0.1c-0.7,0-1.3,0-2-0.1
			c-0.3,0-0.5,0-0.5,0c-0.2,0-0.3,0-0.3,0c-0.1,0-0.1,0-0.2,0c0,0-0.1,0-0.1,0L158.2,3844.8z M161.5,3851.6c-1.1,0-1.8,0.5-1.8,1.2
			c0,0.7,0.7,1.2,1.7,1.2c0.6,0,1.2-0.2,1.5-0.5c0.2-0.2,0.3-0.5,0.3-1.1c0-0.1,0-0.4,0-0.4C162.5,3851.7,162.1,3851.6,161.5,3851.6
			z"/>
		<path class="st3" d="M174.9,3849.1c-1.1,0.9-1.6,1.6-1.6,2.4c0,0.7,0.4,1.2,1.3,1.5c0.6,0.2,1.7,0.3,3,0.3c2.1,0,4.2-0.3,5.2-0.7
			l0.2,2c-0.3,0-0.4,0-0.7,0.1c-1.8,0.3-3.1,0.4-4.6,0.4c-1.8,0-3.2-0.2-4.1-0.5c-1.4-0.5-2.1-1.4-2.1-2.7c0-1.2,0.6-2.3,2.1-3.5
			L174.9,3849.1z M172.7,3842.4c1,0.3,2.6,0.4,4.6,0.4c2.3,0,3.6-0.1,4.6-0.3l0.1,1.6c-1.1,0.5-2.8,1.5-4.4,2.7l-1.2-1
			c1.1-0.7,1.3-0.8,1.9-1.2c0.2-0.1,0.2-0.1,0.4-0.2c0.1-0.1,0.2-0.1,0.3-0.2c-0.9,0.1-1.6,0.2-2.5,0.2c-1.1,0-2.5-0.1-3.4-0.2
			c-0.3,0-0.4-0.1-0.6-0.1L172.7,3842.4z"/>
		<path class="st3" d="M186.8,3843.7c0.8,0.2,1.9,0.3,3.7,0.3c0.3-1.3,0.5-2.2,0.5-2.9l1.9,0.2c-0.1,0.3-0.1,0.3-0.3,1
			c-0.2,0.8-0.3,1.1-0.4,1.7c3.1-0.1,5.5-0.4,6.6-0.7l0.1,1.7c-0.4,0-0.4,0-1.9,0.2c-1.3,0.2-3.4,0.3-5.1,0.3
			c-0.4,1.4-1.2,3.3-1.5,3.9c1.1-0.8,2.8-1.3,4.7-1.3c1.3,0,2.5,0.3,3.3,1c0.7,0.5,1.1,1.4,1.1,2.4c0,2.4-2.4,4-5.9,4
			c-1.5,0-3-0.2-4.3-0.6c0-0.8,0-1-0.1-1.8c1.4,0.6,2.9,0.8,4.3,0.8c2.5,0,4.2-1,4.2-2.4c0-1.2-1.1-1.8-3-1.8
			c-1.3,0-2.7,0.3-3.8,0.9c-0.6,0.3-1,0.6-1.3,1l-1.7-0.6c0.3-0.5,0.6-1,0.9-1.6c0.6-1.3,1.1-2.9,1.4-3.8c-0.9,0-1.8-0.1-2.7-0.1
			c-0.2,0-0.4,0-0.5,0c0,0-0.1,0-0.1,0L186.8,3843.7z"/>
		<path class="st3" d="M206.9,3844.5c-0.2,0.9-0.5,2.3-0.8,4.4c-0.1,0.3-0.1,0.4-0.1,0.6c1.1-1.1,3.2-1.8,5.3-1.8
			c2.8,0,4.7,1.4,4.7,3.5c0,1.2-0.6,2.4-1.7,3.1c-1.1,0.8-2.5,1.1-4.4,1.1c-1.5,0-2.4-0.1-4.3-0.6c0-0.9,0-1.1-0.2-1.8
			c1.5,0.6,3,0.8,4.5,0.8c2.5,0,4.3-1.1,4.3-2.6c0-1.2-1.1-2-3-2c-2.1,0-4.3,0.8-5.2,2l-1.8-0.1c0.1-0.3,0.1-0.4,0.1-1
			c0.2-1.2,0.4-2.8,0.7-4.8c0.1-0.4,0.1-0.6,0.1-1L206.9,3844.5z M207.3,3841.4c1.1,0.6,4.3,1.6,6.1,1.9l-0.6,1.6
			c-3-0.7-4.4-1.2-6.3-2.1L207.3,3841.4z"/>
	</g>
	<path id="パス_394" class="st3" d="M261.1,3843.7h-1.5c0,1.9,0.9,3.7,2.4,4.9h-18.6v1.5h18.6c-1.5,1.2-2.4,3-2.4,4.9h1.5
		c0-2.7,2.2-4.8,4.8-4.8c0,0,0,0,0,0v-1.7C263.3,3848.5,261.1,3846.4,261.1,3843.7C261.1,3843.7,261.1,3843.7,261.1,3843.7z"/>
</g>
</svg>
