<?xml version="1.0" encoding="utf-8"?>
<!-- Generator: Adobe Illustrator 25.4.1, SVG Export Plug-In . SVG Version: 6.00 Build 0)  -->
<svg version="1.1" id="レイヤー_1" xmlns="http://www.w3.org/2000/svg" xmlns:xlink="http://www.w3.org/1999/xlink" x="0px"
	 y="0px" viewBox="0 0 345.8 589.8" style="enable-background:new 0 0 345.8 589.8;" xml:space="preserve">
<style type="text/css">
	.st0{enable-background:new    ;}
	.st1{fill:#33667A;}
	.st2{fill:none;stroke:#32667A;stroke-dasharray:5;}
	.st3{fill:#FF583B;}
	.st4{fill:#F7F8F8;}
</style>
<g id="グループ_126" transform="translate(30.5 -2039)">
	<g id="グループ_125" transform="translate(-30.5 2046)">
		<g id="グループ_127" transform="translate(46.336 -9)">
			<g class="st0">
				<path class="st1" d="M2.5,20.5V9.4h3.6v10.9c0,4,1.8,5.8,5,5.8s5-1.7,5-5.8V9.4h3.6v11.1c0,5.7-3.2,8.8-8.6,8.8
					C5.7,29.3,2.5,26.2,2.5,20.5z"/>
				<path class="st1" d="M42.5,21.5c0,4.6-3.2,7.7-7.6,7.7c-1.9,0-3.6-0.6-4.8-2v7.3h-3.5V14H30v2c1.2-1.4,2.9-2.1,5-2.1
					C39.3,13.9,42.5,16.9,42.5,21.5z M39,21.5c0-2.9-1.9-4.7-4.4-4.7s-4.5,1.8-4.5,4.7c0,2.9,1.9,4.7,4.5,4.7S39,24.4,39,21.5z"/>
				<path class="st1" d="M57.1,28.2c-0.8,0.7-2.1,1-3.4,1c-3.3,0-5.2-1.7-5.2-5V17h-2.5v-2.8h2.5v-3.4h3.5v3.4h4V17h-4v7.1
					c0,1.5,0.7,2.2,2.1,2.2c0.7,0,1.4-0.2,2-0.6L57.1,28.2z"/>
			</g>
			<g class="st0">
				<path class="st1" d="M1,68.9l1.3-2.8c1.6,1.3,4.1,2.2,6.5,2.2c3.1,0,4.3-1.1,4.3-2.5c0-4.2-11.6-1.5-11.6-8.7
					c0-3.2,2.5-5.9,7.9-5.9c2.4,0,4.8,0.6,6.5,1.7l-1.1,2.8c-1.8-1-3.7-1.5-5.4-1.5c-3,0-4.3,1.2-4.3,2.7c0,4.2,11.6,1.5,11.6,8.7
					c0,3.1-2.5,5.8-7.9,5.8C5.7,71.3,2.6,70.3,1,68.9z"/>
				<path class="st1" d="M29.2,62.8L26.1,66v5h-3.6V51.4h3.6v10.1l9.7-10.1h4.1l-8.2,8.8L40.4,71h-4.3L29.2,62.8z"/>
				<path class="st1" d="M45.1,51.4h3.6V71h-3.6V51.4z"/>
				<path class="st1" d="M73.7,51.4V71h-3L59.9,57.7V71h-3.6V51.4h3l10.8,13.3V51.4H73.7z"/>
				<path class="st1" d="M79.8,61.2c0-5.9,4.5-10.1,10.5-10.1c3.2,0,5.9,1.1,7.8,3.3l-2.4,2.2c-1.4-1.5-3.2-2.3-5.2-2.3
					c-4.1,0-7,2.9-7,6.9s2.9,6.9,7,6.9c2,0,3.8-0.8,5.2-2.3l2.4,2.2c-1.8,2.1-4.6,3.3-7.8,3.3C84.3,71.3,79.8,67.1,79.8,61.2z"/>
				<path class="st1" d="M116.1,66.5h-9.8l-1.9,4.5h-3.8l8.8-19.6h3.6l8.8,19.6h-3.8L116.1,66.5z M114.9,63.6l-3.7-8.6l-3.7,8.6
					H114.9z"/>
				<path class="st1" d="M139.4,71l-4-5.7c-0.3,0-0.5,0-0.8,0h-4.4V71h-3.6V51.4h8.1c5.2,0,8.3,2.6,8.3,7c0,3-1.5,5.2-4.2,6.2
					l4.5,6.4H139.4z M134.5,54.5h-4.3v7.8h4.3c3.2,0,4.8-1.5,4.8-3.9S137.7,54.5,134.5,54.5z"/>
				<path class="st1" d="M164,67.9V71h-14.7V51.4h14.3v3.1H153v5.1h9.5v3H153v5.4H164z"/>
				<path class="st1" d="M178.6,68.9l1.3-2.8c1.6,1.3,4.1,2.2,6.5,2.2c3.1,0,4.3-1.1,4.3-2.5c0-4.2-11.6-1.5-11.6-8.7
					c0-3.2,2.5-5.9,7.9-5.9c2.4,0,4.8,0.6,6.5,1.7l-1.1,2.8c-1.8-1-3.7-1.5-5.4-1.5c-3,0-4.3,1.2-4.3,2.7c0,4.2,11.6,1.5,11.6,8.7
					c0,3.1-2.5,5.8-7.9,5.8C183.3,71.3,180.3,70.3,178.6,68.9z"/>
				<path class="st1" d="M214.8,67.9V71h-14.7V51.4h14.3v3.1h-10.7v5.1h9.5v3h-9.5v5.4H214.8z"/>
				<path class="st1" d="M225.1,54.5h-6.5v-3.1h16.6v3.1h-6.5V71h-3.6V54.5z"/>
			</g>
			<g class="st0">
				<path class="st1" d="M9.7,107.5h4.5l-0.2,1h-5l-0.4,2.2h5l-0.2,1h-5l-0.6,3H5.9l0.6-3H1.4l0.2-1h5.1l0.4-2.2H2.1l0.2-1h4.6
					L2,98.6h1.7l4.6,8.4l7.8-8.4H18L9.7,107.5z"/>
				<path class="st1" d="M33,98.6l-0.2,1.2l-9.7,14.9h-1.9l9.5-14.6h-8.2l-0.6,3h-1.6l0.9-4.5H33z"/>
				<path class="st1" d="M35.3,113.5c0,0.4-0.1,0.7-0.4,1.2l-1.7,3.3H32l1.5-3.4c-0.4-0.2-0.6-0.6-0.6-1.1c0-0.8,0.6-1.3,1.3-1.3
					C34.8,112.3,35.3,112.8,35.3,113.5z"/>
				<path class="st1" d="M45,100.1l-1.6,5.1h2c4.1,0,5.9,1.7,5.9,4.2c0,3.3-2.6,5.4-6.6,5.4c-2.5,0-4.5-0.8-5.5-2.1l0.9-1.3
					c0.8,1.1,2.5,1.9,4.7,1.9c3,0,4.8-1.4,4.8-3.7c0-1.8-1.3-2.9-4.5-2.9h-3.7l2.4-8.1h8.8l-0.3,1.5H45z"/>
				<path class="st1" d="M67.5,104.8c0,4.5-2.4,10-8.9,10c-1.5,0-2.9-0.3-3.8-0.9l0.8-1.3c0.9,0.6,2,0.8,3.2,0.8
					c4.7,0,6.7-3.9,7-7.5c-1.1,1.7-2.9,2.3-4.8,2.3c-2.9,0-5.2-1.6-5.2-4.5c0-3.2,2.4-5.2,5.8-5.2C65.1,98.4,67.5,100.6,67.5,104.8z
					 M65.7,103.2c0-1.6-1.4-3.3-4-3.3c-2.5,0-4.2,1.4-4.2,3.7c0,2.1,1.6,3.2,3.8,3.2C63.9,106.8,65.7,105.2,65.7,103.2z"/>
				<path class="st1" d="M71.3,109c0-5.5,3.1-10.6,8-10.6c3.3,0,5.2,2.2,5.2,5.8c0,5.5-3.1,10.6-8,10.6
					C73.3,114.8,71.3,112.7,71.3,109z M82.9,104.3c0-2.8-1.4-4.3-3.7-4.3c-4,0-6.2,4.9-6.2,9c0,2.8,1.4,4.3,3.7,4.3
					C80.7,113.3,82.9,108.4,82.9,104.3z"/>
				<path class="st1" d="M96.8,113c0-5.6,2-11.6,5.2-15.4h1.7c-3.2,4.1-5.3,10-5.3,15.5c0,2,0.3,3.9,1,6h-1.5
					C97.2,117.4,96.8,115.1,96.8,113z"/>
				<path class="st1" d="M107.9,111c0,0.3-0.1,0.5-0.1,0.8c0,1,0.6,1.6,1.7,1.6c0.7,0,1.3-0.2,1.9-0.6l0.4,1.2
					c-0.8,0.6-1.8,0.8-2.7,0.8c-1.8,0-2.9-1-2.9-2.8c0-0.3,0-0.6,0.1-0.9l1.4-7.1h-2.1l0.3-1.4h2.2l0.5-2.6h1.6l-0.5,2.6h3.7
					L113,104h-3.7L107.9,111z"/>
				<path class="st1" d="M129.5,102.6l-2.4,12.1h-1.6l0.4-1.9c-1.1,1.3-2.8,2-4.7,2c-3.1,0-5.3-1.9-5.3-5.1c0-4.1,2.9-7.2,6.8-7.2
					c2.3,0,3.9,0.9,4.6,2.6l0.5-2.5H129.5z M126.7,107.7c0-2.4-1.4-3.8-4-3.8c-3,0-5.2,2.4-5.2,5.7c0,2.4,1.4,3.7,4,3.7
					C124.5,113.3,126.7,111,126.7,107.7z"/>
				<path class="st1" d="M139.4,108.5l3.6,6.1h-1.7l-2.9-5l-4.9,5h-1.9l6.1-6.3l-3.4-5.8h1.7l2.7,4.7l4.6-4.7h1.9L139.4,108.5z"/>
				<path class="st1" d="M157.8,102.6h1.6l-2.4,12.1h-1.6L157.8,102.6z M158.2,98.9c0-0.7,0.5-1.2,1.3-1.2c0.6,0,1.1,0.5,1.1,1
					c0,0.7-0.6,1.3-1.3,1.3C158.6,99.9,158.2,99.4,158.2,98.9z"/>
				<path class="st1" d="M176,106.4c0,0.4,0,0.9-0.1,1.4l-1.4,6.9h-1.6l1.4-6.9c0.1-0.4,0.1-0.8,0.1-1.1c0-1.7-1-2.7-3.1-2.7
					c-2.6,0-4.3,1.4-4.9,4.2l-1.3,6.5h-1.6l2.4-12.1h1.6l-0.4,1.9c1.2-1.4,2.8-2,4.7-2C174.4,102.5,176,104,176,106.4z"/>
				<path class="st1" d="M184.9,103.6c0-2-0.3-3.9-1-6h1.5c0.6,1.7,1.1,4,1.1,6.1c0,5.6-2,11.6-5.2,15.4h-1.7
					C182.9,115.1,184.9,109.1,184.9,103.6z"/>
			</g>
		</g>
		<g id="グループ_128" transform="translate(46.336 253.386)">
			<g id="グループ_89">
				<g class="st0">
					<path class="st1" d="M4.9,4.1V16H2.7V6H0.1V4.1H4.9z"/>
					<path class="st1" d="M8.5,14.7c0-0.8,0.6-1.4,1.4-1.4c0.8,0,1.4,0.6,1.4,1.4c0,0.8-0.6,1.4-1.4,1.4C9.1,16.1,8.5,15.5,8.5,14.7
						z"/>
				</g>
				<g class="st0">
					<path class="st1" d="M25.4,46l-2.1,10.5h-1.1l1.9-9.5h-2.5l0.2-1H25.4z"/>
					<path class="st1" d="M30.7,46.9l-1,3.3h1.3c2.7,0,3.8,1.1,3.8,2.7c0,2.1-1.7,3.5-4.3,3.5c-1.6,0-2.9-0.5-3.6-1.4l0.6-0.8
						c0.5,0.7,1.6,1.2,3.1,1.2c2,0,3.1-0.9,3.1-2.4c0-1.2-0.8-1.9-2.9-1.9h-2.4l1.6-5.3h5.7l-0.2,1H30.7z"/>
					<path class="st1" d="M40.3,46.9l-1,3.3h1.3c2.7,0,3.8,1.1,3.8,2.7c0,2.1-1.7,3.5-4.3,3.5c-1.6,0-2.9-0.5-3.6-1.4l0.6-0.8
						c0.5,0.7,1.6,1.2,3.1,1.2c2,0,3.1-0.9,3.1-2.4c0-1.2-0.8-1.9-2.9-1.9h-2.4l1.6-5.3h5.7l-0.2,1H40.3z"/>
					<path class="st1" d="M60.9,51.1c0,0.3,0,0.6-0.1,0.9l-0.9,4.5h-1.1l0.9-4.5c0.1-0.3,0.1-0.5,0.1-0.7c0-1.1-0.6-1.8-2-1.8
						c-1.6,0-2.7,0.9-3.1,2.6L54,56.5h-1.1l0.9-4.5c0-0.3,0.1-0.5,0.1-0.7c0-1.1-0.6-1.8-2-1.8c-1.6,0-2.7,0.9-3.1,2.8L48,56.5h-1.1
						l1.6-7.9h1l-0.3,1.3c0.8-0.9,1.8-1.3,3-1.3c1.3,0,2.2,0.6,2.6,1.6c0.8-1,1.9-1.6,3.3-1.6C59.9,48.5,60.9,49.5,60.9,51.1z"/>
					<path class="st1" d="M66.4,46h1.1l-1.9,9.5h5.9l-0.2,1h-7L66.4,46z"/>
				</g>
				<g class="st0">
					<path class="st1" d="M25.5,27.9c-0.1,0.2-0.1,0.2-0.2,1c-0.6,4-1.7,6.7-3.7,8.7c-0.4-0.4-0.5-0.5-0.9-0.7
						c0.9-0.8,1.4-1.6,2-2.8c0.7-1.4,1.2-3,1.4-4.9c0.1-0.6,0.1-1.1,0.1-1.3c0,0,0-0.1,0-0.2L25.5,27.9z M29.3,27.6
						c0,0.6,0.3,2.2,0.6,3.4c0.7,2.5,1.8,4.5,3.2,5.8c-0.4,0.2-0.5,0.4-0.9,0.8c-1.9-2-3.3-5.2-3.8-8.8c-0.1-0.5-0.1-0.7-0.2-0.9
						L29.3,27.6z M30.8,26.9c0.6,0.8,1,1.4,1.4,2.2l-0.7,0.4c-0.3-0.7-1-1.8-1.4-2.3L30.8,26.9z M32.4,26.2c0.6,0.8,1,1.3,1.4,2.2
						l-0.7,0.4c-0.3-0.7-0.9-1.6-1.4-2.2L32.4,26.2z"/>
					<path class="st1" d="M36.3,30.5c0.5,0.1,0.8,0.1,1.6,0.1h7.2c0.5,0,0.7,0,0.9-0.1l0.5,0.6c-0.1,0.2-0.2,0.3-0.4,0.9
						C45,35.2,43,37,39.4,38.2c-0.2-0.4-0.3-0.6-0.6-1c1.9-0.5,3.1-1.2,4.2-2.1c1-0.9,1.6-1.9,2.3-3.7h-7.3c-0.7,0-1.1,0-1.6,0.1
						V30.5z M37.5,27.2c0.4,0.1,0.7,0.1,1.5,0.1h4.7c0.8,0,1.1,0,1.5-0.1v1.1c-0.4-0.1-0.7-0.1-1.5-0.1H39c-0.7,0-1.1,0-1.5,0.1
						V27.2z"/>
					<path class="st1" d="M49.9,36.6c1.1,0,2.8-0.5,4.1-1.1c2.7-1.2,4.6-3.3,5.7-6.2c0.3,0.4,0.5,0.6,0.9,0.8
						c-1.1,2.4-2.4,4.1-4.3,5.4c-1.4,1-2.9,1.6-5.2,2.1c-0.4,0.1-0.5,0.1-0.8,0.2L49.9,36.6z M50.8,27.9c1.5,1,2.4,1.6,3.4,2.6
						l-0.7,0.9c-1-1.1-2.1-2-3.3-2.7L50.8,27.9z"/>
					<path class="st1" d="M64.4,30.4c1.3,0.5,2.3,1.1,3.6,1.8l-0.5,0.9c-1-0.7-2.3-1.4-3.6-1.9L64.4,30.4z M64,36.8
						c0.9,0,2.4-0.3,3.8-0.9c1.7-0.7,3.1-1.7,4.2-3.1c0.8-1,1.2-1.9,1.7-3.1c0.4,0.4,0.5,0.5,0.9,0.7c-1.2,2.9-2.9,4.8-5.4,6
						c-1,0.5-2.4,1-3.5,1.2c-0.2,0-0.5,0.1-0.8,0.2c-0.3,0.1-0.3,0.1-0.5,0.2L64,36.8z M65.5,27.1c1.4,0.6,2.3,1,3.5,1.8l-0.6,0.9
						c-1-0.7-2.4-1.5-3.4-1.8L65.5,27.1z"/>
					<path class="st1" d="M77.7,36.6c1.1,0,2.8-0.5,4.1-1.1c2.7-1.2,4.6-3.3,5.7-6.2c0.3,0.4,0.5,0.6,0.9,0.8
						c-1.1,2.4-2.4,4.1-4.3,5.4c-1.4,1-2.9,1.6-5.2,2.1c-0.4,0.1-0.5,0.1-0.8,0.2L77.7,36.6z M78.6,27.9c1.5,1,2.4,1.6,3.4,2.6
						l-0.7,0.9c-1-1.1-2.1-2-3.3-2.7L78.6,27.9z"/>
					<path class="st1" d="M96.5,26.8c-0.1,0.2-0.1,0.2-0.3,0.6c-0.4,0.7-0.5,1-0.6,1.2c0.1,0,0.2,0,0.5,0l3.4-0.1
						c0.5,0,0.5,0,0.7-0.1l0.8,0.9c-0.1,0.2-0.1,0.2-0.2,0.5c-1.3,4.1-3.7,6.9-7.6,8.6c-0.2-0.4-0.4-0.6-0.7-0.8
						c3.6-1.4,6.3-4.3,7.4-8.2l-4.7,0.1c-0.8,1.3-2.1,2.7-3.3,3.6c-0.2-0.3-0.4-0.5-0.8-0.7c1.4-0.9,2.5-2.1,3.5-3.9
						c0.6-1,0.9-1.7,0.9-2L96.5,26.8z M100.8,26.3c0.7,0.8,1,1.3,1.4,2.1l-0.7,0.4c-0.4-0.7-1-1.7-1.4-2.2L100.8,26.3z M102.4,25.6
						c0.7,0.9,0.9,1.2,1.4,2.1l-0.7,0.4c-0.3-0.7-0.8-1.5-1.4-2.1L102.4,25.6z"/>
					<path class="st1" d="M107.8,38.3c0.1-0.4,0.1-0.7,0.1-1.5v-8.7c0-0.7,0-1.1-0.1-1.4h1.2c-0.1,0.4-0.1,0.7-0.1,1.5v2.6
						c2.2,0.8,3.8,1.5,6.2,3l-0.6,1c-1.3-0.9-3.2-2-5.2-2.8c-0.2-0.1-0.3-0.1-0.4-0.2l0,0c0,0.3,0.1,0.5,0.1,0.8v4.2
						c0,0.8,0,1.1,0.1,1.5H107.8z"/>
					<path class="st1" d="M127.9,30.3c0.8,0,1.1,0,1.6-0.1v1.1c-0.5-0.1-0.9-0.1-1.6-0.1h-3.2c-0.1,2-0.4,3-1,4.1
						c-0.7,1.2-1.8,2.1-3.5,2.9c-0.3-0.4-0.4-0.6-0.7-0.9c1.6-0.7,2.8-1.6,3.5-2.9c0.4-0.8,0.6-1.6,0.7-3.2h-3.9
						c-0.7,0-1.1,0-1.6,0.1v-1.1c0.5,0.1,0.8,0.1,1.6,0.1h3.9c0-0.5,0-0.8,0-1.2v-1c0-0.6,0-0.9-0.1-1.2h1.2
						c-0.1,0.4-0.1,0.4-0.1,1.2l0,1c0,1.1,0,1.1,0,1.2H127.9z"/>
					<path class="st1" d="M132.8,31.9c0.4,0.1,0.8,0.1,1.7,0.1h8.1c1,0,1.3,0,1.7-0.1V33c-0.4,0-0.8-0.1-1.7-0.1h-8.1
						c-1,0-1.3,0-1.7,0.1V31.9z"/>
				</g>
				<g class="st0">
					<path class="st1" d="M32.6,13.1c0,2-1.6,3.2-4.7,3.2h-5.9V4.4h5.6c2.9,0,4.4,1.2,4.4,3.1c0,1.2-0.6,2.1-1.5,2.6
						C31.8,10.5,32.6,11.5,32.6,13.1z M24.3,6.1v3.3h3.1c1.5,0,2.4-0.5,2.4-1.6c0-1.1-0.9-1.6-2.4-1.6H24.3z M30.4,12.8
						c0-1.2-0.9-1.7-2.6-1.7h-3.6v3.4h3.6C29.5,14.6,30.4,14,30.4,12.8z"/>
					<path class="st1" d="M44.1,13.5h-5.9L37,16.3h-2.3L40,4.4h2.2l5.4,11.9h-2.3L44.1,13.5z M43.4,11.8l-2.2-5.2l-2.2,5.2H43.4z"/>
					<path class="st1" d="M50.5,4.4h2.2v10h6.2v1.9h-8.4V4.4z"/>
					<path class="st1" d="M69.8,13.5h-5.9l-1.2,2.8h-2.3l5.4-11.9h2.2l5.4,11.9H71L69.8,13.5z M69.1,11.8l-2.2-5.2l-2.2,5.2H69.1z"
						/>
					<path class="st1" d="M86.8,4.4v11.9h-1.8l-6.6-8.1v8.1h-2.2V4.4H78l6.6,8.1V4.4H86.8z"/>
					<path class="st1" d="M90.5,10.3c0-3.6,2.7-6.1,6.4-6.1c1.9,0,3.6,0.7,4.7,2l-1.4,1.3c-0.9-0.9-1.9-1.4-3.2-1.4
						c-2.5,0-4.2,1.7-4.2,4.2c0,2.4,1.8,4.2,4.2,4.2c1.2,0,2.3-0.5,3.2-1.4l1.4,1.4c-1.1,1.3-2.8,2-4.7,2
						C93.2,16.5,90.5,13.9,90.5,10.3z"/>
					<path class="st1" d="M105,4.4h2.2v11.9H105V4.4z"/>
					<path class="st1" d="M122.4,4.4v11.9h-1.8L114,8.2v8.1h-2.2V4.4h1.8l6.6,8.1V4.4H122.4z"/>
					<path class="st1" d="M135.1,10.2h2.1V15c-1.2,1-3,1.5-4.7,1.5c-3.7,0-6.4-2.6-6.4-6.1s2.7-6.1,6.4-6.1c2,0,3.7,0.7,4.8,1.9
						l-1.4,1.4c-0.9-0.9-2-1.4-3.3-1.4c-2.5,0-4.3,1.7-4.3,4.2c0,2.4,1.8,4.2,4.3,4.2c0.8,0,1.7-0.2,2.4-0.6V10.2z"/>
					<path class="st1" d="M149.9,6.3h-3.9V4.4H156v1.9h-3.9v10h-2.2V6.3z"/>
					<path class="st1" d="M158,10.3c0-3.5,2.7-6.1,6.4-6.1s6.4,2.6,6.4,6.1c0,3.5-2.7,6.1-6.4,6.1S158,13.9,158,10.3z M168.6,10.3
						c0-2.4-1.8-4.2-4.2-4.2c-2.4,0-4.2,1.8-4.2,4.2s1.8,4.2,4.2,4.2C166.9,14.5,168.6,12.8,168.6,10.3z"/>
					<path class="st1" d="M185.1,4.4v11.9h-1.8l-6.6-8.1v8.1h-2.2V4.4h1.8l6.6,8.1V4.4H185.1z"/>
					<path class="st1" d="M198.6,14.4v1.9h-8.9V4.4h8.7v1.9h-6.5v3.1h5.7v1.8h-5.7v3.3H198.6z"/>
					<path class="st1" d="M210.2,16.3l-2.4-3.5c-0.2,0-0.3,0-0.5,0h-2.7v3.5h-2.2V4.4h4.9c3.1,0,5.1,1.6,5.1,4.2
						c0,1.8-0.9,3.1-2.5,3.8l2.7,3.9H210.2z M207.2,6.3h-2.6V11h2.6c1.9,0,2.9-0.9,2.9-2.4S209.2,6.3,207.2,6.3z"/>
				</g>
			</g>
			<g id="グループ_88" transform="translate(0 10)">
				<g class="st0">
					<path class="st1" d="M9.9,88.4v2H0.6v-1.6l5-4.8c1.2-1.2,1.4-1.9,1.4-2.6c0-1.2-0.8-1.8-2.3-1.8c-1.2,0-2.3,0.4-3,1.3l-1.6-1.3
						c1-1.3,2.7-2.1,4.8-2.1c2.7,0,4.5,1.4,4.5,3.6c0,1.2-0.3,2.3-2.1,4L4,88.4H9.9z"/>
					<path class="st1" d="M12.8,89.1c0-0.9,0.7-1.5,1.5-1.5c0.8,0,1.5,0.6,1.5,1.5c0,0.9-0.7,1.5-1.5,1.5
						C13.5,90.5,12.8,89.9,12.8,89.1z"/>
				</g>
				<g class="st0">
					<path class="st1" d="M25.4,119.4l-2.1,10.5h-1.1l1.9-9.5h-2.5l0.2-1H25.4z"/>
					<path class="st1" d="M28.6,128.9h5.7l-0.2,1h-7.4l0.2-0.8l5.2-4.3c1.5-1.2,2-2,2-2.9c0-1-0.7-1.7-2.3-1.7
						c-1.1,0-2.2,0.4-2.9,1.2l-0.8-0.6c0.9-0.9,2.3-1.5,3.8-1.5c2.1,0,3.2,1,3.2,2.5c0,1.2-0.5,2.2-2.3,3.7L28.6,128.9z"/>
					<path class="st1" d="M37.5,126.2c0-3.6,2-6.9,5.2-6.9c2.1,0,3.4,1.4,3.4,3.8c0,3.6-2,6.9-5.2,6.9
						C38.8,130,37.5,128.6,37.5,126.2z M45.1,123.1c0-1.8-0.9-2.8-2.4-2.8c-2.6,0-4.1,3.2-4.1,5.9c0,1.8,0.9,2.8,2.4,2.8
						C43.6,129,45.1,125.8,45.1,123.1z"/>
					<path class="st1" d="M62.4,124.5c0,0.3,0,0.6-0.1,0.9l-0.9,4.5h-1.1l0.9-4.5c0.1-0.3,0.1-0.5,0.1-0.7c0-1.1-0.6-1.8-2-1.8
						c-1.6,0-2.7,0.9-3.1,2.6l-0.9,4.3h-1.1l0.9-4.5c0-0.3,0.1-0.5,0.1-0.7c0-1.1-0.6-1.8-2-1.8c-1.6,0-2.7,0.9-3.1,2.8l-0.8,4.2
						h-1.1L50,122h1l-0.3,1.3c0.8-0.9,1.8-1.3,3-1.3c1.3,0,2.2,0.6,2.6,1.6c0.8-1,1.9-1.6,3.3-1.6C61.4,121.9,62.4,122.9,62.4,124.5
						z"/>
					<path class="st1" d="M67.8,119.4h1.1l-1.9,9.5h5.9l-0.2,1h-7L67.8,119.4z"/>
				</g>
				<g class="st0">
					<path class="st1" d="M23.9,110.2c-1.1,0-1.1,0-1.5,0.1v-1.1c0.5,0.1,0.7,0.1,1.5,0.1h6.7v-6.8h-6.4c-0.8,0-1.1,0-1.6,0.1v-1.1
						c0.5,0.1,0.7,0.1,1.6,0.1H31c0.2,0,0.4,0,0.7,0c0,0.3,0,0.6,0,1.1v7.2c0,0.5,0,1,0.1,1.3h-1.1v-0.8H23.9z"/>
					<path class="st1" d="M36,110c1.1,0,2.8-0.5,4.1-1.1c2.7-1.2,4.6-3.3,5.7-6.2c0.3,0.4,0.5,0.6,0.9,0.8c-1.1,2.4-2.4,4.1-4.3,5.4
						c-1.4,1-2.9,1.6-5.2,2.1c-0.4,0.1-0.5,0.1-0.8,0.2L36,110z M36.9,101.3c1.5,1,2.4,1.6,3.4,2.6l-0.7,0.9c-1-1.1-2.1-2-3.3-2.7
						L36.9,101.3z"/>
					<path class="st1" d="M56,105.1c-0.2,3.6-1.3,5.3-4.5,6.6c-0.2-0.4-0.3-0.6-0.7-0.9c2.9-1,4-2.5,4.1-5.7h-3.8
						c-0.9,0-1.2,0-1.6,0.1v-1c0.5,0.1,0.7,0.1,1.6,0.1h8.2c0.9,0,1.2,0,1.6-0.1v1c-0.4-0.1-0.7-0.1-1.6-0.1H56z M50.9,100.7
						c0.4,0.1,0.7,0.1,1.6,0.1h4.2c0.8,0,1.1,0,1.6-0.1v1c-0.2,0-0.7,0-1.6,0h-4.3c-1,0-1.2,0-1.6,0.1V100.7z M59.1,99.5
						c0.6,0.8,1,1.4,1.4,2.2l-0.7,0.4c-0.3-0.8-1-1.8-1.4-2.3L59.1,99.5z M60.8,99c0.6,0.8,0.9,1.3,1.4,2.2l-0.7,0.4
						c-0.3-0.7-0.8-1.6-1.4-2.3L60.8,99z"/>
					<path class="st1" d="M72.6,103.2c-0.2,0.1-0.2,0.2-0.3,0.3c-0.8,0.8-1.5,1.4-2.8,2.5v4.7c0,0.5,0,0.9,0.1,1.2h-1.1
						c0-0.3,0.1-0.5,0.1-1.2v-4.2c-1.4,0.9-2.6,1.4-4.3,1.9c-0.1-0.4-0.2-0.5-0.5-0.8c1.4-0.4,2.2-0.7,3.2-1.2
						c1.5-0.8,2.8-1.7,4-2.9c0.4-0.4,0.6-0.6,0.8-0.9L72.6,103.2z"/>
					<path class="st1" d="M77.2,103.8c1.3,0.5,2.3,1.1,3.6,1.8l-0.5,0.9c-1-0.7-2.3-1.4-3.6-1.9L77.2,103.8z M76.8,110.2
						c0.9,0,2.4-0.3,3.8-0.9c1.7-0.7,3.1-1.7,4.2-3.1c0.8-1,1.2-1.9,1.7-3.1c0.4,0.4,0.5,0.5,0.9,0.7c-1.2,2.9-2.9,4.8-5.4,6
						c-1,0.5-2.4,1-3.5,1.2c-0.2,0-0.5,0.1-0.8,0.2c-0.3,0.1-0.3,0.1-0.5,0.2L76.8,110.2z M78.3,100.5c1.4,0.6,2.3,1,3.5,1.8
						l-0.6,0.9c-1-0.7-2.4-1.5-3.4-1.8L78.3,100.5z"/>
					<path class="st1" d="M92.5,111.3c-0.8,0-0.9,0-1.2,0.1v-1c0.3,0.1,0.7,0.1,1.2,0.1h5.4v-2.6H93c-0.7,0-0.9,0-1.2,0.1v-1
						c0.3,0.1,0.7,0.1,1.2,0.1h4.9v-2.4h-5.2c-0.7,0-0.9,0-1.2,0.1v-1c0.3,0.1,0.7,0.1,1.2,0.1h5.2c0.4,0,0.7,0,1,0
						c0,0.4,0,0.6,0,1.1v6.3c0,0.4,0,0.6,0.1,0.9h-1v-0.7H92.5z"/>
					<path class="st1" d="M103.5,108.6c0.5,0.1,0.8,0.1,1.6,0.1h7.9c0.8,0,1.1,0,1.6-0.1v1.2c-0.5-0.1-0.9-0.1-1.6-0.1h-8
						c-0.7,0-1.1,0-1.6,0.1V108.6z M104.9,102c0.5,0.1,0.8,0.1,1.5,0.1h5.4c0.7,0,1,0,1.5-0.1v1.1c-0.4,0-0.8-0.1-1.5-0.1h-5.4
						c-0.7,0-1.1,0-1.5,0.1V102z"/>
					<path class="st1" d="M118,110c1.1,0,2.8-0.5,4.1-1.1c2.7-1.2,4.6-3.3,5.7-6.2c0.3,0.4,0.5,0.6,0.9,0.8
						c-1.1,2.4-2.4,4.1-4.3,5.4c-1.4,1-2.9,1.6-5.2,2.1c-0.4,0.1-0.5,0.1-0.8,0.2L118,110z M118.9,101.3c1.5,1,2.4,1.6,3.4,2.6
						l-0.7,0.9c-1-1.1-2.1-2-3.3-2.7L118.9,101.3z"/>
					<path class="st1" d="M136.8,100.2c-0.1,0.2-0.1,0.2-0.3,0.6c-0.3,0.7-0.5,1-0.6,1.2c0.1,0,0.2,0,0.5,0l3.4-0.1
						c0.5,0,0.5,0,0.7-0.1l0.8,0.9c-0.1,0.2-0.1,0.2-0.2,0.5c-1.3,4.1-3.7,6.9-7.6,8.6c-0.2-0.4-0.4-0.6-0.7-0.8
						c3.6-1.4,6.3-4.3,7.4-8.2l-4.7,0.1c-0.8,1.3-2.1,2.7-3.3,3.6c-0.2-0.3-0.4-0.5-0.8-0.7c1.4-0.9,2.5-2.1,3.5-3.9
						c0.6-1,0.9-1.7,0.9-2L136.8,100.2z M141.1,99.8c0.7,0.8,1,1.3,1.4,2.1l-0.7,0.4c-0.4-0.7-1-1.7-1.4-2.2L141.1,99.8z M142.7,99
						c0.7,0.9,0.9,1.2,1.4,2.1l-0.7,0.4c-0.3-0.7-0.8-1.5-1.4-2.1L142.7,99z"/>
					<path class="st1" d="M147,108.1c3.5,0.6,6,1.2,9,2.3l-0.4,1c-1.3-0.6-2.5-1-4.7-1.6c-1.7-0.4-2.8-0.6-4.2-0.9L147,108.1z
						 M148.1,104.2c2.4,0.4,4.4,0.9,6.9,1.6l-0.4,1c-2-0.8-4.4-1.4-6.9-1.7L148.1,104.2z M148.3,100.4c2.3,0.3,4.5,0.8,7.1,1.5
						l-0.4,1c-1.8-0.7-4.8-1.3-7.1-1.6L148.3,100.4z"/>
					<path class="st1" d="M163.2,100.6c-0.1,0.3-0.1,0.3-0.1,1.2c-0.1,3.8-0.2,4.8-0.8,6.2c-0.5,1.3-1.1,2.2-2.4,3.5
						c-0.3-0.4-0.4-0.5-0.8-0.8c1.1-0.9,1.9-1.9,2.4-3.2c0.4-1.2,0.6-3.1,0.6-6c0-0.5,0-0.7-0.1-1L163.2,100.6z M166.7,100.5
						c-0.1,0.3-0.1,0.6-0.1,1.2l-0.1,8.5c1.2-0.4,1.9-0.9,2.6-1.6c0.8-0.8,1.3-1.7,1.7-2.8c0.3,0.4,0.4,0.5,0.8,0.8
						c-0.7,1.6-1.6,2.8-2.8,3.6c-0.6,0.4-1.2,0.7-2,1c-0.3,0.1-0.3,0.1-0.4,0.2c-0.2,0.1-0.2,0.1-0.3,0.2l-0.6-0.6
						c0.1-0.2,0.1-0.4,0.1-1l0.1-8.2c0-0.9,0-0.9-0.1-1.2L166.7,100.5z"/>
					<path class="st1" d="M179.7,100.1c-0.1,0.2-0.1,0.2-0.3,0.6c-0.4,0.8-0.5,1-0.6,1.2c0.2,0,0.2,0,4.2-0.1c0.5,0,0.5,0,0.7-0.1
						l0.6,0.6c-0.1,0.2-0.1,0.2-0.3,0.7c-0.6,2-1.6,3.9-2.8,5.3c-1.3,1.5-2.8,2.6-4.9,3.5c-0.2-0.4-0.3-0.5-0.7-0.8
						c2.1-0.9,3.6-1.9,4.9-3.5c1.1-1.3,1.9-2.9,2.4-4.7l-4.7,0.1c-0.9,1.4-2,2.6-3.3,3.6c-0.2-0.3-0.4-0.5-0.8-0.7
						c1.5-1,2.5-2.1,3.5-3.8c0.5-0.9,0.8-1.6,0.9-2L179.7,100.1z"/>
				</g>
				<g class="st0">
					<path class="st1" d="M20.4,83.5c0-3.6,2.7-6.1,6.4-6.1c1.9,0,3.6,0.7,4.7,2L30,80.7c-0.9-0.9-1.9-1.4-3.2-1.4
						c-2.5,0-4.2,1.7-4.2,4.2c0,2.4,1.8,4.2,4.2,4.2c1.2,0,2.3-0.5,3.2-1.4l1.4,1.4c-1.1,1.3-2.8,2-4.7,2
						C23.1,89.6,20.4,87,20.4,83.5z"/>
					<path class="st1" d="M33.8,83.5c0-3.5,2.7-6.1,6.4-6.1s6.4,2.6,6.4,6.1c0,3.5-2.7,6.1-6.4,6.1S33.8,87,33.8,83.5z M44.4,83.5
						c0-2.4-1.8-4.2-4.2-4.2c-2.4,0-4.2,1.8-4.2,4.2s1.8,4.2,4.2,4.2C42.6,87.7,44.4,85.9,44.4,83.5z"/>
					<path class="st1" d="M60.9,77.5v11.9h-1.8l-6.6-8.1v8.1h-2.2V77.5h1.8l6.6,8.1v-8.1H60.9z"/>
					<path class="st1" d="M65.5,77.5h5.2c3.9,0,6.5,2.4,6.5,5.9c0,3.6-2.6,5.9-6.5,5.9h-5.2V77.5z M70.6,87.6c2.7,0,4.4-1.6,4.4-4.1
						s-1.7-4.1-4.4-4.1h-2.9v8.2H70.6z"/>
					<path class="st1" d="M80.9,77.5h2.2v11.9h-2.2V77.5z"/>
					<path class="st1" d="M90.1,79.4h-3.9v-1.9h10.1v1.9h-3.9v10h-2.2V79.4z"/>
					<path class="st1" d="M99.3,77.5h2.2v11.9h-2.2V77.5z"/>
					<path class="st1" d="M105.2,83.5c0-3.5,2.7-6.1,6.4-6.1s6.4,2.6,6.4,6.1c0,3.5-2.7,6.1-6.4,6.1S105.2,87,105.2,83.5z
						 M115.8,83.5c0-2.4-1.8-4.2-4.2-4.2s-4.2,1.8-4.2,4.2s1.8,4.2,4.2,4.2S115.8,85.9,115.8,83.5z"/>
					<path class="st1" d="M132.3,77.5v11.9h-1.8l-6.6-8.1v8.1h-2.2V77.5h1.8l6.6,8.1v-8.1H132.3z"/>
					<path class="st1" d="M136.8,77.5h2.2v11.9h-2.2V77.5z"/>
					<path class="st1" d="M154.2,77.5v11.9h-1.8l-6.6-8.1v8.1h-2.2V77.5h1.8l6.6,8.1v-8.1H154.2z"/>
					<path class="st1" d="M166.9,83.3h2.1v4.7c-1.2,1-3,1.5-4.7,1.5c-3.7,0-6.4-2.6-6.4-6.1s2.7-6.1,6.4-6.1c2,0,3.7,0.7,4.8,1.9
						l-1.4,1.4c-0.9-0.9-2-1.4-3.3-1.4c-2.5,0-4.3,1.7-4.3,4.2c0,2.4,1.8,4.2,4.3,4.2c0.8,0,1.7-0.2,2.4-0.6V83.3z"/>
					<path class="st1" d="M190.2,89.4l0-7.9l-3.9,6.5h-1l-3.9-6.4v7.8h-2.1V77.5h1.8l4.7,7.9l4.6-7.9h1.8l0,11.9H190.2z"/>
					<path class="st1" d="M196.9,77.5h2.2v11.9h-2.2V77.5z"/>
					<path class="st1" d="M203.7,77.5h2.2v10h6.2v1.9h-8.4V77.5z"/>
					<path class="st1" d="M219.3,84.4l-1.9,1.9v3h-2.2V77.5h2.2v6.1l5.9-6.1h2.5l-5,5.3l5.3,6.6h-2.6L219.3,84.4z"/>
				</g>
			</g>
			<g id="グループ_87" transform="translate(0 20)">
				<g class="st0">
					<path class="st1" d="M9.7,160.1c0,2.1-1.6,4-5,4c-1.8,0-3.6-0.5-4.7-1.5l1-1.8c0.9,0.8,2.3,1.2,3.7,1.2c1.7,0,2.7-0.7,2.7-1.9
						c0-1.1-0.8-1.9-2.7-1.9H3.5v-1.6l2.9-3.4H0.6v-2h8.6v1.6l-3.1,3.6C8.5,156.8,9.7,158.2,9.7,160.1z"/>
					<path class="st1" d="M12.6,162.5c0-0.9,0.7-1.5,1.5-1.5c0.8,0,1.5,0.6,1.5,1.5c0,0.9-0.7,1.5-1.5,1.5
						C13.3,164,12.6,163.3,12.6,162.5z"/>
				</g>
				<g class="st0">
					<path class="st1" d="M32.9,162.8l0-7.9l-3.9,6.5h-1l-3.9-6.4v7.8H22v-11.9h1.8l4.7,7.9l4.6-7.9H35l0,11.9H32.9z"/>
					<path class="st1" d="M38.7,156.9c0-3.5,2.7-6.1,6.4-6.1s6.4,2.6,6.4,6.1c0,3.5-2.7,6.1-6.4,6.1S38.7,160.4,38.7,156.9z
						 M49.3,156.9c0-2.4-1.8-4.2-4.2-4.2c-2.4,0-4.2,1.8-4.2,4.2c0,2.4,1.8,4.2,4.2,4.2C47.5,161.1,49.3,159.3,49.3,156.9z"/>
					<path class="st1" d="M55.2,150.9h2.2v11.9h-2.2V150.9z"/>
					<path class="st1" d="M61,161.6l0.8-1.7c1,0.8,2.5,1.3,3.9,1.3c1.9,0,2.6-0.7,2.6-1.5c0-2.6-7.1-0.9-7.1-5.3
						c0-1.9,1.5-3.6,4.8-3.6c1.4,0,2.9,0.4,4,1.1l-0.7,1.7c-1.1-0.6-2.2-0.9-3.3-0.9c-1.8,0-2.6,0.7-2.6,1.6c0,2.5,7.1,0.9,7.1,5.3
						c0,1.9-1.5,3.5-4.8,3.5C63.8,163,62,162.4,61,161.6z"/>
					<path class="st1" d="M76.3,152.8h-3.9v-1.9h10.1v1.9h-3.9v10h-2.2V152.8z"/>
					<path class="st1" d="M85.2,157.7v-6.7h2.2v6.6c0,2.4,1.1,3.5,3,3.5s3-1.1,3-3.5v-6.6h2.2v6.7c0,3.5-2,5.4-5.2,5.4
						C87.1,163,85.2,161.1,85.2,157.7z"/>
					<path class="st1" d="M107.8,162.8l-2.4-3.5c-0.2,0-0.3,0-0.5,0h-2.7v3.5H100v-11.9h4.9c3.1,0,5.1,1.6,5.1,4.2
						c0,1.8-0.9,3.1-2.5,3.8l2.7,3.9H107.8z M104.8,152.8h-2.6v4.7h2.6c1.9,0,2.9-0.9,2.9-2.4S106.8,152.8,104.8,152.8z"/>
					<path class="st1" d="M113.8,150.9h2.2v11.9h-2.2V150.9z"/>
					<path class="st1" d="M129.9,161v1.9h-10.1v-1.5l7-8.6h-6.9v-1.9h9.8v1.5l-7,8.5H129.9z"/>
					<path class="st1" d="M133.2,150.9h2.2v11.9h-2.2V150.9z"/>
					<path class="st1" d="M150.6,150.9v11.9h-1.8l-6.6-8.1v8.1H140v-11.9h1.8l6.6,8.1v-8.1H150.6z"/>
					<path class="st1" d="M163.3,156.8h2.1v4.7c-1.2,1-3,1.5-4.7,1.5c-3.7,0-6.4-2.6-6.4-6.1s2.7-6.1,6.4-6.1c2,0,3.7,0.7,4.8,1.9
						l-1.4,1.4c-0.9-0.9-2-1.4-3.3-1.4c-2.5,0-4.3,1.7-4.3,4.2c0,2.4,1.8,4.2,4.3,4.2c0.8,0,1.7-0.2,2.4-0.6V156.8z"/>
					<path class="st1" d="M174.8,156.9c0-3.6,2.7-6.1,6.4-6.1c1.9,0,3.6,0.7,4.7,2l-1.4,1.3c-0.9-0.9-1.9-1.4-3.2-1.4
						c-2.5,0-4.2,1.7-4.2,4.2c0,2.4,1.8,4.2,4.2,4.2c1.2,0,2.3-0.5,3.2-1.4l1.4,1.4c-1.1,1.3-2.8,2-4.7,2
						C177.6,163,174.8,160.4,174.8,156.9z"/>
					<path class="st1" d="M197.2,162.8l-2.4-3.5c-0.2,0-0.3,0-0.5,0h-2.7v3.5h-2.2v-11.9h4.9c3.1,0,5.1,1.6,5.1,4.2
						c0,1.8-0.9,3.1-2.5,3.8l2.7,3.9H197.2z M194.2,152.8h-2.6v4.7h2.6c1.9,0,2.9-0.9,2.9-2.4S196.1,152.8,194.2,152.8z"/>
					<path class="st1" d="M212.1,161v1.9h-8.9v-11.9h8.7v1.9h-6.5v3.1h5.7v1.8h-5.7v3.3H212.1z"/>
					<path class="st1" d="M223.7,160.1h-5.9l-1.2,2.8h-2.3l5.4-11.9h2.2l5.4,11.9h-2.3L223.7,160.1z M222.9,158.4l-2.2-5.2l-2.2,5.2
						H222.9z"/>
					<path class="st1" d="M241,162.8l0-7.9l-3.9,6.5h-1l-3.9-6.4v7.8H230v-11.9h1.8l4.7,7.9l4.6-7.9h1.8l0,11.9H241z"/>
				</g>
				<g class="st0">
					<path class="st1" d="M29.1,200.6H27l-0.6,2.8h-1.1l0.6-2.8H20l0.1-0.8l6.9-7h1.3l-6.7,6.8h4.5l0.5-2.4h1l-0.5,2.4h2.1
						L29.1,200.6z"/>
					<path class="st1" d="M31.6,199.6c0-3.6,2-6.9,5.2-6.9c2.1,0,3.4,1.4,3.4,3.8c0,3.6-2,6.9-5.2,6.9
						C32.8,203.4,31.6,202,31.6,199.6z M39.1,196.5c0-1.8-0.9-2.8-2.4-2.8c-2.6,0-4.1,3.2-4.1,5.9c0,1.8,0.9,2.8,2.4,2.8
						C37.7,202.4,39.1,199.2,39.1,196.5z"/>
					<path class="st1" d="M51.4,195.4l-1.4,6.9c-0.6,2.8-2,3.9-4.6,3.9c-1.5,0-2.7-0.4-3.5-1.2l0.6-0.8c0.6,0.6,1.7,1,3,1
						c2,0,3-0.9,3.4-2.8l0.2-0.9c-0.8,0.8-1.8,1.4-3.1,1.4c-2.1,0-3.5-1.2-3.5-3.2c0-2.5,1.9-4.5,4.5-4.5c1.5,0,2.6,0.6,3.1,1.8
						l0.3-1.7H51.4z M49.6,198.6c0-1.4-1-2.3-2.6-2.3c-2,0-3.4,1.5-3.4,3.5c0,1.4,1,2.3,2.6,2.3C48.1,202.1,49.6,200.6,49.6,198.6z"
						/>
				</g>
				<g class="st0">
					<path class="st1" d="M22.8,179.3c-0.7,0-1.1,0-1.6,0.1v-1c0.5,0.1,0.8,0.1,1.6,0.1h2.9v-2.9h-2.1c-0.8,0-1.2,0-1.6,0.1v-1.1
						c0.5,0.1,0.7,0.1,1.6,0.1h6.4c0.9,0,1.2,0,1.6-0.1v1.1c-0.4-0.1-0.8-0.1-1.6-0.1h-3.4v2.9H31c0.8,0,1.1,0,1.6-0.1v1
						c-0.5-0.1-0.9-0.1-1.6-0.1h-4.3v2.8c0,0.9,0.1,1.1,0.4,1.3c0.3,0.2,0.9,0.3,1.8,0.3c0.5,0,1.3,0,2.1-0.1c0.5,0,0.8-0.1,1.2-0.2
						v1.1c-0.1,0-0.1,0-0.2,0c-0.1,0-0.2,0-1.1,0.1c-0.5,0-1.5,0.1-2.2,0.1c-2.5,0-3.1-0.4-3.1-2.2v-3.1H22.8z"/>
					<path class="st1" d="M46.4,174.2c-0.3,0.2-0.3,0.2-0.6,0.6c-0.9,0.9-2.1,1.9-3.3,2.8v6c0,0.8,0,1.1,0.1,1.5h-1.2
						c0.1-0.4,0.1-0.7,0.1-1.5v-5.3c-1.8,1.1-2.8,1.6-5.4,2.5c-0.2-0.4-0.3-0.6-0.5-0.9c2.6-0.7,5.1-1.9,7.3-3.6
						c1.3-1,2.3-2,2.7-2.6L46.4,174.2z"/>
					<path class="st1" d="M60,184.8c-1.1-1.4-2.7-2.9-4.5-4.3c-1,1.1-1.7,1.8-2.7,2.5c-1,0.7-1.7,1.2-2.7,1.7
						c-0.2-0.4-0.3-0.6-0.7-0.9c1.1-0.4,1.8-0.8,2.8-1.6c2.2-1.7,4-3.9,5-6.3c0-0.1,0-0.1,0.1-0.2c0,0,0-0.1,0-0.1
						c-0.1,0-0.2,0-0.3,0l-4.7,0.1c-0.6,0-1,0-1.4,0.1l0-1.1c0.4,0.1,0.6,0.1,1.1,0.1c0,0,0.2,0,0.4,0l5-0.1c0.5,0,0.7,0,0.9-0.1
						l0.6,0.6c-0.1,0.2-0.2,0.3-0.4,0.7c-0.8,1.7-1.4,2.8-2.3,3.9c1.8,1.4,3.1,2.5,4.7,4.2L60,184.8z"/>
					<path class="st1" d="M73.9,174.5c-0.2,0-0.2,0-0.4,0.1c-1,0.4-2,0.6-3.1,0.9c0,1.3,0,2.3,0,2.8h3.4c0.8,0,1,0,1.5-0.1v1.1
						c-0.5-0.1-0.8-0.1-1.5-0.1h-3.4c-0.1,1.3-0.4,2.2-0.9,3.1c-0.7,1.2-1.8,2.1-3.5,2.9c-0.3-0.4-0.4-0.6-0.8-0.9
						c1.5-0.6,2.6-1.4,3.3-2.4c0.5-0.8,0.8-1.5,0.9-2.7h-3.9c-0.7,0-1,0-1.5,0.1v-1.1c0.5,0.1,0.7,0.1,1.5,0.1h4c0-0.6,0-1.4,0-2.6
						c-0.9,0.2-2.1,0.3-4.1,0.4c-0.1-0.4-0.1-0.5-0.3-0.9c0.4,0,0.6,0,0.8,0c1.8,0,4.1-0.3,5.9-0.9c0.8-0.2,1.1-0.4,1.6-0.7
						L73.9,174.5z"/>
					<path class="st1" d="M80.9,177c-0.1-0.7-0.1-0.7-0.3-1l1-0.2c0,0.3,0,0.3,0.2,1.1l0.2,1.2l4.7-0.8c0.3-0.1,0.4-0.1,0.6-0.2
						l0.6,0.5c-0.1,0.2-0.2,0.3-0.3,0.6c-0.6,1.4-1.4,2.4-2.7,3.3c-0.3-0.3-0.4-0.4-0.8-0.6c1.2-0.7,1.9-1.5,2.5-2.7
						c0,0,0-0.1,0.1-0.1c-0.2,0-0.2,0-0.4,0.1l-4.2,0.7l1,5.3c0.1,0.8,0.1,0.8,0.3,1.1l-1.1,0.2c0-0.3,0-0.6-0.1-1.1l-1-5.3
						l-1.4,0.2c-0.6,0.1-0.9,0.2-1.2,0.3l-0.2-1c0.4,0,0.7,0,1.3-0.1l1.3-0.2L80.9,177z"/>
					<path class="st1" d="M91.6,177.3c0.5,0.1,0.8,0.1,1.6,0.1h7.2c0.5,0,0.7,0,0.9-0.1l0.5,0.6c-0.1,0.2-0.2,0.3-0.4,0.9
						c-1.2,3.3-3.1,5.1-6.8,6.3c-0.2-0.4-0.3-0.6-0.6-1c1.9-0.5,3.1-1.2,4.2-2.1c1-0.9,1.6-1.9,2.3-3.7h-7.3c-0.7,0-1.1,0-1.6,0.1
						V177.3z M92.8,174.1c0.4,0.1,0.7,0.1,1.5,0.1H99c0.8,0,1.1,0,1.5-0.1v1.1c-0.4-0.1-0.7-0.1-1.5-0.1h-4.7c-0.7,0-1.1,0-1.5,0.1
						V174.1z"/>
					<path class="st1" d="M115.6,174.2c-0.3,0.2-0.3,0.2-0.6,0.6c-0.9,0.9-2.1,1.9-3.3,2.8v6c0,0.8,0,1.1,0.1,1.5h-1.2
						c0.1-0.4,0.1-0.7,0.1-1.5v-5.3c-1.8,1.1-2.8,1.6-5.4,2.5c-0.2-0.4-0.3-0.6-0.5-0.9c2.6-0.7,5.1-1.9,7.3-3.6
						c1.3-1,2.3-2,2.7-2.6L115.6,174.2z"/>
					<path class="st1" d="M119.8,177.3c1.2,0.5,2.5,1.1,3.6,1.8l-0.5,1c-0.8-0.6-2.4-1.5-3.6-1.9L119.8,177.3z M119.4,183.7
						C119.4,183.7,119.5,183.7,119.4,183.7c0.9,0,2.5-0.4,3.8-0.9c2.7-1,4.9-3.3,5.9-6.3c0.3,0.4,0.5,0.5,0.9,0.8
						c-1.8,4.2-4.7,6.4-9.7,7.4c-0.3,0.1-0.3,0.1-0.5,0.1L119.4,183.7z M120.9,174c1.3,0.5,2.4,1.1,3.5,1.8l-0.6,0.9
						c-0.8-0.6-2.6-1.6-3.4-1.9L120.9,174z M128.2,173.3c0.6,0.8,1,1.3,1.4,2.2l-0.7,0.4c-0.4-0.7-1-1.8-1.4-2.2L128.2,173.3z
						 M129.8,172.6c0.6,0.8,1,1.3,1.5,2.2l-0.7,0.4c-0.3-0.7-0.9-1.6-1.4-2.2L129.8,172.6z"/>
					<path class="st1" d="M133.7,183.5c1.1,0,2.8-0.5,4.1-1.1c2.7-1.2,4.6-3.3,5.7-6.2c0.3,0.4,0.5,0.6,0.9,0.8
						c-1.1,2.4-2.4,4.1-4.3,5.4c-1.4,1-2.9,1.6-5.2,2.1c-0.4,0.1-0.5,0.1-0.8,0.2L133.7,183.5z M134.6,174.8c1.5,1,2.4,1.6,3.4,2.6
						l-0.7,0.9c-1-1.1-2.1-2-3.3-2.7L134.6,174.8z"/>
					<path class="st1" d="M152.5,173.6c-0.1,0.2-0.1,0.2-0.3,0.6c-0.4,0.7-0.5,1-0.6,1.2c0.1,0,0.2,0,0.5,0l3.4-0.1
						c0.5,0,0.5,0,0.7-0.1l0.8,0.9c-0.1,0.2-0.1,0.2-0.2,0.5c-1.3,4.1-3.7,6.9-7.6,8.6c-0.2-0.4-0.4-0.6-0.7-0.8
						c3.6-1.4,6.3-4.3,7.4-8.2l-4.7,0.1c-0.8,1.3-2.1,2.7-3.3,3.6c-0.2-0.3-0.4-0.5-0.8-0.7c1.4-0.9,2.5-2.1,3.5-3.9
						c0.6-1,0.9-1.7,0.9-2L152.5,173.6z M156.9,173.2c0.7,0.8,1,1.3,1.4,2.1l-0.7,0.4c-0.3-0.7-1-1.7-1.4-2.2L156.9,173.2z
						 M158.4,172.4c0.7,0.9,0.9,1.2,1.4,2.1l-0.7,0.4c-0.3-0.7-0.8-1.5-1.4-2.1L158.4,172.4z"/>
					<path class="st1" d="M166.5,173.6c-0.1,0.2-0.1,0.2-0.3,0.6c-0.4,0.8-0.5,1-0.6,1.2c0.2,0,0.2,0,4.2-0.1c0.5,0,0.5,0,0.7-0.1
						l0.6,0.6c-0.1,0.2-0.1,0.2-0.3,0.7c-0.6,2-1.6,3.9-2.8,5.3c-1.3,1.5-2.8,2.6-4.9,3.5c-0.2-0.4-0.3-0.5-0.7-0.8
						c2.1-0.9,3.6-1.9,4.9-3.5c1.1-1.3,1.9-2.9,2.4-4.7l-4.7,0.1c-0.9,1.4-2,2.6-3.3,3.6c-0.2-0.3-0.4-0.5-0.8-0.7
						c1.5-1,2.5-2.1,3.5-3.8c0.5-0.9,0.8-1.6,0.9-2L166.5,173.6z"/>
					<path class="st1" d="M176.9,173.9c0,0.3-0.1,0.5-0.1,1.2v3.8c0,0.7,0,0.8,0.1,1.2h-1.2c0-0.3,0.1-0.6,0.1-1.2V175
						c0-0.6,0-0.8-0.1-1.2H176.9z M183.1,173.9c-0.1,0.3-0.1,0.5-0.1,1.2v1.7c0,2.2-0.1,3.5-0.3,4.3c-0.4,1.3-1.3,2.3-2.7,3.1
						c-0.7,0.4-1.4,0.7-2.5,1c-0.2-0.4-0.2-0.5-0.6-1c1.3-0.3,1.9-0.5,2.7-1c1.3-0.8,2-1.7,2.2-3c0.2-0.8,0.2-1.4,0.2-3.6v-1.6
						c0-0.7,0-0.9-0.1-1.2H183.1z"/>
					<path class="st1" d="M187.7,178.7c0.4,0.1,0.8,0.1,1.7,0.1h8.1c1,0,1.3,0,1.7-0.1v1.1c-0.4,0-0.8-0.1-1.7-0.1h-8.1
						c-1,0-1.3,0-1.7,0.1V178.7z"/>
					<path class="st1" d="M207.8,173.8c-0.1,0.3-0.2,0.5-0.4,1c-1,3.4-2,6.1-2.9,8.2c1.9-0.1,5.2-0.6,6.8-0.9
						c-0.7-1.5-1.5-2.7-2.2-3.6l0.9-0.5c1.1,1.5,2.5,4.1,3.5,6.3l-1,0.5c-0.3-0.8-0.5-1.2-0.8-1.9c-2.4,0.5-5.1,0.8-8.6,1.2
						c-0.5,0-0.9,0.1-1.2,0.2l-0.1-1.2c0.3,0,0.3,0,0.4,0c0.1,0,0.9,0,1.2-0.1c0.9-2,1.4-3.4,2.1-5.5c0.7-2.1,1-3.2,1.1-4
						L207.8,173.8z"/>
				</g>
			</g>
		</g>
		<g class="st0">
			<path class="st1" d="M47.2,217.9l1.1-2.4c1.3,1.1,3.5,1.8,5.5,1.8c2.6,0,3.7-0.9,3.7-2.2c0-3.6-10-1.2-10-7.5c0-2.7,2.2-5,6.8-5
				c2,0,4.1,0.5,5.6,1.5l-1,2.4c-1.5-0.9-3.2-1.3-4.6-1.3c-2.6,0-3.6,1-3.6,2.3c0,3.6,10,1.2,10,7.4c0,2.7-2.2,5-6.8,5
				C51.2,219.9,48.6,219.1,47.2,217.9z"/>
			<path class="st1" d="M78.2,217.1v2.6H65.6v-16.8h12.3v2.6h-9.1v4.4h8.1v2.6h-8.1v4.6H78.2z"/>
			<path class="st1" d="M87,205.5h-5.6v-2.6h14.3v2.6h-5.6v14.2H87V205.5z"/>
			<path class="st1" d="M108.5,202.9h3.1v16.8h-3.1V202.9z"/>
			<path class="st1" d="M121.5,205.5h-5.6v-2.6h14.3v2.6h-5.6v14.2h-3.1V205.5z"/>
			<path class="st1" d="M147.1,217.1v2.6h-12.6v-16.8h12.3v2.6h-9.1v4.4h8.1v2.6h-8.1v4.6H147.1z"/>
			<path class="st1" d="M167.9,219.7l0-11.1l-5.5,9.2H161l-5.5-9.1v11h-3v-16.8h2.6l6.7,11.1l6.6-11.1h2.6l0,16.8H167.9z"/>
		</g>
		<line id="線_4" class="st2" x1="345.8" y1="150.7" x2="0" y2="150.7"/>
		<g id="グループ_169" transform="translate(2.19 518.705)">
			<path id="長方形_54" class="st3" d="M69.6,0.1h206c17.7,0,32,14.3,32,32l0,0c0,17.7-14.3,32-32,32h-206c-17.7,0-32-14.3-32-32
				l0,0C37.6,14.4,52,0.1,69.6,0.1z"/>
			<g id="グループ_168">
				<g id="グループ_90" transform="translate(81.646 19.053)">
					<g class="st0">
						<path class="st4" d="M11.9,6c0.5,0.1,0.9,0.1,1.7,0.1h4.1c0.8,0,1.2,0,1.7-0.1v1.8c-0.4-0.1-0.7-0.1-1.6-0.1h-4.2
							c-0.8,0-1.1,0-1.7,0.1V6z M12.5,21.8c0.1-0.6,0.1-1.3,0.1-2v-3c0-0.7,0-1.2-0.1-1.7c0.6,0.1,1,0.1,1.6,0.1h3.3
							c0.9,0,1.1,0,1.5-0.1c0,0.4-0.1,0.8-0.1,1.6v3.2c0,0.7,0,1.2,0.1,1.7h-1.8v-0.8h-2.8v1H12.5z M12.6,3.1
							c0.5,0.1,0.9,0.1,1.7,0.1h2.9c0.8,0,1.2,0,1.7-0.1v1.8c-0.5-0.1-1-0.1-1.7-0.1h-2.9c-0.7,0-1.2,0-1.7,0.1V3.1z M12.6,9.1
							c0.4,0,0.7,0.1,1.4,0.1h3.4c0.7,0,1,0,1.4-0.1v1.7c-0.5,0-0.7-0.1-1.4-0.1h-3.4c-0.7,0-0.9,0-1.4,0.1V9.1z M12.6,12.1
							c0.4,0,0.7,0.1,1.4,0.1h3.4c0.7,0,1,0,1.4-0.1v1.7c-0.4,0-0.8-0.1-1.4-0.1h-3.4c-0.7,0-0.9,0-1.4,0.1V12.1z M14.3,19.2h2.9
							v-2.6h-2.9V19.2z M25.7,6.6C26.4,5.3,27,4,27.5,2.5l1.9,0.7c-0.8,1.6-1.2,2.3-1.8,3.4h1.1c0.9,0,1.3,0,1.9-0.1v1.9
							c-0.5-0.1-1-0.1-2-0.1h-2.7v2.4h2.3c1,0,1.5,0,2-0.1v1.9c-0.5-0.1-1-0.1-2-0.1h-2.3V15h3c0.8,0,1.4,0,2.1-0.1v2
							c-0.6-0.1-1.2-0.1-2-0.1h-3.1v2.5c0,0.9,0,1.7,0.1,2.4h-2.1c0.1-0.7,0.1-1.5,0.1-2.4v-2.5h-2.2c-1,0-1.5,0-2.1,0.1v-1.9
							c0.6,0.1,1.2,0.1,2.1,0.1h2.2v-2.7h-1.8c-0.9,0-1.4,0-1.9,0.1v-1.9c0.5,0.1,1,0.1,1.9,0.1h1.8V8.3h-2.2c-0.9,0-1.4,0-2,0.1
							V6.5c0.5,0.1,0.9,0.1,1.8,0.1H25.7z M22.3,6.4c-0.5-1.3-0.9-2-1.7-3.1l1.6-0.8c0.7,1.1,1.1,1.8,1.7,3.1L22.3,6.4z"/>
						<path class="st4" d="M36.9,14.3c-0.2,3.1-0.4,4.3-0.9,6.2l-1.6-0.7c0.4-1,0.5-1.5,0.7-2.8c0.2-1.2,0.2-1.8,0.3-2.9L36.9,14.3z
							 M34.5,11.4c0.3,0,0.5,0.1,0.9,0.1c0.2,0,0.3,0,0.7,0c0.5-0.7,0.8-1.1,1.3-1.7c-0.9-1.1-2-2.4-2.9-3.2l1-1.5
							c0.4,0.4,0.5,0.6,0.8,0.9c0.9-1.6,1.4-2.7,1.7-3.6L39.7,3c-0.2,0.3-0.3,0.5-0.6,1.1c-0.6,1.2-1.2,2.2-1.8,3.1
							c0.5,0.6,0.6,0.8,1,1.2c1.3-2,1.8-2.9,2-3.5L42,5.7c-0.2,0.3-0.4,0.5-0.8,1.1c-0.9,1.5-2.2,3.3-3.3,4.6
							c1.3-0.1,1.6-0.1,2.6-0.2c-0.2-0.5-0.3-0.8-0.7-1.6L41.4,9c0.6,1.3,1,2.6,1.5,4.1l-1.4,0.7c-0.1-0.5-0.1-0.7-0.3-1.1
							c-0.6,0.1-0.9,0.1-1.6,0.2v6.7c0,1,0,1.5,0.1,2.2h-2c0.1-0.7,0.1-1.2,0.1-2.2V13c-1.1,0.1-1.3,0.1-2,0.1
							c-0.5,0-0.8,0.1-1.1,0.1L34.5,11.4z M41.5,14c0.5,1.7,0.7,2.9,0.9,5l-1.5,0.4c-0.1-2-0.3-3.3-0.8-5.1L41.5,14z M42.9,5.8
							c0-1,0-1.7-0.1-2.4c0.7,0.1,1.2,0.1,2.3,0.1h5.5c1.3,0,1.8,0,2.4-0.1C53,4.1,53,4.8,53,6v13c0,1.2,0,1.8,0.1,2.5h-2v-1.3h-6.5
							v1.3h-1.9c0.1-0.7,0.1-1.4,0.1-2.4V5.8z M44.6,10.8H47V5.2h-2.4V10.8z M44.6,18.6H47v-6h-2.4V18.6z M48.7,10.8h2.5V5.3h-2.5
							V10.8z M48.7,18.6h2.5v-6h-2.5V18.6z"/>
						<path class="st4" d="M61.8,3.6c-0.9,1.9-1.7,6.8-1.7,10.4c0,0.1,0,0.3,0,0.6c0,0.7,0,0.7,0,1.3c0,0.5,0,0.5,0,0.9h0
							c0.3-1.3,0.4-1.4,1-2.9c0.1-0.3,0.1-0.4,0.2-0.6l1.6,0.7c-1.1,2-2,4.9-2,6.2c0,0.1,0,0.1,0,0.5l-2.2,0.2c0-0.2,0-0.2-0.1-0.8
							c-0.4-2.6-0.6-4.3-0.6-6.5c0-2.9,0.2-4.7,1-8.6c0.2-0.9,0.3-1.2,0.3-1.5L61.8,3.6z M63.4,7.4c1,0.3,2.1,0.3,4.4,0.3
							c0.5,0,0.8,0,1.5-0.1c0-1.9,0-1.9,0-3.3c0-0.4,0-0.7-0.1-1h2.2c-0.1,0.6-0.1,1.5-0.1,2.9c0,0.2,0,0.7,0,1.2
							c1.4-0.1,2.9-0.5,3.5-0.7l0.1,2c-0.2,0-0.2,0-0.6,0.1c-0.7,0.1-2,0.4-3,0.5c0,0.2,0,0.2,0,0.5c0,1.2,0,1.3,0.1,3.5
							c0.1,0.9,0.1,0.9,0.1,1.5c1.5,0.7,2.1,1,3.4,2c0.3,0.2,0.3,0.2,0.5,0.4l-0.9,2.1c-0.4-0.4-1.1-1-1.7-1.4
							c-0.7-0.4-1.2-0.8-1.4-0.9c0,0.1,0,0.1,0,0.4c0,0.6-0.1,1.1-0.3,1.4c-0.5,1.1-2,1.7-3.9,1.7c-2.6,0-4.1-1.2-4.1-3.3
							c0-1.9,1.7-3.3,4.2-3.3c0.8,0,1.5,0.1,2,0.3c-0.1-0.6-0.1-0.6-0.2-4.9c-1.1,0-1.4,0.1-2.1,0.1c-0.8,0-1.7,0-2.5-0.1
							c-0.3,0-0.6,0-0.7,0c-0.2,0-0.3,0-0.4,0c-0.1,0-0.1,0-0.2,0c0,0-0.1,0-0.1,0L63.4,7.4z M67.5,15.8c-1.4,0-2.3,0.6-2.3,1.5
							c0,0.8,0.9,1.4,2.1,1.4c0.8,0,1.5-0.3,1.8-0.7c0.2-0.3,0.3-0.7,0.3-1.3c0-0.1,0-0.5,0-0.5C68.7,15.9,68.2,15.8,67.5,15.8z"/>
						<path class="st4" d="M84.1,12.7c-1.4,1.1-2,2-2,3c0,0.9,0.5,1.4,1.6,1.8c0.7,0.2,2.1,0.4,3.7,0.4c2.5,0,5.1-0.4,6.4-0.9
							l0.2,2.4c-0.3,0-0.4,0-0.8,0.1c-2.2,0.3-3.9,0.5-5.7,0.5c-2.2,0-4-0.2-5.1-0.7c-1.7-0.7-2.6-1.8-2.6-3.3
							c0-1.5,0.8-2.8,2.6-4.4L84.1,12.7z M81.3,4.4c1.2,0.3,3.3,0.5,5.7,0.5c2.9,0,4.4-0.1,5.7-0.4l0.1,2c-1.3,0.6-3.4,1.8-5.5,3.4
							l-1.5-1.2c1.3-0.9,1.6-1,2.4-1.5c0.2-0.1,0.3-0.1,0.5-0.3c0.2-0.1,0.2-0.1,0.4-0.3c-1.1,0.1-2,0.2-3.1,0.2
							c-1.3,0-3.1-0.1-4.2-0.3c-0.4,0-0.4-0.1-0.7-0.1L81.3,4.4z"/>
						<path class="st4" d="M98.8,6c1,0.2,2.3,0.3,4.5,0.4c0.4-1.6,0.6-2.7,0.6-3.6l2.4,0.2c-0.1,0.3-0.1,0.3-0.3,1.3
							c-0.2,1-0.3,1.4-0.5,2.1c3.9-0.1,6.8-0.4,8.1-0.9l0.1,2.1c-0.5,0-0.5,0-2.4,0.3c-1.6,0.2-4.2,0.4-6.3,0.4
							c-0.5,1.7-1.4,4.1-1.9,4.8c1.4-1,3.4-1.6,5.9-1.6c1.6,0,3.1,0.4,4.1,1.2c0.9,0.7,1.4,1.7,1.4,2.9c0,3-2.9,5-7.3,5
							c-1.9,0-3.7-0.3-5.3-0.8c0-1,0-1.2-0.2-2.2c1.8,0.7,3.5,1,5.4,1c3.1,0,5.2-1.2,5.2-3c0-1.4-1.4-2.2-3.7-2.2
							c-1.6,0-3.3,0.4-4.7,1.1c-0.8,0.4-1.2,0.7-1.6,1.3l-2.1-0.8c0.4-0.6,0.7-1.2,1-2c0.7-1.7,1.4-3.5,1.7-4.7
							c-1.1,0-2.2-0.1-3.3-0.1c-0.3,0-0.5,0-0.6,0c0,0-0.1,0-0.2,0L98.8,6z"/>
						<path class="st4" d="M123.6,7c-0.3,1.2-0.6,2.9-1,5.4c-0.1,0.4-0.1,0.5-0.1,0.7c1.3-1.3,4-2.2,6.6-2.2c3.5,0,5.8,1.7,5.8,4.3
							c0,1.5-0.8,3-2.1,3.9c-1.4,0.9-3.1,1.4-5.4,1.4c-1.8,0-2.9-0.2-5.3-0.8c0-1.1,0-1.4-0.2-2.3c1.9,0.7,3.8,1,5.5,1
							c3.1,0,5.3-1.3,5.3-3.3c0-1.5-1.4-2.4-3.8-2.4c-2.6,0-5.3,1-6.4,2.5l-2.2-0.1c0.1-0.4,0.1-0.5,0.2-1.2c0.2-1.5,0.5-3.4,0.9-6
							c0.1-0.5,0.1-0.7,0.1-1.2L123.6,7z M124.1,3.1c1.4,0.8,5.3,2,7.5,2.3l-0.7,2c-3.7-0.9-5.4-1.4-7.8-2.6L124.1,3.1z"/>
					</g>
					<path id="パス_394" class="st4" d="M182,6.7h-1.8c0,2.4,1.1,4.6,3,6.1h-23.1v1.8h23.1c-1.9,1.5-3,3.7-3,6.1h1.8
						c0-3.3,2.7-5.9,6-5.9c0,0,0,0,0,0v-2.1C184.7,12.6,182,10,182,6.7L182,6.7z"/>
				</g>
			</g>
		</g>
	</g>
</g>
</svg>
