<?xml version="1.0" encoding="utf-8"?>
<!-- Generator: Adobe Illustrator 25.4.1, SVG Export Plug-In . SVG Version: 6.00 Build 0)  -->
<svg version="1.1" id="レイヤー_1" xmlns="http://www.w3.org/2000/svg" xmlns:xlink="http://www.w3.org/1999/xlink" x="0px"
	 y="0px" viewBox="0 0 345.8 486.7" style="enable-background:new 0 0 345.8 486.7;" xml:space="preserve">
<style type="text/css">
	.st0{enable-background:new    ;}
	.st1{fill:#33667A;}
	.st2{fill:none;stroke:#32667A;stroke-dasharray:5;}
	.st3{fill:#FF583B;}
	.st4{fill:#F7F8F8;}
</style>
<g id="グループ_125" transform="translate(0 7)">
	<g id="グループ_127" transform="translate(46.336 -9)">
		<g class="st0">
			<path class="st1" d="M2.5,20.5V9.4h3.6v10.9c0,4,1.8,5.8,5,5.8s5-1.7,5-5.8V9.4h3.6v11.1c0,5.7-3.2,8.8-8.6,8.8
				C5.7,29.3,2.5,26.2,2.5,20.5z"/>
			<path class="st1" d="M42.5,21.5c0,4.6-3.2,7.7-7.6,7.7c-1.9,0-3.6-0.6-4.8-2v7.3h-3.5V14H30v2c1.2-1.4,2.9-2.1,5-2.1
				C39.3,13.9,42.5,16.9,42.5,21.5z M39,21.5c0-2.9-1.9-4.7-4.4-4.7s-4.5,1.8-4.5,4.7c0,2.9,1.9,4.7,4.5,4.7S39,24.4,39,21.5z"/>
			<path class="st1" d="M57.1,28.2c-0.8,0.7-2.1,1-3.4,1c-3.3,0-5.2-1.7-5.2-5V17h-2.5v-2.8h2.5v-3.4h3.5v3.4h4V17h-4v7.1
				c0,1.5,0.7,2.2,2.1,2.2c0.7,0,1.4-0.2,2-0.6L57.1,28.2z"/>
		</g>
		<g class="st0">
			<path class="st1" d="M1.2,61.2c0-5.9,4.5-10.1,10.5-10.1c3.2,0,5.9,1.1,7.8,3.3l-2.4,2.2c-1.4-1.5-3.2-2.3-5.2-2.3
				c-4.1,0-7,2.9-7,6.9s2.9,6.9,7,6.9c2,0,3.8-0.8,5.2-2.3l2.4,2.2c-1.8,2.1-4.6,3.3-7.8,3.3C5.7,71.3,1.2,67.1,1.2,61.2z"/>
			<path class="st1" d="M25.2,51.4h3.6v16.5h10.2V71H25.2V51.4z"/>
			<path class="st1" d="M58.9,67.9V71H44.2V51.4h14.3v3.1H47.9v5.1h9.5v3h-9.5v5.4H58.9z"/>
			<path class="st1" d="M78,66.5h-9.8L66.2,71h-3.8l8.8-19.6h3.6L83.7,71h-3.8L78,66.5z M76.8,63.6L73.1,55l-3.7,8.6H76.8z"/>
			<path class="st1" d="M105.9,51.4V71h-3L92.1,57.7V71h-3.6V51.4h3l10.8,13.3V51.4H105.9z"/>
			<path class="st1" d="M111.7,68.9l1.3-2.8c1.6,1.3,4.1,2.2,6.5,2.2c3.1,0,4.3-1.1,4.3-2.5c0-4.2-11.6-1.5-11.6-8.7
				c0-3.2,2.5-5.9,7.9-5.9c2.4,0,4.8,0.6,6.5,1.7l-1.1,2.8c-1.8-1-3.7-1.5-5.4-1.5c-3,0-4.3,1.2-4.3,2.7c0,4.2,11.6,1.5,11.6,8.7
				c0,3.1-2.5,5.8-7.9,5.8C116.4,71.3,113.3,70.3,111.7,68.9z"/>
			<path class="st1" d="M133.2,51.4h3.6V71h-3.6V51.4z"/>
			<path class="st1" d="M161.8,51.4V71h-3L148,57.7V71h-3.6V51.4h3l10.8,13.3V51.4H161.8z"/>
			<path class="st1" d="M182.7,61h3.4v7.8c-2,1.7-4.9,2.5-7.7,2.5c-6.1,0-10.6-4.2-10.6-10.1c0-5.9,4.5-10.1,10.6-10.1
				c3.3,0,6,1.1,7.9,3.2l-2.3,2.2c-1.5-1.5-3.3-2.2-5.4-2.2c-4.2,0-7.1,2.8-7.1,6.9c0,4,2.9,6.9,7.1,6.9c1.4,0,2.8-0.3,4-1V61z"/>
			<path class="st1" d="M201.5,68.9l1.3-2.8c1.6,1.3,4.1,2.2,6.5,2.2c3.1,0,4.3-1.1,4.3-2.5c0-4.2-11.6-1.5-11.6-8.7
				c0-3.2,2.5-5.9,7.9-5.9c2.4,0,4.8,0.6,6.5,1.7l-1.1,2.8c-1.8-1-3.7-1.5-5.4-1.5c-3,0-4.3,1.2-4.3,2.7c0,4.2,11.6,1.5,11.6,8.7
				c0,3.1-2.5,5.8-7.9,5.8C206.2,71.3,203.1,70.3,201.5,68.9z"/>
			<path class="st1" d="M237.7,67.9V71H223V51.4h14.3v3.1h-10.7v5.1h9.5v3h-9.5v5.4H237.7z"/>
			<path class="st1" d="M248,54.5h-6.5v-3.1h16.6v3.1h-6.5V71H248V54.5z"/>
		</g>
		<g class="st0">
			<path class="st1" d="M9.7,107.5h4.5l-0.2,1h-5l-0.4,2.2h5l-0.2,1h-5l-0.6,3H5.9l0.6-3H1.4l0.2-1h5.1l0.4-2.2H2.1l0.2-1h4.6
				L2,98.6h1.7l4.6,8.4l7.8-8.4H18L9.7,107.5z"/>
			<path class="st1" d="M23.5,100.1l-1.6,5.1h2c4.1,0,5.9,1.7,5.9,4.2c0,3.3-2.6,5.4-6.6,5.4c-2.5,0-4.5-0.8-5.5-2.1l0.9-1.3
				c0.8,1.1,2.5,1.9,4.7,1.9c3,0,4.8-1.4,4.8-3.7c0-1.8-1.3-2.9-4.5-2.9h-3.7l2.4-8.1h8.8l-0.3,1.5H23.5z"/>
			<path class="st1" d="M35.3,113.5c0,0.4-0.1,0.7-0.4,1.2l-1.7,3.3H32l1.5-3.4c-0.4-0.2-0.6-0.6-0.6-1.1c0-0.8,0.6-1.3,1.3-1.3
				C34.8,112.3,35.3,112.8,35.3,113.5z"/>
			<path class="st1" d="M42.1,113.2h8.7l-0.3,1.5H39.2l0.3-1.2l8-6.5c2.3-1.9,3-3,3-4.5c0-1.6-1.1-2.6-3.5-2.6
				c-1.7,0-3.3,0.7-4.4,1.8l-1.1-1c1.3-1.4,3.5-2.3,5.8-2.3c3.2,0,4.9,1.6,4.9,3.9c0,1.8-0.8,3.4-3.5,5.6L42.1,113.2z"/>
			<path class="st1" d="M67.7,109.9c0,3-2.6,4.9-6.5,4.9c-3.7,0-5.9-1.6-5.9-4.3c0-2.3,1.4-3.9,4-4.5c-1.2-0.6-1.9-1.7-1.9-3.1
				c0-2.8,2.4-4.6,5.9-4.6c3.2,0,5.4,1.5,5.4,3.9c0,2-1.2,3.4-3.3,4.1C66.9,107.1,67.7,108.3,67.7,109.9z M66,109.9
				c0-1.8-1.6-3-4.3-3c-3,0-4.8,1.4-4.8,3.5c0,1.8,1.6,3,4.3,3C64.2,113.4,66,112.1,66,109.9z M59,103c0,1.6,1.4,2.7,3.8,2.7
				c2.6,0,4.2-1.2,4.2-3.1c0-1.7-1.5-2.7-3.8-2.7C60.6,99.8,59,101,59,103z"/>
			<path class="st1" d="M72.3,109c0-5.5,3.1-10.6,8-10.6c3.3,0,5.2,2.2,5.2,5.8c0,5.5-3.1,10.6-8,10.6
				C74.2,114.8,72.3,112.7,72.3,109z M83.9,104.3c0-2.8-1.4-4.3-3.7-4.3c-4,0-6.2,4.9-6.2,9c0,2.8,1.4,4.3,3.7,4.3
				C81.6,113.3,83.9,108.4,83.9,104.3z"/>
			<path class="st1" d="M97.8,113c0-5.6,2-11.6,5.2-15.4h1.7c-3.2,4.1-5.3,10-5.3,15.5c0,2,0.3,3.9,1,6h-1.5
				C98.2,117.4,97.8,115.1,97.8,113z"/>
			<path class="st1" d="M108.9,111c0,0.3-0.1,0.5-0.1,0.8c0,1,0.6,1.6,1.7,1.6c0.7,0,1.3-0.2,1.9-0.6l0.4,1.2
				c-0.8,0.6-1.8,0.8-2.7,0.8c-1.8,0-2.9-1-2.9-2.8c0-0.3,0-0.6,0.1-0.9l1.4-7.1h-2.1l0.3-1.4h2.2l0.5-2.6h1.6l-0.5,2.6h3.7L114,104
				h-3.7L108.9,111z"/>
			<path class="st1" d="M130.5,102.6l-2.4,12.1h-1.6l0.4-1.9c-1.1,1.3-2.8,2-4.7,2c-3.1,0-5.3-1.9-5.3-5.1c0-4.1,2.9-7.2,6.8-7.2
				c2.3,0,3.9,0.9,4.6,2.6l0.5-2.5H130.5z M127.7,107.7c0-2.4-1.4-3.8-4-3.8c-3,0-5.2,2.4-5.2,5.7c0,2.4,1.4,3.7,4,3.7
				C125.5,113.3,127.7,111,127.7,107.7z"/>
			<path class="st1" d="M140.4,108.5l3.6,6.1h-1.7l-2.9-5l-4.9,5h-1.9l6.1-6.3l-3.4-5.8h1.7l2.7,4.7l4.6-4.7h1.9L140.4,108.5z"/>
			<path class="st1" d="M158.7,102.6h1.6l-2.4,12.1h-1.6L158.7,102.6z M159.2,98.9c0-0.7,0.5-1.2,1.3-1.2c0.6,0,1.1,0.5,1.1,1
				c0,0.7-0.6,1.3-1.3,1.3C159.6,99.9,159.2,99.4,159.2,98.9z"/>
			<path class="st1" d="M177,106.4c0,0.4,0,0.9-0.1,1.4l-1.4,6.9h-1.6l1.4-6.9c0.1-0.4,0.1-0.8,0.1-1.1c0-1.7-1-2.7-3.1-2.7
				c-2.6,0-4.3,1.4-4.9,4.2l-1.3,6.5h-1.6l2.4-12.1h1.6l-0.4,1.9c1.2-1.4,2.8-2,4.7-2C175.4,102.5,177,104,177,106.4z"/>
			<path class="st1" d="M185.9,103.6c0-2-0.3-3.9-1-6h1.5c0.6,1.7,1.1,4,1.1,6.1c0,5.6-2,11.6-5.2,15.4h-1.7
				C183.9,115.1,185.9,109.1,185.9,103.6z"/>
		</g>
	</g>
	<g class="st0">
		<path class="st1" d="M47.2,217.9l1.1-2.4c1.3,1.1,3.5,1.8,5.5,1.8c2.6,0,3.7-0.9,3.7-2.2c0-3.6-10-1.2-10-7.5c0-2.7,2.2-5,6.8-5
			c2,0,4.1,0.5,5.6,1.5l-1,2.4c-1.5-0.9-3.2-1.3-4.6-1.3c-2.6,0-3.6,1-3.6,2.3c0,3.6,10,1.2,10,7.4c0,2.7-2.2,5-6.8,5
			C51.2,219.9,48.6,219.1,47.2,217.9z"/>
		<path class="st1" d="M78.2,217.1v2.6H65.6v-16.8h12.3v2.6h-9.1v4.4h8.1v2.6h-8.1v4.6H78.2z"/>
		<path class="st1" d="M87,205.5h-5.6v-2.6h14.3v2.6h-5.6v14.2H87V205.5z"/>
		<path class="st1" d="M108.5,202.9h3.1v16.8h-3.1V202.9z"/>
		<path class="st1" d="M121.5,205.5h-5.6v-2.6h14.3v2.6h-5.6v14.2h-3.1V205.5z"/>
		<path class="st1" d="M147.1,217.1v2.6h-12.6v-16.8h12.3v2.6h-9.1v4.4h8.1v2.6h-8.1v4.6H147.1z"/>
		<path class="st1" d="M167.9,219.7l0-11.1l-5.5,9.2H161l-5.5-9.1v11h-3v-16.8h2.6l6.7,11.1l6.6-11.1h2.6l0,16.8H167.9z"/>
	</g>
	<line id="線_4" class="st2" x1="345.8" y1="150.7" x2="0" y2="150.7"/>
	<g id="グループ_169" transform="translate(2.19 415.647)">
		<path id="長方形_54" class="st3" d="M69.6,0.1h206c17.7,0,32,14.3,32,32l0,0c0,17.7-14.3,32-32,32h-206c-17.7,0-32-14.3-32-32
			l0,0C37.6,14.4,52,0.1,69.6,0.1z"/>
		<g id="グループ_168">
			<g id="グループ_90" transform="translate(81.646 19.053)">
				<g class="st0">
					<path class="st4" d="M11.9,6c0.5,0.1,0.9,0.1,1.7,0.1h4.1c0.8,0,1.2,0,1.7-0.1v1.8c-0.4-0.1-0.7-0.1-1.6-0.1h-4.2
						c-0.8,0-1.1,0-1.7,0.1V6z M12.5,21.8c0.1-0.6,0.1-1.3,0.1-2v-3c0-0.7,0-1.2-0.1-1.7c0.6,0.1,1,0.1,1.6,0.1h3.3
						c0.9,0,1.1,0,1.5-0.1c0,0.4-0.1,0.8-0.1,1.6v3.2c0,0.7,0,1.2,0.1,1.7h-1.8v-0.8h-2.8v1H12.5z M12.6,3.1
						c0.5,0.1,0.9,0.1,1.7,0.1h2.9c0.8,0,1.2,0,1.7-0.1v1.8c-0.5-0.1-1-0.1-1.7-0.1h-2.9c-0.7,0-1.2,0-1.7,0.1V3.1z M12.6,9.1
						c0.4,0,0.7,0.1,1.4,0.1h3.4c0.7,0,1,0,1.4-0.1v1.7c-0.5,0-0.7-0.1-1.4-0.1h-3.4c-0.7,0-0.9,0-1.4,0.1V9.1z M12.6,12.1
						c0.4,0,0.7,0.1,1.4,0.1h3.4c0.7,0,1,0,1.4-0.1v1.7c-0.4,0-0.8-0.1-1.4-0.1h-3.4c-0.7,0-0.9,0-1.4,0.1V12.1z M14.3,19.2h2.9
						v-2.6h-2.9V19.2z M25.7,6.6C26.4,5.3,27,4,27.5,2.5l1.9,0.7c-0.8,1.6-1.2,2.3-1.8,3.4h1.1c0.9,0,1.3,0,1.9-0.1v1.9
						c-0.5-0.1-1-0.1-2-0.1h-2.7v2.4h2.3c1,0,1.5,0,2-0.1v1.9c-0.5-0.1-1-0.1-2-0.1h-2.3V15h3c0.8,0,1.4,0,2.1-0.1v2
						c-0.6-0.1-1.2-0.1-2-0.1h-3.1v2.5c0,0.9,0,1.7,0.1,2.4h-2.1c0.1-0.7,0.1-1.5,0.1-2.4v-2.5h-2.2c-1,0-1.5,0-2.1,0.1v-1.9
						c0.6,0.1,1.2,0.1,2.1,0.1h2.2v-2.7h-1.8c-0.9,0-1.4,0-1.9,0.1v-1.9c0.5,0.1,1,0.1,1.9,0.1h1.8V8.3h-2.2c-0.9,0-1.4,0-2,0.1V6.5
						c0.5,0.1,0.9,0.1,1.8,0.1H25.7z M22.3,6.4c-0.5-1.3-0.9-2-1.7-3.1l1.6-0.8c0.7,1.1,1.1,1.8,1.7,3.1L22.3,6.4z"/>
					<path class="st4" d="M36.9,14.3c-0.2,3.1-0.4,4.3-0.9,6.2l-1.6-0.7c0.4-1,0.5-1.5,0.7-2.8c0.2-1.2,0.2-1.8,0.3-2.9L36.9,14.3z
						 M34.5,11.4c0.3,0,0.5,0.1,0.9,0.1c0.2,0,0.3,0,0.7,0c0.5-0.7,0.8-1.1,1.3-1.7c-0.9-1.1-2-2.4-2.9-3.2l1-1.5
						c0.4,0.4,0.5,0.6,0.8,0.9c0.9-1.6,1.4-2.7,1.7-3.6L39.7,3c-0.2,0.3-0.3,0.5-0.6,1.1c-0.6,1.2-1.2,2.2-1.8,3.1
						c0.5,0.6,0.6,0.8,1,1.2c1.3-2,1.8-2.9,2-3.5L42,5.7c-0.2,0.3-0.4,0.5-0.8,1.1c-0.9,1.5-2.2,3.3-3.3,4.6
						c1.3-0.1,1.6-0.1,2.6-0.2c-0.2-0.5-0.3-0.8-0.7-1.6L41.4,9c0.6,1.3,1,2.6,1.5,4.1l-1.4,0.7c-0.1-0.5-0.1-0.7-0.3-1.1
						c-0.6,0.1-0.9,0.1-1.6,0.2v6.7c0,1,0,1.5,0.1,2.2h-2c0.1-0.7,0.1-1.2,0.1-2.2V13c-1.1,0.1-1.3,0.1-2,0.1
						c-0.5,0-0.8,0.1-1.1,0.1L34.5,11.4z M41.5,14c0.5,1.7,0.7,2.9,0.9,5l-1.5,0.4c-0.1-2-0.3-3.3-0.8-5.1L41.5,14z M42.9,5.8
						c0-1,0-1.7-0.1-2.4c0.7,0.1,1.2,0.1,2.3,0.1h5.5c1.3,0,1.8,0,2.4-0.1C53,4.1,53,4.8,53,6v13c0,1.2,0,1.8,0.1,2.5h-2v-1.3h-6.5
						v1.3h-1.9c0.1-0.7,0.1-1.4,0.1-2.4V5.8z M44.6,10.8H47V5.2h-2.4V10.8z M44.6,18.6H47v-6h-2.4V18.6z M48.7,10.8h2.5V5.3h-2.5
						V10.8z M48.7,18.6h2.5v-6h-2.5V18.6z"/>
					<path class="st4" d="M61.8,3.6c-0.9,1.9-1.7,6.8-1.7,10.4c0,0.1,0,0.3,0,0.6c0,0.7,0,0.7,0,1.3c0,0.5,0,0.5,0,0.9h0
						c0.3-1.3,0.4-1.4,1-2.9c0.1-0.3,0.1-0.4,0.2-0.6l1.6,0.7c-1.1,2-2,4.9-2,6.2c0,0.1,0,0.1,0,0.5l-2.2,0.2c0-0.2,0-0.2-0.1-0.8
						c-0.4-2.6-0.6-4.3-0.6-6.5c0-2.9,0.2-4.7,1-8.6c0.2-0.9,0.3-1.2,0.3-1.5L61.8,3.6z M63.4,7.4c1,0.3,2.1,0.3,4.4,0.3
						c0.5,0,0.8,0,1.5-0.1c0-1.9,0-1.9,0-3.3c0-0.4,0-0.7-0.1-1h2.2c-0.1,0.6-0.1,1.5-0.1,2.9c0,0.2,0,0.7,0,1.2
						c1.4-0.1,2.9-0.5,3.5-0.7l0.1,2c-0.2,0-0.2,0-0.6,0.1c-0.7,0.1-2,0.4-3,0.5c0,0.2,0,0.2,0,0.5c0,1.2,0,1.3,0.1,3.5
						c0.1,0.9,0.1,0.9,0.1,1.5c1.5,0.7,2.1,1,3.4,2c0.3,0.2,0.3,0.2,0.5,0.4l-0.9,2.1c-0.4-0.4-1.1-1-1.7-1.4
						c-0.7-0.4-1.2-0.8-1.4-0.9c0,0.1,0,0.1,0,0.4c0,0.6-0.1,1.1-0.3,1.4c-0.5,1.1-2,1.7-3.9,1.7c-2.6,0-4.1-1.2-4.1-3.3
						c0-1.9,1.7-3.3,4.2-3.3c0.8,0,1.5,0.1,2,0.3c-0.1-0.6-0.1-0.6-0.2-4.9c-1.1,0-1.4,0.1-2.1,0.1c-0.8,0-1.7,0-2.5-0.1
						c-0.3,0-0.6,0-0.7,0c-0.2,0-0.3,0-0.4,0c-0.1,0-0.1,0-0.2,0c0,0-0.1,0-0.1,0L63.4,7.4z M67.5,15.8c-1.4,0-2.3,0.6-2.3,1.5
						c0,0.8,0.9,1.4,2.1,1.4c0.8,0,1.5-0.3,1.8-0.7c0.2-0.3,0.3-0.7,0.3-1.3c0-0.1,0-0.5,0-0.5C68.7,15.9,68.2,15.8,67.5,15.8z"/>
					<path class="st4" d="M84.1,12.7c-1.4,1.1-2,2-2,3c0,0.9,0.5,1.4,1.6,1.8c0.7,0.2,2.1,0.4,3.7,0.4c2.5,0,5.1-0.4,6.4-0.9
						l0.2,2.4c-0.3,0-0.4,0-0.8,0.1c-2.2,0.3-3.9,0.5-5.7,0.5c-2.2,0-4-0.2-5.1-0.7c-1.7-0.7-2.6-1.8-2.6-3.3c0-1.5,0.8-2.8,2.6-4.4
						L84.1,12.7z M81.3,4.4c1.2,0.3,3.3,0.5,5.7,0.5c2.9,0,4.4-0.1,5.7-0.4l0.1,2c-1.3,0.6-3.4,1.8-5.5,3.4l-1.5-1.2
						c1.3-0.9,1.6-1,2.4-1.5c0.2-0.1,0.3-0.1,0.5-0.3c0.2-0.1,0.2-0.1,0.4-0.3c-1.1,0.1-2,0.2-3.1,0.2c-1.3,0-3.1-0.1-4.2-0.3
						c-0.4,0-0.4-0.1-0.7-0.1L81.3,4.4z"/>
					<path class="st4" d="M98.8,6c1,0.2,2.3,0.3,4.5,0.4c0.4-1.6,0.6-2.7,0.6-3.6l2.4,0.2c-0.1,0.3-0.1,0.3-0.3,1.3
						c-0.2,1-0.3,1.4-0.5,2.1c3.9-0.1,6.8-0.4,8.1-0.9l0.1,2.1c-0.5,0-0.5,0-2.4,0.3c-1.6,0.2-4.2,0.4-6.3,0.4
						c-0.5,1.7-1.4,4.1-1.9,4.8c1.4-1,3.4-1.6,5.9-1.6c1.6,0,3.1,0.4,4.1,1.2c0.9,0.7,1.4,1.7,1.4,2.9c0,3-2.9,5-7.3,5
						c-1.9,0-3.7-0.3-5.3-0.8c0-1,0-1.2-0.2-2.2c1.8,0.7,3.5,1,5.4,1c3.1,0,5.2-1.2,5.2-3c0-1.4-1.4-2.2-3.7-2.2
						c-1.6,0-3.3,0.4-4.7,1.1c-0.8,0.4-1.2,0.7-1.6,1.3l-2.1-0.8c0.4-0.6,0.7-1.2,1-2c0.7-1.7,1.4-3.5,1.7-4.7
						c-1.1,0-2.2-0.1-3.3-0.1c-0.3,0-0.5,0-0.6,0c0,0-0.1,0-0.2,0L98.8,6z"/>
					<path class="st4" d="M123.6,7c-0.3,1.2-0.6,2.9-1,5.4c-0.1,0.4-0.1,0.5-0.1,0.7c1.3-1.3,4-2.2,6.6-2.2c3.5,0,5.8,1.7,5.8,4.3
						c0,1.5-0.8,3-2.1,3.9c-1.4,0.9-3.1,1.4-5.4,1.4c-1.8,0-2.9-0.2-5.3-0.8c0-1.1,0-1.4-0.2-2.3c1.9,0.7,3.8,1,5.5,1
						c3.1,0,5.3-1.3,5.3-3.3c0-1.5-1.4-2.4-3.8-2.4c-2.6,0-5.3,1-6.4,2.5l-2.2-0.1c0.1-0.4,0.1-0.5,0.2-1.2c0.2-1.5,0.5-3.4,0.9-6
						c0.1-0.5,0.1-0.7,0.1-1.2L123.6,7z M124.1,3.1c1.4,0.8,5.3,2,7.5,2.3l-0.7,2c-3.7-0.9-5.4-1.4-7.8-2.6L124.1,3.1z"/>
				</g>
				<path id="パス_394" class="st4" d="M182,6.7h-1.8c0,2.4,1.1,4.6,3,6.1h-23.1v1.8h23.1c-1.9,1.5-3,3.7-3,6.1h1.8
					c0-3.3,2.7-5.9,6-5.9c0,0,0,0,0,0v-2.1C184.7,12.6,182,10,182,6.7L182,6.7z"/>
			</g>
		</g>
	</g>
	<g id="グループ_266" transform="translate(45.836 321.375)">
		<g id="グループ_89" transform="translate(0 -70.633)">
			<g class="st0">
				<path class="st1" d="M4.9,4.1V16H2.7V6H0.1V4.1H4.9z"/>
				<path class="st1" d="M8.5,14.7c0-0.8,0.6-1.4,1.4-1.4c0.8,0,1.4,0.6,1.4,1.4c0,0.8-0.6,1.4-1.4,1.4C9.1,16.1,8.5,15.5,8.5,14.7z
					"/>
			</g>
			<g class="st0">
				<path class="st1" d="M25.4,46l-2.1,10.5h-1.1l1.9-9.5h-2.5l0.2-1H25.4z"/>
				<path class="st1" d="M27.8,52.8c0-3.6,2-6.9,5.2-6.9c2.1,0,3.4,1.4,3.4,3.8c0,3.6-2,6.9-5.2,6.9C29.1,56.6,27.8,55.2,27.8,52.8z
					 M35.4,49.7c0-1.8-0.9-2.8-2.4-2.8c-2.6,0-4.1,3.2-4.1,5.9c0,1.8,0.9,2.8,2.4,2.8C33.9,55.6,35.4,52.4,35.4,49.7z"/>
				<path class="st1" d="M39,52.8c0-3.6,2-6.9,5.2-6.9c2.1,0,3.4,1.4,3.4,3.8c0,3.6-2,6.9-5.2,6.9C40.2,56.6,39,55.2,39,52.8z
					 M46.5,49.7c0-1.8-0.9-2.8-2.4-2.8c-2.6,0-4.1,3.2-4.1,5.9c0,1.8,0.9,2.8,2.4,2.8C45.1,55.6,46.5,52.4,46.5,49.7z"/>
				<path class="st1" d="M58.8,48.6l-1.4,6.9c-0.6,2.8-2,3.9-4.6,3.9c-1.5,0-2.7-0.4-3.5-1.2l0.6-0.8c0.6,0.6,1.7,1,3,1
					c2,0,3-0.9,3.4-2.8l0.2-0.9c-0.8,0.8-1.8,1.4-3.1,1.4c-2.1,0-3.5-1.2-3.5-3.2c0-2.5,1.9-4.5,4.5-4.5c1.5,0,2.6,0.6,3.1,1.8
					l0.3-1.7H58.8z M57,51.8c0-1.4-1-2.3-2.6-2.3c-2,0-3.4,1.5-3.4,3.5c0,1.4,1,2.3,2.6,2.3C55.5,55.2,57,53.8,57,51.8z"/>
			</g>
			<g class="st0">
				<path class="st1" d="M26.8,26.7c-0.1,0.2-0.1,0.2-0.3,0.6c-0.4,0.8-0.5,1-0.6,1.2c0.2,0,0.2,0,4.2-0.1c0.5,0,0.5,0,0.7-0.1
					l0.6,0.6c-0.1,0.2-0.1,0.2-0.3,0.7c-0.6,2-1.6,3.9-2.8,5.3c-1.3,1.5-2.8,2.6-4.9,3.5c-0.2-0.4-0.3-0.5-0.7-0.8
					c2.1-0.9,3.6-1.9,4.9-3.5c1.1-1.3,1.9-2.9,2.4-4.7l-4.7,0.1c-0.9,1.4-2,2.6-3.3,3.6c-0.2-0.3-0.4-0.5-0.8-0.7
					c1.5-1,2.5-2.1,3.5-3.8c0.5-0.9,0.8-1.6,0.9-2L26.8,26.7z"/>
				<path class="st1" d="M37.3,27.1c0,0.3-0.1,0.7-0.1,1.2l0,8.4c1.6-0.3,2.9-0.7,4-1.4c1.4-0.9,2.3-1.9,3.2-3.4
					c0.4,0.5,0.4,0.6,0.8,0.9c-1.9,2.9-4,4.2-7.7,4.9c-0.5,0.1-0.6,0.1-0.8,0.2L36,37.3c0.1-0.2,0.1-0.4,0.1-0.9l0-8v-0.5
					c0-0.3,0-0.4,0-0.8H37.3z"/>
				<path class="st1" d="M47.6,36.6c1.1,0,2.8-0.5,4.1-1.1c2.7-1.2,4.6-3.3,5.7-6.2c0.3,0.4,0.5,0.6,0.9,0.8
					c-1.1,2.4-2.4,4.1-4.3,5.4c-1.4,1-2.9,1.6-5.2,2.1c-0.4,0.1-0.5,0.1-0.8,0.2L47.6,36.6z M48.5,27.9c1.5,1,2.4,1.6,3.4,2.6
					l-0.7,0.9c-1-1.1-2.1-2-3.3-2.7L48.5,27.9z"/>
				<path class="st1" d="M62.1,30.5c1.2,0.5,2.5,1.1,3.6,1.8l-0.5,1c-0.8-0.6-2.4-1.5-3.6-1.9L62.1,30.5z M61.7,36.9
					C61.7,36.9,61.8,36.9,61.7,36.9c0.9,0,2.5-0.4,3.8-0.9c2.7-1,4.9-3.3,5.9-6.3c0.3,0.4,0.5,0.5,0.9,0.8c-1.8,4.2-4.7,6.4-9.7,7.4
					c-0.3,0.1-0.3,0.1-0.5,0.1L61.7,36.9z M63.2,27.1c1.3,0.5,2.4,1.1,3.5,1.8l-0.6,0.9c-0.8-0.6-2.6-1.6-3.4-1.9L63.2,27.1z
					 M70.5,26.5c0.6,0.8,1,1.3,1.4,2.2l-0.7,0.4c-0.4-0.7-1-1.8-1.4-2.2L70.5,26.5z M72.1,25.7c0.6,0.8,1,1.3,1.5,2.2l-0.7,0.4
					c-0.3-0.7-0.9-1.6-1.4-2.2L72.1,25.7z"/>
				<path class="st1" d="M76,36.6c1.1,0,2.8-0.5,4.1-1.1c2.7-1.2,4.6-3.3,5.7-6.2c0.3,0.4,0.5,0.6,0.9,0.8c-1.1,2.4-2.4,4.1-4.3,5.4
					c-1.4,1-2.9,1.6-5.2,2.1c-0.4,0.1-0.5,0.1-0.8,0.2L76,36.6z M76.9,27.9c1.5,1,2.4,1.6,3.4,2.6l-0.7,0.9c-1-1.1-2.1-2-3.3-2.7
					L76.9,27.9z"/>
				<path class="st1" d="M94.8,26.8c-0.1,0.2-0.1,0.2-0.3,0.6c-0.4,0.7-0.5,1-0.6,1.2c0.1,0,0.2,0,0.5,0l3.4-0.1
					c0.5,0,0.5,0,0.7-0.1l0.8,0.9c-0.1,0.2-0.1,0.2-0.2,0.5c-1.3,4.1-3.7,6.9-7.6,8.6c-0.2-0.4-0.4-0.6-0.7-0.8
					c3.6-1.4,6.3-4.3,7.4-8.2l-4.7,0.1c-0.8,1.3-2.1,2.7-3.3,3.6c-0.2-0.3-0.4-0.5-0.8-0.7c1.4-0.9,2.5-2.1,3.5-3.9
					c0.6-1,0.9-1.7,0.9-2L94.8,26.8z M99.1,26.3c0.7,0.8,1,1.3,1.4,2.1l-0.7,0.4c-0.4-0.7-1-1.7-1.4-2.2L99.1,26.3z M100.7,25.6
					c0.7,0.9,0.9,1.2,1.4,2.1l-0.7,0.4c-0.3-0.7-0.8-1.5-1.4-2.1L100.7,25.6z"/>
				<path class="st1" d="M107.5,27.9c-0.1,0.2-0.1,0.2-0.2,1c-0.6,4-1.7,6.7-3.7,8.7c-0.4-0.4-0.5-0.5-0.9-0.7
					c0.9-0.8,1.4-1.6,2-2.8c0.7-1.4,1.2-3,1.4-4.9c0.1-0.6,0.1-1.1,0.1-1.3c0,0,0-0.1,0-0.2L107.5,27.9z M111.4,27.6
					c0,0.6,0.3,2.2,0.6,3.4c0.7,2.5,1.8,4.5,3.2,5.8c-0.4,0.2-0.5,0.4-0.9,0.8c-1.9-2-3.3-5.2-3.8-8.8c-0.1-0.5-0.1-0.7-0.2-0.9
					L111.4,27.6z M112.9,26.9c0.6,0.8,1,1.4,1.4,2.2l-0.7,0.4c-0.3-0.7-1-1.8-1.4-2.3L112.9,26.9z M114.4,26.2
					c0.6,0.8,1,1.3,1.4,2.2l-0.7,0.4c-0.3-0.7-0.9-1.6-1.4-2.2L114.4,26.2z"/>
				<path class="st1" d="M117.8,31.9c0.4,0.1,0.8,0.1,1.7,0.1h8.1c1,0,1.3,0,1.7-0.1V33c-0.4,0-0.8-0.1-1.7-0.1h-8.1
					c-1,0-1.3,0-1.7,0.1V31.9z"/>
				<path class="st1" d="M137.9,27c-0.1,0.3-0.2,0.5-0.4,1c-1,3.4-2,6.1-2.9,8.2c1.9-0.1,5.2-0.6,6.8-0.9c-0.7-1.5-1.5-2.7-2.2-3.6
					l0.9-0.5c1.1,1.5,2.5,4.1,3.5,6.3l-1,0.5c-0.3-0.8-0.5-1.2-0.8-1.9c-2.4,0.5-5.1,0.8-8.6,1.2c-0.5,0-0.9,0.1-1.2,0.2l-0.1-1.2
					c0.3,0,0.3,0,0.4,0c0.1,0,0.9,0,1.2-0.1c0.9-2,1.4-3.4,2.1-5.5c0.7-2.1,1-3.2,1.1-4L137.9,27z"/>
			</g>
			<g class="st0">
				<path class="st1" d="M21.2,10.3c0-3.6,2.7-6.1,6.4-6.1c1.9,0,3.6,0.7,4.7,2l-1.4,1.3c-0.9-0.9-1.9-1.4-3.2-1.4
					c-2.5,0-4.2,1.7-4.2,4.2c0,2.4,1.8,4.2,4.2,4.2c1.2,0,2.3-0.5,3.2-1.4l1.4,1.4c-1.1,1.3-2.8,2-4.7,2
					C23.9,16.5,21.2,13.9,21.2,10.3z"/>
				<path class="st1" d="M35.8,4.4H38v10h6.2v1.9h-8.4V4.4z"/>
				<path class="st1" d="M56.3,14.4v1.9h-8.9V4.4H56v1.9h-6.5v3.1h5.7v1.8h-5.7v3.3H56.3z"/>
				<path class="st1" d="M67.8,13.5h-5.9l-1.2,2.8h-2.3l5.4-11.9h2.2l5.4,11.9H69L67.8,13.5z M67.1,11.8l-2.2-5.2l-2.2,5.2H67.1z"/>
				<path class="st1" d="M84.7,4.4v11.9h-1.8l-6.6-8.1v8.1h-2.2V4.4H76l6.6,8.1V4.4H84.7z"/>
				<path class="st1" d="M88.3,15l0.8-1.7c1,0.8,2.5,1.3,3.9,1.3c1.9,0,2.6-0.7,2.6-1.5c0-2.6-7.1-0.9-7.1-5.3
					c0-1.9,1.5-3.6,4.8-3.6c1.4,0,2.9,0.4,4,1.1L96.6,7c-1.1-0.6-2.2-0.9-3.3-0.9c-1.8,0-2.6,0.7-2.6,1.6c0,2.5,7.1,0.9,7.1,5.3
					c0,1.9-1.5,3.5-4.8,3.5C91.1,16.5,89.3,15.9,88.3,15z"/>
				<path class="st1" d="M101.4,4.4h2.2v11.9h-2.2V4.4z"/>
				<path class="st1" d="M118.7,4.4v11.9h-1.8l-6.6-8.1v8.1h-2.2V4.4h1.8l6.6,8.1V4.4H118.7z"/>
				<path class="st1" d="M131.4,10.2h2.1V15c-1.2,1-3,1.5-4.7,1.5c-3.7,0-6.4-2.6-6.4-6.1s2.7-6.1,6.4-6.1c2,0,3.7,0.7,4.8,1.9
					l-1.4,1.4c-0.9-0.9-2-1.4-3.3-1.4c-2.5,0-4.3,1.7-4.3,4.2c0,2.4,1.8,4.2,4.3,4.2c0.8,0,1.7-0.2,2.4-0.6V10.2z"/>
				<path class="st1" d="M154.4,13.1c0,2-1.6,3.2-4.7,3.2h-5.9V4.4h5.6c2.9,0,4.4,1.2,4.4,3.1c0,1.2-0.6,2.1-1.5,2.6
					C153.5,10.5,154.4,11.5,154.4,13.1z M146,6.1v3.3h3.1c1.5,0,2.4-0.5,2.4-1.6c0-1.1-0.9-1.6-2.4-1.6H146z M152.2,12.8
					c0-1.2-0.9-1.7-2.6-1.7H146v3.4h3.6C151.2,14.6,152.2,14,152.2,12.8z"/>
				<path class="st1" d="M165.8,13.5h-5.9l-1.2,2.8h-2.3l5.4-11.9h2.2l5.4,11.9H167L165.8,13.5z M165.1,11.8l-2.2-5.2l-2.2,5.2
					H165.1z"/>
				<path class="st1" d="M172.2,4.4h2.2v10h6.2v1.9h-8.4V4.4z"/>
				<path class="st1" d="M194.7,16.3l0-7.9l-3.9,6.5h-1l-3.9-6.4v7.8h-2.1V4.4h1.8l4.7,7.9l4.6-7.9h1.8l0,11.9H194.7z"/>
			</g>
		</g>
		<g id="グループ_88" transform="translate(0 -70.633)">
			<g class="st0">
				<path class="st1" d="M9.9,88.4v2H0.6v-1.6l5-4.8c1.2-1.2,1.4-1.9,1.4-2.6c0-1.2-0.8-1.8-2.3-1.8c-1.2,0-2.3,0.4-3,1.3l-1.6-1.3
					c1-1.3,2.7-2.1,4.8-2.1c2.7,0,4.5,1.4,4.5,3.6c0,1.2-0.3,2.3-2.1,4L4,88.4H9.9z"/>
				<path class="st1" d="M12.8,89.1c0-0.9,0.7-1.5,1.5-1.5c0.8,0,1.5,0.6,1.5,1.5c0,0.9-0.7,1.5-1.5,1.5
					C13.5,90.5,12.8,89.9,12.8,89.1z"/>
			</g>
			<g class="st0">
				<path class="st1" d="M22,128.9h5.7l-0.2,1h-7.4l0.2-0.8l5.2-4.3c1.5-1.2,2-2,2-2.9c0-1-0.7-1.7-2.3-1.7c-1.1,0-2.2,0.4-2.9,1.2
					l-0.8-0.6c0.9-0.9,2.3-1.5,3.8-1.5c2.1,0,3.2,1,3.2,2.5c0,1.2-0.5,2.2-2.3,3.7L22,128.9z"/>
				<path class="st1" d="M30.9,126.2c0-3.6,2-6.9,5.2-6.9c2.1,0,3.4,1.4,3.4,3.8c0,3.6-2,6.9-5.2,6.9
					C32.2,130,30.9,128.6,30.9,126.2z M38.5,123.1c0-1.8-0.9-2.8-2.4-2.8c-2.6,0-4.1,3.2-4.1,5.9c0,1.8,0.9,2.8,2.4,2.8
					C37,129,38.5,125.8,38.5,123.1z"/>
				<path class="st1" d="M42,126.2c0-3.6,2-6.9,5.2-6.9c2.1,0,3.4,1.4,3.4,3.8c0,3.6-2,6.9-5.2,6.9C43.3,130,42,128.6,42,126.2z
					 M49.6,123.1c0-1.8-0.9-2.8-2.4-2.8c-2.6,0-4.1,3.2-4.1,5.9c0,1.8,0.9,2.8,2.4,2.8C48.1,129,49.6,125.8,49.6,123.1z"/>
				<path class="st1" d="M66.9,124.5c0,0.3,0,0.6-0.1,0.9l-0.9,4.5h-1.1l0.9-4.5c0.1-0.3,0.1-0.5,0.1-0.7c0-1.1-0.6-1.8-2-1.8
					c-1.6,0-2.7,0.9-3.1,2.6l-0.9,4.3h-1.1l0.9-4.5c0-0.3,0.1-0.5,0.1-0.7c0-1.1-0.6-1.8-2-1.8c-1.6,0-2.7,0.9-3.1,2.8l-0.8,4.2
					h-1.1l1.6-7.9h1l-0.3,1.3c0.8-0.9,1.8-1.3,3-1.3c1.3,0,2.2,0.6,2.6,1.6c0.8-1,1.9-1.6,3.3-1.6C65.9,121.9,66.9,122.9,66.9,124.5
					z"/>
				<path class="st1" d="M72.4,119.4h1.1l-1.9,9.5h5.9l-0.2,1h-7L72.4,119.4z"/>
			</g>
			<g class="st0">
				<path class="st1" d="M27.5,100.1c-0.1,0.2-0.1,0.2-0.3,0.6c-0.4,0.8-0.5,1-0.6,1.2c0.2,0,0.2,0,4.2-0.1c0.5,0,0.5,0,0.7-0.1
					l0.6,0.6c-0.1,0.2-0.1,0.2-0.3,0.7c-0.6,2-1.6,3.9-2.8,5.3c-1.3,1.5-2.8,2.6-4.9,3.5c-0.2-0.4-0.3-0.5-0.7-0.8
					c2.1-0.9,3.6-1.9,4.9-3.5c1.1-1.3,1.9-2.9,2.4-4.7l-4.7,0.1c-0.9,1.4-2,2.6-3.3,3.6c-0.2-0.3-0.4-0.5-0.8-0.7
					c1.5-1,2.5-2.1,3.5-3.8c0.5-0.9,0.8-1.6,0.9-2L27.5,100.1z"/>
				<path class="st1" d="M37.8,100.4c0,0.3-0.1,0.5-0.1,1.2v3.8c0,0.7,0,0.8,0.1,1.2h-1.2c0-0.3,0.1-0.6,0.1-1.2v-3.7
					c0-0.6,0-0.8-0.1-1.2H37.8z M44,100.4c-0.1,0.3-0.1,0.5-0.1,1.2v1.7c0,2.2-0.1,3.5-0.4,4.3c-0.4,1.3-1.3,2.3-2.7,3.1
					c-0.7,0.4-1.4,0.7-2.5,1c-0.2-0.4-0.2-0.5-0.6-1c1.3-0.3,1.9-0.5,2.7-1c1.3-0.8,2-1.7,2.2-3c0.2-0.8,0.2-1.4,0.2-3.6v-1.6
					c0-0.7,0-0.9-0.1-1.2H44z"/>
				<path class="st1" d="M48.7,105.3c0.4,0.1,0.8,0.1,1.7,0.1h8.1c1,0,1.3,0,1.7-0.1v1.1c-0.4,0-0.8-0.1-1.7-0.1h-8.1
					c-1,0-1.3,0-1.7,0.1V105.3z"/>
				<path class="st1" d="M64.3,108.1c3.5,0.6,6,1.2,9,2.3l-0.4,1c-1.3-0.6-2.5-1-4.7-1.6c-1.7-0.4-2.8-0.6-4.2-0.9L64.3,108.1z
					 M65.4,104.2c2.4,0.4,4.4,0.9,6.9,1.6l-0.4,1c-2-0.8-4.4-1.4-6.9-1.7L65.4,104.2z M65.7,100.4c2.3,0.3,4.5,0.8,7.1,1.5l-0.4,1
					c-1.8-0.7-4.8-1.3-7.1-1.6L65.7,100.4z"/>
				<path class="st1" d="M77.2,105.3c0.4,0.1,0.8,0.1,1.7,0.1h8.1c1,0,1.3,0,1.7-0.1v1.1c-0.4,0-0.8-0.1-1.7-0.1H79
					c-1,0-1.3,0-1.7,0.1V105.3z"/>
				<path class="st1" d="M95.5,104.9c-0.1,0.2-0.1,0.2-0.2,0.8c-0.5,1.9-1.3,3.4-2.5,4.8c-0.3-0.3-0.5-0.4-0.9-0.6
					c0.6-0.6,0.9-1.1,1.3-1.8c0.7-1.2,1.1-2.6,1.2-3.5L95.5,104.9z M97.5,101.5c0-0.7,0-1.1-0.1-1.4h1.1c-0.1,0.4-0.1,0.6-0.1,1.5
					v0.9h3.5c0.8,0,1.1,0,1.6-0.1v1.1c-0.5-0.1-0.9-0.1-1.6-0.1h-3.6v7c0,0.8,0,1.1,0.1,1.5h-1.1c0.1-0.4,0.1-0.7,0.1-1.5v-7h-3.4
					c-0.7,0-1.1,0-1.6,0.1v-1.1c0.5,0.1,0.8,0.1,1.6,0.1h3.4V101.5z M101.4,104.6c0.1,0.4,0.2,0.8,0.5,1.6c0.6,1.6,1.2,2.7,2.2,3.8
					c-0.4,0.2-0.5,0.3-0.9,0.7c-0.7-0.9-1-1.5-1.5-2.4c-0.3-0.7-0.8-1.7-1-2.4c-0.2-0.4-0.2-0.7-0.4-0.9L101.4,104.6z"/>
				<path class="st1" d="M117.5,100.8c-0.3,0.2-0.3,0.2-0.6,0.6c-0.9,0.9-2.1,1.9-3.3,2.8v6c0,0.8,0,1.1,0.1,1.5h-1.2
					c0.1-0.4,0.1-0.7,0.1-1.5v-5.3c-1.8,1.1-2.8,1.6-5.4,2.5c-0.2-0.4-0.3-0.6-0.5-0.9c2.6-0.7,5.1-1.9,7.3-3.6c1.3-1,2.3-2,2.7-2.6
					L117.5,100.8z"/>
				<path class="st1" d="M121.4,103.6c0.6,1,0.9,1.6,1.4,3.1l-1,0.3c-0.3-1.2-0.7-2.2-1.3-3.1L121.4,103.6z M129.3,103.5
					c-0.1,0.2-0.1,0.2-0.3,1.1c-0.2,1-0.7,2.3-1.2,3.1c-1,1.7-2.5,3-4.6,4c-0.2-0.3-0.3-0.5-0.6-0.8c2.2-1,3.5-2,4.4-3.7
					c0.5-0.9,0.9-1.9,1.2-3c0.1-0.5,0.2-0.8,0.2-1v-0.1c0,0,0,0,0-0.1L129.3,103.5z M124.3,103c0.7,1.3,1,1.9,1.4,3l-0.9,0.3
					c-0.3-1-0.7-2-1.3-3.1L124.3,103z"/>
				<path class="st1" d="M140.9,101.5c0-0.2-0.1-0.3-0.1-0.4c0-0.9,0.7-1.6,1.6-1.6c0.9,0,1.6,0.7,1.6,1.6c0,0.9-0.7,1.6-1.6,1.6
					c-0.2,0-0.3,0-0.5-0.1c0,0,0,0,0,0.1c-0.7,2.5-1.6,4.2-2.9,5.6c-1.5,1.5-3,2.5-5.1,3.3c-0.2-0.4-0.4-0.6-0.7-1
					c1.9-0.5,3.9-1.8,5.1-3.2c1.1-1.3,2-2.9,2.5-5h-7.1c-0.8,0-1.1,0-1.6,0.1v-1.1c0.5,0.1,0.8,0.1,1.6,0.1h6.9H140.9z M141.5,101
					c0,0.6,0.4,1,1,1c0.5,0,1-0.4,1-1c0-0.5-0.4-1-1-1C141.9,100,141.5,100.5,141.5,101z"/>
				<path class="st1" d="M155,102.3c0.9,0,0.9,0,1.2-0.1l0.6,0.5c-0.1,0.2-0.1,0.2-0.3,1.4c-0.3,2.1-1.2,3.8-2.5,5.1
					c-1.1,1-2.4,1.8-4.1,2.3c-0.2-0.4-0.3-0.6-0.6-1c1.3-0.4,2.2-0.7,3.1-1.4c2-1.4,3-3.3,3.2-6.1h-7.6v2.1c0,0.4,0,0.8,0,1h-1.1
					c0-0.2,0.1-0.7,0.1-1v-1.9c0-0.4,0-0.8-0.1-1.1c0.4,0,0.8,0.1,1.3,0.1h3v-1.4c0-0.4,0-0.6-0.1-0.9h1.2c0,0.3-0.1,0.5-0.1,0.9
					v1.4H155z"/>
				<path class="st1" d="M162.2,105.4c-0.6,0-0.9,0-1.3,0.1v-1c0.4,0.1,0.6,0.1,1.2,0.1h4.1l0-1c0-0.5,0-0.7-0.1-1h1
					c0,0.3-0.1,0.4-0.1,0.8v0.2l0,1h1.4c0.7,0,0.9,0,1.3-0.1v1c-0.3-0.1-0.7-0.1-1.3-0.1h-1.3l0.1,5.4c0,0.6,0,0.8,0.1,1.1h-1.1
					c0-0.4,0-0.5,0-1v-0.1l0-4.2c0,0,0-0.4,0.1-0.8c0,0,0,0-0.1,0.2c-0.8,1.6-2.7,3.4-5.3,4.7c-0.2-0.3-0.3-0.5-0.6-0.8
					c1.1-0.5,2.1-1.1,3.2-2.1c0.9-0.8,1.6-1.6,2.2-2.5H162.2z"/>
				<path class="st1" d="M174.9,103.6c0.6,1,0.9,1.6,1.4,3.1l-1,0.3c-0.3-1.2-0.7-2.2-1.3-3.1L174.9,103.6z M182.8,103.5
					c-0.1,0.2-0.1,0.2-0.3,1.1c-0.2,1-0.7,2.3-1.2,3.1c-1,1.7-2.5,3-4.6,4c-0.2-0.3-0.3-0.5-0.6-0.8c2.2-1,3.5-2,4.4-3.7
					c0.5-0.9,0.9-1.9,1.2-3c0.1-0.5,0.2-0.8,0.2-1v-0.1c0,0,0,0,0-0.1L182.8,103.5z M177.7,103c0.7,1.3,1,1.9,1.4,3l-0.9,0.3
					c-0.3-1-0.7-2-1.3-3.1L177.7,103z"/>
				<path class="st1" d="M187.2,103.8c1.3,0.5,2.3,1.1,3.6,1.8l-0.5,0.9c-1-0.7-2.3-1.4-3.6-1.9L187.2,103.8z M186.8,110.2
					c0.9,0,2.4-0.3,3.8-0.9c1.7-0.7,3.1-1.7,4.2-3.1c0.8-1,1.2-1.9,1.7-3.1c0.4,0.4,0.5,0.5,0.9,0.7c-1.2,2.9-2.9,4.8-5.4,6
					c-1,0.5-2.4,1-3.5,1.2c-0.2,0-0.5,0.1-0.8,0.2c-0.3,0.1-0.3,0.1-0.5,0.2L186.8,110.2z M188.3,100.5c1.4,0.6,2.3,1,3.5,1.8
					l-0.6,0.9c-1-0.7-2.4-1.5-3.4-1.8L188.3,100.5z"/>
				<path class="st1" d="M208.7,110.4c0.7,0,0.9,0,1.3-0.1v1c-0.3-0.1-0.7-0.1-1.3-0.1h-6.9c-0.6,0-0.9,0-1.3,0.1v-1
					c0.4,0.1,0.6,0.1,1.3,0.1h4.3c0.3-1.5,0.6-3.6,0.8-4.8h-3.7c-0.8,0-0.9,0-1.2,0.1v-1c0.3,0.1,0.7,0.1,1.2,0.1h3.8
					c0.3,0,0.5,0,0.7-0.1l0.5,0.4c-0.1,0.2-0.1,0.3-0.2,1c-0.3,2.2-0.4,2.9-0.7,4.4H208.7z"/>
			</g>
			<g class="st0">
				<path class="st1" d="M20.4,83.5c0-3.6,2.7-6.1,6.4-6.1c1.9,0,3.6,0.7,4.7,2L30,80.7c-0.9-0.9-1.9-1.4-3.2-1.4
					c-2.5,0-4.2,1.7-4.2,4.2c0,2.4,1.8,4.2,4.2,4.2c1.2,0,2.3-0.5,3.2-1.4l1.4,1.4c-1.1,1.3-2.8,2-4.7,2
					C23.1,89.6,20.4,87,20.4,83.5z"/>
				<path class="st1" d="M42.7,89.4l-2.4-3.5c-0.2,0-0.3,0-0.5,0h-2.7v3.5h-2.2V77.5h4.9c3.1,0,5.1,1.6,5.1,4.2
					c0,1.8-0.9,3.1-2.5,3.8l2.7,3.9H42.7z M39.7,79.4h-2.6v4.7h2.6c1.9,0,2.9-0.9,2.9-2.4S41.7,79.4,39.7,79.4z"/>
				<path class="st1" d="M57.6,87.6v1.9h-8.9V77.5h8.7v1.9h-6.5v3.1h5.7v1.8h-5.7v3.3H57.6z"/>
				<path class="st1" d="M69.2,86.7h-5.9l-1.2,2.8h-2.3l5.4-11.9h2.2l5.4,11.9h-2.3L69.2,86.7z M68.5,84.9l-2.2-5.2L64,84.9H68.5z"
					/>
				<path class="st1" d="M86.5,89.4l0-7.9l-3.9,6.5h-1l-3.9-6.4v7.8h-2.1V77.5h1.8l4.7,7.9l4.6-7.9h1.8l0,11.9H86.5z"/>
				<path class="st1" d="M98.3,85.2v4.2h-2.2v-4.2l-4.7-7.7h2.4l3.5,5.8l3.5-5.8h2.2L98.3,85.2z"/>
				<path class="st1" d="M129.2,77.5l-3.9,11.9h-2.3l-2.9-8.8l-3,8.8h-2.4l-3.9-11.9h2.3l3,9l3.1-9h2l3,9.1l3-9.1H129.2z"/>
				<path class="st1" d="M142.9,77.5v11.9h-2.2v-5.1h-6.2v5.1h-2.2V77.5h2.2v4.9h6.2v-4.9H142.9z"/>
				<path class="st1" d="M147.5,77.5h2.2v11.9h-2.2V77.5z"/>
				<path class="st1" d="M164.2,81.8c0,2.6-1.9,4.2-5.1,4.2h-2.7v3.4h-2.2V77.5h4.9C162.3,77.5,164.2,79.1,164.2,81.8z M162,81.8
					c0-1.5-1-2.4-2.9-2.4h-2.6v4.7h2.6C161,84.1,162,83.3,162,81.8z"/>
				<path class="st1" d="M191.4,77.5l-3.9,11.9h-2.3l-2.9-8.8l-3,8.8h-2.4l-3.9-11.9h2.3l3,9l3.1-9h2l3,9.1l3-9.1H191.4z"/>
				<path class="st1" d="M201.9,86.7H196l-1.2,2.8h-2.3l5.4-11.9h2.2l5.4,11.9h-2.3L201.9,86.7z M201.2,84.9l-2.2-5.2l-2.2,5.2
					H201.2z"/>
				<path class="st1" d="M207.3,88.2l0.8-1.7c1,0.8,2.5,1.3,3.9,1.3c1.9,0,2.6-0.7,2.6-1.5c0-2.6-7.1-0.9-7.1-5.3
					c0-1.9,1.5-3.6,4.8-3.6c1.4,0,2.9,0.4,4,1.1l-0.7,1.7c-1.1-0.6-2.2-0.9-3.3-0.9c-1.8,0-2.6,0.7-2.6,1.6c0,2.5,7.1,0.9,7.1,5.3
					c0,1.9-1.5,3.5-4.8,3.5C210.1,89.6,208.3,89,207.3,88.2z"/>
				<path class="st1" d="M230.9,77.5v11.9h-2.2v-5.1h-6.2v5.1h-2.2V77.5h2.2v4.9h6.2v-4.9H230.9z"/>
			</g>
		</g>
	</g>
</g>
</svg>
