<?xml version="1.0" encoding="utf-8"?>
<!-- Generator: Adobe Illustrator 25.4.1, SVG Export Plug-In . SVG Version: 6.00 Build 0)  -->
<svg version="1.1" id="レイヤー_1" xmlns="http://www.w3.org/2000/svg" xmlns:xlink="http://www.w3.org/1999/xlink" x="0px"
	 y="0px" viewBox="0 0 314 85" style="enable-background:new 0 0 314 85;" xml:space="preserve">
<style type="text/css">
	.st0{fill:#FF583B;}
	.st1{fill:#F7F8F8;}
	.st2{fill:#FFFFFF;}
</style>
<path class="st0" d="M271.4,85H42.6c-23.4,0-42.5-19-42.5-42.5v0C0.1,19.1,19.1,0,42.6,0h228.9c23.4,0,42.5,19,42.5,42.5v0
	C313.9,65.9,294.9,85,271.4,85z"/>
<g>
	<path class="st1" d="M273.2,33.2h-2.4c0,3.3,1.5,6.2,3.9,8h-30.5v2.4h30.5c-2.4,1.9-3.9,4.8-3.9,8h2.4c0-4.3,3.5-7.9,7.9-7.9v-0.2
		v-0.2v-2v-0.2V41C276.7,41,273.2,37.5,273.2,33.2z"/>
	<g>
		<g>
			<g>
				<path class="st2" d="M89.7,40c-1.9,0.2-2.4,0.2-3.5,0.2c-0.7,0-0.9-0.3-1-2.4c0.5,0,0.7,0,0.9,0c1.2,0,2.2-0.1,3.6-0.2v-0.5
					c0-1.6-0.1-2.8-0.3-4.1c1.8,0.1,2.5,0.2,3.1,0.3c0.2,0.1,0.3,0.2,0.3,0.4c0,0.1,0,0.2-0.1,0.5c-0.2,0.5-0.3,1.3-0.4,3
					c0.8-0.1,2.1-0.5,3-0.7c0.1,0,0.1,0,0.2,0c0.2,0,0.3,0.1,0.4,0.3c0.1,0.5,0.3,1.4,0.3,1.8c0,0.2-0.1,0.4-0.3,0.4
					c-0.3,0.1-2,0.5-3.6,0.7v3.1c2.4-0.8,4.2-1.2,5.8-1.2c3.1,0,5.1,2,5.1,5c0,2-0.8,3.6-2.2,4.4c-0.7,0.4-1.8,0.7-3,0.7
					c-1.2,0-2.2-0.1-2.4-0.3c-0.3-0.1-0.3-0.2-0.3-0.8c0-0.7-0.2-1.2-0.5-1.9c1,0.4,1.8,0.5,2.7,0.5c1.9,0,2.9-1,2.9-2.7
					c0-1.6-1-2.7-2.6-2.7c-1.5,0-3.4,0.5-5.5,1.4c0,0.1,0,0.1,0,1c0,1.6,0,1.6,0,1.9c0,0.4,0,0.9,0,1.1c0,1.9-0.7,2.9-2.3,2.9
					c-1.5,0-3.1-0.8-4.1-2.1c-0.4-0.5-0.6-1.1-0.6-1.7c0-1.6,1.4-3,4.4-4.5V40z M89.7,46.5c-1.4,0.8-2,1.4-2,1.9
					c0,0.6,0.8,1.2,1.5,1.2c0.3,0,0.5-0.2,0.5-0.8V46.5z M103.1,41c-1.2-1.3-2.9-2.4-4.5-2.9c-0.2-0.1-0.3-0.2-0.3-0.3
					c0-0.1,0.2-0.5,0.9-1.4c0.3-0.4,0.3-0.4,0.5-0.4c0.2,0,1.2,0.3,1.8,0.6c1.5,0.7,3.5,2.2,3.5,2.6c0,0.4-1.2,1.9-1.6,1.9
					C103.3,41.2,103.2,41.2,103.1,41z"/>
				<path class="st2" d="M112.5,50.2c0,1.4,0,2.2,0.1,2.8H110c0.1-0.7,0.1-1.4,0.1-2.9V35.1c0-1.2,0-1.8-0.1-2.6
					c0.7,0.1,1.2,0.1,2.4,0.1h4.1c1.2,0,1.7,0,2.4-0.1c-0.1,0.7-0.1,1.2-0.1,2.1v3.8c0,1.1,0,1.5,0,2.1c-0.6,0-1.3,0-2.1,0h-4.1
					V50.2z M112.5,35.7h3.9v-1.2h-3.9V35.7z M112.5,38.7h3.9v-1.2h-3.9V38.7z M124.2,47.8c0,0.7,0,1.2,0.1,1.6c-0.5,0-1-0.1-1.6-0.1
					h-5.1v1.5H115c0.1-0.6,0.1-1.4,0.1-2.2v-4.9c0-0.6,0-1.2-0.1-1.6c0.5,0,1,0.1,1.7,0.1h5.7c0.7,0,1.2,0,1.8-0.1
					c0,0.4-0.1,0.9-0.1,1.6V47.8z M117.5,47.2h4.4v-3h-4.4V47.2z M129.4,50.3c0,2.1-0.6,2.6-3.2,2.6c-0.4,0-0.6,0-2.2-0.1
					c-0.1-1.1-0.3-1.6-0.6-2.4c0.9,0.1,2.1,0.2,2.8,0.2c0.7,0,0.8-0.1,0.8-0.6v-9.4h-4.5c-0.7,0-1.6,0-2.1,0c0-0.6,0.1-1.1,0.1-2.1
					v-3.8c0-0.8,0-1.5-0.1-2.1c0.7,0.1,1.2,0.1,2.4,0.1h4.4c1.1,0,1.6,0,2.4-0.1c-0.1,0.7-0.1,1.5-0.1,2.6V50.3z M122.7,35.7h4.2
					v-1.2h-4.2V35.7z M122.7,38.7h4.2v-1.2h-4.2V38.7z"/>
				<path class="st2" d="M135.9,37c0-0.7,0-1.6-0.1-2.2c1.1,0.1,1.9,0.3,2.6,0.5c0.6,0.2,0.8,0.4,0.8,0.6c0,0.1,0,0.1-0.1,0.4
					c-0.3,0.8-0.4,1.7-0.4,3.9c0,3.1,0.2,5,0.7,6.5c0.4,1.1,0.9,1.8,1.6,1.8c1,0,1.8-1.2,2.7-3.8c0.5,1.2,0.6,1.6,1.3,2.4
					c0.1,0.2,0.2,0.3,0.2,0.5c0,0.4-0.4,1.2-0.8,1.9c-0.9,1.4-2.1,2.1-3.4,2.1c-1.8,0-3.2-1.5-4.1-4.4c-0.6-1.9-0.8-4.3-0.8-7.7V37z
					 M150.2,37.4c0.1,0,0.3,0.1,0.5,0.2c1.2,1.2,2.4,3.1,3.2,4.9c0.5,1.3,1,3,1,3.5c0,0.2-0.1,0.4-0.6,0.6c-0.6,0.3-1.7,0.7-2,0.7
					c-0.2,0-0.3-0.1-0.4-0.6c-0.3-1.8-0.7-3.2-1.5-4.8c-0.7-1.4-0.7-1.5-2.4-3.5C149.1,37.8,149.9,37.4,150.2,37.4z"/>
				<path class="st2" d="M163.9,39.5c-1.5,0.9-2.1,1.2-3.7,2c-0.4-1-0.7-1.5-1.3-2.4c2.2-0.8,4.1-2,5.9-3.3c1.6-1.3,2.7-2.4,3.6-3.9
					h2.8c1,1.5,2,2.5,3.9,3.9c1.8,1.4,3.5,2.3,5.9,3.1c-0.6,1-0.8,1.4-1.2,2.5c-1.6-0.7-2.4-1.1-3.8-2v1.6c-0.6-0.1-1.2-0.1-2.1-0.1
					h-7.9c-0.7,0-1.3,0-2,0.1V39.5z M162.1,53c0.1-0.7,0.1-1.4,0.1-2.4v-5.4c0-1,0-1.6-0.1-2.3c0.6,0,1.1,0.1,2,0.1h11.5
					c0.9,0,1.4,0,2-0.1c-0.1,0.6-0.1,1.2-0.1,2.3v5.4c0,1.1,0,1.7,0.1,2.4h-2.8v-1.2h-10V53H162.1z M164.8,49.6h10v-4.3h-10V49.6z
					 M173.8,38.6c0.3,0,0.4,0,0.8,0c-2.1-1.5-3.3-2.6-4.8-4.5c-1.4,2-2.4,3-4.5,4.5c0.3,0,0.4,0,0.6,0H173.8z"/>
				<path class="st2" d="M189.7,49.1c0-2.6,0-2.6,0-3.7c-1.2,1.3-2,2.4-2.4,3.1c-0.1,0.2-0.3,0.4-0.4,0.4c-0.2,0-0.8-0.5-1.6-1.4
					c-0.3-0.4-0.5-0.6-0.5-0.7c0-0.2,0-0.2,1.2-1.4c1-1,2.4-2.7,3.7-4.4c0-0.1,0-0.7,0-1.7c-1.2,0.2-2.7,0.6-3.1,0.8
					c-0.2,0.1-0.3,0.1-0.4,0.1c-0.4,0-0.7-0.9-1.1-2.8c1.3,0,2.9-0.2,4.6-0.5c0-0.9,0-2.1,0-2.8c0-0.7,0-1.3-0.1-1.8
					c1.5,0.1,2.3,0.2,2.9,0.4c0.4,0.1,0.5,0.2,0.5,0.5c0,0.1,0,0.2-0.1,0.5c-0.2,0.5-0.3,0.6-0.5,2.5c0.6,0.4,1.1,1,1.1,1.3
					c0,0.2,0,0.2-0.7,1.1c-0.1,0.1-0.3,0.4-0.6,0.9c0,0.8,0,0.8,0,0.9c2.4-2,4.3-2.8,6.7-2.8c3.7,0,6.1,2.4,6.1,6.2
					c0,2.9-1.3,5.1-4.1,6.6c-1.1,0.6-2.9,1.2-3.4,1.2c-0.1,0-0.3,0-0.4-0.1c0,0,0,0-0.4-0.5c-0.4-0.6-0.9-1-1.3-1.4
					c4.8-1.3,6.7-3,6.7-5.9c0-2.3-1.4-3.8-3.5-3.8c-1.4,0-2.7,0.5-4.3,1.5c-0.8,0.5-0.8,0.5-2.1,1.7c0,0.2,0,0.2,0,0.5
					c0,2.6,0,2.8,0.1,7.8c0,0.3,0,0.5,0,0.5c0,0.5-0.3,0.6-2.1,0.6c-0.6,0-0.7-0.1-0.7-0.7L189.7,49.1z"/>
				<path class="st2" d="M216,41.6c0,0.3,0,0.3,0,0.6c0,0.1,0,0.6,0,0.9c0,3.5,0,4.3,0.2,4.8c0.3,0.9,1.1,1.2,3.1,1.2
					c2.1,0,4.6-0.2,5.7-0.5c0.2-0.1,0.3-0.1,0.3-0.1c0.1,0,0.3,0.1,0.3,0.2c0.1,0.3,0.3,1.3,0.3,1.9c0,0.5-0.1,0.7-0.4,0.8
					c-0.5,0.1-3.7,0.3-5.4,0.3c-4.3,0-6.1-1.1-6.5-3.8c-0.1-0.7-0.1-1.3-0.1-5.8c-0.1,0-0.2,0-0.3,0.1c-1.7,0.3-2.5,0.5-3.2,0.8
					c-0.2,0.1-0.3,0.1-0.4,0.1c-0.4,0-0.8-1.1-1.1-2.9c0.1,0,0.2,0,0.2,0c0.5,0,0.9,0,4.8-0.5c-0.1-3.8-0.1-4-0.3-5.1
					c1.2,0,2.2,0.2,2.8,0.3c0.4,0.1,0.6,0.3,0.6,0.6c0,0.1,0,0.2-0.1,0.5c-0.2,0.5-0.3,1.5-0.3,3.4c3.1-0.4,3.3-0.4,5.8-0.6
					c0-0.5,0-1,0-1.4c0-2.2-0.1-3.2-0.3-3.9c1.2,0,2.2,0.2,2.8,0.4c0.3,0.1,0.4,0.2,0.4,0.5c0,0.2,0,0.2-0.1,0.5
					c-0.2,0.5-0.2,0.6-0.2,3.5c0,0.2,0,0.2,0,0.3c3.5-0.3,4.1-0.3,4.5-0.3c0.1,0,0.2,0,0.3,0.1c0,0.1,0.1,1.2,0.1,2
					c0,0.3,0,0.4-0.1,0.5c-0.1,0-0.1,0-2.1,0c-0.9,0-1.7,0-2.7,0.1c-0.1,2-0.2,3.3-0.5,4.1c-0.4,1.3-1.3,1.8-3.1,1.8
					c-0.6,0-1.4-0.1-1.6-0.3c-0.2-0.1-0.2-0.2-0.4-1s-0.2-1-0.5-1.6c0.9,0.3,1.5,0.4,2.1,0.4c0.6,0,0.8-0.1,1-0.4
					c0.2-0.3,0.3-0.7,0.4-2.8C219.4,41.1,217.7,41.3,216,41.6z"/>
			</g>
		</g>
		<g>
			<path class="st2" d="M71.8,52.4H50.5c-2,0-3.6-1.6-3.6-3.6V36c0-2,1.6-3.6,3.6-3.6h21.3c2,0,3.6,1.6,3.6,3.6v12.8
				C75.4,50.8,73.8,52.4,71.8,52.4z M50.5,34.4c-0.9,0-1.6,0.7-1.6,1.6v12.8c0,0.9,0.7,1.6,1.6,1.6h21.3c0.9,0,1.6-0.7,1.6-1.6V36
				c0-0.9-0.7-1.6-1.6-1.6H50.5z"/>
			<path class="st2" d="M61.1,45c-0.2,0-0.5-0.1-0.6-0.2L48.4,34.7c-0.4-0.4-0.5-1-0.1-1.4c0.4-0.4,1-0.5,1.4-0.1l11.5,9.5l11.9-9.2
				c0.4-0.3,1.1-0.3,1.4,0.2c0.3,0.4,0.3,1.1-0.2,1.4l-12.6,9.7C61.6,44.9,61.4,45,61.1,45z"/>
		</g>
	</g>
</g>
</svg>
