<?xml version="1.0" encoding="utf-8"?>
<!-- Generator: Adobe Illustrator 28.0.0, SVG Export Plug-In . SVG Version: 6.00 Build 0)  -->
<svg version="1.1" id="レイヤー_1" xmlns="http://www.w3.org/2000/svg" xmlns:xlink="http://www.w3.org/1999/xlink" x="0px"
	 y="0px" viewBox="0 0 40 40" style="enable-background:new 0 0 40 40;" xml:space="preserve">
<style type="text/css">
	.st0{fill:#898989;}
</style>
<path id="パス_207" class="st0" d="M39.2,10.4c-0.5-1.7-1.8-3.1-3.5-3.5C32.5,6,20,6,20,6S7.5,6,4.4,6.8c-1.7,0.5-3.1,1.8-3.5,3.5
	C0,13.5,0,20,0,20s0,6.5,0.8,9.6c0.5,1.7,1.8,3.1,3.5,3.5C7.5,34,20,34,20,34s12.5,0,15.6-0.8c1.7-0.5,3.1-1.8,3.5-3.5
	C40,26.5,40,20,40,20S40,13.5,39.2,10.4z M16,26V14l10.4,6L16,26z"/>
</svg>
