<svg xmlns="http://www.w3.org/2000/svg" width="1366.5" height="122.356" viewBox="0 0 1366.5 122.356">
  <g id="グループ_156" data-name="グループ 156" transform="translate(0 50.8)">
    <path id="パス_22" data-name="パス 22" d="M-3358.529,1236.223v121.656c-113.83,0-113.83-18.111-227.66-18.111s-113.831,18.111-227.662,18.111-113.833-18.111-227.666-18.111-113.832,18.111-227.664,18.111-113.837-18.111-227.674-18.111-113.837,18.111-227.674,18.111V1236.223Z" transform="translate(4724.529 -1287.023)" fill="#f7f8f8"/>
    <path id="パス_15" data-name="パス 15" d="M-3358.529,1357.879c-113.83,0-113.83-18.111-227.66-18.111s-113.831,18.111-227.662,18.111-113.833-18.111-227.666-18.111-113.832,18.111-227.664,18.111-113.837-18.111-227.674-18.111-113.837,18.111-227.674,18.111" transform="translate(4725.029 -1286.824)" fill="none" stroke="#32667a" stroke-miterlimit="10" stroke-width="1"/>
  </g>
</svg>
