<?xml version="1.0" encoding="utf-8"?>
<!-- Generator: Adobe Illustrator 25.4.1, SVG Export Plug-In . SVG Version: 6.00 Build 0)  -->
<svg version="1.1" id="レイヤー_1" xmlns="http://www.w3.org/2000/svg" xmlns:xlink="http://www.w3.org/1999/xlink" x="0px"
	 y="0px" viewBox="0 0 20 20" style="enable-background:new 0 0 20 20;" xml:space="preserve">
<style type="text/css">
	.st0{fill:#32667A;}
</style>
<path class="st0" d="M10,10.5c-2.9,0-5.3-2.4-5.3-5.3S7.1,0,10,0s5.3,2.4,5.3,5.3S12.9,10.5,10,10.5z M10,1.5
	c-2.1,0-3.7,1.7-3.7,3.7S7.9,9,10,9s3.7-1.7,3.7-3.7S12,1.5,10,1.5z"/>
<path class="st0" d="M17.9,20h-1.5c0-3.7-2.9-6.8-6.4-6.8c-3.5,0-6.4,3-6.4,6.8H2.1c0-4.6,3.5-8.3,7.9-8.3
	C14.4,11.7,17.9,15.4,17.9,20z"/>
</svg>
