<svg id="グループ_85" data-name="グループ 85" xmlns="http://www.w3.org/2000/svg" width="130.267" height="32.422" viewBox="0 0 130.267 32.422">
  <path id="パス_380" data-name="パス 380" d="M605.1,418.31a7.568,7.568,0,0,0-1.31-.112c-.786.017-1.571.029-2.357.044-.208,0-.215.006-.284-.2-.04-.12-.07-.244-.1-.369a.082.082,0,0,0-.013-.042c-.055-.288-.095-.581-.171-.863-.051-.185-.08-.375-.131-.56-.063-.236-.118-.472-.179-.708a5.693,5.693,0,0,0-.158-.661,6.146,6.146,0,0,1-.278-.939,3.457,3.457,0,0,0-.133-.512c-.12-.28-.147-.588-.28-.861-.116-.238-.1-.512-.2-.754-.147-.339-.2-.71-.339-1.053-.1-.257-.137-.535-.253-.792a2.392,2.392,0,0,1-.162-.581c-.036-.2-.1-.392-.152-.583-.086-.31-.181-.615-.265-.922s-.162-.615-.244-.925a1.727,1.727,0,0,1-.057-.166,9.4,9.4,0,0,0-.253-1.051c-.053-.177-.131-.352-.169-.529-.074-.354-.223-.682-.3-1.032-.046-.12.03-.276-.107-.369a4.99,4.99,0,0,0-.428-1.1,1.7,1.7,0,0,0-1.392-.878.7.7,0,0,0-.3.032,3.918,3.918,0,0,0-1.419.857c-.43.406-.878.788-1.272,1.228a.683.683,0,0,0-.147.154c-.39.444-.781.887-1.154,1.344-.333.406-.626.838-.939,1.257-.228.3-.415.636-.615.958a12.887,12.887,0,0,0-1,2.093c-.143.368-.2.769-.333,1.135a8.426,8.426,0,0,0-.259,1.1,3.143,3.143,0,0,0-.141.9c0,.021-.023.042-.034.065a.316.316,0,0,0-.093.112.326.326,0,0,0-.019.074c-.021.154.049.314-.025.459a1.238,1.238,0,0,0-.093.32,2.582,2.582,0,0,1-.04.674,1.981,1.981,0,0,0-.061.577,4.974,4.974,0,0,1-.034.986,2.638,2.638,0,0,0-.017.465c-.038.5.021,1,0,1.506,0,.177,0,.352,0,.527,0,.044,0,.086,0,.131s.008.084.017.126a.609.609,0,0,0,.023.082,11.849,11.849,0,0,0,.055,1.47c0,.055,0,.112,0,.169,0,.084,0,.168.009.253a.459.459,0,0,0,.017.08,8.139,8.139,0,0,0,.082.821.37.37,0,0,0,.017.082,6.257,6.257,0,0,1,.044.655.355.355,0,0,0,.034.078c.036.038.07.093.112.072l0,.013a2.077,2.077,0,0,0,.072.944c.08.531.16,1.063.238,1.594.044.307.095.617.162.918s.1.63.152.943c.076.448.187.889.27,1.333.044.232.095.461.141.691.061.152-.034.322.057.47l0,0c.015.038.009.082.042.112a10.906,10.906,0,0,1,.236,1.133c.084.377.162.756.272,1.127a1.248,1.248,0,0,1,.049.143,6.387,6.387,0,0,0,.4,1.3,1.365,1.365,0,0,0,.7.7.368.368,0,0,0,.484-.063,2.026,2.026,0,0,0,.177-.181.308.308,0,0,0-.1-.533.391.391,0,0,1-.2-.179,4.2,4.2,0,0,1-.261-.735,8.077,8.077,0,0,0-.257-1.023.784.784,0,0,1-.049-.171c-.036-.276-.135-.537-.164-.817-.036-.318-.129-.63-.175-.946-.07-.468-.192-.924-.272-1.388a6.659,6.659,0,0,1-.164-.868,3.293,3.293,0,0,0-.147-.874,3.708,3.708,0,0,1-.139-.642c-.042-.343-.114-.682-.156-1.026-.023-.2-.053-.4-.063-.6a.473.473,0,0,0-.029-.2.926.926,0,0,1-.065-.592.671.671,0,0,1,0-.268c0-.149.036-.318-.135-.415l0,0h.006a.687.687,0,0,0,.027-.539c-.055-.255-.089-.514-.122-.771a.752.752,0,0,0-.021-.181,11.149,11.149,0,0,0-.1-1.268,15.759,15.759,0,0,1-.05-1.944c0-.714,0-1.432.023-2.148a1,1,0,0,1,.032-.326,1.491,1.491,0,0,0,.051-.375,19.328,19.328,0,0,1,.432-3.047c.078-.381.2-.748.263-1.131.019-.048.034-.1.051-.147a.438.438,0,0,0,.019-.072.649.649,0,0,1,.053-.209,12.723,12.723,0,0,1,1.5-2.959,23.815,23.815,0,0,1,1.466-1.881,18.471,18.471,0,0,1,1.748-1.769,4.909,4.909,0,0,1,.743-.571c.293-.177.474-.12.6.192a10.472,10.472,0,0,1,.423,1.222c.183.642.343,1.291.541,1.929.042.135.063.274.1.411.065.244.128.486.194.731.166.609.331,1.217.5,1.826.145.537.293,1.072.461,1.6a.7.7,0,0,1,.068.236.672.672,0,0,0,.021.067l.025.061.025.063.013.032a3.829,3.829,0,0,1,.164.526l.025.065c.025.173.11.328.139.5a.374.374,0,0,0,.025.067,1.338,1.338,0,0,1,.072.27c.023.067.042.156.135.124l0,.015a.239.239,0,0,0,.01.076l.089.291c.015.055.03.112.046.164.059.194.076.4.147.585.011.053.023.105.034.156a.4.4,0,0,0,.032.076.407.407,0,0,1,.048.088l.053.215a1.5,1.5,0,0,0,.048.255c.036.11.067.219.1.331l.017.061c.072.274.135.548.2.823l.011.07c.059.131-.019.295.1.413l.027.076c.089.373.171.745.268,1.116.072.278.027.371-.261.358-.215-.008-.43.008-.644.021-.145,0-.293,0-.438,0-.07,0-.137-.008-.206-.017a1.326,1.326,0,0,0-.354.006l-.179.019c-.339.006-.676.019-1.013.053-.2.019-.4.046-.594.074-.356.019-.712.034-1.068.048-.558.1-1.127.145-1.68.268a4.2,4.2,0,0,0-.426.107,4.9,4.9,0,0,0-.489.1,1.734,1.734,0,0,1-.291.057c-.057.017-.116.034-.175.048a.743.743,0,0,0-.072.021,1.884,1.884,0,0,0-.495.08,4.522,4.522,0,0,1-1.177.131.815.815,0,0,0-.828.863c.023.307.24.436.5.5a4.183,4.183,0,0,0,1.733-.084c.421-.07.836-.185,1.251-.284.213-.051.459-.051.617-.246l0-.006a.2.2,0,0,0,.171.038c.1-.032.211-.032.314-.055.063-.019.126-.034.187-.053a4.174,4.174,0,0,0,.537-.078.52.52,0,0,0,.076-.021,2.682,2.682,0,0,0,.465-.1c.162-.061.335,0,.5-.055a2.354,2.354,0,0,1,.7-.076,2.373,2.373,0,0,0,.72-.067c.051-.011.1-.025.15-.032.491-.078.99-.046,1.487-.093a3.555,3.555,0,0,1,1.108.025.394.394,0,0,1,.137.261c.074.253.1.514.162.769.065.236-.011.489.091.72.034.409.095.813.139,1.219.046.432.093.863.16,1.293.074.261.055.535.116.8a3.259,3.259,0,0,1,.044.6.442.442,0,0,0,.017.078c.027.07.034.147.1.2.048.305.12.611.145.92s.015.625.053.937a2.936,2.936,0,0,1,.011.609,7.319,7.319,0,0,0-.05.91c.042.638-.11,1.261-.112,1.9a.268.268,0,0,1-.021.124,2.29,2.29,0,0,0-.158.609,6.492,6.492,0,0,1-.39,1.146.762.762,0,0,0,.048.628.064.064,0,0,0,.1.034c.206-.187.495-.278.646-.522q.322-.515.619-1.047a5.437,5.437,0,0,0,.314-.853c.047-.114.034-.253.143-.341a.289.289,0,0,0,.023-.076,1.663,1.663,0,0,1,.1-.68c.057-.289-.021-.585.052-.872a.619.619,0,0,0,.015-.088,1.632,1.632,0,0,0,.051-.35c0-.573.006-1.144,0-1.716a.577.577,0,0,0-.017-.086c-.046-.1-.019-.223-.08-.32a.142.142,0,0,1-.046-.07,8.508,8.508,0,0,0-.12-1.567c-.011-.114.021-.238-.063-.339-.093-.135-.044-.293-.072-.44a12.016,12.016,0,0,1-.194-1.451.613.613,0,0,0-.021-.152,9.067,9.067,0,0,1-.187-1.35c-.042-.333-.118-.663-.129-1a.115.115,0,0,0-.042-.088c-.006-.04-.015-.082-.021-.124-.038-.324-.015-.356.314-.4l.076-.008c.434-.038.868-.059,1.3-.107.505-.055.988-.194,1.485-.261a.345.345,0,0,0,.2-.093.1.1,0,0,0,.1-.057l-.01-.013h0l.01.013c.072-.023.154-.029.2-.105l-.008-.008h0l.006.008a.055.055,0,0,0,.055-.048l-.013-.006,0,0h0l.008.008a.055.055,0,0,0,.051-.053C605.313,418.424,605.281,418.34,605.1,418.31Z" transform="translate(-529.935 -401.683)" fill="#32667a"/>
  <path id="パス_381" data-name="パス 381" d="M624.177,418.92c.013-.421-.076-.838-.046-1.261a.279.279,0,0,0-.082-.206,4.591,4.591,0,0,1-.126-.636,3.562,3.562,0,0,0-.329-.891c-.122-.211-.267-.409-.4-.613a2.46,2.46,0,0,0-.71-.712,4.7,4.7,0,0,0-1.177-.554,2.626,2.626,0,0,0-.817-.173c-.217-.013-.453-.082-.657.072a2.464,2.464,0,0,0-.79.305,8,8,0,0,0-1.485,1.287.216.216,0,0,0-.029.067h0a2.639,2.639,0,0,0-.356.463,4.992,4.992,0,0,0-.558.811.055.055,0,0,0-.042.059.1.1,0,0,0-.059.1,2.634,2.634,0,0,0-.466.792.1.1,0,0,1-.118.072c-.067-.008-.067-.063-.072-.114a.82.82,0,0,1,0-.1,9.708,9.708,0,0,0-.156-1.478,2.952,2.952,0,0,0-.088-.615h0a2.3,2.3,0,0,0-.059-.623,2.879,2.879,0,0,0-.1-.722.057.057,0,0,1,0-.074c-.059-.242.034-.508-.108-.737l0,.006c-.063-.255.051-.531-.1-.773a.621.621,0,0,1-.044-.291,1.557,1.557,0,0,0-.057-.461.5.5,0,0,1-.023-.223c-.03-.371-.107-.735-.137-1.106a.708.708,0,0,1-.091-.388c0-.4-.143-.781-.124-1.181a.128.128,0,0,0-.01-.048,6.174,6.174,0,0,1-.167-1.221,12.688,12.688,0,0,1-.013-1.5.93.93,0,0,1,.061-.421.2.2,0,0,0-.023-.215,1.928,1.928,0,0,0-.181-.244c-.263-.257-.609-.276-.783.093a4.289,4.289,0,0,0-.177.493c-.07.057,0,.15-.055.211a.028.028,0,0,1,0,.04c-.065.223.015.455-.044.678.034.807.08,1.615.16,2.42a.381.381,0,0,1,.086.282,2.668,2.668,0,0,0,.042.505,11.183,11.183,0,0,1,.152,1.15c.053.381.1.769.147,1.152.105.853.244,1.7.324,2.561a.3.3,0,0,0,.013.074c.126.364.044.756.145,1.123a8.952,8.952,0,0,0,.067.95c-.053.878.166,1.746.107,2.624a.824.824,0,0,0,.011.1,40.716,40.716,0,0,1-.137,4.441,11.416,11.416,0,0,0,.053,3.02.128.128,0,0,0,.145.078c.183.259.451.185.693.154.185-.023.282-.2.411-.322.093-.086.057-.206.057-.314,0-.583,0-1.167,0-1.752a3.872,3.872,0,0,1,.025-.733,4.272,4.272,0,0,0,.055-.655,2.586,2.586,0,0,1,.055-.7c.107-.326.082-.665.162-.994a3.8,3.8,0,0,0,.12-.617,3.6,3.6,0,0,1,.147-.691c.135-.468.282-.935.415-1.4a4.635,4.635,0,0,1,.383-.933c.128-.246.27-.484.383-.737a.263.263,0,0,0,.105-.158.1.1,0,0,0,.048-.105.123.123,0,0,0,.061-.1.362.362,0,0,0,.095-.154.061.061,0,0,0,.046-.057,2.52,2.52,0,0,0,.362-.552.063.063,0,0,0,.046-.057,2.1,2.1,0,0,0,.364-.4.066.066,0,0,0,.049-.055.057.057,0,0,0,.046-.057.211.211,0,0,0,.1-.1.471.471,0,0,0,.2-.158.06.06,0,0,0,.061-.04.108.108,0,0,0,.093-.061.061.061,0,0,0,.061-.042l.242-.162a.264.264,0,0,0,.16-.093.934.934,0,0,0,.3-.118.889.889,0,0,1,.613-.027,4.534,4.534,0,0,1,.7.248h0v0l.206.095a.274.274,0,0,0,.152.1.059.059,0,0,0,.055.046.057.057,0,0,0,.053.051h0l-.051-.049h0v0h0l-.05-.044h0v0a.123.123,0,0,1,.053.046.167.167,0,0,1,.051.051l.008,0c-.04.109.048.168.109.225a1.708,1.708,0,0,1,.4.579c.032.057.063.114.091.173l.029.055.04.08.021.055c.015.046.019.1.03.145l.017.059a1.5,1.5,0,0,1,.023.2.374.374,0,0,0,.017.065,1.116,1.116,0,0,1,.042.19c0,.021.011.042.017.063.023.105.011.215.032.32.006.025.013.051.021.076a5.2,5.2,0,0,1,.055,1.116v1.571a9.646,9.646,0,0,1-.086,1.329c-.1.4-.076.823-.15,1.226a19.175,19.175,0,0,0-.324,2.371,2.567,2.567,0,0,0,.194.933.214.214,0,0,0,.187.152.537.537,0,0,0,.455.006.686.686,0,0,0,.518-.543,5.892,5.892,0,0,1,.2-1.085,1.583,1.583,0,0,1,.088-.562c.048-.156-.009-.324.055-.48.017-.051.038-.1.053-.154a8.349,8.349,0,0,1,.059-.859.279.279,0,0,0,.015-.082,1.694,1.694,0,0,1,.042-.573,2.083,2.083,0,0,1,.059-.3,20.892,20.892,0,0,1,.1-2.116C624.244,419.606,624.166,419.267,624.177,418.92Zm-4.9-3.3.019-.023-.019.023Zm-2.66,1.261h0l-.011.023Zm.558-.817c.011.019.017.038.025.057a.084.084,0,0,1-.025-.057Zm-.878,3.022-.021.059A.1.1,0,0,1,616.3,419.088Zm-.689-1.689-.019-.006.015-.013Zm2.2-.091h0l-.013,0Zm1.314-1.584.021-.027a.072.072,0,0,0-.021.027Zm-2.533,1.2-.017.013h0Zm2.135-.836h0a.053.053,0,0,1,.048-.055.075.075,0,0,1,.013-.029l-.013.029h0v0A.058.058,0,0,0,618.724,416.089Zm.07-.093.025-.017h0Zm.354-.3a.038.038,0,0,1,.034-.01l.006-.015-.006.015h0A.062.062,0,0,0,619.148,415.693Zm.154-.1a.053.053,0,0,1,.034-.011h0A.151.151,0,0,0,619.3,415.59Z" transform="translate(-501.17 -397.927)" fill="#32667a"/>
  <path id="パス_382" data-name="パス 382" d="M622.12,408.642a.233.233,0,0,0,.143-.244.806.806,0,0,0-.326-.552,1.665,1.665,0,0,1-.368-.339,1.83,1.83,0,0,0-.781-.617c-.31-.095-.5-.08-.6.211-.015.04-.048.074-.059.114a.776.776,0,0,0,.057.649,2.2,2.2,0,0,0,.659.619,1.125,1.125,0,0,0,.781.276A.683.683,0,0,0,622.12,408.642Z" transform="translate(-493.745 -396.1)" fill="#32667a"/>
  <path id="パス_383" data-name="パス 383" d="M623.14,419.28c-.042-.411-.065-.823-.139-1.23a7.057,7.057,0,0,1-.183-1.276.534.534,0,0,0-.036-.2,3.722,3.722,0,0,1-.156-.817c-.05-.312-.032-.638-.1-.952a3.49,3.49,0,0,0-.1-.887.07.07,0,0,1,0-.078c-.059-.276.04-.571-.1-.834v0a3.744,3.744,0,0,0-.1-1.026,1.461,1.461,0,0,0-.238-.731.842.842,0,0,0-.491-.329.376.376,0,0,0-.495.238.813.813,0,0,0-.1.6c.059.227,0,.472.061.7a1.972,1.972,0,0,1,.048.628c.061.238.057.482.1.722.042.2.008.406.063.6a8.859,8.859,0,0,1,.162,1.179c.067.5.143,1,.253,1.493.1.461.137.933.268,1.392a11.11,11.11,0,0,1,.257,1.129.334.334,0,0,0,.486.251,2.346,2.346,0,0,0,.371-.219A.371.371,0,0,0,623.14,419.28Z" transform="translate(-492.876 -391.6)" fill="#32667a"/>
  <path id="パス_384" data-name="パス 384" d="M616.98,419.542a.6.6,0,0,0-.438.059c-.331.217-.661.436-1.011.623a3.408,3.408,0,0,1-.733.267.906.906,0,0,1-.735-.1c-.337-.211-.741-.274-1.084-.474a12.7,12.7,0,0,1-1.887-1.226,5.085,5.085,0,0,1-1.181-1.373c-.019-.036-.013-.084-.05-.111-.021-.032-.013-.08-.055-.1l0,0c-.034-.048,0-.118-.051-.16l0,0c-.038-.046,0-.116-.05-.156a5.319,5.319,0,0,1-.04-.8,12.157,12.157,0,0,1,.24-1.262,2.224,2.224,0,0,1,.15-.373c.248-.411.493-.826.76-1.226a4.778,4.778,0,0,1,.5-.489,10.909,10.909,0,0,1,1.98-1.649,1.9,1.9,0,0,1,1.108-.379.472.472,0,0,1,.43.213,2.116,2.116,0,0,1,.259.493c.057.183.12.366.192.545.181.459.417.4.748.331a.631.631,0,0,0,.116-.053.48.48,0,0,0,.322-.554,2.171,2.171,0,0,0-.156-.526c-.089-.192-.171-.385-.244-.581-.032-.027-.021-.076-.055-.1a.2.2,0,0,0-.1-.1c-.023-.025-.057-.044-.065-.074a1.017,1.017,0,0,0-.535-.581,2.136,2.136,0,0,0-1.034-.276,3.446,3.446,0,0,0-.695.122,3.517,3.517,0,0,0-1.034.455c-.341.219-.659.468-.977.716-.289.223-.556.47-.83.71-.331.291-.583.657-.9.958a2.513,2.513,0,0,0-.438.587,9.85,9.85,0,0,0-.84,1.611,3.5,3.5,0,0,0-.244.971c-.023.381,0,.762-.013,1.144a2.569,2.569,0,0,0,.185.935,5.189,5.189,0,0,0,1.127,1.729,5.444,5.444,0,0,0,.948.8,11.674,11.674,0,0,0,1.75,1.019,7.241,7.241,0,0,1,1.011.453,2.881,2.881,0,0,0,.718.2,8.056,8.056,0,0,0,.9.006.943.943,0,0,1,.305-.116,1.093,1.093,0,0,0,.333-.105,5.77,5.77,0,0,0,1.034-.634,2.2,2.2,0,0,0,.436-.491.148.148,0,0,0,.036-.141.431.431,0,0,1,.063-.339A.319.319,0,0,0,616.98,419.542Z" transform="translate(-506.775 -393.309)" fill="#32667a"/>
  <path id="パス_385" data-name="パス 385" d="M617.357,410.165l0,0h0Z" transform="translate(-496.766 -392.42)" fill="#32667a"/>
  <path id="パス_386" data-name="パス 386" d="M579.244,409.649l.015-.063a.274.274,0,0,1,.072-.173.475.475,0,0,0,.135-.261l.017-.1a1.015,1.015,0,0,0,.063-.2l.025-.091a1.191,1.191,0,0,0,.051-.118.3.3,0,0,1,.048-.1l.021-.04a.3.3,0,0,0,.021-.1.749.749,0,0,1,.04-.164l.025-.082a.232.232,0,0,0,.032-.08.144.144,0,0,0,.042-.091l.008-.01a.253.253,0,0,0,.03-.28l0-.152c.009-.13.021-.259.034-.388a3.677,3.677,0,0,0-.04-1.337l-.057-.088a.676.676,0,0,1-.048-.067,1.365,1.365,0,0,0-.665-.594.455.455,0,0,0-.615,0c-.333.234-.712.5-.613,1.061l.015.046a.707.707,0,0,0,.636.415h0a.1.1,0,0,1,.105.105l0,.1a.873.873,0,0,1-.048.457,1.138,1.138,0,0,0-.141.693.281.281,0,0,1-.036.122l-.017.038,0,0a.565.565,0,0,0-.084.259.376.376,0,0,1-.034.131c-.013.032-.027.061-.042.093a1.318,1.318,0,0,0-.091.227,8.768,8.768,0,0,1-.594,1.474l-.019.042c-.307.644-.666,1.306-1.16,2.148-.392.665-.809,1.3-1.2,1.9-.122.183-.253.364-.381.543s-.265.368-.39.558c-.208.318-.432.636-.661.946a19.228,19.228,0,0,1-1.367,1.678,6.725,6.725,0,0,1-1.184,1.057,3.664,3.664,0,0,1-1.988.72,3.025,3.025,0,0,1-1.48-.276,3.9,3.9,0,0,1-.562-.358c-.109-.08-.219-.158-.333-.232a1.406,1.406,0,0,1-.206-.173,2.068,2.068,0,0,1-.693-.695c-.04-.04-.082-.08-.12-.122-.067-.074-.139-.143-.211-.215a3.789,3.789,0,0,1-.322-.348,15.162,15.162,0,0,1-1.535-2.411c-.05-.1-.1-.2-.154-.3a7.148,7.148,0,0,1-.421-.929.27.27,0,0,0-.017-.105l.023-.04-.057-.059a.236.236,0,0,0-.076-.175,7.1,7.1,0,0,1-.379-.895c-.156-.419-.282-.853-.406-1.276l-.12-.4a.54.54,0,0,0-.034-.088.336.336,0,0,1-.029-.091,1.926,1.926,0,0,0-.095-.5,1.993,1.993,0,0,1-.076-.3c-.017-.109-.04-.217-.063-.326a2.953,2.953,0,0,1-.078-.453l-.019-.063a.278.278,0,0,1-.021-.107c0-.036-.006-.07-.01-.1l-.019-.057a.319.319,0,0,0-.034-.088.327.327,0,0,1,0-.175l.021-.061-.034-.053a.139.139,0,0,1,0-.053.331.331,0,0,0-.057-.23l0,0a.424.424,0,0,0-.042-.118.771.771,0,0,1-.008-.2,1.383,1.383,0,0,0,0-.208l-.021-.055a.2.2,0,0,1-.025-.139c0-.038,0-.076,0-.109a.23.23,0,0,0-.034-.124.318.318,0,0,1,0-.141l0-.025,0-.023a11.723,11.723,0,0,1,0-3.313l.006-.044,0-.006.021-.038.032-.042a.288.288,0,0,0,.029-.133.18.18,0,0,1,.013-.072l.006-.038c.008-.038.019-.076.027-.114a1.07,1.07,0,0,0,.05-.449,1.639,1.639,0,0,1,.008-.43l.013-.118a.273.273,0,0,0-.015-.3.246.246,0,0,0-.093-.105l-.051-.021a.551.551,0,0,0-.621.354,6.9,6.9,0,0,0-.354.762c-.044.105-.088.211-.135.314a.489.489,0,0,0-.1.36.407.407,0,0,1-.006.126.312.312,0,0,0-.051.084.833.833,0,0,0-.046.371.785.785,0,0,1,0,.187.3.3,0,0,0-.044.2.268.268,0,0,0-.051.187l0,2.491a.633.633,0,0,0,.11.362l0,0a.394.394,0,0,1,.017.183c0,.036,0,.072,0,.107v.078a1.054,1.054,0,0,0,.063.421l.034.044a.13.13,0,0,1,0,.048,2.1,2.1,0,0,0,.08.75,3.532,3.532,0,0,1,.072.36c.01.086.029.175.048.263a2.058,2.058,0,0,1,.055.318,2.259,2.259,0,0,0,.105.516,1.662,1.662,0,0,1,.1.558.165.165,0,0,0,.021.082c.042.16.095.318.145.476a4.51,4.51,0,0,1,.2.769l.021.055a.187.187,0,0,1,.011.069.419.419,0,0,0,.029.156l.244.6q.186.461.375.918c.027.065.061.124.093.185a1.276,1.276,0,0,1,.105.234,6.28,6.28,0,0,0,.48,1.116l.112.219a12.037,12.037,0,0,0,.851,1.4,15.309,15.309,0,0,0,1.55,1.9,8.29,8.29,0,0,0,1.371,1.093,5.5,5.5,0,0,0,.6.335c.118.059.238.118.354.183a.2.2,0,0,0,.116.065.238.238,0,0,0,.179.055l.038.008a.259.259,0,0,0,.116.046l.474.1-.067-.046a4.094,4.094,0,0,0,.788.076,4.963,4.963,0,0,0,1.24-.169l.474-.164a6.27,6.27,0,0,0,2.169-1.381,5.01,5.01,0,0,0,.562-.623c.122-.152.246-.31.383-.451a5.018,5.018,0,0,0,.385-.47l.1-.133c.063-.082.124-.164.185-.248.1-.133.194-.265.3-.39a4.3,4.3,0,0,0,.358-.486,3.79,3.79,0,0,1,.411-.537.46.46,0,0,0,.091-.152,3.058,3.058,0,0,1,.31-.489l.059-.084c.55-.771,1.032-1.6,1.5-2.4l.217-.371c.021-.034.044-.067.065-.1a.987.987,0,0,0,.145-.274,18.137,18.137,0,0,0,1.272-2.649A.162.162,0,0,0,579.244,409.649Z" transform="translate(-560.095 -401.739)" fill="#32667a"/>
  <path id="パス_387" data-name="パス 387" d="M579.288,417.318c-.076-.044-.156-.086-.236-.126l-.072-.036a.345.345,0,0,0-.151-.1l-.044-.019a5.54,5.54,0,0,1-.569-.743,3.325,3.325,0,0,1-.179-.331,2.856,2.856,0,0,0-.244-.432.7.7,0,0,0-.12-.259l-.034-.044v0a1.753,1.753,0,0,0-.2-.43c-.031-.053-.063-.105-.095-.162a9.516,9.516,0,0,1-.47-1.087c-.082-.208-.162-.417-.25-.623a4.777,4.777,0,0,1-.322-1.154.878.878,0,0,0-.487-.718.5.5,0,0,1-.1-.072.476.476,0,0,0-.775.1,1.013,1.013,0,0,0-.137.914,6,6,0,0,1,.158.8,2.545,2.545,0,0,1-.061.832c-.021.122-.044.242-.059.36a3.9,3.9,0,0,1-.2.893c-.053.133-.095.27-.137.406a4.378,4.378,0,0,1-.206.558,14.908,14.908,0,0,1-.935,1.689l-.482.743a3.8,3.8,0,0,1-.96,1.125c-.24.164-.305.169-.51.048a1.746,1.746,0,0,1-.5-.868l-.017-.032-.017-.034c-.114-.366-.242-.8-.333-1.228-.055-.278-.095-.564-.135-.842l-.044-.32c-.006-.04-.013-.082-.017-.122a2.169,2.169,0,0,0-.036-.236l-.015-.038a.167.167,0,0,1,0-.084.557.557,0,0,0-.009-.141l0-.044a.3.3,0,0,0-.044-.236V415.2a11.252,11.252,0,0,1-.032-1.333q.006-.212,0-.423a4.73,4.73,0,0,1,.044-.9.3.3,0,0,0,.034-.177.233.233,0,0,0,.049-.105.249.249,0,0,0,.053-.15l.154-.459a.857.857,0,0,1,.057-.089.946.946,0,0,0,.072-.107.666.666,0,0,0-.029-.779l-.032-.042-.051-.011a.749.749,0,0,0-.607.061,1.69,1.69,0,0,0-.762.878,3.759,3.759,0,0,0-.379,1.565.581.581,0,0,1-.019.137,3.614,3.614,0,0,0-.065,1.059c.006.145.011.291.011.438l0,.034.015.032a.921.921,0,0,1,.063.447,2.393,2.393,0,0,0,.008.276q.019.2.044.4l.01.04a.391.391,0,0,1,.011.162.668.668,0,0,0,.015.238l-.03.027.063.091a.246.246,0,0,0,.053.164.5.5,0,0,0,.021.072,3.585,3.585,0,0,0,.086.609c.027.131.055.261.07.394a2.461,2.461,0,0,0,.133.626c.063.158.116.318.171.478.061.183.122.366.2.545a6.262,6.262,0,0,0,.489.906.8.8,0,0,0,.295.27c.063.036.126.07.19.1.1.053.2.1.293.162a.689.689,0,0,0,.362.107.577.577,0,0,0,.2-.034,1.5,1.5,0,0,1,.322-.07,1.628,1.628,0,0,0,.428-.1,1.655,1.655,0,0,0,.265-.135,3.892,3.892,0,0,0,1.1-1.182l.059-.093a3.688,3.688,0,0,0,.406-.752.634.634,0,0,1,.08-.145l.032-.051c.425-.695.779-1.392,1.211-2.262a1.43,1.43,0,0,1,.173-.421.457.457,0,0,0,.08-.24.777.777,0,0,1,.061-.251.93.93,0,0,0,.069-.3,4.144,4.144,0,0,1,.327.621,6.419,6.419,0,0,0,.48.842c.093.15.188.3.276.449a3.308,3.308,0,0,0,.67.842,2.443,2.443,0,0,0,.3.227c.084.059.166.116.246.181l.027.019a1.024,1.024,0,0,0,.935.008.551.551,0,0,1,.08-.036.67.67,0,0,0,.238-.141.392.392,0,0,0,.137-.333A.385.385,0,0,0,579.288,417.318Z" transform="translate(-550.563 -391.949)" fill="#32667a"/>
  <path id="パス_388" data-name="パス 388" d="M582.668,410.833a.66.66,0,0,0,.208-.169l.072-.074.006-.046c.006-.051.015-.1.023-.15a1.721,1.721,0,0,0,.017-.668,3.145,3.145,0,0,0-.505-1.116.763.763,0,0,0-.6-.289.407.407,0,0,0-.387.244l-.032.048a1.116,1.116,0,0,1-.067.1.526.526,0,0,0-.067.516c.011.027.023.053.036.08a.275.275,0,0,1,.027.065,3.379,3.379,0,0,0,.617,1.293.492.492,0,0,0,.406.225A.594.594,0,0,0,582.668,410.833Z" transform="translate(-536.649 -394.459)" fill="#32667a"/>
  <path id="パス_389" data-name="パス 389" d="M583.434,417.08a.635.635,0,0,1-.017-.286l.006-.025,0-.025a2.066,2.066,0,0,1-.019-.4,1.647,1.647,0,0,0-.074-.64l-.008-.173c-.008-.171-.017-.339-.021-.51-.008-.592-.017-1.184-.017-1.773a.633.633,0,0,0-.114-.394.621.621,0,0,0-.236-.293c-.023-.021-.049-.04-.072-.061a.61.61,0,0,0-.541-.141.547.547,0,0,0-.411.3,1.327,1.327,0,0,0-.162.613c.013.295.01.588.01.885a11.766,11.766,0,0,0,.082,1.718.324.324,0,0,1,.011.133.843.843,0,0,0,0,.126,1.413,1.413,0,0,1,0,.19.958.958,0,0,0,.05.434.23.23,0,0,0,.038.1,5.014,5.014,0,0,0,.345,1.438l-.162-.08.291.436.154.333v-.1l.107.162v-.095c.025.015.046.042.074.048a.441.441,0,0,0,.053,0,.39.39,0,0,0,.253-.112.69.69,0,0,0,.27-.385.422.422,0,0,0,.08-.286.357.357,0,0,1,.008-.1A1.485,1.485,0,0,0,583.434,417.08Z" transform="translate(-536.151 -390.005)" fill="#32667a"/>
  <path id="パス_390" data-name="パス 390" d="M584.845,414.36c0-.215,0-.428,0-.64l0-.215a6.727,6.727,0,0,0-.1-1.636l-.042-.082a.29.29,0,0,1-.029-.048,1.212,1.212,0,0,0-1.276-.729,2.64,2.64,0,0,0-1.194.516,3.013,3.013,0,0,0-1,1.348,1.961,1.961,0,0,1-.152.335h0a7.556,7.556,0,0,0-.922-1.453l.036.013-.065-.05-.065-.084a.879.879,0,0,0-.419-.316.245.245,0,0,0-.118-.049l-.049.076.027-.084a1.05,1.05,0,0,0-.634,0l-.051.027a1.127,1.127,0,0,1-.143.105,1.176,1.176,0,0,0-.286.253l-.1.133a5.121,5.121,0,0,0-.461.7,6.636,6.636,0,0,0-.537,1.394c-.019.082-.044.164-.065.244a3.781,3.781,0,0,0-.12.543l-.023-.07c-.046-.131-.091-.261-.141-.392a8.9,8.9,0,0,1-.282-.882c-.042-.145-.084-.291-.129-.434a1.349,1.349,0,0,0-.448-.655.56.56,0,0,0-.442-.166.622.622,0,0,0-.415.295l-.05.067a.714.714,0,0,0-.055.585,1.082,1.082,0,0,1,.034.2l.017.067a.508.508,0,0,1,.044.185,1.638,1.638,0,0,0,.032.177c.124.436.261.861.39,1.255.042.129.082.257.124.387.067.217.135.434.211.647a10,10,0,0,1,.28,1l.082.324a1.09,1.09,0,0,1,.017.211.847.847,0,0,0,.084.423c.01.057.015.118.021.177a1.39,1.39,0,0,0,.089.44l0,.008a.658.658,0,0,1,0,.116.644.644,0,0,0,0,.156c.015.116.021.234.027.352a3.074,3.074,0,0,0,.053.512l.046.086c.023.032.044.063.067.093.19.242.291.269.569.152.116-.048.234-.1.35-.149a.308.308,0,0,0,.19-.19,1.017,1.017,0,0,1,.055-.147.933.933,0,0,0,.095-.345l0-.149a3.371,3.371,0,0,0-.05-.872,4.694,4.694,0,0,1-.065-1.194l0-.238a.469.469,0,0,1,.021-.147,1.466,1.466,0,0,0,.074-.687l0-.044c0-.072,0-.105.015-.131a.546.546,0,0,0,.089-.442.937.937,0,0,1,.038-.5,4.462,4.462,0,0,0,.221-.642,4.914,4.914,0,0,1,.177-.531c.034-.08.063-.16.1-.242a1.647,1.647,0,0,1,.417-.718c.08-.07.107-.08.1-.084a.382.382,0,0,1,.076.086,2.246,2.246,0,0,1,.305.644,1.316,1.316,0,0,0,.223.453.5.5,0,0,1,.076.116,4.858,4.858,0,0,1,.307,1.46,16.966,16.966,0,0,1,.01,2.041c-.008.259-.017.518-.021.779,0,.139-.017.278-.032.417-.006.078-.015.154-.019.23-.023.291.2.419.354.512a.466.466,0,0,0,.5-.032,1.173,1.173,0,0,0,.482-.556.437.437,0,0,0,.07-.331c0-.027,0-.053,0-.078.063-1.087.042-2.188.021-3.254a2.611,2.611,0,0,0-.048-.413,1.442,1.442,0,0,1-.021-.6,1.106,1.106,0,0,1,.259-.417l.055-.063a5.358,5.358,0,0,0,.432-.539,2.06,2.06,0,0,1,.406-.457,1.038,1.038,0,0,1,.708-.288c.048,0,.059.011.061.021.013.051.025.1.04.147a1.152,1.152,0,0,1,.057.316c0,.12,0,.24,0,.358s0,.236,0,.354l0,.341c-.006.825-.013,1.678-.074,2.517a12.1,12.1,0,0,0,.055,2.592,5.264,5.264,0,0,0,.12.567l.027.111a1.8,1.8,0,0,0,.318.607.415.415,0,0,0,.339.213.575.575,0,0,0,.284-.093.973.973,0,0,0,.293-.288l.021-.048a2.638,2.638,0,0,0,.036-.748c-.027-.385-.042-.773-.057-1.158a23.028,23.028,0,0,1,.034-2.369C584.845,415.238,584.845,414.792,584.845,414.36Z" transform="translate(-543.55 -391.503)" fill="#32667a"/>
  <path id="パス_391" data-name="パス 391" d="M567.547,422.126l-.027-.048v0a6.5,6.5,0,0,0-.5-.7.26.26,0,0,0-.067-.124.436.436,0,0,0-.1-.16c-.059-.118-.128-.232-.2-.345a3.023,3.023,0,0,1-.2-.369q-.047-.1-.089-.208a3.142,3.142,0,0,0-.219-.472c-.051-.177-.1-.354-.154-.531l-.013-.036-.008-.008v0a.241.241,0,0,0-.055-.2.255.255,0,0,0-.044-.122.167.167,0,0,1,0-.067.371.371,0,0,0-.046-.242l-.021-.065a.82.82,0,0,0-.07-.171c-.01-.027-.021-.055-.034-.082a.277.277,0,0,1-.032-.1,2.819,2.819,0,0,0-.118-.868,2.856,2.856,0,0,1-.116-.686l-.021-.049.034-.055-.019-.063a2.912,2.912,0,0,1-.082-.484l0-.04-.023-.063c-.015-.019-.013-.049-.01-.107a.579.579,0,0,0,0-.086,6.751,6.751,0,0,0-.076-.889c0-.116-.008-.232-.013-.35a9.556,9.556,0,0,1,0-1.127.844.844,0,0,0,.034-.242c.006-.114.011-.179.061-.232l.021-.032a.322.322,0,0,0,.04-.131c0-.036,0-.07,0-.105a.446.446,0,0,1,.032-.206l.032-.059-.006-.017a.747.747,0,0,0,.086-.236v-.01a.388.388,0,0,0-.015-.369l-.078-.082-.206-.192a.512.512,0,0,0-.588-.091.745.745,0,0,0-.322.329l-.07.156a2.323,2.323,0,0,0-.274.914c0,.065-.021.091-.036.1l-.046.042v.063a3.392,3.392,0,0,1-.057.493,2.973,2.973,0,0,0-.057.649c.013.236.01.476.008.714v.215c0,.046,0,.1-.008.145a1.13,1.13,0,0,0,.025.4,2.2,2.2,0,0,1,.074.615l.006.232a1.668,1.668,0,0,0,.05.449v.008a1.247,1.247,0,0,0,.049.5,1.055,1.055,0,0,1,.044.381l0,.021,0,.021a.42.42,0,0,0,.025.1c.015.044.027.088.04.137l.019.059a6.032,6.032,0,0,0,.192.756l.025.042a.389.389,0,0,1,.063.169,5.285,5.285,0,0,0,.263.834c.057.156.116.312.164.47a4.155,4.155,0,0,0,.31.695l.143.286a4.239,4.239,0,0,0,.4.695l.059.076a6.65,6.65,0,0,0,.748.861,2.144,2.144,0,0,0,.554.381.733.733,0,0,0,.278.084c.122,0,.2-.086.35-.28a.674.674,0,0,0-.068-.8A.389.389,0,0,1,567.547,422.126Z" transform="translate(-556.023 -391.341)" fill="#32667a"/>
  <path id="パス_392" data-name="パス 392" d="M608.437,426.928c-.114-.072-.221-.156-.328-.236a5.451,5.451,0,0,1-1.11-1.146,4.819,4.819,0,0,1-.623-1.184c-.017-.04-.009-.089-.046-.118h0a.7.7,0,0,0-.1-.257,7.788,7.788,0,0,1-.192-.777,3.875,3.875,0,0,1-.12-.838.338.338,0,0,1-.021-.2,7.057,7.057,0,0,1,.034-1.23,2.892,2.892,0,0,0-.072-.916,7.875,7.875,0,0,1,.055-1.354l-.008-.015.011-.011a.082.082,0,0,0,.029-.074,4.186,4.186,0,0,1,.072-.56.6.6,0,0,1,.008-.333.091.091,0,0,0,.023-.063.386.386,0,0,0,.07-.156,1.465,1.465,0,0,0,.1-.615.142.142,0,0,1,.01-.074,6.06,6.06,0,0,0,.305-1.063,5.17,5.17,0,0,0,.2-1.158.537.537,0,0,1,.03-.175,1.8,1.8,0,0,0,.078-.6,1.2,1.2,0,0,1,.034-.474.3.3,0,0,0,.082-.232,5.186,5.186,0,0,1,.07-.7c.057-.4.061-.8.107-1.2.078-.667.2-1.333.213-2a8.625,8.625,0,0,1,.156-1.047c.046-.305.08-.617.154-.922a3.967,3.967,0,0,0,.133-.741c.015-.268.114-.52.151-.781a.24.24,0,0,0,.08-.152,5.463,5.463,0,0,0-.021-.965,1.523,1.523,0,0,1-.3-.4.42.42,0,0,0-.7-.05,2.278,2.278,0,0,0-.227.335,15.783,15.783,0,0,0-.83,1.75,3.251,3.251,0,0,0-.187.7c-.053.314-.139.623-.175.939a8.171,8.171,0,0,0-.124.847.359.359,0,0,1-.095.2c-.061.23.019.489-.154.693a.393.393,0,0,0-.017.084,1.5,1.5,0,0,1-.053.474.905.905,0,0,0-.049.221c-.008.861-.219,1.7-.234,2.569a9.148,9.148,0,0,1-.116,1.331c-.084.512-.061,1.028-.12,1.539a6.758,6.758,0,0,0-.051.878,1.392,1.392,0,0,1-.027.476,3.292,3.292,0,0,0-.025.453,5.277,5.277,0,0,1-.278,1.681,8.477,8.477,0,0,0-.476,1.3.648.648,0,0,1-.044.27l-.013.027c-.149.343-.316.68-.457,1.028-.027.059-.055.118-.084.175a.447.447,0,0,0-.032.063c-.013.036-.025.072-.036.107a.388.388,0,0,0-.034.082l-.008.019-.027.057-.042.08-.021.042a.219.219,0,0,0-.04.076c-.013.025-.025.051-.04.076s-.021.04-.029.059l-.021.053a1.042,1.042,0,0,0-.107.217l-.034.057a.4.4,0,0,0-.032.057l-.021.042a.639.639,0,0,0-.034.067.748.748,0,0,1-.055.086.481.481,0,0,0-.034.055l-.046.084a.322.322,0,0,0-.032.059,1.709,1.709,0,0,1-.244.409c-.013.019-.027.038-.038.057l-.044.086a.577.577,0,0,0-.048.078l-.017.029a.26.26,0,0,0-.032.053l-.006.013a.085.085,0,0,0-.021.038l-.015.029-.029.051c-.021.032-.042.063-.065.095l-.034.048,0,.006a.208.208,0,0,0-.051.076l-.011.015-.032.048-.027.042-.008.015-.027.042a.411.411,0,0,0-.03.051l-.042.076-.032.051-.008.01c-.019.023-.038.046-.055.07l-.055.059-.021.023a.5.5,0,0,0-.042.053.5.5,0,0,0-.036.057l-.032.053q-.221.246-.448.486a.647.647,0,0,0-.055.055c-.027.032-.057.063-.086.093a3.918,3.918,0,0,1-.7.615,2.8,2.8,0,0,1-.615.28,1.154,1.154,0,0,1-1.55-.817c-.055-.086-.013-.181-.027-.272l-.013-.069c.017-.187-.1-.368-.017-.558a.4.4,0,0,0,.021-.072c.1-.221.009-.465.089-.691a3.017,3.017,0,0,0,.116-.415,9.031,9.031,0,0,1,.876-1.8,15.438,15.438,0,0,1,2.1-2.795.575.575,0,0,1,.592-.192c.2.08.2.343.187.541-.042.567-.006,1.133-.025,1.7a1.335,1.335,0,0,0,.124.64.346.346,0,0,0,.255.217.89.89,0,0,0,.594-.16c.067-.086.166-.141.225-.238a.457.457,0,0,0,.08-.208,15.274,15.274,0,0,0,.065-2.106,3.008,3.008,0,0,0-.16-.737,2.325,2.325,0,0,0-.916-1.091.282.282,0,0,0-.169-.044,2.128,2.128,0,0,0-1.592.6A10.683,10.683,0,0,0,599,419.753c-.356.459-.691.937-1,1.428a10.037,10.037,0,0,0-1.066,2.039,5.135,5.135,0,0,0-.369,1.775,5.437,5.437,0,0,0,.192,1.525,2.383,2.383,0,0,0,.657,1.087,4.346,4.346,0,0,0,.529.343l.358.095a.322.322,0,0,0,.232.086,3.594,3.594,0,0,0,1.388-.137l.217-.131-.011-.015h0l.011.015a.108.108,0,0,0,.1-.053l-.01-.013h0l0,0,.008.015a.471.471,0,0,0,.3-.154l-.008-.011h0l0,0,.006.013a1.577,1.577,0,0,0,.307-.2l-.013-.013h0l.01.013a.136.136,0,0,0,.11-.1,5.585,5.585,0,0,0,.861-.866l-.017-.013,0,0h0l.015.015a.056.056,0,0,0,.051-.051l-.017-.013,0,0h0l.015.015a.058.058,0,0,0,.05-.053l-.017-.011,0,0h0l.013.013a.058.058,0,0,0,.048-.055l-.015-.006,0,0h0l.011.008a.051.051,0,0,0,.044-.055l-.006-.006h0v0l.006.008a.1.1,0,0,0,.063-.091l-.017-.017h0l.017.017a.06.06,0,0,0,.04-.061l-.008-.006h0l0,0,.006.008a.238.238,0,0,0,.112-.143.826.826,0,0,0,.2-.305h0a.058.058,0,0,0,.046-.057l-.011-.008,0,0,.006.013a.053.053,0,0,0,.048-.053l-.008-.008h0l.008.008a.967.967,0,0,0,.211-.3l-.017-.013h0v0l.015.013a.055.055,0,0,0,.042-.059l-.008-.006h0v0l.008.008a2.465,2.465,0,0,0,.31-.5l-.013-.01h0l.013.01a.11.11,0,0,0,.055-.1l-.015-.011h0l.015.011a.3.3,0,0,0,.095-.156l-.008-.009h0v0l.008.011a.9.9,0,0,0,.206-.356l-.013-.008h0l.013.008a.357.357,0,0,0,.1-.2l-.01-.008h0l.01.008a.529.529,0,0,0,.1-.2l-.011-.006h0l.008.006a.1.1,0,0,0,.053-.1l-.008-.008h0v0l.008.011a.087.087,0,0,0,.057-.1l.105-.2h0a.455.455,0,0,0,.147-.31l-.015-.008,0,0h0l.013.011a.109.109,0,0,0,.051-.1.533.533,0,0,0,.1-.2l-.015-.011h0l.013.011a.084.084,0,0,0,.046-.1.621.621,0,0,0,.126-.242.087.087,0,0,1,.093-.069.092.092,0,0,1,.086.076c.019.067.046.133.07.2.021.143.031.289.055.432a.628.628,0,0,0,.08.406,1.971,1.971,0,0,0,.194.716h0c.07.109.023.251.095.36h0a1.3,1.3,0,0,0,.105.3h0a3.465,3.465,0,0,0,.4.817h0a.108.108,0,0,0,.059.1.541.541,0,0,0,.145.257.107.107,0,0,0,.061.1.229.229,0,0,0,.1.154.063.063,0,0,0,.048.057,1.218,1.218,0,0,0,.3.352.214.214,0,0,0,.1.154.058.058,0,0,0,.048.053.057.057,0,0,0,.059.046,3.88,3.88,0,0,0,1.7,1.125,1.173,1.173,0,0,0,.88-.171c.069-.036.072-.1.036-.175A1.62,1.62,0,0,0,608.437,426.928Zm-2.007-.088-.015-.021.015.021Zm-.514-.6a.062.062,0,0,0-.013-.029.062.062,0,0,1,.013.029Zm-.556-3.831.011,0,0,0v0h0v0h0Zm.16,3.176-.015-.006h0Zm-3.22-1.2a.1.1,0,0,1-.027.04Zm.112,1.285.015.015-.017-.015Zm3.458.516h0l.025.017Zm.5.615h0a.046.046,0,0,1,.03.01Z" transform="translate(-519.766 -399.299)" fill="#32667a"/>
  <path id="パス_393" data-name="パス 393" d="M612.731,419.193c-.112-.206-.217-.417-.341-.619a18.3,18.3,0,0,1-1.139-2.14,4.91,4.91,0,0,0-.215-.665l-.107-.436c-.11-.1-.093-.251-.118-.377a3.452,3.452,0,0,1-.179-.809,1.7,1.7,0,0,0-.337-1.064.543.543,0,0,0-.642-.257c-.036,0-.059.025-.086.042-.15.082-.183.065-.19-.107a.54.54,0,0,0-.036-.246.483.483,0,0,1-.044-.337l-.013-.015.009-.015a3.363,3.363,0,0,0-.1-.68c-.082-.112-.1-.259-.194-.366a.094.094,0,0,0-.05-.095.211.211,0,0,0-.1-.154.056.056,0,0,0-.048-.055.06.06,0,0,0-.048-.053.063.063,0,0,0-.049-.057h0c-.044-.063-.091-.122-.128-.187a1.106,1.106,0,0,0-.6-.476.956.956,0,0,0-.617-.065,2.34,2.34,0,0,0-1.064.646,10.99,10.99,0,0,0-.889,1.007c-.181.261-.381.516-.575.771a12.114,12.114,0,0,0-1.131,1.946,7.4,7.4,0,0,0-.8,2.22,1.578,1.578,0,0,0,0,1.019,1.041,1.041,0,0,1,.038.352,2.216,2.216,0,0,0,.208.929,5.887,5.887,0,0,0,.556.933,3.159,3.159,0,0,0,1.9,1.3,1.817,1.817,0,0,0,.32.076,2.872,2.872,0,0,0,2.106-.771,4.183,4.183,0,0,0,.55-.592,6.269,6.269,0,0,0,.939-1.7,9.279,9.279,0,0,0,.362-1.026c.015-.063.029-.168.126-.162.074,0,.1.089.118.154a1.09,1.09,0,0,0,.2.373.1.1,0,0,0,.046.091.813.813,0,0,0,.206.409.527.527,0,0,0,.158.251.059.059,0,0,0,.044.059,1.1,1.1,0,0,0,.156.3.23.23,0,0,0,.1.158.061.061,0,0,0,.048.055c.167.274.352.533.529.8a.72.72,0,0,0,.71.371A.5.5,0,0,0,612.731,419.193ZM608.8,410.8l.046.053h0a.138.138,0,0,1-.046-.053Zm-.1-.112a.061.061,0,0,0,.046.057v0a.063.063,0,0,1-.046-.059Zm.495,3.974a4.758,4.758,0,0,1-.16.843,7.268,7.268,0,0,1-.259,1.028c-.088.272-.156.552-.261.817-.074.188-.109.383-.194.569a4.245,4.245,0,0,1-1.055,1.5,3.164,3.164,0,0,1-.809.465.677.677,0,0,1-.5,0,1.921,1.921,0,0,1-.821-.482,3.8,3.8,0,0,1-.971-1.748,3.109,3.109,0,0,1,.105-1.314,9.374,9.374,0,0,1,.762-1.841,5.76,5.76,0,0,1,.415-.811c.234-.331.467-.663.716-.983.211-.276.415-.556.649-.813a3.589,3.589,0,0,1,.647-.6c.137-.091.173-.1.274.034a1.294,1.294,0,0,1,.251.491,2.11,2.11,0,0,0,.1.573,11.519,11.519,0,0,1,.019,1.293c0,.067-.006.135,0,.2a.5.5,0,0,0,.7.478C609.182,414.254,609.2,414.278,609.2,414.663Zm1.525,3.519h0l.021.015Zm.046.057-.011-.027.011.027Zm.3.512a.058.058,0,0,0-.048-.053h0a.05.05,0,0,1,.048.053Z" transform="translate(-512.86 -392.676)" fill="#32667a"/>
</svg>
