<svg xmlns="http://www.w3.org/2000/svg" width="306.5" height="101" viewBox="0 0 306.5 101">
  <g id="グループ_219" data-name="グループ 219" transform="translate(-34 -1883)">
    <circle id="楕円形_25" data-name="楕円形 25" cx="37.625" cy="37.625" r="37.625" transform="translate(48 1886.679)" fill="none" stroke="#ff583b" stroke-linejoin="round" stroke-width="1.5"/>
    <path id="パス_501" data-name="パス 501" d="M7955.937,7939.8l-9.981-6.317-9.978,6.317v10.737l9.978,6.318,9.981-6.318Z" transform="translate(-7870.399 -6014.028)" fill="none" stroke="#ff583b" stroke-linejoin="round" stroke-width="1.5"/>
    <path id="パス_502" data-name="パス 502" d="M7958.613,7935.228l-9.977-6.318-9.982,6.318v10.733l9.982,6.317,9.977-6.317Z" transform="translate(-7863.098 -6026.504)" fill="none" stroke="#ff583b" stroke-linejoin="round" stroke-width="1.5"/>
    <path id="パス_503" data-name="パス 503" d="M7961.292,7939.8l-9.979-6.317-9.978,6.317v10.737l9.978,6.318,9.979-6.318Z" transform="translate(-7855.801 -6014.028)" fill="none" stroke="#ff583b" stroke-linejoin="round" stroke-width="1.5"/>
    <path id="パス_504" data-name="パス 504" d="M7942.786,7935.959v4.932l4.583,2.9" transform="translate(-7851.852 -6007.281)" fill="none" stroke="#ff583b" stroke-linejoin="round" stroke-width="1.5"/>
    <line id="線_104" data-name="線 104" x1="53.046" y2="53.046" transform="translate(59.014 1897.693)" fill="none" stroke="#ff583b" stroke-linejoin="round" stroke-width="1.5"/>
    <text id="パラベン" transform="translate(85.03 1981.96)" fill="#ff583b" font-size="13" font-family="HiraginoSans-W5, Hiragino Sans" letter-spacing="0.08em"><tspan x="-27.56" y="0">パラベン</tspan></text>
    <circle id="楕円形_26" data-name="楕円形 26" cx="37.625" cy="37.625" r="37.625" transform="translate(149.875 1886.679)" fill="none" stroke="#ff583b" stroke-linejoin="round" stroke-width="1.5"/>
    <path id="長方形_56" data-name="長方形 56" d="M1.225,0H26.982a1.225,1.225,0,0,1,1.225,1.225V37.4a.621.621,0,0,1-.621.621H.621A.621.621,0,0,1,0,37.4V1.225A1.225,1.225,0,0,1,1.225,0Z" transform="translate(173.542 1907.814)" fill="none" stroke="#ff583b" stroke-linejoin="round" stroke-width="1.5"/>
    <rect id="長方形_57" data-name="長方形 57" width="14.427" height="5.218" transform="translate(180.432 1902.595)" fill="none" stroke="#ff583b" stroke-linejoin="round" stroke-width="1.5"/>
    <g id="グループ_187" data-name="グループ 187" transform="translate(173.542 1917.753)">
      <line id="線_105" data-name="線 105" x2="28.206" fill="none" stroke="#ff583b" stroke-linejoin="round" stroke-width="1.5"/>
      <line id="線_106" data-name="線 106" x2="28.206" transform="translate(0 16)" fill="none" stroke="#ff583b" stroke-linejoin="round" stroke-width="1.5"/>
    </g>
    <line id="線_107" data-name="線 107" x1="53.046" y2="53.046" transform="translate(161.122 1897.693)" fill="none" stroke="#ff583b" stroke-linejoin="round" stroke-width="1.5"/>
    <text id="アルコール" transform="translate(186.885 1981.96)" fill="#ff583b" font-size="13" font-family="HiraginoSans-W5, Hiragino Sans" letter-spacing="0.08em"><tspan x="-34.06" y="0">アルコール</tspan></text>
    <circle id="楕円形_27" data-name="楕円形 27" cx="37.625" cy="37.625" r="37.625" transform="translate(252.443 1886.679)" fill="none" stroke="#ff583b" stroke-linejoin="round" stroke-width="1.5"/>
    <path id="パス_505" data-name="パス 505" d="M8017.742,7929.288h-3.7a6.1,6.1,0,0,0-4.317,1.787l-14.7,14.7a6.112,6.112,0,0,0-1.79,4.317v10.7a9.3,9.3,0,0,0,9.3,9.3h17.079a9.3,9.3,0,0,0,9.3-9.3v-20.331A11.181,11.181,0,0,0,8017.742,7929.288Z" transform="translate(-7720.63 -6025.479)" fill="none" stroke="#ff583b" stroke-linejoin="round" stroke-width="1.5"/>
    <rect id="長方形_58" data-name="長方形 58" width="3.141" height="10.684" transform="translate(281.667 1908.584) rotate(45)" fill="none" stroke="#ff583b" stroke-linejoin="round" stroke-width="1.5"/>
    <rect id="長方形_59" data-name="長方形 59" width="3.464" height="7.008" transform="translate(277.918 1907.432) rotate(45)" fill="none" stroke="#ff583b" stroke-linejoin="round" stroke-width="1.5"/>
    <g id="グループ_190" data-name="グループ 190" transform="translate(282.062 1924.085)">
      <rect id="長方形_60" data-name="長方形 60" width="12.203" height="8.462" transform="translate(2.287 2.285)" fill="none" stroke="#ff583b" stroke-linejoin="round" stroke-width="1.5"/>
      <line id="線_108" data-name="線 108" y1="2.286" x2="2.286" transform="translate(14.49)" fill="none" stroke="#ff583b" stroke-linejoin="round" stroke-width="1.5"/>
      <line id="線_109" data-name="線 109" y1="2.286" x2="2.286" transform="translate(0 10.748)" fill="none" stroke="#ff583b" stroke-linejoin="round" stroke-width="1.5"/>
      <line id="線_110" data-name="線 110" x1="2.286" y1="2.286" fill="none" stroke="#ff583b" stroke-linejoin="round" stroke-width="1.5"/>
      <line id="線_111" data-name="線 111" x1="2.286" y1="2.286" transform="translate(14.49 10.748)" fill="none" stroke="#ff583b" stroke-linejoin="round" stroke-width="1.5"/>
    </g>
    <path id="パス_506" data-name="パス 506" d="M8011.062,7936.182a5.286,5.286,0,0,0-5.623-5.407h-2.257a5.287,5.287,0,0,0-5.612,5.405,3.218,3.218,0,0,0,3.3,2.975h6.9A3.212,3.212,0,0,0,8011.062,7936.182Z" transform="translate(-7708.837 -6021.418)" fill="none" stroke="#ff583b" stroke-linejoin="round" stroke-width="1.5"/>
    <line id="線_112" data-name="線 112" x1="53.046" y2="53.046" transform="translate(263.926 1897.693)" fill="none" stroke="#ff583b" stroke-linejoin="round" stroke-width="1.5"/>
    <text id="石油系界面活性剤" transform="translate(288.5 1981.96)" fill="#ff583b" font-size="12" font-family="HiraginoSans-W5, Hiragino Sans" letter-spacing="0.08em"><tspan x="-51.36" y="0">石油系界面活性剤</tspan></text>
    <rect id="長方形_74" data-name="長方形 74" width="306" height="101" transform="translate(34 1883)" fill="none"/>
  </g>
</svg>
