<svg xmlns="http://www.w3.org/2000/svg" width="306" height="219" viewBox="0 0 306 219">
  <g id="グループ_225" data-name="グループ 225" transform="translate(-43 -1864)">
    <g id="グループ_224" data-name="グループ 224" transform="translate(8 -2)">
      <g id="グループ_223" data-name="グループ 223">
        <circle id="楕円形_25" data-name="楕円形 25" cx="37.625" cy="37.625" r="37.625" transform="translate(48 1867)" fill="none" stroke="#ff583b" stroke-linejoin="round" stroke-width="1.5"/>
        <g id="グループ_185" data-name="グループ 185" transform="translate(65.579 1882.727)">
          <path id="パス_501" data-name="パス 501" d="M7955.937,7939.8l-9.981-6.317-9.978,6.317v10.737l9.978,6.318,9.981-6.318Z" transform="translate(-7935.978 -7916.434)" fill="none" stroke="#ff583b" stroke-linejoin="round" stroke-width="1.5"/>
          <path id="パス_502" data-name="パス 502" d="M7958.613,7935.228l-9.977-6.318-9.982,6.318v10.733l9.982,6.317,9.977-6.317Z" transform="translate(-7928.677 -7928.91)" fill="none" stroke="#ff583b" stroke-linejoin="round" stroke-width="1.5"/>
          <path id="パス_503" data-name="パス 503" d="M7961.292,7939.8l-9.979-6.317-9.978,6.317v10.737l9.978,6.318,9.979-6.318Z" transform="translate(-7921.38 -7916.434)" fill="none" stroke="#ff583b" stroke-linejoin="round" stroke-width="1.5"/>
          <path id="パス_504" data-name="パス 504" d="M7942.786,7935.959v4.932l4.583,2.9" transform="translate(-7917.431 -7909.687)" fill="none" stroke="#ff583b" stroke-linejoin="round" stroke-width="1.5"/>
        </g>
        <line id="線_104" data-name="線 104" x1="53.046" y2="53.046" transform="translate(59.014 1878.013)" fill="none" stroke="#ff583b" stroke-linejoin="round" stroke-width="1.5"/>
        <text id="パラベン" transform="translate(85.03 1962.281)" fill="#ff583b" font-size="13" font-family="HiraginoSans-W5, Hiragino Sans" letter-spacing="0.08em"><tspan x="-27.56" y="0">パラベン</tspan></text>
        <circle id="楕円形_26" data-name="楕円形 26" cx="37.625" cy="37.625" r="37.625" transform="translate(150.375 1867)" fill="none" stroke="#ff583b" stroke-linejoin="round" stroke-width="1.5"/>
        <g id="グループ_188" data-name="グループ 188" transform="translate(174.042 1882.916)">
          <path id="長方形_56" data-name="長方形 56" d="M1.225,0H26.982a1.225,1.225,0,0,1,1.225,1.225V37.4a.621.621,0,0,1-.621.621H.621A.621.621,0,0,1,0,37.4V1.225A1.225,1.225,0,0,1,1.225,0Z" transform="translate(0 5.219)" fill="none" stroke="#ff583b" stroke-linejoin="round" stroke-width="1.5"/>
          <rect id="長方形_57" data-name="長方形 57" width="14.427" height="5.218" transform="translate(6.889)" fill="none" stroke="#ff583b" stroke-linejoin="round" stroke-width="1.5"/>
          <g id="グループ_187" data-name="グループ 187" transform="translate(0 15.157)">
            <line id="線_105" data-name="線 105" x2="28.206" fill="none" stroke="#ff583b" stroke-linejoin="round" stroke-width="1.5"/>
            <line id="線_106" data-name="線 106" x2="28.206" transform="translate(0 16)" fill="none" stroke="#ff583b" stroke-linejoin="round" stroke-width="1.5"/>
          </g>
        </g>
        <line id="線_107" data-name="線 107" x1="53.046" y2="53.046" transform="translate(161.622 1878.013)" fill="none" stroke="#ff583b" stroke-linejoin="round" stroke-width="1.5"/>
        <text id="アルコール" transform="translate(187.385 1962.281)" fill="#ff583b" font-size="13" font-family="HiraginoSans-W5, Hiragino Sans" letter-spacing="0.08em"><tspan x="-34.06" y="0">アルコール</tspan></text>
        <circle id="楕円形_27" data-name="楕円形 27" cx="37.625" cy="37.625" r="37.625" transform="translate(252.749 1867)" fill="none" stroke="#ff583b" stroke-linejoin="round" stroke-width="1.5"/>
        <g id="グループ_191" data-name="グループ 191" transform="translate(272.911 1884.129)">
          <path id="パス_505" data-name="パス 505" d="M8017.742,7929.288h-3.7a6.1,6.1,0,0,0-4.317,1.787l-14.7,14.7a6.112,6.112,0,0,0-1.79,4.317v10.7a9.3,9.3,0,0,0,9.3,9.3h17.079a9.3,9.3,0,0,0,9.3-9.3v-20.331A11.181,11.181,0,0,0,8017.742,7929.288Z" transform="translate(-7993.235 -7929.288)" fill="none" stroke="#ff583b" stroke-linejoin="round" stroke-width="1.5"/>
          <rect id="長方形_58" data-name="長方形 58" width="3.141" height="10.684" transform="translate(9.061 4.775) rotate(45)" fill="none" stroke="#ff583b" stroke-linejoin="round" stroke-width="1.5"/>
          <rect id="長方形_59" data-name="長方形 59" width="3.464" height="7.008" transform="translate(5.312 3.624) rotate(45)" fill="none" stroke="#ff583b" stroke-linejoin="round" stroke-width="1.5"/>
          <g id="グループ_190" data-name="グループ 190" transform="translate(9.456 20.277)">
            <rect id="長方形_60" data-name="長方形 60" width="12.203" height="8.462" transform="translate(2.287 2.285)" fill="none" stroke="#ff583b" stroke-linejoin="round" stroke-width="1.5"/>
            <line id="線_108" data-name="線 108" y1="2.286" x2="2.286" transform="translate(14.49)" fill="none" stroke="#ff583b" stroke-linejoin="round" stroke-width="1.5"/>
            <line id="線_109" data-name="線 109" y1="2.286" x2="2.286" transform="translate(0 10.748)" fill="none" stroke="#ff583b" stroke-linejoin="round" stroke-width="1.5"/>
            <line id="線_110" data-name="線 110" x1="2.286" y1="2.286" fill="none" stroke="#ff583b" stroke-linejoin="round" stroke-width="1.5"/>
            <line id="線_111" data-name="線 111" x1="2.286" y1="2.286" transform="translate(14.49 10.748)" fill="none" stroke="#ff583b" stroke-linejoin="round" stroke-width="1.5"/>
          </g>
          <path id="パス_506" data-name="パス 506" d="M8011.062,7936.182a5.286,5.286,0,0,0-5.623-5.407h-2.257a5.287,5.287,0,0,0-5.612,5.405,3.218,3.218,0,0,0,3.3,2.975h6.9A3.212,3.212,0,0,0,8011.062,7936.182Z" transform="translate(-7981.442 -7925.227)" fill="none" stroke="#ff583b" stroke-linejoin="round" stroke-width="1.5"/>
        </g>
        <line id="線_112" data-name="線 112" x1="53.046" y2="53.046" transform="translate(264.231 1878.013)" fill="none" stroke="#ff583b" stroke-linejoin="round" stroke-width="1.5"/>
        <text id="鉱物油" transform="translate(288.806 1962.281)" fill="#ff583b" font-size="12" font-family="HiraginoSans-W5, Hiragino Sans" letter-spacing="0.08em"><tspan x="-18.96" y="0">鉱物油</tspan></text>
        <circle id="楕円形_28" data-name="楕円形 28" cx="37.625" cy="37.625" r="37.625" transform="translate(99.188 1986.398)" fill="none" stroke="#ff583b" stroke-linejoin="round" stroke-width="1.5"/>
        <g id="グループ_194" data-name="グループ 194" transform="translate(120.39 2002.383)">
          <rect id="長方形_61" data-name="長方形 61" width="7.606" height="9.013" transform="translate(12.016 2.145)" fill="none" stroke="#ff583b" stroke-linejoin="round" stroke-width="1.5"/>
          <circle id="楕円形_29" data-name="楕円形 29" cx="6.349" cy="6.349" r="6.349" transform="translate(23.699)" fill="none" stroke="#ff583b" stroke-linejoin="round" stroke-width="1.5"/>
          <rect id="長方形_62" data-name="長方形 62" width="14.494" height="5.106" transform="translate(8.572 11.159)" fill="none" stroke="#ff583b" stroke-linejoin="round" stroke-width="1.5"/>
          <rect id="長方形_63" data-name="長方形 63" width="4.076" height="1.846" transform="translate(19.622 5.639)" fill="none" stroke="#ff583b" stroke-linejoin="round" stroke-width="1.5"/>
          <rect id="長方形_64" data-name="長方形 64" width="10.193" height="3.531" transform="translate(10.722 39.132)" fill="none" stroke="#ff583b" stroke-linejoin="round" stroke-width="1.5"/>
          <rect id="長方形_65" data-name="長方形 65" width="31.638" height="22.86" rx="11.43" transform="translate(0 16.264)" fill="none" stroke="#ff583b" stroke-linejoin="round" stroke-width="1.5"/>
          <rect id="長方形_66" data-name="長方形 66" width="1.932" height="3.709" transform="translate(10.084 4.797)" fill="none" stroke="#ff583b" stroke-linejoin="round" stroke-width="1.5"/>
          <g id="グループ_193" data-name="グループ 193" transform="translate(4.211 3.58)">
            <line id="線_113" data-name="線 113" x1="2.55" y1="2.188" fill="none" stroke="#ff583b" stroke-linejoin="round" stroke-width="1.5"/>
            <line id="線_114" data-name="線 114" x1="2.55" y2="2.188" transform="translate(0 3.955)" fill="none" stroke="#ff583b" stroke-linejoin="round" stroke-width="1.5"/>
          </g>
        </g>
        <line id="線_115" data-name="線 115" x1="53.046" y2="53.046" transform="translate(110.318 1997.191)" fill="none" stroke="#ff583b" stroke-linejoin="round" stroke-width="1.5"/>
        <text id="合成香料" transform="translate(136.218 2081.679)" fill="#ff583b" font-size="13" font-family="HiraginoSans-W5, Hiragino Sans" letter-spacing="0.08em"><tspan x="-27.56" y="0">合成香料</tspan></text>
        <circle id="楕円形_21" data-name="楕円形 21" cx="37.625" cy="37.625" r="37.625" transform="translate(201.563 1986.398)" fill="none" stroke="#ff583b" stroke-linejoin="round" stroke-width="1.5"/>
        <g id="グループ_183" data-name="グループ 183" transform="translate(220.834 2002.66)">
          <path id="パス_500" data-name="パス 500" d="M8061.845,7929.111v9.374a13.843,13.843,0,0,1-1.594,6.454l-9.949,18.952a5,5,0,0,0,4.431,7.324h27.218a5,5,0,0,0,4.427-7.324l-9.949-18.952a13.894,13.894,0,0,1-1.592-6.454v-9.374" transform="translate(-8049.723 -7929.109)" fill="none" stroke="#ff583b" stroke-linejoin="round" stroke-width="1.5"/>
          <line id="線_101" data-name="線 101" x1="19.706" transform="translate(8.765)" fill="none" stroke="#ff583b" stroke-linejoin="round" stroke-width="1.5"/>
          <line id="線_102" data-name="線 102" x1="21.093" transform="translate(8.072 20.513)" fill="none" stroke="#ff583b" stroke-linejoin="round" stroke-width="1.5"/>
          <circle id="楕円形_22" data-name="楕円形 22" cx="2.116" cy="2.116" r="2.116" transform="translate(21.386 33.42)" fill="none" stroke="#ff583b" stroke-linejoin="round" stroke-width="1.5"/>
          <circle id="楕円形_23" data-name="楕円形 23" cx="1.804" cy="1.804" r="1.804" transform="translate(14.812 28.061)" fill="none" stroke="#ff583b" stroke-linejoin="round" stroke-width="1.5"/>
          <circle id="楕円形_24" data-name="楕円形 24" cx="1.153" cy="1.153" r="1.153" transform="translate(22.369 24.815)" fill="none" stroke="#ff583b" stroke-linejoin="round" stroke-width="1.5"/>
        </g>
        <line id="線_103" data-name="線 103" x1="53.046" y2="53.046" transform="translate(212.928 1997.191)" fill="none" stroke="#ff583b" stroke-linejoin="round" stroke-width="1.5"/>
        <text id="合成色素" transform="translate(239.596 2081.679)" fill="#ff583b" font-size="13" font-family="HiraginoSans-W5, Hiragino Sans" letter-spacing="0.08em"><tspan x="-27.56" y="0">合成色素</tspan></text>
      </g>
    </g>
    <rect id="長方形_74" data-name="長方形 74" width="306" height="219" transform="translate(43 1864)" fill="none"/>
  </g>
</svg>
