<svg xmlns="http://www.w3.org/2000/svg" width="375" height="232" viewBox="0 0 375 232">
  <g id="グループ_222" data-name="グループ 222" transform="translate(-228 -1156)">
    <g id="グループ_220" data-name="グループ 220" transform="translate(10)">
      <rect id="長方形_73" data-name="長方形 73" width="375" height="108" transform="translate(218 1203)" fill="none"/>
      <circle id="楕円形_25" data-name="楕円形 25" cx="40" cy="40" r="40" transform="translate(239 1207)" fill="none" stroke="#ff583b" stroke-linejoin="round" stroke-width="1.5"/>
      <g id="グループ_185" data-name="グループ 185" transform="translate(257.732 1223.759)">
        <path id="パス_501" data-name="パス 501" d="M7957.247,7940.215l-10.637-6.731-10.632,6.731v11.441l10.632,6.732,10.637-6.732Z" transform="translate(-7935.978 -7915.314)" fill="none" stroke="#ff583b" stroke-linejoin="round" stroke-width="1.5"/>
        <path id="パス_502" data-name="パス 502" d="M7959.923,7935.642l-10.632-6.732-10.637,6.732v11.438l10.637,6.732,10.632-6.732Z" transform="translate(-7928.022 -7928.909)" fill="none" stroke="#ff583b" stroke-linejoin="round" stroke-width="1.5"/>
        <path id="パス_503" data-name="パス 503" d="M7962.6,7940.215l-10.634-6.731-10.632,6.731v11.441l10.632,6.732,10.634-6.732Z" transform="translate(-7920.07 -7915.314)" fill="none" stroke="#ff583b" stroke-linejoin="round" stroke-width="1.5"/>
        <path id="パス_504" data-name="パス 504" d="M7942.785,7935.959v5.255l4.884,3.093" transform="translate(-7915.766 -7907.962)" fill="none" stroke="#ff583b" stroke-linejoin="round" stroke-width="1.5"/>
      </g>
      <line id="線_104" data-name="線 104" x1="56.527" y2="56.527" transform="translate(250.736 1218.736)" fill="none" stroke="#ff583b" stroke-linejoin="round" stroke-width="1.5"/>
      <text id="パラベン" transform="translate(279 1309)" fill="#ff583b" font-size="14" font-family="HiraginoSans-W5, Hiragino Sans" letter-spacing="0.08em"><tspan x="-29.68" y="0">パラベン</tspan></text>
      <circle id="楕円形_26" data-name="楕円形 26" cx="40" cy="40" r="40" transform="translate(366 1207)" fill="none" stroke="#ff583b" stroke-linejoin="round" stroke-width="1.5"/>
      <g id="グループ_188" data-name="グループ 188" transform="translate(390.971 1223.961)">
        <path id="長方形_56" data-name="長方形 56" d="M1.225,0H28.833a1.225,1.225,0,0,1,1.225,1.225V39.9a.621.621,0,0,1-.621.621H.621A.621.621,0,0,1,0,39.9V1.225A1.225,1.225,0,0,1,1.225,0Z" transform="translate(0 5.562)" fill="none" stroke="#ff583b" stroke-linejoin="round" stroke-width="1.5"/>
        <rect id="長方形_57" data-name="長方形 57" width="15.374" height="5.561" transform="translate(7.341)" fill="none" stroke="#ff583b" stroke-linejoin="round" stroke-width="1.5"/>
        <g id="グループ_187" data-name="グループ 187" transform="translate(0 16.152)">
          <line id="線_105" data-name="線 105" x2="30.057" fill="none" stroke="#ff583b" stroke-linejoin="round" stroke-width="1.5"/>
          <line id="線_106" data-name="線 106" x2="30.057" transform="translate(0 17.05)" fill="none" stroke="#ff583b" stroke-linejoin="round" stroke-width="1.5"/>
        </g>
      </g>
      <line id="線_107" data-name="線 107" x1="56.527" y2="56.527" transform="translate(377.736 1218.736)" fill="none" stroke="#ff583b" stroke-linejoin="round" stroke-width="1.5"/>
      <text id="アルコール" transform="translate(406 1309)" fill="#ff583b" font-size="14" font-family="HiraginoSans-W5, Hiragino Sans" letter-spacing="0.08em"><tspan x="-36.68" y="0">アルコール</tspan></text>
      <circle id="楕円形_27" data-name="楕円形 27" cx="40" cy="40" r="40" transform="translate(493 1207)" fill="none" stroke="#ff583b" stroke-linejoin="round" stroke-width="1.5"/>
      <g id="グループ_191" data-name="グループ 191" transform="translate(513.985 1225.254)">
        <path id="パス_505" data-name="パス 505" d="M8019.351,7929.287h-3.942a6.5,6.5,0,0,0-4.6,1.9l-15.666,15.667a6.512,6.512,0,0,0-1.906,4.6v11.406a9.911,9.911,0,0,0,9.914,9.911h18.2a9.911,9.911,0,0,0,9.915-9.911V7941.2A11.914,11.914,0,0,0,8019.351,7929.287Z" transform="translate(-7993.235 -7929.287)" fill="none" stroke="#ff583b" stroke-linejoin="round" stroke-width="1.5"/>
        <rect id="長方形_58" data-name="長方形 58" width="3.348" height="11.385" transform="translate(9.656 5.089) rotate(45)" fill="none" stroke="#ff583b" stroke-linejoin="round" stroke-width="1.5"/>
        <rect id="長方形_59" data-name="長方形 59" width="3.691" height="7.468" transform="translate(5.661 3.862) rotate(45)" fill="none" stroke="#ff583b" stroke-linejoin="round" stroke-width="1.5"/>
        <g id="グループ_190" data-name="グループ 190" transform="translate(10.077 21.607)">
          <rect id="長方形_60" data-name="長方形 60" width="13.004" height="9.017" transform="translate(2.437 2.435)" fill="none" stroke="#ff583b" stroke-linejoin="round" stroke-width="1.5"/>
          <line id="線_108" data-name="線 108" y1="2.436" x2="2.436" transform="translate(15.441)" fill="none" stroke="#ff583b" stroke-linejoin="round" stroke-width="1.5"/>
          <line id="線_109" data-name="線 109" y1="2.436" x2="2.436" transform="translate(0 11.453)" fill="none" stroke="#ff583b" stroke-linejoin="round" stroke-width="1.5"/>
          <line id="線_110" data-name="線 110" x1="2.436" y1="2.436" fill="none" stroke="#ff583b" stroke-linejoin="round" stroke-width="1.5"/>
          <line id="線_111" data-name="線 111" x1="2.436" y1="2.436" transform="translate(15.441 11.453)" fill="none" stroke="#ff583b" stroke-linejoin="round" stroke-width="1.5"/>
        </g>
        <path id="パス_506" data-name="パス 506" d="M8011.946,7936.536a5.633,5.633,0,0,0-5.992-5.762h-2.4a5.634,5.634,0,0,0-5.98,5.76,3.428,3.428,0,0,0,3.517,3.17h7.35A3.422,3.422,0,0,0,8011.946,7936.536Z" transform="translate(-7980.383 -7924.862)" fill="none" stroke="#ff583b" stroke-linejoin="round" stroke-width="1.5"/>
      </g>
      <line id="線_112" data-name="線 112" x1="56.527" y2="56.527" transform="translate(504.736 1218.736)" fill="none" stroke="#ff583b" stroke-linejoin="round" stroke-width="1.5"/>
      <text id="石油系界面活性剤" transform="translate(533 1309)" fill="#ff583b" font-size="14" font-family="HiraginoSans-W5, Hiragino Sans" letter-spacing="0.08em"><tspan x="-59.92" y="0">石油系界面活性剤</tspan></text>
    </g>
    <rect id="長方形_76" data-name="長方形 76" width="375" height="232" transform="translate(228 1156)" fill="none"/>
  </g>
</svg>
