<svg xmlns="http://www.w3.org/2000/svg" width="95.987" height="61.869" viewBox="0 0 95.987 61.869">
  <g id="グループ_206" data-name="グループ 206" transform="translate(-1061.322 -168.222)">
    <g id="グループ_178" data-name="グループ 178" transform="translate(1080.715 194.725)">
      <path id="パス_480" data-name="パス 480" d="M251.088,22.379v6.1h-1.91v-6.1l-5.625-6.645h2.384l4.2,4.969,4.2-4.969h2.349Z" transform="translate(-243.553 -15.734)" fill="#f7f8f8"/>
      <path id="パス_481" data-name="パス 481" d="M264.524,27.292a6.908,6.908,0,0,1-8.626,0,4.511,4.511,0,0,1-1.8-3.584V15.734h1.913v7.973a3.1,3.1,0,0,0,1.237,2.476A4.384,4.384,0,0,0,260.21,27.2a4.43,4.43,0,0,0,2.967-1.019,3.138,3.138,0,0,0,1.239-2.476V15.734h1.91v7.973A4.477,4.477,0,0,1,264.524,27.292Z" transform="translate(-238.533 -15.734)" fill="#f7f8f8"/>
      <path id="パス_482" data-name="パス 482" d="M277.962,28.475V17.792L273.3,28.475h-2.039l-4.677-10.74v10.74h-1.913V15.734h3.059l4.534,10.412,4.55-10.412h3.057V28.475Z" transform="translate(-233.495 -15.734)" fill="#f7f8f8"/>
      <path id="パス_483" data-name="パス 483" d="M277.384,28.475V15.734H279.3V28.475Z" transform="translate(-227.441 -15.734)" fill="#f7f8f8"/>
    </g>
    <g id="グループ_179" data-name="グループ 179" transform="translate(1067.299 216.715)">
      <path id="パス_484" data-name="パス 484" d="M245.587,43.581l-1.256-2.858H237.76l-1.274,2.858h-2.021l5.57-12.743h2.04l5.568,12.743Zm-4.534-10.412-2.62,5.951h5.205Z" transform="translate(-234.465 -30.531)" fill="#f7f8f8"/>
      <path id="パス_485" data-name="パス 485" d="M256.6,41.724a8.172,8.172,0,0,1-5.388,1.857h-5.734V30.838h5.734a8.07,8.07,0,0,1,5.388,1.876,5.624,5.624,0,0,1,0,9.01Zm-1.346-7.882a6.092,6.092,0,0,0-4.042-1.4h-3.821V42h3.821a6.18,6.18,0,0,0,4.042-1.4,4.293,4.293,0,0,0,1.693-3.387A4.241,4.241,0,0,0,255.255,33.842Z" transform="translate(-229.22 -30.531)" fill="#f7f8f8"/>
      <path id="パス_486" data-name="パス 486" d="M266.887,43.581l-1.256-2.858H259.06l-1.274,2.858h-2.019l5.568-12.743h2.04l5.57,12.743Zm-4.532-10.412-2.62,5.951h5.205Z" transform="translate(-224.32 -30.531)" fill="#f7f8f8"/>
      <path id="パス_487" data-name="パス 487" d="M273.9,44.006a8.712,8.712,0,0,1-5.7-1.965,6.03,6.03,0,0,1-2.329-4.733,5.941,5.941,0,0,1,2.329-4.714,8.624,8.624,0,0,1,5.7-1.965,8.538,8.538,0,0,1,5.661,1.946L278.2,33.687a7.015,7.015,0,0,0-8.629.018,4.532,4.532,0,0,0,0,7.207,6.523,6.523,0,0,0,4.333,1.494,6.667,6.667,0,0,0,4.3-1.457l1.365,1.092A8.527,8.527,0,0,1,273.9,44.006Z" transform="translate(-219.505 -30.63)" fill="#f7f8f8"/>
      <path id="パス_488" data-name="パス 488" d="M287.752,43.581v-5.57h-8.41v5.57H277.43V30.838h1.912v5.571h8.41V30.838h1.91V43.581Z" transform="translate(-214.003 -30.531)" fill="#f7f8f8"/>
      <path id="パス_489" data-name="パス 489" d="M288.132,43.581V30.838h1.912V43.581Z" transform="translate(-208.906 -30.531)" fill="#f7f8f8"/>
    </g>
    <g id="グループ_181" data-name="グループ 181" transform="translate(1061.322 168.222)">
      <path id="パス_490" data-name="パス 490" d="M3973.41,6151.579a3.6,3.6,0,0,1-1.056,1.888l-2.05,1.984,2.409,2.49-.854.826-5.511-5.693,2.9-2.811a3.491,3.491,0,0,1,1.9-.986,1.958,1.958,0,0,1,1.785.526A1.922,1.922,0,0,1,3973.41,6151.579Zm-2.374-1.215a2.286,2.286,0,0,0-1.091.613l-2.049,1.985,1.716,1.773,2.05-1.984a2.176,2.176,0,0,0,.642-1.079,1.035,1.035,0,0,0-.222-1.043A1.048,1.048,0,0,0,3971.036,6150.363Z" transform="translate(-3966.348 -6132.263)" fill="#f7f8f8"/>
      <path id="パス_491" data-name="パス 491" d="M3988.531,6145.126l-3.357-1.047a2.07,2.07,0,0,0-1.845.439l-1.171.812,1.973,2.846-.978.678-4.514-6.513,3.321-2.3a3.49,3.49,0,0,1,2.032-.665,1.959,1.959,0,0,1,1.676.808,1.826,1.826,0,0,1,.281,1.458,3.192,3.192,0,0,1-.821,1.521c.2-.121.6-.084,1.208.112l3.357,1.047Zm-4.828-4.7a2.277,2.277,0,0,0-1.175.429l-2.345,1.625,1.406,2.029,2.344-1.626a2.185,2.185,0,0,0,.808-.959,1.04,1.04,0,0,0-.05-1.067A1.051,1.051,0,0,0,3983.7,6140.428Z" transform="translate(-3970.909 -6128.599)" fill="#f7f8f8"/>
      <path id="パス_492" data-name="パス 492" d="M4004.329,6135.807a5.306,5.306,0,0,1-2.719,2.547,5.366,5.366,0,0,1-3.734.322,3.714,3.714,0,0,1-2.392-5.378,5.755,5.755,0,0,1,6.454-2.87,3.678,3.678,0,0,1,2.391,5.379Zm-2.871-4.4a4.358,4.358,0,0,0-4.914,2.185,2.819,2.819,0,0,0,1.822,4.1,4.05,4.05,0,0,0,2.838-.248,4.093,4.093,0,0,0,2.074-1.937,2.812,2.812,0,0,0,.114-2.5A2.844,2.844,0,0,0,4001.458,6131.41Z" transform="translate(-3976.994 -6125.207)" fill="#f7f8f8"/>
      <path id="パス_493" data-name="パス 493" d="M4021.5,6130.892a5.082,5.082,0,0,1-3.017,1.86l-3.479.781-1.734-7.733,3.479-.781a5.026,5.026,0,0,1,3.525.405,3.5,3.5,0,0,1,1.226,5.467Zm-1.89-4.6a3.788,3.788,0,0,0-2.643-.3l-2.32.52,1.3,5.8,2.319-.52a3.847,3.847,0,0,0,2.261-1.4,2.67,2.67,0,0,0,.567-2.285A2.635,2.635,0,0,0,4019.614,6126.293Z" transform="translate(-3983.763 -6123.218)" fill="#f7f8f8"/>
      <path id="パス_494" data-name="パス 494" d="M4038.876,6129.468a4.294,4.294,0,0,1-5.36.22,2.8,2.8,0,0,1-1.212-2.181l-.2-4.954,1.187-.049.205,4.954a1.925,1.925,0,0,0,.832,1.506,2.722,2.722,0,0,0,1.87.558,2.757,2.757,0,0,0,1.818-.709,1.955,1.955,0,0,0,.706-1.57l-.2-4.955,1.188-.048.2,4.953A2.786,2.786,0,0,1,4038.876,6129.468Z" transform="translate(-3990.75 -6122.241)" fill="#f7f8f8"/>
      <path id="パス_495" data-name="パス 495" d="M4053.385,6131.408a5.417,5.417,0,0,1-3.345-1.691A3.749,3.749,0,0,1,4049,6126.6a3.7,3.7,0,0,1,1.833-2.709,5.376,5.376,0,0,1,3.676-.731,5.307,5.307,0,0,1,3.324,1.678l-.935.569a4.363,4.363,0,0,0-5.318-.716,2.818,2.818,0,0,0-.606,4.441,4.058,4.058,0,0,0,2.544,1.286,4.154,4.154,0,0,0,2.769-.536l.749.788A5.309,5.309,0,0,1,4053.385,6131.408Z" transform="translate(-3997.011 -6122.561)" fill="#f7f8f8"/>
      <path id="パス_496" data-name="パス 496" d="M4065.374,6133.269l2.414-7.547,6.34,2.029-.3.949-5.207-1.667-.752,2.35,4.075,1.3-.3.948-4.075-1.3-.756,2.36,5.208,1.667-.3.938Z" transform="translate(-4003.099 -6123.533)" fill="#f7f8f8"/>
      <path id="パス_497" data-name="パス 497" d="M4094.57,6146.617a3.542,3.542,0,0,1-2.064-.644l-3.546-2.4,4.436-6.566,3.349,2.262a3.484,3.484,0,0,1,1.356,1.653,1.963,1.963,0,0,1-.146,1.856,1.769,1.769,0,0,1-2.143.6,1.839,1.839,0,0,1,.4,2.4A1.923,1.923,0,0,1,4094.57,6146.617Zm.695-2.564a2.205,2.205,0,0,0-.82-.95l-2.562-1.73-1.388,2.054,2.562,1.73a2.248,2.248,0,0,0,1.186.405,1.017,1.017,0,0,0,1.021-1.51Zm1.749-3.013a2.286,2.286,0,0,0-.827-.94l-2.364-1.6-1.381,2.045,2.364,1.6a2.189,2.189,0,0,0,1.188.406,1.038,1.038,0,0,0,.976-.433A1.05,1.05,0,0,0,4097.014,6141.04Z" transform="translate(-4011.852 -6127.723)" fill="#f7f8f8"/>
      <path id="パス_498" data-name="パス 498" d="M4108.383,6152.842l-2.616,2.746-.859-.819,2.615-2.747.316-5.4,1.074,1.023-.238,4.041,4.025-.434,1.057,1.006Z" transform="translate(-4017.77 -6131.287)" fill="#f7f8f8"/>
    </g>
  </g>
</svg>
