<?xml version="1.0" encoding="utf-8"?>
<!-- Generator: Adobe Illustrator 25.4.1, SVG Export Plug-In . SVG Version: 6.00 Build 0)  -->
<svg version="1.1" id="レイヤー_1" xmlns="http://www.w3.org/2000/svg" xmlns:xlink="http://www.w3.org/1999/xlink" x="0px"
	 y="0px" viewBox="0 0 100 62" style="enable-background:new 0 0 100 62;" xml:space="preserve">
<style type="text/css">
	.st0{fill:#F8F9F9;}
</style>
<g id="グループ_180" transform="translate(1052.299 196.725)">
	<g id="グループ_178" transform="translate(13.416 0)">
		<path id="パス_480" class="st0" d="M-1036.8-163.5v6.1h-1.9v-6.1l-5.6-6.6h2.4l4.2,5l4.2-5h2.3L-1036.8-163.5z"/>
		<path id="パス_481" class="st0" d="M-1018.3-158.6c-2.5,2-6.1,2-8.6,0c-1.1-0.8-1.8-2.2-1.8-3.6v-8h1.9v8c0,1,0.5,1.9,1.2,2.5
			c0.8,0.7,1.9,1.1,3,1c1.1,0,2.1-0.3,3-1c0.8-0.6,1.2-1.5,1.2-2.5v-8h1.9v8C-1016.5-160.8-1017.2-159.4-1018.3-158.6z"/>
		<path id="パス_482" class="st0" d="M-999.8-157.4v-10.7l-4.7,10.7h-2l-4.7-10.7v10.7h-1.9v-12.7h3.1l4.5,10.4l4.5-10.4h3.1v12.7
			H-999.8z"/>
		<path id="パス_483" class="st0" d="M-994.4-157.4v-12.7h1.9v12.7H-994.4z"/>
	</g>
	<g id="グループ_179" transform="translate(0 21.99)">
		<path id="パス_484" class="st0" d="M-1033.2-157.1l-1.3-2.9h-6.6l-1.3,2.9h-2l5.6-12.7h2l5.6,12.7H-1033.2z M-1037.7-167.5
			l-2.6,6h5.2L-1037.7-167.5z"/>
		<path id="パス_485" class="st0" d="M-1016.9-159c-1.5,1.2-3.4,1.9-5.4,1.9h-5.7v-12.7h5.7c2-0.1,3.9,0.6,5.4,1.9
			c2.5,1.9,3,5.4,1.1,7.9C-1016.1-159.7-1016.5-159.3-1016.9-159z M-1018.3-166.8c-1.1-0.9-2.6-1.4-4-1.4h-3.8v9.6h3.8
			c1.5,0,2.9-0.5,4-1.4c1.1-0.8,1.7-2.1,1.7-3.4C-1016.6-164.8-1017.2-166-1018.3-166.8L-1018.3-166.8z"/>
		<path id="パス_486" class="st0" d="M-1001.7-157.1l-1.3-2.9h-6.6l-1.3,2.9h-2l5.6-12.7h2l5.6,12.7H-1001.7z M-1006.3-167.5
			l-2.6,6h5.2L-1006.3-167.5z"/>
		<path id="パス_487" class="st0" d="M-989.9-156.8c-2.1,0-4.1-0.7-5.7-2c-1.5-1.1-2.3-2.9-2.3-4.7c0-1.8,0.9-3.6,2.3-4.7
			c1.6-1.3,3.6-2,5.7-2c2.1-0.1,4.1,0.6,5.7,1.9l-1.4,1.1c-2.5-2-6.1-2-8.6,0c-2,1.5-2.4,4.4-0.9,6.4c0.2,0.3,0.5,0.6,0.9,0.9
			c1.2,1,2.8,1.5,4.3,1.5c1.6,0,3.1-0.5,4.3-1.5l1.4,1.1C-985.8-157.4-987.9-156.7-989.9-156.8z"/>
		<path id="パス_488" class="st0" d="M-970.6-157.1v-5.6h-8.4v5.6h-1.9v-12.7h1.9v5.6h8.4v-5.6h1.9v12.7H-970.6z"/>
		<path id="パス_489" class="st0" d="M-965.1-157.1v-12.7h1.9v12.7H-965.1z"/>
	</g>
</g>
<path id="パス_490" class="st0" d="M7.3,20.4c-0.1,0.7-0.4,1.4-0.9,2l-1.9,2.1l2.6,2.3l-0.8,0.9l-6-5.2l2.7-3
	c0.5-0.6,1.1-1,1.8-1.1c0.6-0.2,1.3,0,1.8,0.4C7.2,19.1,7.4,19.8,7.3,20.4z M4.8,19.4c-0.4,0.1-0.8,0.4-1,0.7l-1.9,2.1l1.9,1.6
	l1.9-2.1C6,21.4,6.1,21,6.2,20.6c0.1-0.4,0-0.8-0.3-1C5.6,19.3,5.2,19.3,4.8,19.4L4.8,19.4z"/>
<path id="パス_491" class="st0" d="M17.5,17.4l-3.4-0.9c-0.7-0.1-1.3,0.1-1.8,0.5l-1.1,0.9l2.1,2.8l-0.9,0.7l-4.8-6.3l3.2-2.4
	c0.6-0.5,1.3-0.7,2-0.7c0.7-0.1,1.3,0.2,1.7,0.7c0.3,0.4,0.4,0.9,0.3,1.4c-0.1,0.6-0.4,1.1-0.8,1.6c0.2-0.1,0.6-0.1,1.2,0.1l3.4,0.9
	L17.5,17.4z M12.5,12.9c-0.4,0-0.8,0.2-1.2,0.5l-2.3,1.7l1.5,2l2.3-1.7c0.3-0.2,0.6-0.6,0.8-1c0.2-0.3,0.1-0.8-0.1-1.1
	C13.3,13,12.9,12.9,12.5,12.9L12.5,12.9z"/>
<path id="パス_492" class="st0" d="M26.6,11.4c-0.6,1.1-1.5,2.1-2.7,2.5c-1.2,0.6-2.5,0.7-3.7,0.3c-2-0.5-3.2-2.5-2.7-4.5
	c0.1-0.3,0.2-0.6,0.3-0.9C19,6.6,21.7,5.4,24.2,6c2,0.5,3.2,2.4,2.8,4.4C26.9,10.8,26.8,11.1,26.6,11.4L26.6,11.4z M23.7,7
	c-1.9-0.5-4,0.4-4.9,2.2c-0.7,1.4-0.3,3.1,1.1,3.8c0.2,0.1,0.5,0.2,0.7,0.3c0.9,0.3,2,0.2,2.8-0.2c0.9-0.4,1.6-1.1,2.1-1.9
	c0.4-0.8,0.5-1.7,0.1-2.5C25.3,7.8,24.6,7.2,23.7,7L23.7,7z"/>
<path id="パス_493" class="st0" d="M37.3,8.2c-0.7,1-1.7,1.7-2.9,2l-3.4,1l-2.2-7.6l3.4-1c1.2-0.4,2.4-0.3,3.5,0.2
	c1.8,0.7,2.7,2.7,2,4.5C37.7,7.7,37.5,7.9,37.3,8.2L37.3,8.2z M35.2,3.7c-0.8-0.4-1.8-0.4-2.7-0.2l-2.3,0.6l1.6,5.7l2.3-0.6
	c0.9-0.2,1.7-0.8,2.2-1.5c0.5-0.7,0.7-1.5,0.4-2.3C36.5,4.7,35.9,4,35.2,3.7L35.2,3.7z"/>
<path id="パス_493_00000148657693446707776140000011006062999172632992_" class="st0" d="M77.7,13.6c-1.2,0.3-2.4,0.3-3.5-0.2
	L70.8,12l3.1-7.3l3.3,1.4c1.1,0.4,2.1,1.3,2.6,2.4c1,1.7,0.4,3.8-1.3,4.8C78.3,13.4,78,13.5,77.7,13.6L77.7,13.6z M78.8,8.8
	c-0.4-0.8-1.1-1.4-2-1.8l-2.2-0.9l-2.3,5.5l2.2,0.9c0.8,0.4,1.8,0.4,2.7,0.2c0.8-0.2,1.5-0.8,1.8-1.5C79.3,10.4,79.2,9.5,78.8,8.8
	L78.8,8.8z"/>
<path id="パス_494" class="st0" d="M47.4,7.5C45.9,8.8,43.7,9,42,7.9c-0.7-0.5-1.2-1.3-1.3-2.1l-0.4-4.9l1.2-0.1l0.4,4.9
	c0,0.6,0.4,1.1,0.9,1.5c0.5,0.4,1.2,0.6,1.9,0.5c0.7,0,1.3-0.3,1.8-0.8c0.5-0.4,0.7-1,0.6-1.6l-0.4-4.9l1.2-0.1l0.4,4.9
	C48.4,6,48,6.9,47.4,7.5z"/>
<path id="パス_495" class="st0" d="M55.4,8.5c-1.3-0.1-2.5-0.7-3.3-1.7c-0.8-0.8-1.2-2-1-3.1c0.2-1.1,0.8-2.1,1.8-2.7
	c1.1-0.7,2.4-0.9,3.7-0.7C57.8,0.4,59,1,59.9,2l-0.9,0.6c-1.4-1.4-3.6-1.7-5.3-0.7c-1.4,0.8-1.8,2.5-1.1,3.8
	c0.1,0.2,0.3,0.4,0.5,0.6c0.7,0.7,1.6,1.2,2.5,1.3c1,0.1,1.9,0,2.8-0.5l0.7,0.8C58,8.5,56.7,8.7,55.4,8.5z"/>
<path id="パス_496" class="st0" d="M61.5,9.1l2.4-7.5l6.3,2l-0.3,0.9l-5.2-1.7l-0.8,2.4L68,6.5l-0.3,0.9l-4.1-1.3l-0.8,2.4
	l5.2,1.7l-0.3,0.9L61.5,9.1z"/>
<path id="パス_497" class="st0" d="M88.1,21.4c-0.7,0-1.4-0.3-2-0.8L82.7,18l4.9-6.2l3.2,2.5c0.6,0.4,1,1.1,1.2,1.7
	c0.2,0.6,0.1,1.3-0.3,1.8c-0.5,0.6-1.4,0.8-2.2,0.4c0.7,0.6,0.8,1.7,0.2,2.4C89.4,21.2,88.7,21.5,88.1,21.4z M89,18.9
	c-0.1-0.4-0.4-0.8-0.7-1L85.8,16l-1.5,1.9l2.4,1.9c0.3,0.3,0.7,0.4,1.2,0.5c0.5,0.1,1.1-0.2,1.2-0.8C89.1,19.3,89.1,19.1,89,18.9
	L89,18.9z M90.9,16c-0.2-0.4-0.4-0.7-0.8-1L88,13.3l-1.5,1.9l2.2,1.8c0.3,0.3,0.7,0.4,1.2,0.5c0.4,0.1,0.8-0.1,1-0.4
	C91.1,16.8,91.1,16.4,90.9,16z"/>
<path id="パス_498" class="st0" d="M94.4,23.7l-2.7,2.6l-0.8-0.9l2.7-2.6l0.6-5.4l1,1.1l-0.4,4l4-0.2l1,1.1L94.4,23.7z"/>
</svg>
